<?xml version="1.0" encoding="utf-8"?>
<!-- Generator: Adobe Illustrator 19.0.0, SVG Export Plug-In . SVG Version: 6.00 Build 0)  -->
<svg version="1.1" id="Layer_1" xmlns="http://www.w3.org/2000/svg" xmlns:xlink="http://www.w3.org/1999/xlink" x="0px" y="0px"
	 viewBox="472 42 342.1 197.9" style="enable-background:new 472 42 342.1 197.9;" xml:space="preserve">
<style type="text/css">
	.st0{fill:#0086CB;}
	.st1{fill:#ADB2B7;}
	.st2{display:none;}
	.st3{display:inline;fill:#0078D6;}
	.st4{fill:#00AEEF;}
	.st5{fill:#353535;}
	.st6{fill:#C53C02;}
	.st7{fill:#751B00;}
	.st8{fill:#265A8F;}
	.st9{fill:#162F51;}
	.st10{fill:#FDEE00;}
	.st11{fill:#ECC700;}
	.st12{display:inline;fill:none;stroke:#000000;stroke-miterlimit:10;}
	.st13{display:inline;}
	.st14{clip-path:url(#SVGID_2_);}
	.st15{clip-path:url(#SVGID_4_);}
	.st16{clip-path:url(#SVGID_6_);}
	.st17{clip-path:url(#SVGID_8_);}
	.st18{clip-path:url(#SVGID_10_);}
	.st19{clip-path:url(#SVGID_12_);}
	.st20{clip-path:url(#SVGID_14_);}
	.st21{clip-path:url(#SVGID_16_);}
	.st22{font-family:'ArialMT';}
	.st23{font-size:12px;}
	.st24{clip-path:url(#SVGID_18_);fill:none;stroke:#000000;stroke-miterlimit:10;}
	.st25{clip-path:url(#SVGID_20_);fill:none;stroke:#000000;stroke-miterlimit:10;}
	.st26{clip-path:url(#SVGID_22_);fill:none;stroke:#000000;stroke-miterlimit:10;}
	.st27{enable-background:new    ;}
</style>
<g>
	<g>
		<path class="st0" d="M625.1,205.9c-4.4,0-8.4,1.8-11.4,4.7c-2.9,2.9-4.7,6.9-4.7,11.4c0,4.4,1.8,8.4,4.7,11.4
			c2.9,2.9,6.9,4.7,11.4,4.7c4.4,0,8.4-1.8,11.4-4.7c2.9-2.9,4.7-6.9,4.7-11.4c0-4.4-1.8-8.4-4.7-11.4
			C633.5,207.7,629.5,205.9,625.1,205.9 M637.7,209.3L637.7,209.3 M625.1,203.9c9.9,0,18,8.1,18,18c0,9.9-8.1,18-18,18
			c-9.9,0-18-8.1-18-18C607.1,212,615.1,203.9,625.1,203.9 M612.4,209.3L612.4,209.3"/>
		<path class="st0" d="M616.5,221.8c0-1.1-0.7-1.6-1.7-1.6h-0.6v3.3h0.6C615.8,223.4,616.5,222.9,616.5,221.8 M627.3,223l-4.4,3.5
			l-4.1-3.2c-0.6,1.4-2,2.4-3.6,2.4h-3.5v-7.7h3.5c1.8,0,3.1,1.2,3.6,2.4l4.1-3.2l1.5,1.2l-3.7,2.9l0.7,0.6l3.7-2.9l1.5,1.2
			l-3.7,2.9l0.7,0.6l3.7-2.9v-2.7h2.7v5.5h2.7v2.3h-5.4V223L627.3,223z M636.1,223.4h2.7v2.3h-5.4v-7.7h2.7V223.4z"/>
		<rect x="651.7" y="203.9" class="st1" width="0.9" height="36"/>
	</g>
	<g class="st2">
		<path class="st3" d="M652.1,212.5l11.1-1.5v10.7h-11.1 M664.6,210.8l14.7-2.1v13h-14.7 M652.1,222.9h11.1v10.8l-11.1-1.6
			 M664.6,223h14.7v12.9l-14.7-2.1"/>
		<path class="st3" d="M688.2,214c0.7,0,1.3,0,2,0c1,3.8,2.1,7.6,3.1,11.4c0.2,0.8,0.4,1.6,0.5,2.4c1.1-4.6,2.6-9.2,3.8-13.8
			c0.6,0,1.2,0,1.7,0c0.9,3.3,1.8,6.6,2.7,9.9c0.3,1.3,0.8,2.6,0.9,4c1-4.6,2.4-9.2,3.5-13.8c0.7,0,1.3,0,2,0
			c-1.4,5.3-2.9,10.5-4.4,15.8H702c-1.1-3.8-2.1-7.6-3.2-11.4c-0.2-0.6-0.3-1.2-0.3-1.9c-0.1,0.5-0.2,1.1-0.3,1.6
			c-1.1,3.9-2.2,7.7-3.2,11.6c-0.7,0-1.4,0-2.1,0C691.3,224.6,689.7,219.3,688.2,214"/>
		<path class="st3" d="M709.8,214.1c0.1-0.7,0.7-1.1,1.3-1c0.7,0.1,1.1,0.7,1,1.3c-0.1,0.7-0.7,1.1-1.3,1c-0.5-0.1-1-0.5-1-1
			 M710,218.5h1.8v11.3H710"/>
		<path class="st3" d="M716.6,220.3c1-1.8,3.4-2.7,5.3-1.8c1.5,0.6,2.1,2.4,2.1,3.9c0.1,2.5,0,5,0,7.5c-0.6,0-1.2,0-1.8,0
			c0-2.4,0.1-4.8,0-7.2c0-1.2-0.6-2.6-1.8-2.9c-1.9-0.6-3.8,1.1-3.8,3c-0.1,2.4,0,4.7,0,7.1h-1.8c0-3.8,0-7.6,0-11.3h1.8
			C716.6,219.1,716.6,219.7,716.6,220.3"/>
		<path class="st3" d="M734.8,213.1c0.6,0,1.2,0,1.8,0v16.7h-1.8c0-0.6,0-1.2,0-1.8c-1.3,2.3-4.8,2.8-6.7,1.1
			c-1.4-1.2-1.8-3.2-1.8-5c0-1.8,0.6-3.7,2.1-4.9c1.9-1.5,5.2-1.5,6.5,0.8C734.8,217.7,734.8,215.4,734.8,213.1 M731,219.7
			c-1.4,0.2-2.4,1.5-2.7,2.9c-0.4,1.6-0.3,3.5,0.7,4.9c1.1,1.5,3.6,1.5,4.8,0.1c0.8-0.8,1-2,1-3.2c0-1.2,0.1-2.5-0.7-3.5
			C733.5,219.9,732.2,219.5,731,219.7"/>
		<path class="st3" d="M743.6,218.2c1.6-0.1,3.4,0.1,4.6,1.3c1.4,1.3,1.8,3.2,1.7,5c0,1.6-0.6,3.2-1.8,4.3c-2.4,2.2-7,1.7-8.5-1.3
			c-1.2-2.6-1-6.1,1.3-8C741.6,218.7,742.6,218.4,743.6,218.2 M743.3,219.8c-2.6,0.8-3.1,4.2-2.3,6.5c0.7,2,3.2,2.9,5,2
			c1.2-0.6,1.8-2,1.9-3.2c0.1-1.5,0-3.2-1-4.4C746,219.7,744.5,219.5,743.3,219.8"/>
		<path class="st3" d="M750.6,218.5h1.9c0.7,2.7,1.5,5.4,2.2,8.1c0.2,0.5,0.2,1,0.3,1.6c0.8-3.3,1.9-6.4,2.9-9.7l1.6,0
			c0.8,3.2,1.8,6.4,2.5,9.7c0.7-3.2,1.7-6.4,2.5-9.6c0.6,0,1.2,0,1.8,0c-1.1,3.8-2.2,7.6-3.4,11.4H761c-0.8-3.1-1.9-6.1-2.5-9.2
			c-0.8,3.1-1.9,6.1-2.8,9.2H754C752.8,226.1,751.7,222.3,750.6,218.5"/>
		<path class="st3" d="M770.8,218.2c1.1-0.1,2.3,0,3.3,0.4c0.3,0.6,0.1,1.3,0.1,1.9c-1.3-0.8-3-1.3-4.4-0.5c-0.9,0.5-1,2-0.1,2.6
			c1.3,0.8,3,1.1,4.1,2.2c1.3,1.2,1,3.6-0.5,4.5c-1.8,1.2-4.2,1-6.1,0.2c0-0.7,0-1.3,0-2c1.4,1,3.3,1.6,4.9,0.9
			c0.9-0.5,1-1.9,0.2-2.5c-1.3-1-3.1-1.1-4.3-2.3c-1.1-1.2-0.9-3.3,0.3-4.2C769,218.6,769.9,218.4,770.8,218.2"/>
		<path class="st3" d="M783.2,213.8c0.2,0,0.5-0.1,0.6-0.1c0,5.4,0,10.8,0,16.2h-1.8c0-4.5,0-9,0-13.5c-1.1,0.8-2.3,1.4-3.7,1.8
			c0-0.6,0-1.2,0-1.8C780.2,215.8,781.8,214.9,783.2,213.8"/>
		<path class="st3" d="M790.4,213.8c1.6-0.3,3.3,0.3,4.2,1.6c1.3,1.9,1.4,4.2,1.5,6.4c0,2.3-0.3,4.8-1.8,6.7c-1.4,1.8-4.1,2.2-6,0.9
			c-1.5-1.1-2.1-2.9-2.3-4.6c-0.3-2.6-0.3-5.2,0.6-7.7C787.2,215.4,788.6,214,790.4,213.8 M790.1,215.4c-1.6,0.6-2,2.5-2.3,4.1
			c-0.2,2.1-0.3,4.3,0.2,6.4c0.3,1,0.8,2.1,1.8,2.6c1.2,0.6,2.7,0.1,3.3-1.1c1-1.7,1-3.7,1-5.6c0-1.8-0.1-3.8-1.1-5.4
			C792.5,215.3,791.2,214.9,790.1,215.4"/>
	</g>
	<g>
		<g>
			<polygon class="st4" points="672.4,221.6 688.1,221.6 688.1,207.8 672.4,209.9 			"/>
			<polygon class="st4" points="671.9,221.6 671.9,210 659.8,211.7 659.8,221.6 			"/>
			<polygon class="st4" points="671.9,222 659.8,222 659.8,231.9 671.9,233.6 			"/>
			<polygon class="st4" points="672.4,222 672.4,233.6 688.1,235.8 688.1,222 			"/>
		</g>
		<g>
			<path class="st4" d="M722,214.5c0,0.4-0.1,0.6-0.4,0.9c-0.2,0.2-0.5,0.4-0.9,0.4c-0.3,0-0.6-0.1-0.9-0.3
				c-0.2-0.2-0.4-0.5-0.4-0.9c0-0.3,0.1-0.6,0.4-0.9c0.2-0.2,0.5-0.4,0.9-0.4s0.7,0.1,0.9,0.4C721.9,213.9,722,214.2,722,214.5z"/>
		</g>
		<g>
			<path class="st4" d="M718.2,213.6l-4.7,16.6h-2.3l-3.7-13.1h0l-3.7,13.1h-2.3l-4.9-16.6h2.1l3.9,13.9h0l4-13.9h1.9l3.8,13.9h0
				l3.7-13.9H718.2z"/>
			<path class="st4" d="M721.7,230.2h-1.9v-11.9h1.9V230.2z"/>
			<path class="st4" d="M734.5,230.2h-1.9v-6.8c0-2.5-0.9-3.8-2.8-3.8c-0.9,0-1.7,0.4-2.4,1.1c-0.6,0.7-1,1.6-1,2.7v6.8h-1.9v-11.9
				h1.9v2h0c0.9-1.5,2.2-2.3,3.9-2.3c1.3,0,2.3,0.4,3,1.3c0.7,0.9,1,2.1,1,3.6L734.5,230.2L734.5,230.2z"/>
			<path class="st4" d="M747.7,230.2h-1.9v-2h0c-0.9,1.5-2.3,2.3-4.1,2.3c-1.5,0-2.7-0.5-3.6-1.6c-0.9-1.1-1.3-2.5-1.3-4.3
				c0-2,0.5-3.5,1.5-4.7c1-1.2,2.3-1.8,4-1.8c1.6,0,2.8,0.6,3.6,1.9h0v-7.3h1.9L747.7,230.2L747.7,230.2z M745.8,224.9v-1.7
				c0-1-0.3-1.8-1-2.4c-0.7-0.6-1.5-1-2.4-1c-1.1,0-2.1,0.4-2.7,1.3c-0.7,0.8-1,2-1,3.5c0,1.4,0.3,2.4,1,3.2
				c0.6,0.8,1.5,1.2,2.6,1.2c1,0,1.9-0.4,2.6-1.1S745.8,226,745.8,224.9z"/>
			<path class="st4" d="M761.9,224.3c0,1.9-0.5,3.4-1.6,4.5c-1.1,1.1-2.5,1.7-4.3,1.7c-1.8,0-3.2-0.6-4.2-1.7
				c-1.1-1.1-1.6-2.6-1.6-4.4c0-2,0.5-3.5,1.6-4.6c1.1-1.1,2.6-1.7,4.5-1.7c1.8,0,3.2,0.5,4.2,1.6
				C761.4,220.8,761.9,222.3,761.9,224.3z M759.9,224.3c0-1.5-0.3-2.6-1-3.4c-0.7-0.8-1.6-1.2-2.8-1.2c-1.2,0-2.2,0.4-2.9,1.2
				s-1.1,2-1.1,3.4c0,1.4,0.4,2.5,1.1,3.3c0.7,0.8,1.7,1.2,2.9,1.2c1.2,0,2.2-0.4,2.9-1.2S759.9,225.8,759.9,224.3z"/>
			<path class="st4" d="M779.2,218.4l-3.6,11.9h-2L771,221h0l-2.9,9.2h-1.9l-3.6-11.9h2l2.6,9.6h0.1l2.9-9.6h1.7l2.7,9.6h0.1
				l2.6-9.6H779.2z"/>
			<path class="st4" d="M787.3,227.1c0,1-0.4,1.9-1.2,2.5c-0.8,0.6-1.9,1-3.2,1c-1.1,0-2.1-0.2-3-0.7v-2c0.9,0.8,2,1.1,3.1,1.1
				c1.5,0,2.3-0.6,2.3-1.7c0-0.4-0.1-0.8-0.4-1.1c-0.3-0.3-1-0.7-2-1.1c-1.1-0.4-1.8-0.9-2.2-1.4c-0.4-0.5-0.7-1.2-0.7-2
				c0-1,0.4-1.8,1.2-2.5c0.8-0.7,1.8-1,3-1c0.9,0,1.8,0.2,2.6,0.6v1.9c-0.8-0.6-1.7-0.8-2.7-0.8c-0.6,0-1.1,0.2-1.5,0.5
				c-0.4,0.3-0.6,0.7-0.6,1.2c0,0.5,0.1,0.9,0.4,1.2c0.3,0.3,0.9,0.6,1.8,1c1.1,0.5,1.9,1,2.4,1.5
				C787.1,225.6,787.3,226.3,787.3,227.1z"/>
		</g>
	</g>
	<g>
		<path class="st5" d="M506.6,219.4c0,1.1-0.4,2-1.2,2.6c-0.8,0.6-1.9,0.9-3.3,0.9h-1.8v4.9h-0.8V216h2.9
			C505.2,216,506.6,217.1,506.6,219.4 M500.3,222.2h1.6c1.3,0,2.3-0.2,2.9-0.7c0.6-0.4,0.9-1.1,0.9-2.1c0-0.9-0.3-1.6-0.8-2
			c-0.6-0.4-1.4-0.7-2.6-0.7h-2L500.3,222.2L500.3,222.2z"/>
		<path class="st5" d="M519,221.9c0,1.9-0.5,3.4-1.4,4.4c-0.9,1.1-2.2,1.6-3.9,1.6c-1.6,0-2.9-0.5-3.9-1.6c-0.9-1.1-1.4-2.6-1.4-4.5
			c0-1.9,0.5-3.4,1.4-4.4c0.9-1.1,2.2-1.6,3.9-1.6c1.6,0,2.9,0.5,3.9,1.6C518.6,218.5,519,220,519,221.9 M509.4,221.9
			c0,1.7,0.4,3,1.1,3.9c0.8,0.9,1.8,1.4,3.2,1.4c1.4,0,2.5-0.5,3.3-1.4c0.8-0.9,1.1-2.2,1.1-3.9c0-1.7-0.4-3-1.1-3.9
			c-0.8-0.9-1.8-1.4-3.2-1.4c-1.4,0-2.5,0.5-3.2,1.4C509.8,218.9,509.4,220.2,509.4,221.9"/>
		<path class="st5" d="M531.1,227.8h-0.7l-2.6-9.1c-0.2-0.7-0.4-1.4-0.5-1.8c-0.1,0.5-0.2,1-0.4,1.6c-0.2,0.6-1,3.7-2.6,9.3h-0.7
			l-3.2-11.8h0.9l2.1,7.6c0.1,0.3,0.2,0.6,0.2,0.9c0.1,0.3,0.1,0.5,0.2,0.7c0.1,0.2,0.1,0.4,0.2,0.7c0,0.2,0.1,0.4,0.1,0.6
			c0.1-0.7,0.4-1.8,0.8-3.3l2-7.2h0.9l2.4,8.2c0.3,0.9,0.5,1.7,0.6,2.3c0.1-0.4,0.2-0.8,0.3-1.2c0.1-0.4,0.9-3.5,2.5-9.3h0.8
			L531.1,227.8z"/>
		<polygon class="st5" points="542.9,227.8 536.5,227.8 536.5,216 542.9,216 542.9,216.8 537.3,216.8 537.3,221.2 542.6,221.2 
			542.6,222 537.3,222 537.3,227 542.9,227 		"/>
		<path class="st5" d="M546.4,222.7v5.1h-0.8V216h2.8c1.5,0,2.5,0.3,3.2,0.8c0.7,0.5,1,1.4,1,2.4c0,0.8-0.2,1.5-0.6,2
			c-0.4,0.5-1.1,0.9-1.9,1.2l3.2,5.4h-1l-3-5.1H546.4z M546.4,222h2.2c1,0,1.8-0.2,2.3-0.7c0.5-0.4,0.8-1.1,0.8-2
			c0-0.9-0.3-1.6-0.8-2c-0.5-0.4-1.4-0.6-2.6-0.6h-2V222z"/>
		<polygon class="st5" points="561.8,227.8 555.4,227.8 555.4,216 561.8,216 561.8,216.8 556.2,216.8 556.2,221.2 561.5,221.2 
			561.5,222 556.2,222 556.2,227 561.8,227 		"/>
		<path class="st5" d="M573.5,221.8c0,2-0.5,3.5-1.6,4.5c-1,1-2.6,1.5-4.6,1.5h-2.8V216h3.2c1.9,0,3.3,0.5,4.3,1.5
			C573,218.5,573.5,219.9,573.5,221.8 M572.6,221.8c0-1.7-0.4-3-1.3-3.8c-0.9-0.9-2.1-1.3-3.8-1.3h-2.2v10.3h2
			C570.8,227.1,572.6,225.3,572.6,221.8"/>
		<path class="st5" d="M580.5,216h3.2c1.5,0,2.5,0.2,3.2,0.7c0.7,0.5,1,1.2,1,2.2c0,0.7-0.2,1.3-0.6,1.7c-0.4,0.5-1,0.7-1.8,0.9v0
			c0.9,0.1,1.6,0.4,2.1,0.9c0.4,0.5,0.7,1.1,0.7,1.9c0,1.1-0.4,1.9-1.1,2.5c-0.7,0.6-1.7,0.9-3.1,0.9h-3.6V216z M581.3,221.3h2.6
			c1.1,0,1.9-0.2,2.4-0.6c0.5-0.4,0.8-0.9,0.8-1.7s-0.3-1.4-0.9-1.7c-0.6-0.4-1.4-0.5-2.5-0.5h-2.4V221.3L581.3,221.3z M581.3,222
			v5.1h2.8c2.2,0,3.3-0.9,3.3-2.7c0-1.6-1.1-2.4-3.5-2.4L581.3,222L581.3,222z"/>
		<polygon class="st5" points="593.5,222.5 597,216 597.9,216 593.9,223.2 593.9,227.8 593.1,227.8 593.1,223.3 589.2,216 
			590.1,216 		"/>
	</g>
	<g>
		<path class="st5" d="M489.2,168.2c0.4,0.2,0.7,0.4,1,0.6c0.3,0.3,0.5,0.6,0.6,1c0.2,0.4,0.2,0.8,0.2,1.2v14.6c0,0.1,0,0.3-0.1,0.3
			c-0.1,0.1-0.2,0.1-0.3,0.1H487c-0.1,0-0.2,0-0.3-0.1c-0.1-0.1-0.1-0.2-0.1-0.3v-13.2h-2.9v13.2c0,0.1,0,0.3-0.1,0.3
			c-0.1,0.1-0.2,0.1-0.3,0.1h-3.3c-0.1,0-0.3,0-0.3-0.1c-0.1-0.1-0.1-0.2-0.1-0.3v-13.2h-2.9v13.2c0,0.3-0.2,0.5-0.5,0.5h-3.6
			c-0.3,0-0.5-0.2-0.5-0.5v-17.1c0-0.3,0.2-0.5,0.5-0.5h15.6C488.5,167.9,488.9,168,489.2,168.2"/>
		<path class="st5" d="M507.3,167.9c0.4,0,0.8,0.1,1.2,0.2c0.4,0.2,0.7,0.4,1,0.6c0.3,0.3,0.5,0.6,0.6,1c0.2,0.4,0.2,0.8,0.2,1.2
			v14.6c0,0.1,0,0.3-0.1,0.4c-0.1,0.1-0.2,0.1-0.3,0.1h-3.6c-0.1,0-0.3,0-0.3-0.1c-0.1-0.1-0.1-0.2-0.1-0.4v-4.6
			c0-0.1,0-0.3-0.1-0.3c-0.1-0.1-0.2-0.1-0.3-0.1h-5.1c-0.1,0-0.3,0-0.3,0.1c-0.1,0.1-0.1,0.2-0.1,0.3v4.6c0,0.3-0.2,0.5-0.5,0.5
			h-3.6c-0.3,0-0.5-0.2-0.5-0.5v-14.6c0-0.4,0.1-0.8,0.2-1.2c0.2-0.4,0.4-0.7,0.6-1c0.3-0.3,0.6-0.5,1-0.6c0.4-0.2,0.8-0.2,1.2-0.2
			H507.3z M505.7,172h-6.1v4.5h6.1V172z"/>
		<path class="st5" d="M526.6,168.1c0.1,0.1,0.1,0.2,0.1,0.4V183c0,0.4-0.1,0.8-0.2,1.2c-0.2,0.4-0.4,0.7-0.6,1
			c-0.3,0.3-0.6,0.5-1,0.6c-0.4,0.2-0.8,0.2-1.2,0.2h-7.8c-0.4,0-0.8-0.1-1.2-0.2c-0.4-0.2-0.7-0.4-1-0.6c-0.3-0.3-0.5-0.6-0.6-1
			c-0.2-0.4-0.2-0.8-0.2-1.2v-5.5c0-0.3,0.2-0.5,0.5-0.5h3.6c0.3,0,0.5,0.2,0.5,0.5v3.7c0,0.1,0,0.2,0.1,0.3
			c0.1,0.1,0.2,0.1,0.3,0.1h3.7c0.1,0,0.3,0,0.3-0.1c0.1-0.1,0.1-0.2,0.1-0.3v-12.7c0-0.1,0-0.3,0.1-0.4c0.1-0.1,0.2-0.1,0.3-0.1
			h3.6C526.3,167.9,526.5,168,526.6,168.1"/>
		<path class="st5" d="M542.9,167.9c0.4,0,0.8,0.1,1.2,0.2c0.4,0.2,0.7,0.4,1,0.6c0.3,0.3,0.5,0.6,0.6,1c0.2,0.4,0.2,0.8,0.2,1.2v12
			c0,0.4-0.1,0.8-0.2,1.2c-0.2,0.4-0.4,0.7-0.6,1c-0.3,0.3-0.6,0.5-1,0.6c-0.4,0.2-0.8,0.2-1.2,0.2h-9.1c-0.4,0-0.8-0.1-1.2-0.2
			c-0.4-0.2-0.7-0.4-1-0.6c-0.3-0.3-0.5-0.6-0.6-1c-0.2-0.4-0.2-0.8-0.2-1.2v-12c0-0.4,0.1-0.8,0.2-1.2c0.2-0.4,0.4-0.7,0.6-1
			c0.3-0.3,0.6-0.5,1-0.6c0.4-0.2,0.8-0.2,1.2-0.2H542.9z M541.3,172.3h-6.1v9.3h6.1V172.3z"/>
		<path class="st5" d="M565.7,185.6c0.1,0.1,0.1,0.2,0,0.3c-0.1,0.1-0.1,0.1-0.3,0.1h-4.1c-0.1,0-0.3,0-0.4-0.1
			c-0.1-0.1-0.2-0.2-0.3-0.3l-2.7-4.9c0-0.1-0.1-0.1-0.2-0.1h-3.1c-0.1,0-0.1,0-0.1,0.1v4.8c0,0.3-0.2,0.5-0.5,0.5h-3.6
			c-0.3,0-0.5-0.2-0.5-0.5v-17.1c0-0.3,0.2-0.5,0.5-0.5h11.7c0.4,0,0.8,0.1,1.2,0.2c0.4,0.2,0.7,0.4,1,0.6c0.3,0.3,0.5,0.6,0.6,1
			c0.2,0.4,0.2,0.8,0.2,1.2v6.8c0,0.7-0.2,1.2-0.6,1.8c-0.4,0.5-0.9,0.9-1.5,1.1l-0.1,0c-0.1,0-0.1,0.1-0.1,0.2l0,0.1L565.7,185.6z
			 M560.6,172.1h-6.2v4.4h6.2V172.1z"/>
		<path class="st5" d="M590,181.6c0.1,0,0.2,0,0.3,0.1c0.1,0.1,0.1,0.2,0.1,0.3v3.4c0,0.1,0,0.3-0.1,0.3c-0.1,0.1-0.2,0.1-0.3,0.1
			h-11.1c-0.3,0-0.5-0.2-0.5-0.5v-17.1c0-0.3,0.2-0.5,0.5-0.5h3.6c0.3,0,0.5,0.2,0.5,0.5v12.7c0,0.1,0,0.2,0.1,0.3
			c0.1,0.1,0.2,0.1,0.3,0.1L590,181.6L590,181.6z"/>
		<path class="st5" d="M606.7,168.1c0.1,0.1,0.1,0.2,0.1,0.4v1.5v0.8v1c0,0.1,0,0.2-0.1,0.3c-0.1,0.1-0.2,0.1-0.3,0.1h-1.8h-5.4
			h-1.4c-0.1,0-0.1,0-0.1,0.1v2.8c0,0.1,0,0.1,0.1,0.1h7.4c0.1,0,0.2,0,0.3,0.1c0.1,0.1,0.1,0.2,0.1,0.4v2.6c0,0.1,0,0.3-0.1,0.3
			c-0.1,0.1-0.2,0.1-0.3,0.1h-7.4c-0.1,0-0.1,0-0.1,0.1v1.3v0v1.5c0,0.1,0,0.1,0.1,0.1h1.1h5.8h1.7c0.1,0,0.3,0,0.3,0.1
			c0.1,0.1,0.1,0.2,0.1,0.3v1v1.3v0.9c0,0.1,0,0.3-0.1,0.3c-0.1,0.1-0.2,0.1-0.3,0.1h-1.5h-9.8h-1.5c-0.3,0-0.5-0.2-0.5-0.5v-0.9
			v-15v-1.2c0-0.1,0-0.3,0.1-0.4c0.1-0.1,0.2-0.1,0.3-0.1h1.9h10.1h0.8C606.5,167.9,606.6,168,606.7,168.1"/>
		<path class="st5" d="M623.1,167.9c0.4,0,0.8,0.1,1.2,0.2c0.4,0.2,0.7,0.4,1,0.6s0.5,0.6,0.6,1c0.2,0.4,0.2,0.8,0.2,1.2v14.6
			c0,0.1,0,0.3-0.1,0.4c-0.1,0.1-0.2,0.1-0.3,0.1H622c-0.1,0-0.3,0-0.3-0.1c-0.1-0.1-0.1-0.2-0.1-0.4v-4.6c0-0.1,0-0.3-0.1-0.3
			c-0.1-0.1-0.2-0.1-0.3-0.1H616c-0.1,0-0.3,0-0.3,0.1c-0.1,0.1-0.1,0.2-0.1,0.3v4.6c0,0.3-0.2,0.5-0.5,0.5h-3.6
			c-0.3,0-0.5-0.2-0.5-0.5v-14.6c0-0.4,0.1-0.8,0.2-1.2c0.2-0.4,0.4-0.7,0.6-1c0.3-0.3,0.6-0.5,1-0.6c0.4-0.2,0.8-0.2,1.2-0.2H623.1
			z M621.5,172h-6.1v4.5h6.1V172z"/>
		<path class="st5" d="M645.2,176.3c0.1,0.1,0.1,0.2,0.1,0.4v6.4c0,0.4-0.1,0.8-0.2,1.2c-0.2,0.4-0.4,0.7-0.6,1
			c-0.3,0.3-0.6,0.5-1,0.6c-0.4,0.2-0.8,0.2-1.2,0.2h-9.1c-0.4,0-0.8-0.1-1.2-0.2c-0.4-0.2-0.7-0.4-1-0.6c-0.3-0.3-0.5-0.6-0.6-1
			c-0.2-0.4-0.2-0.8-0.2-1.2v-12c0-0.4,0.1-0.8,0.2-1.2c0.2-0.4,0.4-0.7,0.6-1c0.3-0.3,0.6-0.5,1-0.6c0.4-0.2,0.8-0.2,1.2-0.2h10.7
			c0.1,0,0.3,0,0.3,0.1c0.1,0.1,0.1,0.2,0.1,0.4v3.4c0,0.1,0,0.3-0.1,0.4c-0.1,0.1-0.2,0.1-0.3,0.1h-8.6c-0.1,0-0.3,0-0.3,0.1
			c-0.1,0.1-0.1,0.2-0.1,0.3v8.4c0,0.1,0,0.2,0.1,0.3c0.1,0.1,0.2,0.1,0.3,0.1h5.1c0.1,0,0.2,0,0.3-0.1c0.1-0.1,0.1-0.2,0.1-0.3
			v-4.5c0-0.1,0-0.3,0.1-0.4c0.1-0.1,0.2-0.1,0.3-0.1h3.6C644.9,176.1,645.1,176.2,645.2,176.3"/>
		<path class="st5" d="M664.2,168.1c0.1,0.1,0.1,0.2,0.1,0.4V183c0,0.4-0.1,0.8-0.2,1.2c-0.2,0.4-0.4,0.7-0.6,1
			c-0.3,0.3-0.6,0.5-1,0.6c-0.4,0.2-0.8,0.2-1.2,0.2h-9.1c-0.4,0-0.8-0.1-1.2-0.2c-0.4-0.2-0.7-0.4-1-0.6c-0.3-0.3-0.5-0.6-0.6-1
			c-0.2-0.4-0.2-0.8-0.2-1.2v-14.6c0-0.3,0.2-0.5,0.5-0.5h3.6c0.3,0,0.5,0.2,0.5,0.5v12.7c0,0.1,0,0.2,0.1,0.3
			c0.1,0.1,0.2,0.1,0.3,0.1h5.1c0.1,0,0.2,0,0.3-0.1c0.1-0.1,0.1-0.2,0.1-0.3v-12.7c0-0.1,0-0.3,0.1-0.4c0.1-0.1,0.2-0.1,0.3-0.1
			h3.6C664,167.9,664.1,168,664.2,168.1"/>
		<path class="st5" d="M682.1,168.1c0.1,0.1,0.1,0.2,0.1,0.4v1.5v0.8v1c0,0.1,0,0.2-0.1,0.3c-0.1,0.1-0.2,0.1-0.3,0.1h-1.8h-5.4
			h-1.4c-0.1,0-0.1,0-0.1,0.1v2.8c0,0.1,0,0.1,0.1,0.1h7.4c0.1,0,0.2,0,0.3,0.1c0.1,0.1,0.1,0.2,0.1,0.4v2.6c0,0.1,0,0.3-0.1,0.3
			c-0.1,0.1-0.2,0.1-0.3,0.1h-7.4c-0.1,0-0.1,0-0.1,0.1v1.3v0v1.5c0,0.1,0,0.1,0.1,0.1h1.1h5.8h1.7c0.1,0,0.3,0,0.3,0.1
			c0.1,0.1,0.1,0.2,0.1,0.3v1v1.3v0.9c0,0.1,0,0.3-0.1,0.3c-0.1,0.1-0.2,0.1-0.3,0.1h-1.5h-9.8h-1.5c-0.3,0-0.5-0.2-0.5-0.5v-0.9
			v-15v-1.2c0-0.1,0-0.3,0.1-0.4c0.1-0.1,0.2-0.1,0.3-0.1h1.9h10.1h0.8C681.9,167.9,682,168,682.1,168.1"/>
		<path class="st5" d="M709.8,167.9c0.1,0,0.3,0,0.4,0.1c0.1,0.1,0.1,0.2,0.1,0.3v17.1c0,0.1,0,0.3-0.1,0.3
			c-0.1,0.1-0.2,0.1-0.4,0.1h-3.6c-0.1,0-0.3,0-0.3-0.1c-0.1-0.1-0.1-0.2-0.1-0.3v-6c0-0.1,0-0.2-0.1-0.3c-0.1-0.1-0.2-0.1-0.3-0.1
			h-5.1c-0.1,0-0.3,0-0.3,0.1s-0.1,0.2-0.1,0.3v6c0,0.3-0.2,0.5-0.5,0.5h-3.6c-0.3,0-0.5-0.2-0.5-0.5v-17.1c0-0.3,0.2-0.5,0.5-0.5
			h3.6c0.3,0,0.5,0.2,0.5,0.5v5.8c0,0.3,0.2,0.5,0.5,0.5h5.1c0.1,0,0.2,0,0.3-0.1c0.1-0.1,0.1-0.2,0.1-0.3v-5.8c0-0.1,0-0.3,0.1-0.3
			c0.1-0.1,0.2-0.1,0.3-0.1L709.8,167.9L709.8,167.9z"/>
		<path class="st5" d="M726.5,167.9c0.4,0,0.8,0.1,1.2,0.2c0.4,0.2,0.7,0.4,1,0.6c0.3,0.3,0.5,0.6,0.6,1c0.2,0.4,0.2,0.8,0.2,1.2
			v14.6c0,0.1,0,0.3-0.1,0.4c-0.1,0.1-0.2,0.1-0.3,0.1h-3.6c-0.1,0-0.3,0-0.3-0.1c-0.1-0.1-0.1-0.2-0.1-0.4v-4.6
			c0-0.1,0-0.3-0.1-0.3c-0.1-0.1-0.2-0.1-0.3-0.1h-5.1c-0.1,0-0.3,0-0.3,0.1c-0.1,0.1-0.1,0.2-0.1,0.3v4.6c0,0.3-0.2,0.5-0.5,0.5
			h-3.6c-0.3,0-0.5-0.2-0.5-0.5v-14.6c0-0.4,0.1-0.8,0.2-1.2c0.2-0.4,0.4-0.7,0.6-1c0.3-0.3,0.6-0.5,1-0.6c0.4-0.2,0.8-0.2,1.2-0.2
			H726.5z M725,172h-6.1v4.5h6.1V172z"/>
		<path class="st5" d="M738.2,172.4c-0.1,0.1-0.1,0.2-0.1,0.3v8.4c0,0.1,0,0.2,0.1,0.3c0.1,0.1,0.2,0.1,0.3,0.1h8.3
			c0.1,0,0.3,0,0.3,0.1c0.1,0.1,0.1,0.2,0.1,0.3v3.4c0,0.1,0,0.3-0.1,0.4c-0.1,0.1-0.2,0.1-0.3,0.1h-5.4H737h-0.5
			c-0.4,0-0.8-0.1-1.2-0.2c-0.4-0.2-0.7-0.4-1-0.6c-0.3-0.3-0.5-0.6-0.6-1c-0.2-0.4-0.2-0.8-0.2-1.2v-0.5v-1.9v-6v-1.7v-2
			c0-0.4,0.1-0.8,0.2-1.2c0.2-0.4,0.4-0.7,0.6-1c0.3-0.3,0.6-0.5,1-0.6c0.4-0.2,0.8-0.2,1.2-0.2h0.5h9.8c0.1,0,0.3,0,0.3,0.1
			c0.1,0.1,0.1,0.2,0.1,0.3v3.4c0,0.1,0,0.3-0.1,0.3c-0.1,0.1-0.2,0.1-0.3,0.1h-8.3C738.4,172.3,738.3,172.4,738.2,172.4"/>
		<path class="st5" d="M761.7,175.5c-0.1,0.1-0.1,0.1,0,0.2l6,9.9c0.1,0.1,0.1,0.2,0,0.3c-0.1,0.1-0.1,0.1-0.3,0.1h-4.3
			c-0.1,0-0.3,0-0.4-0.1c-0.1-0.1-0.2-0.2-0.3-0.3l-3.9-7c-0.1-0.1-0.1-0.1-0.1,0l-2.1,2.3c-0.1,0.1-0.2,0.2-0.2,0.4
			c-0.1,0.2-0.1,0.3-0.1,0.5v3.8c0,0.3-0.2,0.5-0.5,0.5H752c-0.3,0-0.5-0.2-0.5-0.5v-17.1c0-0.3,0.2-0.5,0.5-0.5h3.6
			c0.3,0,0.5,0.2,0.5,0.5v7.7l6.7-7.8c0.1-0.1,0.2-0.2,0.4-0.3c0.2-0.1,0.3-0.1,0.4-0.1h4.3c0.1,0,0.2,0,0.2,0.1
			c0,0.1,0,0.2-0.1,0.3L761.7,175.5z"/>
		<path class="st5" d="M775.7,185.5c0,0.3-0.2,0.5-0.5,0.5h-3.6c-0.3,0-0.5-0.2-0.5-0.5v-17.1c0-0.3,0.2-0.5,0.5-0.5h3.6
			c0.3,0,0.5,0.2,0.5,0.5V185.5z"/>
		<path class="st5" d="M793,168.2c0.4,0.2,0.7,0.4,1,0.6c0.3,0.3,0.5,0.6,0.6,1c0.2,0.4,0.2,0.8,0.2,1.2v14.6c0,0.1,0,0.3-0.1,0.3
			c-0.1,0.1-0.2,0.1-0.3,0.1h-3.6c-0.1,0-0.2,0-0.3-0.1c-0.1-0.1-0.1-0.2-0.1-0.3v-12.7c0-0.1,0-0.2-0.1-0.3
			c-0.1-0.1-0.2-0.1-0.3-0.1h-5.1c-0.1,0-0.3,0-0.3,0.1c-0.1,0.1-0.1,0.2-0.1,0.3v12.7c0,0.3-0.2,0.5-0.5,0.5h-3.6
			c-0.3,0-0.5-0.2-0.5-0.5v-17.1c0-0.3,0.2-0.5,0.5-0.5h11.7C792.3,167.9,792.7,168,793,168.2"/>
		<path class="st5" d="M813.9,176.3c0.1,0.1,0.1,0.2,0.1,0.4v6.4c0,0.4-0.1,0.8-0.2,1.2s-0.4,0.7-0.6,1c-0.3,0.3-0.6,0.5-1,0.6
			c-0.4,0.2-0.8,0.2-1.2,0.2h-9.1c-0.4,0-0.8-0.1-1.2-0.2c-0.4-0.2-0.7-0.4-1-0.6c-0.3-0.3-0.5-0.6-0.6-1s-0.2-0.8-0.2-1.2v-12
			c0-0.4,0.1-0.8,0.2-1.2c0.2-0.4,0.4-0.7,0.6-1c0.3-0.3,0.6-0.5,1-0.6c0.4-0.2,0.8-0.2,1.2-0.2h10.7c0.1,0,0.3,0,0.3,0.1
			c0.1,0.1,0.1,0.2,0.1,0.4v3.4c0,0.1,0,0.3-0.1,0.4c-0.1,0.1-0.2,0.1-0.3,0.1h-8.6c-0.1,0-0.3,0-0.3,0.1c-0.1,0.1-0.1,0.2-0.1,0.3
			v8.4c0,0.1,0,0.2,0.1,0.3c0.1,0.1,0.2,0.1,0.3,0.1h5.1c0.1,0,0.2,0,0.3-0.1s0.1-0.2,0.1-0.3v-4.5c0-0.1,0-0.3,0.1-0.4
			c0.1-0.1,0.2-0.1,0.3-0.1h3.6C813.7,176.1,813.8,176.2,813.9,176.3"/>
	</g>
	<g>
		<g>
			<path class="st6" d="M580.9,43.5c2.3,1,4.3,2.4,6,4.1c1.7,1.7,3,3.7,4.1,6c1,2.3,1.5,4.8,1.5,7.4v94.8c0,0.9-0.3,1.6-0.9,2.2
				c-0.6,0.6-1.3,0.9-2.2,0.9h-22.7c-0.9,0-1.6-0.3-2.1-0.9c-0.5-0.6-0.8-1.3-0.8-2.2V69.7h-18.3v86.2c0,0.9-0.3,1.6-0.8,2.2
				c-0.5,0.6-1.3,0.9-2.1,0.9h-20.6c-0.9,0-1.6-0.3-2.2-0.9c-0.6-0.6-0.9-1.3-0.9-2.2V69.7h-18.3v86.2c0,2.1-1,3.1-3.1,3.1h-22.5
				c-2.1,0-3.1-1-3.1-3.1V45.1c0-2.1,1-3.1,3.1-3.1h98.4C576.1,42,578.5,42.5,580.9,43.5"/>
			<path class="st7" d="M580.9,43.5c2.3,1,4.3,2.4,6,4.1c1.7,1.7,3,3.7,4.1,6c1,2.3,1.5,4.8,1.5,7.4v8.4l-28.7,0.2h-18.3H519h-18.3
				L472,69.5V45.1c0-2.1,1-3.1,3.1-3.1h98.4C576.1,42,578.5,42.5,580.9,43.5"/>
			<path class="st8" d="M691.4,130.5c0.9,0,1.7,0.3,2.2,0.9c0.6,0.6,0.9,1.4,0.9,2.3v22.1c0,0.9-0.3,1.6-0.9,2.3
				c-0.6,0.6-1.3,0.9-2.2,0.9h-77.7c-2.2,0-3.3-1.1-3.3-3.2V45.2c0-2.1,1.1-3.2,3.3-3.2h23.8c2.2,0,3.3,1.1,3.3,3.2v82.4
				c0,0.9,0.3,1.6,1,2.2c0.6,0.6,1.4,0.8,2.3,0.8L691.4,130.5L691.4,130.5z"/>
			<path class="st9" d="M640.6,158.9h-26.9c-2.2,0-3.3-1.1-3.3-3.2V45.2c0-2.1,1.1-3.2,3.3-3.2h23.8c2.2,0,3.3,1.1,3.3,3.2v82.4
				C640.8,128.4,640.6,158.9,640.6,158.9"/>
			<path class="st10" d="M810.8,42c0.9,0,1.7,0.3,2.3,0.9c0.6,0.6,1,1.4,1,2.3v110.9c0,0.9-0.3,1.6-1,2.3c-0.6,0.6-1.4,0.9-2.3,0.9
				h-24.2c-0.9,0-1.7-0.3-2.3-0.9c-0.6-0.6-1-1.4-1-2.3v-38.7c0-0.9-0.3-1.6-0.9-2.2c-0.6-0.6-1.3-0.8-2.3-0.8h-33.9
				c-0.9,0-1.7,0.3-2.3,0.8c-0.6,0.6-1,1.3-1,2.2v38.7c0,2.1-1.1,3.2-3.3,3.2h-24c-2.2,0-3.3-1.1-3.3-3.2V45.2
				c0-2.1,1.1-3.2,3.3-3.2h24c2.2,0,3.3,1.1,3.3,3.2v37.5c0,2.1,1.1,3.2,3.3,3.2h33.9c0.9,0,1.7-0.3,2.3-0.9
				c0.6-0.6,0.9-1.4,0.9-2.3V45.2c0-0.9,0.3-1.6,1-2.3c0.6-0.6,1.4-0.9,2.3-0.9L810.8,42L810.8,42z"/>
			<path class="st11" d="M743,117.4v38.7c0,2.1-1.1,3.2-3.3,3.2h-24c-2.2,0-3.3-1.1-3.3-3.2V45.2c0-2.1,1.1-3.2,3.3-3.2h24
				c2.2,0,3.3,1.1,3.3,3.2v37.5V117.4z"/>
			<path class="st11" d="M810.8,42c0.9,0,1.7,0.3,2.3,0.9c0.6,0.6,1,1.4,1,2.3v110.9c0,0.9-0.3,1.6-1,2.3c-0.6,0.6-1.4,0.9-2.3,0.9
				h-24.2c-0.9,0-1.7-0.3-2.3-0.9c-0.6-0.6-1-1.4-1-2.3v-38.7V82.7V45.2c0-0.9,0.3-1.6,1-2.3c0.6-0.6,1.4-0.9,2.3-0.9L810.8,42
				L810.8,42z"/>
		</g>
	</g>
</g>
<g class="st2">
	<line class="st12" x1="472" y1="42" x2="814" y2="42"/>
	<line class="st12" x1="472" y1="240" x2="814" y2="240"/>
	<line class="st12" x1="814" y1="42" x2="814" y2="240"/>
	<line class="st12" x1="472" y1="42" x2="472" y2="240"/>
	<line class="st12" x1="472" y1="204" x2="814" y2="204"/>
	<line class="st12" x1="472" y1="186" x2="814" y2="186"/>
	<line class="st12" x1="472" y1="159" x2="814" y2="159"/>
	<line class="st12" x1="499.5" y1="204" x2="499.5" y2="240"/>
	<line class="st12" x1="787.3" y1="204" x2="787.3" y2="240"/>
	<rect x="436" y="6" class="st12" width="414" height="270"/>
	<line class="st12" x1="472" y1="240" x2="472" y2="276"/>
	<line class="st12" x1="814" y1="240" x2="814" y2="276"/>
	<line class="st12" x1="814" y1="6" x2="814" y2="42"/>
	<line class="st12" x1="850" y1="42" x2="814" y2="42"/>
	<line class="st12" x1="436" y1="42" x2="472" y2="42"/>
	<line class="st12" x1="472" y1="6" x2="472" y2="42"/>
	<line class="st12" x1="436" y1="240" x2="472" y2="240"/>
	<line class="st12" x1="814" y1="240" x2="850" y2="240"/>
	<g class="st13">
		<g>
			<defs>
				<rect id="SVGID_1_" x="256" y="-156" width="800" height="600"/>
			</defs>
			<clipPath id="SVGID_2_">
				<use xlink:href="#SVGID_1_"  style="overflow:visible;"/>
			</clipPath>
			<path class="st14" d="M453.7,26.4h-1.3v2.3h-2.3v-2.3h-4.7v-1.6l4.9-7.2h2.2v7h1.3V26.4z M450.1,24.5v-1.9c0-0.3,0-0.8,0-1.4
				c0-0.6,0-0.9,0.1-1h-0.1c-0.2,0.4-0.4,0.8-0.7,1.2l-2,3.1H450.1z"/>
		</g>
		<g>
			<defs>
				<rect id="SVGID_3_" x="256" y="-156" width="800" height="600"/>
			</defs>
			<clipPath id="SVGID_4_">
				<use xlink:href="#SVGID_3_"  style="overflow:visible;"/>
			</clipPath>
			<polygon class="st15" points="456.9,24.3 454.2,20.2 456.8,20.2 458.4,22.9 460.1,20.2 462.7,20.2 460,24.3 462.9,28.7 
				460.2,28.7 458.4,25.7 456.7,28.7 454,28.7 			"/>
		</g>
		<g>
			<defs>
				<rect id="SVGID_5_" x="256" y="-156" width="800" height="600"/>
			</defs>
			<clipPath id="SVGID_6_">
				<use xlink:href="#SVGID_5_"  style="overflow:visible;"/>
			</clipPath>
			<path class="st16" d="M831.6,26.4h-1.3v2.3H828v-2.3h-4.7v-1.6l4.9-7.2h2.2v7h1.3V26.4z M828,24.5v-1.9c0-0.3,0-0.8,0-1.4
				c0-0.6,0-0.9,0.1-1H828c-0.2,0.4-0.4,0.8-0.7,1.2l-2,3.1H828z"/>
		</g>
		<g>
			<defs>
				<rect id="SVGID_7_" x="256" y="-156" width="800" height="600"/>
			</defs>
			<clipPath id="SVGID_8_">
				<use xlink:href="#SVGID_7_"  style="overflow:visible;"/>
			</clipPath>
			<polygon class="st17" points="834.8,24.3 832.1,20.2 834.7,20.2 836.3,22.9 838,20.2 840.6,20.2 837.9,24.3 840.8,28.7 
				838.1,28.7 836.3,25.7 834.6,28.7 831.9,28.7 			"/>
		</g>
		<g>
			<defs>
				<rect id="SVGID_9_" x="256" y="-156" width="800" height="600"/>
			</defs>
			<clipPath id="SVGID_10_">
				<use xlink:href="#SVGID_9_"  style="overflow:visible;"/>
			</clipPath>
			<path class="st18" d="M831.6,261.2h-1.3v2.3H828v-2.3h-4.7v-1.6l4.9-7.2h2.2v7h1.3V261.2z M828,259.4v-1.9c0-0.3,0-0.8,0-1.4
				c0-0.6,0-0.9,0.1-1H828c-0.2,0.4-0.4,0.8-0.7,1.2l-2,3.1H828z"/>
		</g>
		<g>
			<defs>
				<rect id="SVGID_11_" x="256" y="-156" width="800" height="600"/>
			</defs>
			<clipPath id="SVGID_12_">
				<use xlink:href="#SVGID_11_"  style="overflow:visible;"/>
			</clipPath>
			<polygon class="st19" points="834.8,259.2 832.1,255.1 834.7,255.1 836.3,257.8 838,255.1 840.6,255.1 837.9,259.2 840.8,263.5 
				838.1,263.5 836.3,260.6 834.6,263.5 831.9,263.5 			"/>
		</g>
		<g>
			<defs>
				<rect id="SVGID_13_" x="256" y="-156" width="800" height="600"/>
			</defs>
			<clipPath id="SVGID_14_">
				<use xlink:href="#SVGID_13_"  style="overflow:visible;"/>
			</clipPath>
			<path class="st20" d="M453.3,261.2H452v2.3h-2.3v-2.3h-4.7v-1.6l4.9-7.2h2.2v7h1.3V261.2z M449.7,259.4v-1.9c0-0.3,0-0.8,0-1.4
				s0-0.9,0.1-1h-0.1c-0.2,0.4-0.4,0.8-0.7,1.2l-2,3.1H449.7z"/>
		</g>
		<g>
			<defs>
				<rect id="SVGID_15_" x="256" y="-156" width="800" height="600"/>
			</defs>
			<clipPath id="SVGID_16_">
				<use xlink:href="#SVGID_15_"  style="overflow:visible;"/>
			</clipPath>
			<polygon class="st21" points="456.5,259.2 453.8,255.1 456.4,255.1 458,257.8 459.7,255.1 462.3,255.1 459.6,259.2 462.5,263.5 
				459.8,263.5 458,260.6 456.3,263.5 453.6,263.5 			"/>
		</g>
	</g>
	<text transform="matrix(0 -1 1 0 490.1523 228.9648)" class="st13 st22 st23">3x</text>
	<text transform="matrix(1 0 0 1 474.7227 198.4277)" class="st13 st22 st23">2x</text>
	<text transform="matrix(0 1 -1 0 796.1016 215.0479)" class="st13 st22 st23">3x</text>
	<text transform="matrix(1 0 0 1 798.2158 198.3262)" class="st13 st22 st23">2x</text>
	<g class="st13">
		<g>
			<defs>
				<rect id="SVGID_17_" x="256" y="-156" width="800" height="600"/>
			</defs>
			<clipPath id="SVGID_18_">
				<use xlink:href="#SVGID_17_"  style="overflow:visible;"/>
			</clipPath>
			<line class="st24" x1="436" y1="168" x2="850" y2="168"/>
		</g>
		<g>
			<defs>
				<rect id="SVGID_19_" x="256" y="-156" width="800" height="600"/>
			</defs>
			<clipPath id="SVGID_20_">
				<use xlink:href="#SVGID_19_"  style="overflow:visible;"/>
			</clipPath>
			<line class="st25" x1="436" y1="159" x2="472" y2="159"/>
		</g>
		<g>
			<defs>
				<rect id="SVGID_21_" x="256" y="-156" width="800" height="600"/>
			</defs>
			<clipPath id="SVGID_22_">
				<use xlink:href="#SVGID_21_"  style="overflow:visible;"/>
			</clipPath>
			<line class="st26" x1="814" y1="159" x2="850" y2="159"/>
		</g>
	</g>
	<text transform="matrix(1 0 0 1 841 167)" class="st13 st22 st23">x</text>
	<text transform="matrix(1 0 0 1 438.0039 167)" class="st13 st22 st23">x</text>
</g>
</svg>
