<svg xmlns="http://www.w3.org/2000/svg" id="Capa_1" viewBox="-704 37 511 407"><style>.st0{fill:#FFFFFF;}</style><path d="M-232.5 37h-432c-21.8 0-39.5 17.7-39.5 39.5v256c0 21.8 17.7 39.5 39.5 39.5h176c4 0 7.5-3.4 7.5-7.5s-3.4-7.5-7.5-7.5h-176c-13.5 0-24.5-11-24.5-24.5v-256C-689 63-678 52-664.5 52h432C-219 52-208 63-208 76.5v256c0 4 3.4 7.5 7.5 7.5s7.5-3.4 7.5-7.5v-256c0-21.8-17.7-39.5-39.5-39.5z" class="st0"/><path d="M-640.5 316h152c4 0 7.5-3.4 7.5-7.5s-3.4-7.5-7.5-7.5h-152c-4 0-7.5 3.4-7.5 7.5s3.4 7.5 7.5 7.5zm87.5-151.5v-32c0-13-10.5-23.5-23.5-23.5h-48c-13 0-23.5 10.5-23.5 23.5v32c0 13 10.5 23.5 23.5 23.5h48c13 0 23.5-10.5 23.5-23.5zm-80 0V156h8.5c4 0 7.5-3.4 7.5-7.5s-3.4-7.5-7.5-7.5h-8.5v-8.5c0-4.7 3.8-8.5 8.5-8.5h16.5v49h-16.5c-4.7 0-8.5-3.8-8.5-8.5zm56.5 8.5H-593v-49h16.5c4.7 0 8.5 3.8 8.5 8.5v8.5h-8.5c-4 0-7.5 3.4-7.5 7.5s3.4 7.5 7.5 7.5h8.5v8.5c0 4.7-3.8 8.5-8.5 8.5zm-71.5 87.5c0 4 3.4 7.5 7.5 7.5s7.5-3.4 7.5-7.5v-16c0-4-3.4-7.5-7.5-7.5s-7.5 3.4-7.5 7.5v16zm24-16v16c0 4 3.4 7.5 7.5 7.5s7.5-3.4 7.5-7.5v-16c0-4-3.4-7.5-7.5-7.5s-7.5 3.4-7.5 7.5zm24 0v16c0 4 3.4 7.5 7.5 7.5s7.5-3.4 7.5-7.5v-16c0-4-3.4-7.5-7.5-7.5s-7.5 3.4-7.5 7.5zm24 0v16c0 4 3.4 7.5 7.5 7.5s7.5-3.4 7.5-7.5v-16c0-4-3.4-7.5-7.5-7.5s-7.5 3.4-7.5 7.5zm47 16v-16c0-4-3.4-7.5-7.5-7.5s-7.5 3.4-7.5 7.5v16c0 4 3.4 7.5 7.5 7.5s7.5-3.4 7.5-7.5zm24 0v-16c0-4-3.4-7.5-7.5-7.5-4 0-7.5 3.4-7.5 7.5v16c0 4 3.4 7.5 7.5 7.5 4 0 7.5-3.4 7.5-7.5zm24-16c0-4-3.4-7.5-7.5-7.5s-7.5 3.4-7.5 7.5v16c0 4 3.4 7.5 7.5 7.5s7.5-3.4 7.5-7.5v-16zm232 11.7v-27.7c0-52.7-42.8-95.5-95.5-95.5s-95.5 42.8-95.5 95.5v27.7c-14 6-24 20-24 36.3v112c0 21.8 17.7 39.5 39.5 39.5h160c21.8 0 39.5-17.7 39.5-39.5v-112c0-16.3-10-30.3-24-36.3zm-176-27.7c0-44.4 36-80.5 80.5-80.5s80.5 36 80.5 80.5V253h-17v-24.5c0-35-28.5-63.5-63.5-63.5s-63.5 28.5-63.5 63.5V253h-17v-24.5zm32 24.5v-24.5c0-26.7 21.8-48.5 48.5-48.5s48.5 21.8 48.5 48.5V253h-97zm153 151.5c0 13.5-11 24.5-24.5 24.5h-160c-13.5 0-24.5-11-24.5-24.5v-112c0-13.5 11-24.5 24.5-24.5h160c13.5 0 24.5 11 24.5 24.5v112z" class="st0"/><path d="M-324.2 308.4c-7-6-16.6-8.5-26-7-12.6 2.3-23 12.8-25.3 25.6-1.7 9.6 1 19.2 7.5 26.4v19c0 13 10.5 23.6 23.5 23.6s23.5-10.5 23.5-23.5v-19.2c5-5.8 8-13.2 8-20.8 0-9.3-4-18-11.2-24zm-9.3 36.3c-1.6 1.4-2.5 3.4-2.5 5.6v22.2c0 4.7-3.8 8.5-8.5 8.5s-8.5-3.8-8.5-8.5v-22.2c0-2-1-4-2.5-5.6-4.3-4-6.3-9.4-5.3-15.2 1-6.6 6.7-12 13.2-13.3l3-.3c4 0 7.6 1 10.6 3.6 3.7 3 6 7.8 6 12.6s-2 9-5.5 12.3z" class="st0"/></svg>