<svg xmlns="http://www.w3.org/2000/svg" viewBox="0 0 196.8 196.8"><g fill="#fff"><path d="M148 31H52.7c-10 0-18.2 8.3-18.2 18.3v95.3c0 10 8.2 18 18.2 18H148c10 0 18-8 18-18V49.3c0-10-8-18.2-18-18.2zm0 126H52.7c-6.8 0-12.3-5.6-12.3-12.4V49.3C40.4 42.5 46 37 52.7 37H148c6.8 0 12.3 5.5 12.3 12.3v95.3c0 6.8-5.5 12.3-12.3 12.3zM176.3 59.6h17.5c1.7 0 3-1.3 3-3s-1.3-3-3-3h-17.5c-1.6 0-3 1.4-3 3 0 1.7 1.4 3 3 3zM193.8 69.7h-17.5c-1.6 0-3 1.3-3 3 0 1.5 1.4 3 3 3h17.5c1.7 0 3-1.5 3-3 0-1.7-1.3-3-3-3zM193.8 86h-17.5c-1.6 0-3 1.3-3 3 0 1.5 1.4 3 3 3h17.5c1.7 0 3-1.5 3-3 0-1.7-1.3-3-3-3zM193.8 102h-17.5c-1.6 0-3 1.3-3 3 0 1.5 1.4 2.8 3 2.8h17.5c1.7 0 3-1.3 3-3 0-1.5-1.3-2.8-3-2.8zM193.8 116.7h-17.5c-1.6 0-3 1.3-3 3 0 1.6 1.4 3 3 3h17.5c1.7 0 3-1.4 3-3 0-1.7-1.3-3-3-3zM193.8 132.7h-17.5c-1.6 0-3 1.3-3 3 0 1.6 1.4 3 3 3h17.5c1.7 0 3-1.4 3-3 0-1.7-1.3-3-3-3zM20.5 53.7H3c-1.7 0-3 1.3-3 3s1.3 3 3 3h17.5c1.6 0 3-1.4 3-3s-1.4-3-3-3zM20.5 69.7H3c-1.7 0-3 1.3-3 3 0 1.5 1.3 3 3 3h17.5c1.6 0 3-1.5 3-3 0-1.7-1.4-3-3-3zM20.5 86H3c-1.7 0-3 1.3-3 3 0 1.5 1.3 3 3 3h17.5c1.6 0 3-1.5 3-3 0-1.7-1.4-3-3-3zM20.5 102H3c-1.7 0-3 1.3-3 3 0 1.5 1.3 2.8 3 2.8h17.5c1.6 0 3-1.3 3-3 0-1.5-1.4-2.8-3-2.8zM20.5 116.7H3c-1.7 0-3 1.3-3 3 0 1.6 1.3 3 3 3h17.5c1.6 0 3-1.4 3-3 0-1.7-1.4-3-3-3zM20.5 132.7H3c-1.7 0-3 1.3-3 3 0 1.6 1.3 3 3 3h17.5c1.6 0 3-1.4 3-3 0-1.7-1.4-3-3-3zM139.8 173.4c-1.6 0-3 1.3-3 3v17.4c0 1.7 1.4 3 3 3 1.7 0 3-1.3 3-3v-17.5c0-1.6-1.3-3-3-3zM123.8 173.4c-1.6 0-3 1.3-3 3v17.4c0 1.7 1.4 3 3 3 1.7 0 3-1.3 3-3v-17.5c0-1.6-1.3-3-3-3zM107.6 173.4c-1.7 0-3 1.3-3 3v17.4c0 1.7 1.3 3 3 3 1.6 0 3-1.3 3-3v-17.5c0-1.6-1.4-3-3-3zM91.6 173.4c-1.6 0-3 1.3-3 3v17.4c0 1.7 1.4 3 3 3s3-1.3 3-3v-17.5c0-1.6-1.4-3-3-3zM76.8 173.4c-1.6 0-3 1.3-3 3v17.4c0 1.7 1.4 3 3 3s3-1.3 3-3v-17.5c0-1.6-1.4-3-3-3zM60.8 173.4c-1.6 0-3 1.3-3 3v17.4c0 1.7 1.4 3 3 3 1.7 0 3-1.3 3-3v-17.5c0-1.6-1.3-3-3-3zM139.8 23.4c1.7 0 3-1.3 3-3V3c0-1.7-1.3-3-3-3-1.6 0-3 1.3-3 3v17.5c0 1.6 1.4 3 3 3zM123.8 23.4c1.7 0 3-1.3 3-3V3c0-1.7-1.3-3-3-3-1.6 0-3 1.3-3 3v17.5c0 1.6 1.4 3 3 3zM107.6 23.4c1.6 0 3-1.3 3-3V3c0-1.7-1.4-3-3-3-1.7 0-3 1.3-3 3v17.5c0 1.6 1.3 3 3 3zM91.6 23.4c1.6 0 3-1.3 3-3V3c0-1.7-1.4-3-3-3s-3 1.3-3 3v17.5c0 1.6 1.4 3 3 3zM76.8 23.4c1.6 0 3-1.3 3-3V3c0-1.7-1.4-3-3-3s-3 1.3-3 3v17.5c0 1.6 1.4 3 3 3zM60.8 23.4c1.7 0 3-1.3 3-3V3c0-1.7-1.3-3-3-3-1.6 0-3 1.3-3 3v17.5c0 1.6 1.4 3 3 3z"/></g></svg>