<svg xmlns="http://www.w3.org/2000/svg" id="Capa_1" viewBox="-707 -12.1 504.1 486.1"><style>.st0{fill:#FFFFFF;}</style><path d="M-230 168c15 0 27-12 27-27V33c0-15-12-27-27-27h-450c-15 0-27 12-27 27v108c0 15 12 27 27 27h27v18h-27c-15 0-27 12-27 27v108c0 15 12 27 27 27h207v36h-63c-5 0-9 4-9 9v27h-153v18h153v27c0 5 4 9 9 9h144c5 0 9-4 9-9v-27h171v-18h-171v-27c0-5-4-9-9-9h-63v-36h225c15 0 27-12 27-27V213c0-15-12-27-27-27h-27v-18h27zm-171 288h-126v-54h126v54zm-288-315V33c0-5 4-9 9-9h450c5 0 9 4 9 9v108c0 4.8-4 9-9 9h-450c-5 0-9-4-9-9zm468 72v108c0 5-4 9-9 9h-450c-5 0-9-4-9-9V213c0-5 4-9 9-9h450c5 0 9 4 9 9zm-54-27h-360v-18h360v18z" class="st0"/><path d="M-581 42h216v18h-216zm0 72h216v18h-216zm0-36h216v18h-216zm279-18c-14.8 0-27 12-27 27s12.2 27 27 27 27-12.2 27-27-12-27-27-27zm0 36c-5 0-9-4.2-9-9 0-5 4-9 9-9s9 4 9 9-4 9-9 9zm-279 126h216v18h-216zm0 72h216v18h-216zm0-36h216v18h-216zm279 36c15 0 27-12 27-27s-12-27-27-27-27 12-27 27 12.2 27 27 27zm0-36c5 0 9 4 9 9s-4 9-9 9-9-4-9-9 4-9 9-9z" class="st0"/></svg>