<?xml version="1.0" encoding="iso-8859-1"?>
<!-- Generator: Adobe Illustrator 18.0.0, SVG Export Plug-In . SVG Version: 6.00 Build 0)  -->
<!DOCTYPE svg PUBLIC "-//W3C//DTD SVG 1.1//EN" "http://www.w3.org/Graphics/SVG/1.1/DTD/svg11.dtd">
<svg version="1.1" id="Capa_1" xmlns="http://www.w3.org/2000/svg" xmlns:xlink="http://www.w3.org/1999/xlink" x="0px" y="0px"
	 viewBox="0 0 400 400" style="enable-background:new 0 0 400 400;" xml:space="preserve">
<g>
	<path fill="#fff" d="M367.008,42.585H32.992C14.8,42.585,0,57.386,0,75.578v248.845c0,18.192,14.8,32.992,32.992,32.992h334.016
		c18.192,0,32.992-14.8,32.992-32.992V75.578C400,57.386,385.2,42.585,367.008,42.585z M388,324.422
		c0,11.575-9.417,20.992-20.992,20.992H32.992c-11.575,0-20.992-9.417-20.992-20.992V75.578c0-11.575,9.417-20.992,20.992-20.992
		h334.016c11.575,0,20.992,9.417,20.992,20.992V324.422z"/>
	<path fill="#fff" d="M226.329,173.671v-32.427c0-3.313-2.687-6-6-6h-40.658c-3.313,0-6,2.687-6,6v32.427h-32.428c-3.313,0-6,2.686-6,6v40.658
		c0,3.314,2.687,6,6,6h32.428v32.427c0,3.313,2.687,6,6,6h40.658c3.313,0,6-2.687,6-6v-32.427h32.427c3.313,0,6-2.686,6-6v-40.658
		c0-3.314-2.687-6-6-6H226.329z M252.756,214.329h-32.427c-3.313,0-6,2.687-6,6v32.427h-28.658v-32.427c0-3.313-2.687-6-6-6h-32.428
		v-28.658h32.428c3.313,0,6-2.687,6-6v-32.427h28.658v32.427c0,3.313,2.687,6,6,6h32.427V214.329z"/>
	<path fill="#fff" d="M200,103.997c-52.937,0-96.003,43.067-96.003,96.003s43.066,96.003,96.003,96.003s96.003-43.067,96.003-96.003
		S252.937,103.997,200,103.997z M200,284.003c-46.319,0-84.003-37.684-84.003-84.003s37.684-84.003,84.003-84.003
		s84.003,37.684,84.003,84.003S246.319,284.003,200,284.003z"/>
</g>
</svg>
