<svg xmlns="http://www.w3.org/2000/svg" id="Capa_1" viewBox="-743 141.2 432 271.6"><style>.st0{fill:#FFFFFF;}</style><path d="M-611.5 356.2c-3.7 0-7.1 1.5-9.7 4.1-2.6 2.6-4 6.1-4 9.8 0 7.6 6.2 13.7 13.8 13.7h.1c3.7 0 7.1-1.5 9.7-4.1 2.6-2.6 4-6.1 4-9.8-.1-7.5-6.2-13.7-13.9-13.7zm4.2 17.9c-1.1 1.1-2.5 1.7-4.1 1.7-3.2 0-5.7-2.6-5.8-5.7 0-1.5.6-3 1.7-4.1s2.5-1.7 4.1-1.7c3.2 0 5.7 2.6 5.8 5.7 0 1.5-.6 3-1.7 4.1zm110.9-17.9c-3.7 0-7.1 1.5-9.7 4.1-2.6 2.6-4 6.1-4 9.8 0 7.6 6.2 13.7 13.8 13.7h.1c3.7 0 7.1-1.5 9.7-4.1 2.6-2.6 4-6.1 4-9.8-.1-7.5-6.3-13.7-13.9-13.7zm4.1 17.9c-1.1 1.1-2.5 1.7-4.1 1.7-3.2 0-5.7-2.6-5.8-5.7 0-1.5.6-3 1.7-4.1s2.5-1.7 4.1-1.7c3.2 0 5.7 2.6 5.8 5.7 0 1.5-.6 3-1.7 4.1zm111 9.7c3.7 0 7.2-1.5 9.8-4.1 2.6-2.6 4-6.1 4-9.8 0-7.6-6.2-13.7-13.8-13.7-3.7 0-7.1 1.5-9.7 4.1-2.6 2.6-4 6.1-4 9.8 0 7.5 6.1 13.7 13.7 13.7zm-4.1-17.9c1.1-1.1 2.5-1.7 4.1-1.7 3.2 0 5.7 2.6 5.8 5.7 0 1.5-.6 3-1.7 4.1s-2.5 1.7-4.1 1.7c-3.2 0-5.7-2.6-5.8-5.7 0-1.5.6-3 1.7-4.1z" class="st0"/><path d="M-415.4 323h33.9c1 0 1.9-.4 2.6-1l66.5-59.8c.8-.8 1.3-1.8 1.3-3s-.5-2.2-1.3-3l-33-29.7c-1.5-1.4-3.8-1.4-5.4 0l-32.6 29.3h-24.8v-13c0-2.2-1.8-4-4-4h-39c-2.2 0-4 1.8-4 4v13h-82.1c-1.5-10-8.4-18.3-17.7-21.8v-38.3h21.3c2.2 0 4-1.8 4-4V145c0-2.2-1.8-4-4-4h-62c-2.2 0-4 1.8-4 4v46.7c0 2.2 1.8 4 4 4h21.3V234c-9.2 3.5-16.2 11.8-17.7 21.8h-19.3c-2.2 0-4 1.8-4 4V296l-35.4 21.5-46.6-46.6c4-7 3.1-16.1-2.9-22.1l-15.8-15.8c-1.6-1.6-4.1-1.6-5.7 0-1.6 1.6-1.6 4.1 0 5.7l15.8 15.8c4 4 4 10.6 0 14.6-2 2-4.5 3-7.3 3s-5.4-1.1-7.3-3l-15.8-15.8c-1.6-1.6-4.1-1.6-5.7 0-1.6 1.6-1.6 4.1 0 5.7l15.8 15.8c3.5 3.5 8.1 5.4 13 5.4 3.8 0 7.4-1.2 10.4-3.3l48.6 48.6c.8.8 1.8 1.2 2.8 1.2.7 0 1.4-.2 2.1-.6l33.9-20.6V319c0 2.2 1.8 4 4 4h26.7l-17.2 9.2c-1.9-.5-3.9-.8-5.9-1 0-2.2-1.8-3.9-4-3.9s-4 1.8-4 4c-7.6.8-14.7 3.8-20.6 8.7-1.6-1.5-4.1-1.5-5.6.1s-1.5 4.1 0 5.6c-4.8 5.9-7.7 13.1-8.5 20.7-2.2 0-3.9 1.8-3.9 4s1.8 4 4 4c.8 7.8 4 14.8 8.7 20.6-1.5 1.6-1.5 4.1 0 5.6.8.8 1.8 1.2 2.8 1.2 1 0 2-.4 2.8-1.2 5.8 4.7 12.9 7.7 20.7 8.5 0 2.2 1.8 3.9 4 3.9s4-1.8 4-4c7.6-.8 14.7-3.8 20.6-8.7.8.7 1.8 1.1 2.8 1.1 1 0 2.1-.4 2.8-1.2 1.5-1.6 1.5-4 0-5.6 4.8-5.9 7.7-13.1 8.5-20.7 2.2 0 3.9-1.8 3.9-4s-1.8-4-4-4c-.8-7.8-4-14.8-8.7-20.6 1.5-1.6 1.5-4.1 0-5.6-1.6-1.5-4.1-1.5-5.6 0-1.6-1.3-3.3-2.5-5.1-3.5l24.5-13.1h105.5l-18.6 11.3c-3.7-1.6-7.7-2.7-11.9-3.1 0-2.2-1.8-3.9-4-3.9s-4 1.8-4 4c-7.6.8-14.7 3.8-20.6 8.7-1.6-1.5-4.1-1.5-5.6.1s-1.5 4.1 0 5.6c-4.8 5.9-7.7 13.1-8.5 20.7-2.2 0-3.9 1.8-3.9 4s1.8 4 4 4c.8 7.8 4 14.8 8.7 20.6-1.5 1.6-1.5 4.1 0 5.6.8.8 1.8 1.2 2.8 1.2 1 0 2-.4 2.8-1.2 5.8 4.7 12.9 7.7 20.7 8.5 0 2.2 1.8 3.9 4 3.9s4-1.8 4-4c7.6-.8 14.7-3.8 20.6-8.7.8.7 1.8 1.1 2.8 1.1 1 0 2.1-.4 2.8-1.2 1.5-1.6 1.5-4 0-5.6 4.8-5.9 7.7-13.1 8.5-20.7 2.2 0 3.9-1.8 3.9-4s-1.8-4-4-4c-.8-7.8-4-14.8-8.7-20.6 1.5-1.6 1.5-4.1 0-5.6-1.6-1.5-4.1-1.5-5.6 0-.3-.3-.6-.5-1-.8l21.8-13.2c2.4 3.9 6.8 6.5 11.7 6.5h.1c5.1 0 9.6-2.9 11.9-7.1l22.6 13.7c-.5.3-.9.7-1.3 1.1-1.6-1.5-4.1-1.5-5.6.1s-1.5 4.1 0 5.6c-4.8 5.9-7.7 13.1-8.5 20.7-2.2 0-3.9 1.8-3.9 4s1.8 4 4 4c.8 7.8 4 14.8 8.7 20.6-1.5 1.6-1.5 4.1 0 5.6.8.8 1.8 1.2 2.8 1.2 1 0 2-.4 2.8-1.2 5.8 4.7 12.9 7.7 20.7 8.5 0 2.2 1.8 3.9 4 3.9s4-1.8 4-4c7.6-.8 14.7-3.8 20.6-8.7.8.7 1.8 1.1 2.8 1.1 1 0 2.1-.4 2.8-1.2 1.5-1.6 1.5-4 0-5.6 4.8-5.9 7.7-13.1 8.5-20.7 2.2 0 3.9-1.8 3.9-4s-1.8-4-4-4c-.8-7.8-4-14.8-8.7-20.6 1.5-1.6 1.5-4.1 0-5.6-1.6-1.5-4.1-1.5-5.6 0-5.8-4.7-12.9-7.7-20.7-8.5 0-2.2-1.8-3.9-4-3.9s-4 1.8-4 4c-4 .4-7.8 1.4-11.4 3l-18.3-11.3zm-175.5 26.3c.8.8 1.8 1.2 2.8 1.2.2 0 .5 0 .7-.1 3.7 4.5 6.1 10.1 6.8 16.1-1.1.7-1.7 1.9-1.7 3.3s.7 2.6 1.8 3.3c-.6 5.9-2.9 11.5-6.6 16.2-1.3-.2-2.6.1-3.6 1.1s-1.3 2.3-1.1 3.6c-4.6 3.8-10.2 6.1-16.1 6.8-.7-1.1-1.9-1.7-3.3-1.7s-2.6.7-3.3 1.8c-6.1-.6-11.7-3-16.2-6.7.2-1.2-.1-2.6-1.1-3.5-1-1-2.3-1.3-3.6-1.1-3.7-4.5-6.1-10.1-6.8-16.1 1.1-.7 1.7-1.9 1.7-3.3s-.7-2.6-1.8-3.3c.6-5.9 2.9-11.5 6.6-16.2.2 0 .5.1.7.1 1 0 2.1-.4 2.8-1.2 1-1 1.3-2.3 1.1-3.6 4.6-3.8 10.2-6.1 16.1-6.8.7 1.1 1.9 1.7 3.3 1.7s2.6-.7 3.3-1.8c6.1.6 11.7 3 16.2 6.7 0 1.2.3 2.6 1.3 3.5zm115 0c.8.8 1.8 1.2 2.8 1.2.2 0 .5 0 .7-.1 3.7 4.5 6.1 10.1 6.8 16.1-1.1.7-1.7 1.9-1.7 3.3s.7 2.6 1.8 3.3c-.6 5.9-2.9 11.5-6.6 16.2-1.3-.2-2.6.1-3.6 1.1s-1.3 2.3-1.1 3.6c-4.6 3.8-10.2 6.1-16.1 6.8-.7-1.1-1.9-1.7-3.3-1.7s-2.6.7-3.3 1.8c-6.1-.6-11.7-3-16.2-6.7.2-1.2-.1-2.6-1.1-3.5-1-1-2.3-1.3-3.6-1.1-3.7-4.5-6.1-10.1-6.8-16.1 1.1-.7 1.7-1.9 1.7-3.3s-.7-2.6-1.8-3.3c.6-5.9 2.9-11.5 6.6-16.2.2 0 .5.1.7.1 1 0 2.1-.4 2.8-1.2 1-1 1.3-2.3 1.1-3.6 4.6-3.8 10.2-6.1 16.1-6.8.7 1.1 1.9 1.7 3.3 1.7s2.6-.7 3.3-1.8c6.1.6 11.7 3 16.2 6.7 0 1.2.4 2.6 1.3 3.5zm98.4-67.4l40.9-36.7 3.4 3-44.2 39.8v-6.1zm0 28.1v-11.3l50.2-45.1 6.3 5.7-56.5 50.7zm29.4-75.1l5.4 4.9-34.9 31.4v-9.7l29.5-26.6zm-99.1 11.9h31v9h-31v-9zm-90.4-59h-4.7v-38.7h4.7v38.7zm-54-38.6h41.3v38.7h-41.3v-38.7zm25.4 46.6h3.3v36.6c-.5 0-1.1-.1-1.7-.1h-.1c-.5 0-1 0-1.5.1v-36.6zm1.5 44.6c.1 0 .1 0 0 0 9.5 0 17.4 6.7 19.3 15.5h-38.4c1.9-8.8 9.8-15.5 19.1-15.5zm-42.5 74.6v-14.4l11.5-7c2.5 2.5 6 4.1 9.8 4.1h.1c3.7 0 7.1-1.5 9.7-4.1 2.6-2.6 4-6.1 4-9.8 0-7.6-6.2-13.7-13.8-13.7-3.7 0-7.1 1.5-9.7 4.1-2.6 2.6-4 6.1-4 9.8 0 .8.1 1.7.2 2.5l-7.8 4.7v-27.4h221.7V315H-426c-1.5-6-6.9-10.4-13.4-10.4-2.2 0-4.2.5-6 1.4l-37.3-22.7v-.7c0-7.6-6.2-13.7-13.8-13.7-7.6 0-13.7 6.2-13.7 13.8v.4l-59.3 31.8-37.7.1zm15.5-31c0-1.5.6-3 1.7-4.1s2.5-1.7 4.1-1.7c3.2 0 5.7 2.6 5.8 5.7 0 1.5-.6 3-1.7 4.1s-2.5 1.7-4.1 1.7c-3.2.1-5.7-2.5-5.8-5.7zm100.9-1.4c0 3.2-2.6 5.8-5.7 5.8-3.2 0-5.7-2.6-5.8-5.7 0-3.2 2.6-5.8 5.8-5.8 3.1 0 5.7 2.6 5.7 5.7zm-16.8 8.2c2.5 3.4 6.5 5.6 11.1 5.6h.1c4.4 0 8.4-2.2 10.9-5.4l34.2 20.8c-.5 1-1 2.1-1.3 3.2h-100l45-24.2zm68.2 33.3c-3.2 0-5.8-2.6-5.8-5.7 0-3.2 2.6-5.8 5.8-5.8 3.2 0 5.7 2.6 5.8 5.7 0 3.2-2.6 5.8-5.8 5.8zm54.6 15.1c.7 1.1 1.9 1.7 3.3 1.7s2.6-.7 3.3-1.8c6.1.6 11.7 3 16.2 6.7-.2 1.2.1 2.6 1.1 3.5.8.8 1.8 1.2 2.8 1.2.2 0 .5 0 .7-.1 3.7 4.5 6.1 10.1 6.8 16.1-1.1.7-1.7 1.9-1.7 3.3s.7 2.6 1.8 3.3c-.6 5.9-2.9 11.5-6.6 16.2-1.3-.2-2.6.1-3.6 1.1s-1.3 2.3-1.1 3.6c-4.6 3.8-10.2 6.1-16.1 6.8-.7-1.1-1.9-1.7-3.3-1.7s-2.6.7-3.3 1.8c-6.1-.6-11.7-3-16.2-6.7.2-1.2-.1-2.6-1.1-3.5-1-1-2.3-1.3-3.6-1.1-3.7-4.5-6.1-10.1-6.8-16.1 1.1-.7 1.7-1.9 1.7-3.3s-.7-2.6-1.8-3.3c.6-5.9 2.9-11.5 6.6-16.2.2 0 .5.1.7.1 1 0 2.1-.4 2.8-1.2 1-1 1.3-2.3 1.1-3.6 4.8-3.9 10.4-6.2 16.3-6.8z" class="st0"/><path d="M-571.3 154.1c-7.6 0-13.7 6.2-13.7 13.8 0 7.6 6.2 13.7 13.8 13.7h.1c7.6 0 13.7-6.2 13.7-13.8-.1-7.6-6.3-13.7-13.9-13.7zm.1 19.5c-3.2 0-5.8-2.6-5.8-5.7 0-3.2 2.6-5.8 5.8-5.8 3.2 0 5.7 2.6 5.8 5.7 0 3.2-2.6 5.8-5.8 5.8zm141.6 107.7h30c2.2 0 4-1.8 4-4s-1.8-4-4-4h-30c-2.2 0-4 1.8-4 4 0 2.3 1.8 4 4 4zm0 11.4h30c2.2 0 4-1.8 4-4s-1.8-4-4-4h-30c-2.2 0-4 1.8-4 4s1.8 4 4 4z" class="st0"/></svg>