<?xml version="1.0" encoding="utf-8"?>
<!-- Generator: Adobe Illustrator 19.0.0, SVG Export Plug-In . SVG Version: 6.00 Build 0)  -->
<svg version="1.1" id="Startup" xmlns="http://www.w3.org/2000/svg" xmlns:xlink="http://www.w3.org/1999/xlink" x="0px" y="0px"
	 viewBox="-805.8 95.5 334 293.5" style="enable-background:new -805.8 95.5 334 293.5;" xml:space="preserve">
<style type="text/css">
	.st0{fill:#FFFFFF;}
</style>
<g>
	<path class="st0" d="M-659.4,308.1c-1-1-2.4-1.6-3.9-1.6s-2.9,0.6-3.9,1.6c-1,1-1.6,2.4-1.6,3.9c0,1.4,0.6,2.9,1.6,3.9
		c1,1,2.4,1.6,3.9,1.6c1.4,0,2.9-0.6,3.9-1.6c1-1,1.6-2.4,1.6-3.9C-657.8,310.6-658.3,309.2-659.4,308.1z"/>
	<path class="st0" d="M-533.5,370.6c0.8,0,1.6-0.3,2.2-0.9c0.6-0.6,0.9-1.4,0.9-2.2c0-0.8-0.3-1.6-0.9-2.2c-0.6-0.6-1.4-0.9-2.2-0.9
		c-0.8,0-1.6,0.3-2.2,0.9c-0.6,0.6-0.9,1.4-0.9,2.2s0.3,1.6,0.9,2.2C-535.2,370.3-534.4,370.6-533.5,370.6z"/>
	<path class="st0" d="M-486.1,213.6h-34.7v-75.3c0-5.7-2.2-11.1-6.3-15.2c-4.1-4.1-9.5-6.3-15.2-6.3h-97.7l-0.6-0.8
		c-9.6-12.3-18.6-19.2-19-19.5c-1-0.7-2.1-1.1-3.3-1.1c-1.2,0-2.3,0.4-3.3,1.1c-0.4,0.3-9.5,7.2-19,19.5l-0.6,0.8h-98.5
		c-11.9,0-21.5,9.6-21.5,21.5v181.2c0,11.9,9.6,21.5,21.5,21.5h83l-11.6,34.9h-11.3c-3,0-5.5,2.5-5.5,5.5s2.5,5.5,5.5,5.5h121.8
		c3,0,5.5-2.5,5.5-5.5s-2.5-5.5-5.5-5.5h-11.3l-11.6-34.9h30v33.6c0,7.9,6.4,14.3,14.3,14.3h94.9c7.9,0,14.3-6.4,14.3-14.3V227.9
		C-471.8,220-478.2,213.6-486.1,213.6z M-664.2,109.5l1.4-1.3l1.4,1.3c8.3,7.7,27.9,29,32.5,59.4l0.3,2.3H-697l0.3-2.3
		C-692.1,138.5-672.5,117.2-664.2,109.5z M-609.9,281.2h-45.4l1.7-3c4.2-7.5,6.4-13.5,6.4-17.3v-13h19.2v4.4c0,1.1,0.3,2.1,0.9,3
		L-609.9,281.2z M-617,250.7V218l3.2,2.4c3.7,2.8,6,7.2,6,11.8v32.3L-617,250.7z M-628,236.9h-19.2v-13.3c0-9.4-7-17.1-15.6-17.1
		c-8.6,0-15.6,7.7-15.6,17.1v13.3h-19.2v-53.7h69.6V236.9z M-658.3,260.8l0,0.1c-0.1,1.4-1,3.9-2.8,7.5l-1.8,3.6l-1.8-3.6
		c-1.8-3.6-2.7-6.1-2.8-7.5l0-0.1v-37.3c0-3.7,2.4-6.1,4.6-6.1c2.2,0,4.6,2.5,4.6,6.1L-658.3,260.8z M-698.6,255.4
		c0.6-0.9,0.9-2,0.9-3v-4.4h19.2v13c0,3.8,2.2,9.8,6.4,17.3l1.7,3h-45.4L-698.6,255.4z M-717.8,264.4v-32.3c0-4.6,2.2-9.1,6-11.8
		l3.2-2.4v32.7L-717.8,264.4z M-794.8,138.3c0-5.8,4.7-10.5,10.5-10.5h91l-1.7,3c-9.1,16.1-13.7,33.2-13.7,50.9V207l-1.5,0.4
		c-11,3.1-18.7,13.3-18.7,24.7v49h-66V138.3z M-625.2,376h-76.1l11.6-34.9h52.8L-625.2,376z M-784.3,330.1
		c-5.8,0-10.5-4.7-10.5-10.5v-27.4h199.5v37.9H-784.3z M-595.3,227.9v53.2h-1.6v-49c0-11.4-7.7-21.6-18.7-24.7l-1.5-0.4v-25.3
		c0-17.7-4.6-34.8-13.7-50.9l-1.7-3h90.1c5.8,0,10.5,4.7,10.5,10.5v75.3H-581C-588.9,213.6-595.3,220-595.3,227.9z M-482.1,374.7
		c0,2.2-1.8,4-4,4H-581c-2.2,0-4-1.8-4-4v-21h102.9V374.7z M-511.1,288v33.9h-12.4v-8.5c0-5.2-3.5-9.6-8.2-10.2
		c-0.4-0.1-0.8-0.1-1.2-0.1c-5.2,0-9.4,4.6-9.4,10.3v8.5h-12.4V288H-511.1z M-554.5,281.2l0.4-2.3c2.9-18.4,14.8-31.3,19.8-36.1
		l1.4-1.3l1.4,1.3c2.8,2.7,7,7.1,10.8,13.2c4.7,7.3,7.7,15,8.9,22.9l0.4,2.3H-554.5z M-503.5,343.5h-1.1h-19.9h-1.2
		c1.8-3.7,2.1-5.9,2.1-7.1v-8.3h12.4v3c0,0.6,0.2,1.2,0.5,1.7L-503.5,343.5z M-504.8,330.2v-21.5l3.4,3.3c1.8,1.8,2.8,4.1,2.8,6.7
		v20.8L-504.8,330.2z M-529.9,313.3l0,23.1c0,0.7-0.4,1.8-1.1,3.4l-1.7,3.7h-0.6l-1.5-3.3c-1-2.1-1.2-3.2-1.3-3.7l0-0.1v-23.2
		c0-2.2,1.4-4.1,3.1-4.1c0.4,0,0.8,0.1,1.2,0.3C-530.6,310.3-529.9,311.7-529.9,313.3z M-553.7,328.1h11.3v8.3
		c0,1.1,0.3,3.1,1.9,6.6c0.1,0.2,0.2,0.4,0.2,0.5h-1.2h-19.9h-1.1l7.3-11L-553.7,328.1z M-561.1,330.2l-6.2,9.3v-20.8
		c0-2.5,1-4.9,2.8-6.7l3.4-3.3V330.2z M-482.1,343.5h-8.3h-2v-24.9c0-6.8-4.6-13-11.1-15l-1.4-0.4v-15.8c0-19-8.6-33.5-15.9-42.2
		c-5.3-6.4-9.8-9.9-10.3-10.2c-0.2-0.1-0.4-0.3-0.7-0.4c-0.4-0.2-0.8-0.3-1.2-0.3c-0.7,0-1.3,0.2-1.9,0.6c-1,0.7-24,18.4-26.1,48.2
		c-0.1,1.6-0.2,3-0.2,4.2v15.8l-1.4,0.4c-6.5,2-11.1,8.1-11.1,15v24.9h-2h-9.4V227.9c0-2.2,1.8-4,4-4h94.9c2.2,0,4,1.8,4,4V343.5z"
		/>
</g>
</svg>
