<?xml version="1.0" encoding="UTF-8" ?>
<!DOCTYPE svg PUBLIC "-//W3C//DTD SVG 1.1//EN" "http://www.w3.org/Graphics/SVG/1.1/DTD/svg11.dtd">
<svg width="251pt" height="66pt" viewBox="0 0 251 66" version="1.1" xmlns="http://www.w3.org/2000/svg">
<g id="#4c4c4cff">
<path fill="#4c4c4c" opacity="1.00" d=" M 1.05 1.07 C 23.66 1.05 46.27 1.06 68.88 1.07 C 68.87 22.36 68.86 43.64 68.88 64.93 C 46.27 64.94 23.66 64.94 1.05 64.93 C 1.07 43.64 1.07 22.36 1.05 1.07 M 10.83 11.60 C 10.81 25.85 10.85 40.11 10.81 54.36 C 15.53 54.80 20.28 54.51 25.02 54.59 C 36.14 54.40 47.31 54.96 58.40 54.32 C 58.86 48.40 58.43 42.45 58.58 36.52 C 57.46 35.35 56.34 34.17 55.22 33.00 C 56.34 31.83 57.46 30.66 58.58 29.49 C 58.40 23.54 58.92 17.55 58.35 11.63 C 54.25 11.11 50.10 11.55 45.98 11.42 C 34.27 11.53 22.54 11.18 10.83 11.60 Z" />
<path fill="#4c4c4c" opacity="1.00" d=" M 155.02 1.52 C 161.82 1.74 170.15 -0.03 175.26 5.72 C 179.99 10.28 178.41 17.20 178.66 23.05 C 178.83 26.95 176.58 30.51 173.74 33.00 C 176.63 35.47 178.87 38.97 178.65 42.90 C 178.41 48.77 180.00 55.72 175.25 60.29 C 170.12 66.04 161.78 64.27 154.96 64.47 C 155.18 43.49 155.07 22.50 155.02 1.52 M 160.44 6.90 C 160.40 14.69 160.45 22.47 160.40 30.25 C 163.63 30.17 167.23 30.95 170.05 28.94 C 172.79 27.38 173.63 23.98 173.74 21.05 C 173.80 16.93 174.23 12.11 171.02 8.96 C 168.06 6.52 164.02 6.88 160.44 6.90 M 160.43 59.08 C 165.01 59.42 171.33 59.23 173.00 53.94 C 174.15 49.10 174.50 43.43 172.05 38.92 C 169.61 34.90 164.40 35.72 160.42 35.73 C 160.43 43.51 160.41 51.30 160.43 59.08 Z" />
<path fill="#4c4c4c" opacity="1.00" d=" M 228.41 4.29 C 233.79 -1.21 244.35 0.03 247.87 7.08 C 249.90 11.42 248.61 16.42 248.89 21.04 C 247.28 21.20 245.68 21.32 244.07 21.42 C 243.86 16.81 245.39 11.05 241.43 7.60 C 237.50 4.02 230.75 7.06 230.37 12.21 C 230.11 15.45 229.80 19.14 232.13 21.76 C 236.89 27.40 241.58 33.10 246.31 38.75 C 250.32 43.55 248.70 50.16 248.85 55.87 C 247.48 65.38 233.69 68.34 227.89 61.11 C 223.73 56.29 225.06 49.59 224.87 43.77 C 226.67 43.53 228.48 43.29 230.30 43.08 C 230.89 48.35 228.22 55.83 233.93 59.04 C 236.48 60.93 239.72 59.79 241.96 57.99 C 244.70 54.89 244.28 50.53 244.02 46.71 C 243.90 44.93 243.02 43.33 241.90 41.99 C 237.03 36.20 232.13 30.42 227.37 24.54 C 223.70 18.52 223.61 9.73 228.41 4.29 Z" />
<path fill="#4c4c4c" opacity="1.00" d=" M 75.78 1.50 C 82.51 1.75 90.40 0.07 95.81 5.19 C 100.81 9.79 99.96 17.09 99.80 23.21 C 99.68 26.98 97.59 30.31 95.10 33.00 C 97.61 35.70 99.69 39.06 99.81 42.84 C 100.00 50.05 99.77 57.27 99.92 64.48 C 98.10 64.49 96.29 64.49 94.47 64.50 C 94.48 57.39 94.54 50.27 94.48 43.15 C 94.47 40.68 93.00 38.46 91.04 37.06 C 88.25 34.81 84.46 35.97 81.18 35.75 C 81.24 45.33 81.19 54.92 81.22 64.50 C 79.40 64.50 77.59 64.50 75.78 64.50 C 75.79 43.50 75.79 22.50 75.78 1.50 M 81.23 6.91 C 81.17 14.69 81.25 22.47 81.18 30.26 C 83.50 30.28 85.83 30.40 88.14 30.16 C 91.88 29.51 94.78 25.79 94.51 21.99 C 94.25 17.65 95.71 12.24 91.94 9.00 C 89.13 6.18 84.82 7.02 81.23 6.91 Z" />
<path fill="#4c4c4c" opacity="1.00" d=" M 108.75 1.50 C 110.56 1.50 112.37 1.50 114.19 1.50 C 114.18 22.50 114.18 43.50 114.19 64.50 C 112.37 64.50 110.56 64.50 108.75 64.50 C 108.77 43.50 108.77 22.50 108.75 1.50 Z" />
<path fill="#4c4c4c" opacity="1.00" d=" M 121.27 1.60 C 122.99 1.53 124.71 1.47 126.43 1.41 C 129.62 10.05 132.14 18.91 135.02 27.65 C 137.88 18.93 140.72 10.20 143.45 1.43 C 145.26 1.48 147.08 1.54 148.90 1.60 C 145.35 11.33 142.61 21.32 139.23 31.10 C 138.41 32.84 138.92 34.73 139.54 36.43 C 142.74 45.73 145.62 55.13 148.90 64.40 C 147.08 64.46 145.26 64.52 143.45 64.57 C 140.72 55.80 137.88 47.08 135.02 38.36 C 132.24 47.06 129.48 55.76 126.65 64.44 C 124.85 64.46 123.05 64.46 121.25 64.44 C 124.54 53.91 128.15 43.48 131.57 33.00 C 128.15 22.53 124.55 12.12 121.27 1.60 Z" />
<path fill="#4c4c4c" opacity="1.00" d=" M 187.47 1.50 C 189.28 1.50 191.10 1.51 192.92 1.52 C 192.84 22.51 192.84 43.49 192.92 64.48 C 191.10 64.49 189.28 64.50 187.47 64.51 C 187.51 43.50 187.51 22.50 187.47 1.50 Z" />
<path fill="#4c4c4c" opacity="1.00" d=" M 199.26 1.52 C 206.82 1.48 214.38 1.48 221.95 1.52 C 221.93 3.31 221.91 5.11 221.90 6.90 C 219.13 6.91 216.36 6.91 213.59 6.91 C 213.57 26.11 213.56 45.31 213.60 64.51 C 211.77 64.50 209.95 64.49 208.13 64.48 C 208.23 45.29 208.16 26.10 208.17 6.91 C 205.21 6.91 202.26 6.91 199.30 6.90 C 199.29 5.11 199.27 3.31 199.26 1.52 Z" />
<path fill="#4c4c4c" opacity="1.00" d=" M 18.23 18.85 C 28.19 18.89 38.16 18.76 48.12 18.89 C 52.19 18.96 54.29 24.61 51.43 27.38 C 50.17 29.05 47.96 29.38 46.01 29.30 C 36.74 29.26 27.47 29.29 18.20 29.27 C 18.23 25.79 18.24 22.32 18.23 18.85 Z" />
<path fill="#4c4c4c" opacity="1.00" d=" M 18.20 36.73 C 27.85 36.73 37.50 36.69 47.14 36.74 C 50.58 36.49 53.74 40.14 52.51 43.50 C 52.01 45.88 49.56 47.25 47.25 47.15 C 37.57 47.18 27.90 47.14 18.23 47.15 C 18.24 43.68 18.23 40.21 18.20 36.73 Z" />
</g>
</svg>
