<?xml version="1.0" encoding="UTF-8" ?>
<!DOCTYPE svg PUBLIC "-//W3C//DTD SVG 1.1//EN" "http://www.w3.org/Graphics/SVG/1.1/DTD/svg11.dtd">
<svg width="400pt" height="380pt" viewBox="0 0 400 380" version="1.1" xmlns="http://www.w3.org/2000/svg">
<g id="#0074a0ff">
<path fill="#0074a0" opacity="1.00" d=" M 150.92 86.87 C 161.40 75.82 175.77 68.56 190.86 66.55 C 198.02 66.05 205.25 65.25 212.42 66.20 C 212.37 76.57 212.44 86.93 212.37 97.30 C 203.81 97.52 194.84 96.29 186.74 99.77 C 173.23 104.86 163.46 118.46 163.21 132.92 C 163.21 145.67 163.13 158.41 163.26 171.15 C 176.67 171.04 190.08 171.45 203.48 170.72 C 214.11 170.06 223.80 163.88 230.09 155.46 C 241.67 155.32 253.26 155.44 264.84 155.40 C 259.86 170.48 249.53 183.69 236.04 192.06 C 225.01 198.95 211.99 202.48 199.02 202.39 C 176.61 202.42 154.21 202.39 131.80 202.40 C 131.81 179.60 131.78 156.79 131.81 133.99 C 131.84 116.61 138.74 99.31 150.92 86.87 Z" />
<path fill="#0074a0" opacity="1.00" d=" M 34.85 258.86 C 41.98 249.40 54.34 244.96 65.95 246.30 C 75.87 246.78 85.32 252.50 90.23 261.16 C 87.87 262.93 85.49 264.67 83.03 266.29 C 79.73 261.08 74.69 256.80 68.53 255.59 C 58.19 252.78 46.15 257.30 40.70 266.63 C 37.01 272.40 36.53 279.58 37.59 286.19 C 39.41 295.71 47.45 303.65 56.97 305.40 C 63.00 306.22 69.45 305.85 74.80 302.67 C 78.62 300.70 81.32 297.28 83.81 293.88 C 86.25 295.52 88.67 297.20 91.06 298.91 C 86.49 306.41 78.94 312.05 70.28 313.80 C 63.16 315.17 55.52 314.98 48.73 312.22 C 39.55 308.63 32.15 300.71 29.33 291.25 C 26.02 280.42 27.77 267.86 34.85 258.86 Z" />
<path fill="#0074a0" opacity="1.00" d=" M 97.10 280.04 C 97.37 270.30 96.21 260.55 97.27 250.84 C 100.09 250.85 102.91 250.85 105.73 250.85 C 105.56 258.57 106.80 266.30 105.71 273.99 C 111.47 270.91 118.51 268.96 124.76 271.81 C 130.85 274.11 134.55 280.60 134.53 286.94 C 134.60 295.86 134.52 304.78 134.55 313.70 C 131.57 313.70 128.58 313.70 125.60 313.70 C 125.58 305.12 125.63 296.55 125.60 287.97 C 125.74 284.58 124.09 280.68 120.61 279.63 C 116.11 278.34 110.57 279.73 107.90 283.77 C 105.35 287.41 106.47 292.09 106.18 296.24 C 105.75 302.06 105.77 307.89 105.79 313.72 C 102.80 313.70 99.82 313.70 96.83 313.63 C 97.40 308.43 96.58 303.22 96.96 298.01 C 97.37 292.03 97.03 286.03 97.10 280.04 Z" />
<path fill="#0074a0" opacity="1.00" d=" M 193.57 255.47 C 196.31 253.06 200.24 254.57 202.55 256.83 C 202.65 258.94 202.65 261.06 202.55 263.18 C 200.70 264.53 198.71 266.22 196.23 265.66 C 191.41 265.28 189.69 258.23 193.57 255.47 Z" />
<path fill="#0074a0" opacity="1.00" d=" M 192.81 270.40 C 195.77 270.40 198.73 270.40 201.70 270.40 C 201.70 284.83 201.70 299.27 201.70 313.70 C 198.73 313.70 195.77 313.70 192.80 313.70 C 192.81 299.27 192.80 284.83 192.81 270.40 Z" />
<path fill="#0074a0" opacity="1.00" d=" M 147.57 276.49 C 151.63 272.54 157.34 270.32 163.01 270.53 C 170.00 270.55 176.98 270.57 183.97 270.54 C 184.04 284.93 183.98 299.31 184.00 313.70 C 181.07 313.70 178.13 313.70 175.20 313.70 C 175.20 312.96 175.21 311.48 175.22 310.73 C 167.56 316.26 156.29 315.95 148.99 309.97 C 139.05 302.03 138.52 285.29 147.57 276.49 M 157.03 304.94 C 163.83 308.71 173.50 304.37 174.87 296.62 C 175.62 290.84 175.00 284.97 175.20 279.15 C 169.51 279.45 163.66 278.43 158.09 279.80 C 147.87 283.58 147.34 300.25 157.03 304.94 Z" />
</g>
<g id="#5b5c5eff">
<path fill="#5b5c5e" opacity="1.00" d=" M 224.00 66.28 C 238.60 65.30 253.22 66.64 267.82 65.69 C 268.05 67.77 268.21 69.86 268.22 71.96 C 268.18 95.91 268.22 119.85 268.20 143.80 C 257.67 143.80 247.13 143.79 236.60 143.79 C 236.60 128.29 236.60 112.79 236.60 97.30 C 232.43 97.29 228.26 97.29 224.09 97.31 C 223.91 86.97 224.07 76.62 224.00 66.28 Z" />
<path fill="#5b5c5e" opacity="1.00" d=" M 234.40 247.58 C 247.52 243.68 263.00 247.53 271.64 258.46 C 278.66 266.89 280.76 278.76 278.17 289.30 C 275.97 298.83 269.13 307.08 260.36 311.33 C 247.17 317.77 229.83 315.17 219.77 304.25 C 208.31 292.49 207.39 272.37 217.39 259.43 C 221.56 253.76 227.71 249.67 234.40 247.58 M 240.72 249.99 C 230.89 251.23 221.80 257.57 217.67 266.63 C 211.50 279.06 214.64 295.53 225.52 304.32 C 237.23 314.20 256.45 313.16 266.89 301.90 C 278.24 290.11 277.86 269.32 265.97 258.04 C 259.37 251.71 249.75 248.69 240.72 249.99 Z" />
<path fill="#5b5c5e" opacity="1.00" d=" M 286.57 270.57 C 293.90 270.63 301.25 270.39 308.58 270.65 C 315.75 271.05 322.07 277.07 322.45 284.31 C 322.71 294.10 322.48 303.91 322.55 313.72 C 321.21 313.70 319.88 313.68 318.55 313.67 C 318.45 304.39 318.76 295.10 318.39 285.82 C 318.30 280.51 314.56 275.10 309.00 274.56 C 302.86 274.16 296.70 274.49 290.54 274.42 C 290.55 287.51 290.55 300.61 290.55 313.71 C 289.21 313.69 287.88 313.67 286.55 313.66 C 286.58 299.30 286.54 284.93 286.57 270.57 Z" />
<path fill="#5b5c5e" opacity="1.00" d=" M 330.50 289.02 C 331.66 280.75 337.99 273.37 346.11 271.25 C 354.07 268.96 363.46 271.94 368.10 278.94 C 371.11 283.22 372.04 288.49 372.50 293.59 C 359.77 293.64 347.04 293.53 334.31 293.64 C 334.95 297.74 335.87 302.05 338.76 305.21 C 345.95 313.86 360.87 313.03 367.78 304.40 C 368.52 305.41 369.49 306.31 369.91 307.53 C 365.39 313.18 357.87 315.32 350.87 314.76 C 342.77 314.69 335.04 309.41 332.02 301.90 C 330.17 297.89 330.04 293.34 330.50 289.02 M 340.46 278.38 C 337.08 281.21 335.57 285.48 334.66 289.66 C 345.81 290.95 356.99 289.41 368.17 289.76 C 367.21 286.11 366.31 282.21 363.67 279.36 C 357.99 272.77 346.73 272.49 340.46 278.38 Z" />
</g>
</svg>
