<?xml version="1.0" encoding="UTF-8" ?>
<!DOCTYPE svg PUBLIC "-//W3C//DTD SVG 1.1//EN" "http://www.w3.org/Graphics/SVG/1.1/DTD/svg11.dtd">
<svg width="922pt" height="426pt" viewBox="0 0 922 426" version="1.1" xmlns="http://www.w3.org/2000/svg">
<g id="#ffffffff">
<path fill="#ffffff" opacity="1.00" d=" M 0.00 0.00 L 922.00 0.00 L 922.00 426.00 L 0.00 426.00 L 0.00 0.00 M 40.90 90.88 C 35.68 134.66 36.18 179.10 42.12 222.79 C 45.39 247.98 51.51 272.78 60.12 296.67 C 66.60 314.43 75.55 331.22 85.95 346.98 C 94.96 360.34 106.32 371.94 118.54 382.38 C 131.36 392.83 145.88 401.22 161.38 407.02 C 162.83 407.56 164.46 407.77 165.96 407.25 C 194.54 397.04 218.98 377.30 237.45 353.46 C 245.00 343.37 251.35 332.43 257.16 321.27 C 266.07 304.10 272.17 285.65 277.19 267.02 C 281.15 252.23 284.06 237.17 286.03 221.99 C 291.87 178.56 292.32 134.39 287.14 90.87 C 246.10 68.07 205.07 45.25 164.02 22.44 C 122.98 45.25 81.94 68.06 40.90 90.88 M 360.62 128.65 C 353.02 133.68 350.34 143.28 350.30 151.94 C 350.29 186.66 350.28 221.38 350.31 256.10 C 350.40 264.73 353.14 274.30 360.77 279.22 C 369.47 284.79 380.22 283.78 390.07 283.86 C 398.09 283.89 406.88 282.68 412.98 276.98 C 419.11 271.09 420.72 262.19 420.63 254.02 C 420.60 242.03 420.62 230.04 420.62 218.05 C 412.75 218.05 404.89 218.05 397.02 218.05 C 397.00 230.07 397.06 242.10 397.01 254.12 C 397.06 257.34 395.53 261.09 392.17 262.06 C 388.12 263.06 383.81 263.00 379.73 262.19 C 376.08 261.47 374.25 257.51 374.33 254.09 C 374.33 220.69 374.34 187.29 374.32 153.90 C 374.22 150.53 375.86 146.59 379.40 145.67 C 383.42 144.76 387.69 144.73 391.71 145.70 C 395.15 146.70 396.67 150.61 396.59 153.91 C 396.58 164.28 396.57 174.65 396.58 185.02 C 404.44 185.02 412.30 185.02 420.17 185.02 C 420.16 174.02 420.18 163.02 420.17 152.02 C 420.10 144.10 418.17 135.53 411.99 130.07 C 405.62 124.77 396.96 123.79 388.97 123.90 C 379.41 123.93 368.99 123.14 360.62 128.65 M 447.50 125.25 C 447.50 177.68 447.50 230.10 447.51 282.52 C 455.52 282.52 463.53 282.52 471.55 282.52 C 471.55 230.10 471.55 177.68 471.55 125.25 C 463.53 125.25 455.52 125.25 447.50 125.25 M 490.75 125.26 C 490.74 132.52 490.74 139.78 490.75 147.05 C 497.93 147.05 505.12 147.05 512.32 147.05 C 512.32 192.21 512.32 237.37 512.32 282.53 C 520.33 282.53 528.34 282.53 536.36 282.53 C 536.36 237.37 536.36 192.21 536.36 147.05 C 543.54 147.05 550.73 147.05 557.92 147.05 C 557.92 139.78 557.92 132.52 557.92 125.25 C 535.53 125.26 513.14 125.25 490.75 125.26 M 587.35 125.03 C 579.86 177.53 572.37 230.02 564.89 282.52 C 572.30 282.52 579.71 282.52 587.13 282.52 C 588.10 274.28 589.08 266.05 590.04 257.81 C 598.36 257.80 606.67 257.81 614.99 257.81 C 616.03 266.04 617.08 274.28 618.13 282.52 C 626.06 282.52 634.00 282.52 641.94 282.52 C 634.38 230.03 626.81 177.53 619.25 125.03 C 608.62 125.03 597.98 125.03 587.35 125.03 M 661.51 125.26 C 661.51 177.68 661.51 230.10 661.51 282.52 C 674.32 282.44 687.14 282.69 699.95 282.39 C 709.12 282.16 719.33 279.79 725.22 272.18 C 730.55 265.76 731.89 257.09 732.06 249.00 C 732.06 219.33 732.04 189.66 732.07 159.99 C 732.02 151.55 730.82 142.45 725.30 135.70 C 719.49 128.10 709.33 125.64 700.20 125.40 C 687.31 125.07 674.41 125.35 661.51 125.26 M 753.44 125.26 C 753.44 177.68 753.44 230.10 753.44 282.53 C 771.41 282.52 789.38 282.53 807.36 282.53 C 807.35 275.26 807.35 268.00 807.36 260.73 C 797.39 260.73 787.44 260.73 777.48 260.73 C 777.48 244.93 777.48 229.13 777.48 213.33 C 786.91 213.33 796.35 213.33 805.78 213.33 C 805.78 206.06 805.78 198.80 805.79 191.53 C 796.35 191.54 786.91 191.53 777.48 191.53 C 777.48 176.71 777.48 161.88 777.48 147.05 C 787.28 147.05 797.09 147.05 806.90 147.05 C 806.90 139.79 806.90 132.52 806.90 125.26 C 789.08 125.26 771.26 125.26 753.44 125.26 M 828.12 125.26 C 828.12 177.68 828.12 230.10 828.12 282.53 C 844.97 282.53 861.82 282.52 878.67 282.53 C 878.67 275.26 878.67 268.00 878.67 260.73 C 869.83 260.73 861.00 260.73 852.16 260.73 C 852.16 215.58 852.16 170.42 852.16 125.26 C 844.14 125.26 836.13 125.26 828.12 125.26 M 463.94 307.45 C 463.93 309.43 463.92 311.42 463.94 313.41 C 465.92 313.42 467.91 313.42 469.90 313.42 C 469.90 311.42 469.90 309.43 469.90 307.44 C 467.91 307.43 465.92 307.44 463.94 307.45 M 664.12 307.61 C 664.11 317.42 664.13 327.22 664.08 337.03 C 664.07 339.95 664.17 343.39 666.69 345.37 C 669.14 347.16 672.41 346.78 675.28 347.22 C 675.27 345.66 675.28 344.11 675.29 342.56 C 673.65 342.22 671.99 342.01 670.44 341.39 C 669.63 339.36 669.76 337.12 669.71 334.97 C 669.79 325.85 669.75 316.74 669.76 307.62 C 667.87 307.61 665.99 307.61 664.12 307.61 M 757.57 307.45 C 757.55 309.43 757.55 311.42 757.57 313.41 C 759.54 313.42 761.53 313.42 763.53 313.42 C 763.53 311.42 763.53 309.43 763.53 307.45 C 761.53 307.44 759.54 307.44 757.57 307.45 M 731.06 310.93 C 731.05 313.59 731.05 316.26 731.06 318.93 C 730.26 318.94 728.65 318.96 727.85 318.97 C 727.84 320.38 727.84 321.81 727.85 323.23 C 728.66 323.25 730.26 323.28 731.06 323.29 C 731.15 328.88 730.83 334.47 731.17 340.05 C 731.30 342.53 732.63 345.08 734.98 346.11 C 737.26 346.93 739.73 346.94 742.12 347.22 C 742.11 345.67 742.11 344.12 742.11 342.58 C 740.38 341.88 737.30 342.39 736.97 339.97 C 736.30 334.44 736.86 328.83 736.71 323.27 C 738.51 323.26 740.31 323.26 742.12 323.26 C 742.11 321.82 742.11 320.38 742.12 318.95 C 740.31 318.94 738.50 318.94 736.71 318.94 C 736.70 316.27 736.70 313.60 736.70 310.93 C 734.81 310.92 732.93 310.92 731.06 310.93 M 356.27 321.29 C 349.93 327.27 349.95 338.79 356.36 344.70 C 361.39 348.84 368.90 347.65 373.68 343.68 C 372.45 342.43 371.20 341.19 369.95 339.97 C 367.56 341.27 364.90 343.01 362.07 341.95 C 358.37 340.82 357.18 336.48 357.27 333.03 C 357.15 329.54 358.34 325.14 362.07 323.99 C 364.89 322.95 367.55 324.67 369.94 325.98 C 371.19 324.74 372.43 323.48 373.66 322.22 C 368.86 318.23 361.30 317.13 356.27 321.29 M 388.26 322.36 C 389.41 323.53 390.58 324.70 391.77 325.84 C 394.76 324.03 398.41 322.60 401.87 324.04 C 404.47 325.09 404.23 328.34 404.75 330.62 C 400.17 330.87 395.21 329.95 390.97 332.12 C 385.94 334.93 386.19 343.04 391.02 345.92 C 395.29 348.34 400.58 347.38 404.61 344.93 C 404.59 345.45 404.56 346.48 404.54 347.00 C 406.37 347.00 408.22 346.99 410.06 346.99 C 409.95 340.30 410.28 333.60 409.98 326.92 C 409.84 323.64 407.55 320.59 404.45 319.54 C 398.98 317.73 392.67 318.50 388.26 322.36 M 430.32 320.34 C 425.92 322.80 424.94 329.68 428.94 332.95 C 432.74 335.52 437.65 334.55 441.80 336.13 C 443.93 337.58 443.07 340.98 440.81 341.81 C 436.64 343.39 432.19 341.90 428.45 339.92 C 427.25 341.13 426.07 342.35 424.90 343.59 C 430.47 347.53 438.27 348.72 444.45 345.53 C 449.00 343.12 450.15 336.21 446.20 332.73 C 442.25 329.55 436.54 331.27 432.33 328.72 C 431.35 326.95 432.06 324.43 434.09 323.81 C 437.46 322.64 440.96 324.06 444.21 325.01 C 445.37 323.84 446.50 322.66 447.64 321.47 C 442.44 318.64 435.72 317.32 430.32 320.34 M 464.10 318.95 C 464.09 328.30 464.10 337.65 464.10 347.00 C 465.97 347.00 467.85 347.00 469.74 346.99 C 469.73 337.64 469.74 328.30 469.73 318.95 C 467.85 318.94 465.97 318.94 464.10 318.95 M 487.23 318.95 C 487.22 328.30 487.23 337.64 487.22 346.99 C 489.10 347.00 490.98 347.00 492.86 346.99 C 493.04 340.70 492.46 334.36 493.12 328.09 C 493.64 323.68 499.85 322.28 502.75 325.26 C 504.19 326.77 504.24 328.99 504.33 330.95 C 504.41 336.30 504.26 341.64 504.31 346.99 C 506.19 347.00 508.07 347.00 509.96 347.00 C 509.85 340.61 510.15 334.22 509.92 327.83 C 509.87 323.46 506.53 319.17 502.04 318.79 C 498.67 318.10 495.52 319.74 492.64 321.25 C 492.68 320.67 492.74 319.53 492.77 318.96 C 490.92 318.94 489.07 318.94 487.23 318.95 M 530.27 320.27 C 525.98 323.40 526.05 329.31 526.12 334.08 C 526.16 338.33 527.27 343.43 531.53 345.40 C 535.53 347.36 540.01 345.88 543.54 343.64 C 543.01 346.90 543.49 351.51 539.84 353.11 C 536.61 354.73 533.17 353.00 530.18 351.72 C 529.03 352.88 527.88 354.04 526.75 355.22 C 530.56 357.90 535.31 359.32 539.95 358.27 C 545.26 357.53 549.00 352.25 548.85 347.04 C 548.93 337.68 548.81 328.31 548.86 318.95 C 547.01 318.94 545.17 318.94 543.34 318.96 C 543.40 319.57 543.52 320.78 543.59 321.39 C 539.79 318.64 534.36 317.44 530.27 320.27 M 591.42 320.48 C 587.23 323.01 586.34 329.61 590.15 332.85 C 594.06 335.70 599.35 334.39 603.61 336.37 C 604.88 338.10 604.45 340.51 602.57 341.59 C 598.35 343.53 593.65 341.96 589.79 339.94 C 588.58 341.14 587.38 342.35 586.21 343.58 C 591.74 347.52 599.47 348.69 605.64 345.61 C 610.36 343.23 611.53 336.04 607.36 332.60 C 603.45 329.74 598.15 330.99 593.89 329.01 C 592.71 327.37 593.12 324.80 595.06 323.96 C 598.51 322.51 602.19 324.06 605.56 325.01 C 606.69 323.84 607.81 322.65 608.94 321.47 C 603.69 318.58 596.81 317.27 591.42 320.48 M 632.28 319.24 C 628.41 320.39 625.54 323.96 624.97 327.92 C 624.26 332.50 624.17 337.51 626.24 341.77 C 629.27 347.50 637.35 348.77 642.65 345.59 C 645.64 343.81 647.35 340.45 647.73 337.06 C 648.20 332.46 648.33 327.37 645.75 323.32 C 642.91 318.98 637.01 317.81 632.28 319.24 M 689.87 318.95 C 689.96 325.33 689.69 331.72 689.91 338.09 C 689.93 342.53 693.37 346.85 697.93 347.18 C 701.24 347.82 704.32 346.18 707.14 344.68 C 707.13 345.26 707.09 346.42 707.07 347.00 C 708.91 347.00 710.76 347.00 712.61 346.99 C 712.60 337.64 712.61 328.30 712.60 318.95 C 710.72 318.94 708.83 318.94 706.96 318.95 C 706.77 325.26 707.37 331.61 706.71 337.90 C 706.15 342.20 700.15 343.66 697.21 340.82 C 695.40 339.05 695.56 336.33 695.47 334.01 C 695.45 328.99 695.54 323.97 695.51 318.95 C 693.62 318.94 691.74 318.94 689.87 318.95 M 757.73 318.95 C 757.73 328.30 757.73 337.64 757.73 346.99 C 759.60 347.00 761.48 346.99 763.37 346.99 C 763.37 337.64 763.37 328.30 763.37 318.95 C 761.48 318.94 759.60 318.94 757.73 318.95 M 787.25 319.27 C 783.04 320.54 780.23 324.67 779.87 328.95 C 779.41 333.43 779.28 338.37 781.68 342.36 C 785.69 348.85 796.53 348.95 800.79 342.68 C 802.91 339.56 803.10 335.63 803.06 331.98 C 802.97 328.50 802.35 324.74 799.87 322.12 C 796.75 318.68 791.53 317.99 787.25 319.27 M 819.43 318.95 C 819.42 328.30 819.43 337.64 819.42 346.99 C 821.29 347.00 823.17 346.99 825.06 346.99 C 825.23 340.69 824.67 334.36 825.31 328.09 C 825.94 322.53 835.23 322.14 836.21 327.70 C 836.99 334.09 836.30 340.57 836.52 346.99 C 838.39 346.99 840.27 346.99 842.16 346.99 C 842.06 340.63 842.32 334.28 842.12 327.93 C 842.12 323.42 838.62 319.03 833.98 318.75 C 830.70 318.15 827.68 319.79 824.89 321.26 C 824.91 320.68 824.94 319.53 824.95 318.95 C 823.10 318.94 821.26 318.94 819.43 318.95 M 862.39 320.36 C 858.01 322.83 857.03 329.71 861.05 332.95 C 864.99 335.70 870.25 334.35 874.45 336.45 C 875.80 338.31 874.98 341.04 872.83 341.83 C 868.67 343.39 864.26 341.88 860.53 339.93 C 859.34 341.14 858.16 342.36 857.00 343.60 C 862.74 347.62 870.97 348.88 877.13 345.14 C 881.51 342.40 882.02 335.27 877.69 332.27 C 873.83 329.89 868.94 330.91 864.90 329.08 C 863.14 327.59 864.03 324.47 866.15 323.83 C 869.53 322.62 873.05 324.07 876.32 325.00 C 877.46 323.84 878.58 322.65 879.72 321.46 C 874.51 318.63 867.78 317.32 862.39 320.36 Z" />
<path fill="#ffffff" opacity="1.00" d=" M 52.36 98.57 C 89.58 77.88 126.80 57.18 164.03 36.49 C 201.24 57.18 238.46 77.88 275.68 98.56 C 280.21 142.87 278.87 187.75 271.86 231.73 C 266.34 265.36 256.59 298.75 239.30 328.32 C 232.25 341.06 223.06 352.50 212.81 362.80 C 199.12 376.87 182.25 387.69 164.03 394.91 C 148.20 388.65 133.45 379.65 120.84 368.22 C 109.96 357.99 99.94 346.70 92.10 333.96 C 83.55 319.82 76.19 304.93 70.73 289.32 C 64.16 270.37 59.15 250.87 56.11 231.04 C 49.19 187.28 47.89 142.64 52.36 98.57 M 122.07 78.26 C 122.21 85.30 122.34 92.33 122.48 99.37 C 114.03 104.50 105.59 109.64 97.14 114.76 C 97.15 107.21 97.15 99.65 97.16 92.10 C 86.81 97.85 76.46 103.62 66.10 109.38 C 65.14 125.50 64.81 141.66 65.12 157.80 C 96.77 139.39 128.41 120.94 160.07 102.53 C 160.08 87.46 160.07 72.40 160.07 57.34 C 147.41 64.31 134.74 71.29 122.07 78.26 M 167.98 57.35 C 167.99 72.42 167.90 87.50 168.03 102.57 C 199.69 120.93 231.28 139.41 262.93 157.80 C 263.23 141.65 262.91 125.49 261.93 109.37 C 251.58 103.62 241.24 97.85 230.89 92.10 C 230.88 99.66 230.90 107.21 230.90 114.76 C 222.46 109.62 214.00 104.51 205.57 99.35 C 205.70 92.32 205.84 85.30 205.97 78.27 C 193.31 71.29 180.65 64.31 167.98 57.35 M 65.12 167.00 C 66.10 199.00 70.40 230.88 77.79 262.02 C 82.40 280.20 89.00 297.88 97.41 314.64 C 106.35 331.03 118.55 346.58 135.56 355.10 C 135.58 321.92 135.57 288.75 135.57 255.58 C 122.93 248.84 110.29 242.08 97.66 235.33 C 97.75 231.56 97.85 227.79 97.95 224.02 C 109.88 224.09 122.04 224.20 133.58 227.58 C 137.89 228.94 143.67 231.59 143.34 236.96 C 143.56 251.40 143.53 265.85 143.33 280.29 C 148.92 284.41 154.49 288.55 160.07 292.68 C 160.08 232.35 160.08 172.01 160.07 111.68 C 128.42 130.12 96.77 148.56 65.12 167.00 M 167.98 111.69 C 167.96 172.02 167.96 232.34 167.98 292.67 C 173.56 288.56 179.12 284.42 184.70 280.31 C 184.55 265.86 184.44 251.40 184.71 236.95 C 184.38 232.16 189.15 229.47 193.02 228.06 C 204.94 224.14 217.68 224.14 230.10 224.01 C 230.19 227.78 230.29 231.56 230.39 235.33 C 217.76 242.09 205.11 248.83 192.48 255.58 C 192.47 288.75 192.45 321.93 192.48 355.10 C 201.57 350.45 209.61 343.88 216.14 336.05 C 229.92 320.11 237.93 300.31 244.78 280.64 C 250.40 264.35 253.71 247.39 256.64 230.44 C 260.18 209.47 262.27 188.26 262.93 167.01 C 231.28 148.57 199.64 130.12 167.98 111.69 Z" />
<path fill="#ffffff" opacity="1.00" d=" M 685.55 146.37 C 690.57 146.45 695.73 145.97 700.64 147.31 C 705.49 148.78 707.95 154.14 708.03 158.89 C 708.00 188.95 708.03 219.02 708.02 249.09 C 707.90 253.79 705.39 259.00 700.62 260.48 C 695.73 261.87 690.57 261.29 685.55 261.40 C 685.55 223.06 685.55 184.71 685.55 146.37 Z" />
<path fill="#ffffff" opacity="1.00" d=" M 602.39 156.98 C 605.73 183.47 608.98 209.97 612.29 236.47 C 605.77 236.47 599.26 236.47 592.74 236.47 C 595.96 209.97 599.19 183.48 602.39 156.98 Z" />
<path fill="#ffffff" opacity="1.00" d=" M 534.41 324.45 C 537.05 322.96 541.34 323.52 542.40 326.74 C 543.62 330.41 543.62 334.57 542.37 338.23 C 540.79 342.57 533.31 342.11 532.39 337.52 C 531.45 333.30 530.86 327.62 534.41 324.45 Z" />
<path fill="#ffffff" opacity="1.00" d=" M 633.39 324.36 C 636.04 322.98 639.99 323.70 641.23 326.66 C 642.94 330.59 642.93 335.36 641.21 339.29 C 639.85 342.43 635.39 343.15 632.80 341.17 C 630.25 338.87 629.98 335.11 630.09 331.90 C 630.22 329.16 630.85 325.87 633.39 324.36 Z" />
<path fill="#ffffff" opacity="1.00" d=" M 788.37 324.41 C 791.26 322.77 795.61 323.92 796.60 327.31 C 797.99 331.36 798.03 336.21 795.86 340.01 C 793.40 343.81 786.74 342.56 785.87 338.05 C 784.70 333.62 784.37 327.51 788.37 324.41 Z" />
<path fill="#ffffff" opacity="1.00" d=" M 392.82 337.96 C 394.24 332.96 400.89 335.08 404.73 334.57 C 404.22 337.10 404.70 340.76 401.78 341.95 C 398.53 343.41 392.09 342.86 392.82 337.96 Z" />
</g>
<g id="#555a45ff">
<path fill="#555a45" opacity="1.00" d=" M 40.90 90.88 C 81.94 68.06 122.98 45.25 164.02 22.44 C 205.07 45.25 246.10 68.07 287.14 90.87 C 292.32 134.39 291.87 178.56 286.03 221.99 C 284.06 237.17 281.15 252.23 277.19 267.02 C 272.17 285.65 266.07 304.10 257.16 321.27 C 251.35 332.43 245.00 343.37 237.45 353.46 C 218.98 377.30 194.54 397.04 165.96 407.25 C 164.46 407.77 162.83 407.56 161.38 407.02 C 145.88 401.22 131.36 392.83 118.54 382.38 C 106.32 371.94 94.96 360.34 85.95 346.98 C 75.55 331.22 66.60 314.43 60.12 296.67 C 51.51 272.78 45.39 247.98 42.12 222.79 C 36.18 179.10 35.68 134.66 40.90 90.88 M 52.36 98.57 C 47.89 142.64 49.19 187.28 56.11 231.04 C 59.15 250.87 64.16 270.37 70.73 289.32 C 76.19 304.93 83.55 319.82 92.10 333.96 C 99.94 346.70 109.96 357.99 120.84 368.22 C 133.45 379.65 148.20 388.65 164.03 394.91 C 182.25 387.69 199.12 376.87 212.81 362.80 C 223.06 352.50 232.25 341.06 239.30 328.32 C 256.59 298.75 266.34 265.36 271.86 231.73 C 278.87 187.75 280.21 142.87 275.68 98.56 C 238.46 77.88 201.24 57.18 164.03 36.49 C 126.80 57.18 89.58 77.88 52.36 98.57 Z" />
<path fill="#555a45" opacity="1.00" d=" M 122.07 78.26 C 134.74 71.29 147.41 64.31 160.07 57.34 C 160.07 72.40 160.08 87.46 160.07 102.53 C 128.41 120.94 96.77 139.39 65.12 157.80 C 64.81 141.66 65.14 125.50 66.10 109.38 C 76.46 103.62 86.81 97.85 97.16 92.10 C 97.15 99.65 97.15 107.21 97.14 114.76 C 105.59 109.64 114.03 104.50 122.48 99.37 C 122.34 92.33 122.21 85.30 122.07 78.26 Z" />
<path fill="#555a45" opacity="1.00" d=" M 65.12 167.00 C 96.77 148.56 128.42 130.12 160.07 111.68 C 160.08 172.01 160.08 232.35 160.07 292.68 C 154.49 288.55 148.92 284.41 143.33 280.29 C 143.53 265.85 143.56 251.40 143.34 236.96 C 143.67 231.59 137.89 228.94 133.58 227.58 C 122.04 224.20 109.88 224.09 97.95 224.02 C 97.85 227.79 97.75 231.56 97.66 235.33 C 110.29 242.08 122.93 248.84 135.57 255.58 C 135.57 288.75 135.58 321.92 135.56 355.10 C 118.55 346.58 106.35 331.03 97.41 314.64 C 89.00 297.88 82.40 280.20 77.79 262.02 C 70.40 230.88 66.10 199.00 65.12 167.00 Z" />
<path fill="#555a45" opacity="1.00" d=" M 360.62 128.65 C 368.99 123.14 379.41 123.93 388.97 123.90 C 396.96 123.79 405.62 124.77 411.99 130.07 C 418.17 135.53 420.10 144.10 420.17 152.02 C 420.18 163.02 420.16 174.02 420.17 185.02 C 412.30 185.02 404.44 185.02 396.58 185.02 C 396.57 174.65 396.58 164.28 396.59 153.91 C 396.67 150.61 395.15 146.70 391.71 145.70 C 387.69 144.73 383.42 144.76 379.40 145.67 C 375.86 146.59 374.22 150.53 374.32 153.90 C 374.34 187.29 374.33 220.69 374.33 254.09 C 374.25 257.51 376.08 261.47 379.73 262.19 C 383.81 263.00 388.12 263.06 392.17 262.06 C 395.53 261.09 397.06 257.34 397.01 254.12 C 397.06 242.10 397.00 230.07 397.02 218.05 C 404.89 218.05 412.75 218.05 420.62 218.05 C 420.62 230.04 420.60 242.03 420.63 254.02 C 420.72 262.19 419.11 271.09 412.98 276.98 C 406.88 282.68 398.09 283.89 390.07 283.86 C 380.22 283.78 369.47 284.79 360.77 279.22 C 353.14 274.30 350.40 264.73 350.31 256.10 C 350.28 221.38 350.29 186.66 350.30 151.94 C 350.34 143.28 353.02 133.68 360.62 128.65 Z" />
<path fill="#555a45" opacity="1.00" d=" M 447.50 125.25 C 455.52 125.25 463.53 125.25 471.55 125.25 C 471.55 177.68 471.55 230.10 471.55 282.52 C 463.53 282.52 455.52 282.52 447.51 282.52 C 447.50 230.10 447.50 177.68 447.50 125.25 Z" />
<path fill="#555a45" opacity="1.00" d=" M 490.75 125.26 C 513.14 125.25 535.53 125.26 557.92 125.25 C 557.92 132.52 557.92 139.78 557.92 147.05 C 550.73 147.05 543.54 147.05 536.36 147.05 C 536.36 192.21 536.36 237.37 536.36 282.53 C 528.34 282.53 520.33 282.53 512.32 282.53 C 512.32 237.37 512.32 192.21 512.32 147.05 C 505.12 147.05 497.93 147.05 490.75 147.05 C 490.74 139.78 490.74 132.52 490.75 125.26 Z" />
<path fill="#555a45" opacity="1.00" d=" M 587.35 125.03 C 597.98 125.03 608.62 125.03 619.25 125.03 C 626.81 177.53 634.38 230.03 641.94 282.52 C 634.00 282.52 626.06 282.52 618.13 282.52 C 617.08 274.28 616.03 266.04 614.99 257.81 C 606.67 257.81 598.36 257.80 590.04 257.81 C 589.08 266.05 588.10 274.28 587.13 282.52 C 579.71 282.52 572.30 282.52 564.89 282.52 C 572.37 230.02 579.86 177.53 587.35 125.03 M 602.39 156.98 C 599.19 183.48 595.96 209.97 592.74 236.47 C 599.26 236.47 605.77 236.47 612.29 236.47 C 608.98 209.97 605.73 183.47 602.39 156.98 Z" />
<path fill="#555a45" opacity="1.00" d=" M 661.51 125.26 C 674.41 125.35 687.31 125.07 700.20 125.40 C 709.33 125.64 719.49 128.10 725.30 135.70 C 730.82 142.45 732.02 151.55 732.07 159.99 C 732.04 189.66 732.06 219.33 732.06 249.00 C 731.89 257.09 730.55 265.76 725.22 272.18 C 719.33 279.79 709.12 282.16 699.95 282.39 C 687.14 282.69 674.32 282.44 661.51 282.52 C 661.51 230.10 661.51 177.68 661.51 125.26 M 685.55 146.37 C 685.55 184.71 685.55 223.06 685.55 261.40 C 690.57 261.29 695.73 261.87 700.62 260.48 C 705.39 259.00 707.90 253.79 708.02 249.09 C 708.03 219.02 708.00 188.95 708.03 158.89 C 707.95 154.14 705.49 148.78 700.64 147.31 C 695.73 145.97 690.57 146.45 685.55 146.37 Z" />
<path fill="#555a45" opacity="1.00" d=" M 753.44 125.26 C 771.26 125.26 789.08 125.26 806.90 125.26 C 806.90 132.52 806.90 139.79 806.90 147.05 C 797.09 147.05 787.28 147.05 777.48 147.05 C 777.48 161.88 777.48 176.71 777.48 191.53 C 786.91 191.53 796.35 191.54 805.79 191.53 C 805.78 198.80 805.78 206.06 805.78 213.33 C 796.35 213.33 786.91 213.33 777.48 213.33 C 777.48 229.13 777.48 244.93 777.48 260.73 C 787.44 260.73 797.39 260.73 807.36 260.73 C 807.35 268.00 807.35 275.26 807.36 282.53 C 789.38 282.53 771.41 282.52 753.44 282.53 C 753.44 230.10 753.44 177.68 753.44 125.26 Z" />
<path fill="#555a45" opacity="1.00" d=" M 828.12 125.26 C 836.13 125.26 844.14 125.26 852.16 125.26 C 852.16 170.42 852.16 215.58 852.16 260.73 C 861.00 260.73 869.83 260.73 878.67 260.73 C 878.67 268.00 878.67 275.26 878.67 282.53 C 861.82 282.52 844.97 282.53 828.12 282.53 C 828.12 230.10 828.12 177.68 828.12 125.26 Z" />
</g>
<g id="#b8a17eff">
<path fill="#b8a17e" opacity="1.00" d=" M 167.98 57.35 C 180.65 64.31 193.31 71.29 205.97 78.27 C 205.84 85.30 205.70 92.32 205.57 99.35 C 214.00 104.51 222.46 109.62 230.90 114.76 C 230.90 107.21 230.88 99.66 230.89 92.10 C 241.24 97.85 251.58 103.62 261.93 109.37 C 262.91 125.49 263.23 141.65 262.93 157.80 C 231.28 139.41 199.69 120.93 168.03 102.57 C 167.90 87.50 167.99 72.42 167.98 57.35 Z" />
<path fill="#b8a17e" opacity="1.00" d=" M 167.98 111.69 C 199.64 130.12 231.28 148.57 262.93 167.01 C 262.27 188.26 260.18 209.47 256.64 230.44 C 253.71 247.39 250.40 264.35 244.78 280.64 C 237.93 300.31 229.92 320.11 216.14 336.05 C 209.61 343.88 201.57 350.45 192.48 355.10 C 192.45 321.93 192.47 288.75 192.48 255.58 C 205.11 248.83 217.76 242.09 230.39 235.33 C 230.29 231.56 230.19 227.78 230.10 224.01 C 217.68 224.14 204.94 224.14 193.02 228.06 C 189.15 229.47 184.38 232.16 184.71 236.95 C 184.44 251.40 184.55 265.86 184.70 280.31 C 179.12 284.42 173.56 288.56 167.98 292.67 C 167.96 232.34 167.96 172.02 167.98 111.69 Z" />
<path fill="#b8a17e" opacity="1.00" d=" M 463.94 307.45 C 465.92 307.44 467.91 307.43 469.90 307.44 C 469.90 309.43 469.90 311.42 469.90 313.42 C 467.91 313.42 465.92 313.42 463.94 313.41 C 463.92 311.42 463.93 309.43 463.94 307.45 Z" />
<path fill="#b8a17e" opacity="1.00" d=" M 664.12 307.61 C 665.99 307.61 667.87 307.61 669.76 307.62 C 669.75 316.74 669.79 325.85 669.71 334.97 C 669.76 337.12 669.63 339.36 670.44 341.39 C 671.99 342.01 673.65 342.22 675.29 342.56 C 675.28 344.11 675.27 345.66 675.28 347.22 C 672.41 346.78 669.14 347.16 666.69 345.37 C 664.17 343.39 664.07 339.95 664.08 337.03 C 664.13 327.22 664.11 317.42 664.12 307.61 Z" />
<path fill="#b8a17e" opacity="1.00" d=" M 757.57 307.45 C 759.54 307.44 761.53 307.44 763.53 307.45 C 763.53 309.43 763.53 311.42 763.53 313.42 C 761.53 313.42 759.54 313.42 757.57 313.41 C 757.55 311.42 757.55 309.43 757.57 307.45 Z" />
<path fill="#b8a17e" opacity="1.00" d=" M 731.06 310.93 C 732.93 310.92 734.81 310.92 736.70 310.93 C 736.70 313.60 736.70 316.27 736.71 318.94 C 738.50 318.94 740.31 318.94 742.12 318.95 C 742.11 320.38 742.11 321.82 742.12 323.26 C 740.31 323.26 738.51 323.26 736.71 323.27 C 736.86 328.83 736.30 334.44 736.97 339.97 C 737.30 342.39 740.38 341.88 742.11 342.58 C 742.11 344.12 742.11 345.67 742.12 347.22 C 739.73 346.94 737.26 346.93 734.98 346.11 C 732.63 345.08 731.30 342.53 731.17 340.05 C 730.83 334.47 731.15 328.88 731.06 323.29 C 730.26 323.28 728.66 323.25 727.85 323.23 C 727.84 321.81 727.84 320.38 727.85 318.97 C 728.65 318.96 730.26 318.94 731.06 318.93 C 731.05 316.26 731.05 313.59 731.06 310.93 Z" />
<path fill="#b8a17e" opacity="1.00" d=" M 356.27 321.29 C 361.30 317.13 368.86 318.23 373.66 322.22 C 372.43 323.48 371.19 324.74 369.94 325.98 C 367.55 324.67 364.89 322.95 362.07 323.99 C 358.34 325.14 357.15 329.54 357.27 333.03 C 357.18 336.48 358.37 340.82 362.07 341.95 C 364.90 343.01 367.56 341.27 369.95 339.97 C 371.20 341.19 372.45 342.43 373.68 343.68 C 368.90 347.65 361.39 348.84 356.36 344.70 C 349.95 338.79 349.93 327.27 356.27 321.29 Z" />
<path fill="#b8a17e" opacity="1.00" d=" M 388.26 322.36 C 392.67 318.50 398.98 317.73 404.45 319.54 C 407.55 320.59 409.84 323.64 409.98 326.92 C 410.28 333.60 409.95 340.30 410.06 346.99 C 408.22 346.99 406.37 347.00 404.54 347.00 C 404.56 346.48 404.59 345.45 404.61 344.93 C 400.58 347.38 395.29 348.34 391.02 345.92 C 386.19 343.04 385.94 334.93 390.97 332.12 C 395.21 329.95 400.17 330.87 404.75 330.62 C 404.23 328.34 404.47 325.09 401.87 324.04 C 398.41 322.60 394.76 324.03 391.77 325.84 C 390.58 324.70 389.41 323.53 388.26 322.36 M 392.82 337.96 C 392.09 342.86 398.53 343.41 401.78 341.95 C 404.70 340.76 404.22 337.10 404.73 334.57 C 400.89 335.08 394.24 332.96 392.82 337.96 Z" />
<path fill="#b8a17e" opacity="1.00" d=" M 430.32 320.34 C 435.72 317.32 442.44 318.64 447.64 321.47 C 446.50 322.66 445.37 323.84 444.21 325.01 C 440.96 324.06 437.46 322.64 434.09 323.81 C 432.06 324.43 431.35 326.95 432.33 328.72 C 436.54 331.27 442.25 329.55 446.20 332.73 C 450.15 336.21 449.00 343.12 444.45 345.53 C 438.27 348.72 430.47 347.53 424.90 343.59 C 426.07 342.35 427.25 341.13 428.45 339.92 C 432.19 341.90 436.64 343.39 440.81 341.81 C 443.07 340.98 443.93 337.58 441.80 336.13 C 437.65 334.55 432.74 335.52 428.94 332.95 C 424.94 329.68 425.92 322.80 430.32 320.34 Z" />
<path fill="#b8a17e" opacity="1.00" d=" M 464.10 318.95 C 465.97 318.94 467.85 318.94 469.73 318.95 C 469.74 328.30 469.73 337.64 469.74 346.99 C 467.85 347.00 465.97 347.00 464.10 347.00 C 464.10 337.65 464.09 328.30 464.10 318.95 Z" />
<path fill="#b8a17e" opacity="1.00" d=" M 487.23 318.95 C 489.07 318.94 490.92 318.94 492.77 318.96 C 492.74 319.53 492.68 320.67 492.64 321.25 C 495.52 319.74 498.67 318.10 502.04 318.79 C 506.53 319.17 509.87 323.46 509.92 327.83 C 510.15 334.22 509.85 340.61 509.96 347.00 C 508.07 347.00 506.19 347.00 504.31 346.99 C 504.26 341.64 504.41 336.30 504.33 330.95 C 504.24 328.99 504.19 326.77 502.75 325.26 C 499.85 322.28 493.64 323.68 493.12 328.09 C 492.46 334.36 493.04 340.70 492.86 346.99 C 490.98 347.00 489.10 347.00 487.22 346.99 C 487.23 337.64 487.22 328.30 487.23 318.95 Z" />
<path fill="#b8a17e" opacity="1.00" d=" M 530.27 320.27 C 534.36 317.44 539.79 318.64 543.59 321.39 C 543.52 320.78 543.40 319.57 543.34 318.96 C 545.17 318.94 547.01 318.94 548.86 318.95 C 548.81 328.31 548.93 337.68 548.85 347.04 C 549.00 352.25 545.26 357.53 539.95 358.27 C 535.31 359.32 530.56 357.90 526.75 355.22 C 527.88 354.04 529.03 352.88 530.18 351.72 C 533.17 353.00 536.61 354.73 539.84 353.11 C 543.49 351.51 543.01 346.90 543.54 343.64 C 540.01 345.88 535.53 347.36 531.53 345.40 C 527.27 343.43 526.16 338.33 526.12 334.08 C 526.05 329.31 525.98 323.40 530.27 320.27 M 534.41 324.45 C 530.86 327.62 531.45 333.30 532.39 337.52 C 533.31 342.11 540.79 342.57 542.37 338.23 C 543.62 334.57 543.62 330.41 542.40 326.74 C 541.34 323.52 537.05 322.96 534.41 324.45 Z" />
<path fill="#b8a17e" opacity="1.00" d=" M 591.42 320.48 C 596.81 317.27 603.69 318.58 608.94 321.47 C 607.81 322.65 606.69 323.84 605.56 325.01 C 602.19 324.06 598.51 322.51 595.06 323.96 C 593.12 324.80 592.71 327.37 593.89 329.01 C 598.15 330.99 603.45 329.74 607.36 332.60 C 611.53 336.04 610.36 343.23 605.64 345.61 C 599.47 348.69 591.74 347.52 586.21 343.58 C 587.38 342.35 588.58 341.14 589.79 339.94 C 593.65 341.96 598.35 343.53 602.57 341.59 C 604.45 340.51 604.88 338.10 603.61 336.37 C 599.35 334.39 594.06 335.70 590.15 332.85 C 586.34 329.61 587.23 323.01 591.42 320.48 Z" />
<path fill="#b8a17e" opacity="1.00" d=" M 632.28 319.24 C 637.01 317.81 642.91 318.98 645.75 323.32 C 648.33 327.37 648.20 332.46 647.73 337.06 C 647.35 340.45 645.64 343.81 642.65 345.59 C 637.35 348.77 629.27 347.50 626.24 341.77 C 624.17 337.51 624.26 332.50 624.97 327.92 C 625.54 323.96 628.41 320.39 632.28 319.24 M 633.39 324.36 C 630.85 325.87 630.22 329.16 630.09 331.90 C 629.98 335.11 630.25 338.87 632.80 341.17 C 635.39 343.15 639.85 342.43 641.21 339.29 C 642.93 335.36 642.94 330.59 641.23 326.66 C 639.99 323.70 636.04 322.98 633.39 324.36 Z" />
<path fill="#b8a17e" opacity="1.00" d=" M 689.87 318.95 C 691.74 318.94 693.62 318.94 695.51 318.95 C 695.54 323.97 695.45 328.99 695.47 334.01 C 695.56 336.33 695.40 339.05 697.21 340.82 C 700.15 343.66 706.15 342.20 706.71 337.90 C 707.37 331.61 706.77 325.26 706.96 318.95 C 708.83 318.94 710.72 318.94 712.60 318.95 C 712.61 328.30 712.60 337.64 712.61 346.99 C 710.76 347.00 708.91 347.00 707.07 347.00 C 707.09 346.42 707.13 345.26 707.14 344.68 C 704.32 346.18 701.24 347.82 697.93 347.18 C 693.37 346.85 689.93 342.53 689.91 338.09 C 689.69 331.72 689.96 325.33 689.87 318.95 Z" />
<path fill="#b8a17e" opacity="1.00" d=" M 757.73 318.95 C 759.60 318.94 761.48 318.94 763.37 318.95 C 763.37 328.30 763.37 337.64 763.37 346.99 C 761.48 346.99 759.60 347.00 757.73 346.99 C 757.73 337.64 757.73 328.30 757.73 318.95 Z" />
<path fill="#b8a17e" opacity="1.00" d=" M 787.25 319.27 C 791.53 317.99 796.75 318.68 799.87 322.12 C 802.35 324.74 802.97 328.50 803.06 331.98 C 803.10 335.63 802.91 339.56 800.79 342.68 C 796.53 348.95 785.69 348.85 781.68 342.36 C 779.28 338.37 779.41 333.43 779.87 328.95 C 780.23 324.67 783.04 320.54 787.25 319.27 M 788.37 324.41 C 784.37 327.51 784.70 333.62 785.87 338.05 C 786.74 342.56 793.40 343.81 795.86 340.01 C 798.03 336.21 797.99 331.36 796.60 327.31 C 795.61 323.92 791.26 322.77 788.37 324.41 Z" />
<path fill="#b8a17e" opacity="1.00" d=" M 819.43 318.95 C 821.26 318.94 823.10 318.94 824.95 318.95 C 824.94 319.53 824.91 320.68 824.89 321.26 C 827.68 319.79 830.70 318.15 833.98 318.75 C 838.62 319.03 842.12 323.42 842.12 327.93 C 842.32 334.28 842.06 340.63 842.16 346.99 C 840.27 346.99 838.39 346.99 836.52 346.99 C 836.30 340.57 836.99 334.09 836.21 327.70 C 835.23 322.14 825.94 322.53 825.31 328.09 C 824.67 334.36 825.23 340.69 825.06 346.99 C 823.17 346.99 821.29 347.00 819.42 346.99 C 819.43 337.64 819.42 328.30 819.43 318.95 Z" />
<path fill="#b8a17e" opacity="1.00" d=" M 862.39 320.36 C 867.78 317.32 874.51 318.63 879.72 321.46 C 878.58 322.65 877.46 323.84 876.32 325.00 C 873.05 324.07 869.53 322.62 866.15 323.83 C 864.03 324.47 863.14 327.59 864.90 329.08 C 868.94 330.91 873.83 329.89 877.69 332.27 C 882.02 335.27 881.51 342.40 877.13 345.14 C 870.97 348.88 862.74 347.62 857.00 343.60 C 858.16 342.36 859.34 341.14 860.53 339.93 C 864.26 341.88 868.67 343.39 872.83 341.83 C 874.98 341.04 875.80 338.31 874.45 336.45 C 870.25 334.35 864.99 335.70 861.05 332.95 C 857.03 329.71 858.01 322.83 862.39 320.36 Z" />
</g>
</svg>
