<svg id="Layer_1" data-name="Layer 1" xmlns="http://www.w3.org/2000/svg" viewBox="0 0 233.25 66.16"><defs><style>.cls-1{fill:#438bca;}.cls-2{fill:none;}</style></defs><title>logo-RGB_srgb</title><path class="cls-1" d="M225.83,15.55c4.52,0,7.41-3.07,7.41-6.87a6.89,6.89,0,0,0-7.32-7c-4.43,0-7.32,3-7.23,7C218.6,12.47,221.5,15.55,225.83,15.55Zm-6.78,37.06h-4c0-5.1-.06-19.43-0.29-21.51A11.51,11.51,0,0,0,203.36,21H188.83l-4.92,10.12h15.6a5,5,0,0,1,1.77,4V35.7c-15.64-.09-25.94,5.42-25.94,16.9,0,7,5.33,13.56,14.28,13.56,5.24,0,9.76-1.9,12.65-5.42h0.27l0.81,4.43h29.44V21H219.05V52.61Zm-17.33-3.52a9.83,9.83,0,0,1-.27,2.35,7.51,7.51,0,0,1-7.14,5.06c-3.07,0-5.42-1.72-5.42-5.24,0-5.33,5.6-7,12.83-7v4.79Z"/><path d="M35.71,64.09a33.26,33.26,0,0,1-12.29,2.08C9.13,66.16,0,57.4,0,43.48,0,30.55,8.86,20,25.31,20A31.87,31.87,0,0,1,35.8,21.69L33.63,31.91a18.76,18.76,0,0,0-7.68-1.36C18.71,30.55,14,35.7,14.1,42.93c0,8.14,5.42,12.39,12.11,12.39a19.38,19.38,0,0,0,7.86-1.45Z"/><path d="M39.35,1H53.1V65.17H39.35V1Z"/><path d="M96.17,54.41a68.42,68.42,0,0,0,.63,10.75H84.42L83.6,60.74H83.33c-2.89,3.53-7.41,5.42-12.65,5.42-8.95,0-14.28-6.51-14.28-13.56,0-11.48,10.3-17,25.94-16.9V35.07c0-2.35-1.27-5.69-8-5.69a24.86,24.86,0,0,0-12.2,3.35l-2.53-8.86A36.5,36.5,0,0,1,76.73,20C91.46,20,96.17,28.65,96.17,39V54.41ZM82.79,44.29C75.56,44.2,70,45.92,70,51.25c0,3.53,2.35,5.24,5.42,5.24a7.5,7.5,0,0,0,7.14-5.06,9.81,9.81,0,0,0,.27-2.35V44.29Z"/><path d="M102.08,35.52c0-6.51-.18-10.75-0.36-14.55h11.84L114,29.1h0.36c2.26-6.42,7.68-9.13,11.93-9.13a14.29,14.29,0,0,1,2.89.18v13a13.8,13.8,0,0,0-3.71-.45c-5.06,0-8.5,2.71-9.4,7a16.16,16.16,0,0,0-.27,3.07V65.17H102.08V35.52Z"/><path d="M148.65,8.68c0,3.8-2.89,6.87-7.41,6.87-4.34,0-7.23-3.07-7.14-6.87-0.09-4,2.8-7,7.23-7S148.56,4.7,148.65,8.68ZM134.46,65.17V21H148.2v44.2H134.46Z"/><path d="M158.79,65.17V31.09H153V21h5.79V19.25c0-5.33,1.63-11.21,5.6-14.82C167.83,1.17,172.62,0,176.6,0a26.43,26.43,0,0,1,7.32.9l-0.54,10.58a14.79,14.79,0,0,0-4.43-.63c-4.52,0-6.42,3.53-6.42,7.86V21h13.78l-4.92,10.12h-8.77V65.17H158.79Z"/><path class="cls-2" d="M188.89,51.25c0,3.53,2.35,5.24,5.42,5.24a7.51,7.51,0,0,0,7.14-5.06,9.83,9.83,0,0,0,.27-2.35V44.29C194.5,44.2,188.89,45.92,188.89,51.25Z"/></svg>