<?xml version="1.0" encoding="UTF-8" ?>
<!DOCTYPE svg PUBLIC "-//W3C//DTD SVG 1.1//EN" "http://www.w3.org/Graphics/SVG/1.1/DTD/svg11.dtd">
<svg width="1800pt" height="750pt" viewBox="0 0 1800 750" version="1.1" xmlns="http://www.w3.org/2000/svg">
<g id="#6ba1c1ff">
<path fill="#6ba1c1" opacity="1.00" d=" M 462.28 14.56 C 468.68 14.10 475.10 13.73 481.51 14.33 C 483.19 22.06 483.96 29.94 484.58 37.81 C 490.84 38.64 496.97 40.25 502.91 42.37 C 507.19 35.74 511.93 29.42 517.11 23.47 C 522.86 26.14 528.44 29.20 533.68 32.78 C 531.39 40.33 528.34 47.63 524.90 54.73 C 529.86 58.64 534.43 63.00 538.45 67.88 C 545.50 64.31 552.75 61.13 560.24 58.60 C 563.98 63.84 567.25 69.42 570.03 75.23 C 564.28 80.58 557.88 85.18 551.35 89.52 C 553.65 95.42 555.43 101.52 556.47 107.78 C 564.34 108.25 572.22 109.00 579.94 110.63 C 580.55 117.03 580.75 123.48 580.20 129.90 C 572.52 131.52 564.70 132.50 556.85 132.82 C 555.89 139.11 554.36 145.30 552.20 151.29 C 558.78 155.65 565.24 160.24 571.08 165.58 C 568.35 171.27 565.39 176.86 561.82 182.07 C 554.27 179.75 546.91 176.82 539.89 173.21 C 536.00 178.24 531.54 182.77 526.70 186.87 C 530.23 193.93 533.53 201.13 535.91 208.66 C 530.69 212.41 525.11 215.64 519.34 218.46 C 514.05 212.63 509.35 206.30 505.05 199.72 C 499.16 202.06 493.03 203.75 486.81 204.88 C 486.26 212.75 485.63 220.67 483.85 228.38 C 477.48 228.89 471.09 229.10 464.72 228.69 C 463.02 220.96 462.15 213.08 461.69 205.18 C 455.43 204.25 449.25 202.77 443.31 200.57 C 438.94 207.15 434.34 213.61 429.02 219.46 C 423.27 216.80 417.73 213.71 412.47 210.19 C 414.84 202.66 417.71 195.29 421.35 188.28 C 416.32 184.38 411.77 179.91 407.70 175.03 C 400.66 178.65 393.40 181.83 385.90 184.36 C 382.24 179.05 378.87 173.55 376.10 167.73 C 381.92 162.43 388.29 157.79 394.83 153.42 C 392.46 147.52 390.79 141.37 389.69 135.11 C 381.82 134.79 373.98 133.91 366.27 132.30 C 365.57 125.92 365.64 119.49 365.90 113.09 C 373.62 111.39 381.49 110.56 389.37 110.05 C 390.24 103.76 391.90 97.61 393.98 91.62 C 387.36 87.35 380.98 82.68 375.09 77.45 C 377.71 71.67 380.85 66.16 384.36 60.88 C 391.94 63.14 399.23 66.23 406.34 69.66 C 410.24 64.69 414.69 60.15 419.54 56.09 C 415.93 49.06 412.69 41.82 410.27 34.28 C 415.47 30.54 421.03 27.36 426.74 24.48 C 432.17 30.22 436.76 36.68 441.17 43.22 C 447.06 40.88 453.18 39.17 459.42 38.07 C 459.85 30.18 460.63 22.29 462.28 14.56 M 461.50 60.88 C 439.27 64.95 420.19 82.23 413.93 103.95 C 409.03 120.40 411.33 138.90 420.40 153.52 C 427.55 165.34 438.80 174.58 451.76 179.36 C 465.40 184.48 480.86 184.44 494.50 179.33 C 510.37 173.51 523.52 160.82 530.02 145.23 C 536.65 129.57 536.35 111.11 529.11 95.71 C 524.54 85.74 517.24 77.04 508.22 70.82 C 494.83 61.41 477.56 57.70 461.50 60.88 Z" />
</g>
<g id="#08304aff">
<path fill="#08304a" opacity="1.00" d=" M 181.00 65.58 C 187.70 64.95 194.40 64.21 201.10 63.57 C 203.75 72.61 206.36 81.67 209.03 90.70 C 215.21 90.96 221.39 91.08 227.57 90.99 C 229.85 81.87 232.28 72.79 234.63 63.69 C 241.42 64.72 248.21 65.73 255.00 66.75 C 255.06 76.22 255.16 85.70 255.54 95.16 C 261.34 96.85 267.15 98.51 272.94 100.24 C 277.73 92.12 282.51 83.99 287.28 75.86 C 293.49 78.43 299.63 81.15 305.80 83.83 C 303.57 93.05 301.28 102.26 299.01 111.48 C 304.24 114.70 309.49 117.90 314.73 121.14 C 321.49 114.53 328.00 107.67 334.64 100.94 C 339.98 105.15 345.25 109.45 350.54 113.73 C 346.11 122.08 341.53 130.35 337.06 138.68 C 341.35 143.02 345.58 147.43 349.78 151.86 C 357.92 147.06 366.04 142.19 374.23 137.46 C 378.19 142.96 382.16 148.46 386.10 153.98 C 379.63 160.87 373.14 167.73 366.70 174.64 C 369.66 179.96 372.57 185.32 375.54 190.64 C 384.62 188.17 393.70 185.72 402.78 183.25 C 405.18 189.56 407.65 195.85 410.06 202.15 C 402.01 207.10 394.00 212.12 385.96 217.08 C 387.38 222.97 388.80 228.87 390.22 234.77 C 399.71 234.73 409.19 234.77 418.68 234.74 C 419.39 241.43 420.01 248.12 420.72 254.81 C 411.65 257.53 402.59 260.26 393.53 263.02 C 393.49 269.09 393.11 275.16 393.26 281.24 C 402.37 283.59 411.48 285.95 420.58 288.36 C 419.56 295.15 418.55 301.94 417.53 308.73 C 408.09 308.64 398.66 309.12 389.23 309.04 C 387.40 314.88 385.76 320.77 384.07 326.65 C 392.15 331.49 400.33 336.17 408.41 341.03 C 405.81 347.22 403.11 353.38 400.43 359.54 C 391.24 357.21 382.01 355.04 372.82 352.71 C 369.58 357.99 366.29 363.24 363.11 368.56 C 370.09 374.93 376.58 381.83 383.33 388.46 C 379.03 393.81 374.80 399.21 370.53 404.58 C 362.25 399.93 353.92 395.39 345.62 390.79 C 341.24 395.03 336.88 399.30 332.41 403.46 C 337.19 411.63 342.05 419.76 346.83 427.93 C 341.33 432.01 335.80 436.05 330.31 440.14 C 323.51 433.48 316.51 427.04 309.71 420.38 C 304.35 423.32 298.98 426.26 293.64 429.23 C 296.09 438.32 298.57 447.41 301.02 456.50 C 294.72 458.90 288.44 461.33 282.15 463.78 C 277.14 455.75 272.18 447.69 267.18 439.65 C 261.30 441.11 255.40 442.53 249.50 443.95 C 249.50 453.43 249.49 462.92 249.51 472.41 C 242.82 473.04 236.15 473.77 229.46 474.37 C 226.74 465.34 223.99 456.33 221.29 447.30 C 215.21 447.00 209.12 447.03 203.03 446.89 C 200.73 456.04 198.30 465.15 195.95 474.29 C 189.20 473.25 182.46 472.28 175.72 471.26 C 175.44 461.79 175.23 452.32 175.26 442.85 C 169.36 441.19 163.49 439.44 157.61 437.74 C 152.86 445.90 148.01 454.01 143.27 462.18 C 137.11 459.51 130.96 456.82 124.79 454.19 C 126.98 444.94 129.31 435.74 131.55 426.51 C 126.32 423.24 121.05 420.03 115.78 416.82 C 109.17 423.59 102.59 430.39 95.84 437.03 C 90.49 432.74 85.08 428.53 79.75 424.23 C 84.36 415.98 88.83 407.65 93.48 399.41 C 89.31 394.93 85.01 390.58 80.80 386.15 C 72.65 390.94 64.50 395.73 56.35 400.53 C 52.29 395.02 48.22 389.52 44.15 384.02 C 50.77 377.17 57.31 370.24 63.88 363.34 C 60.89 358.04 58.02 352.66 55.04 347.35 C 45.96 349.82 36.87 352.25 27.81 354.75 C 25.37 348.45 22.94 342.15 20.50 335.85 C 28.53 330.85 36.59 325.92 44.60 320.89 C 43.24 315.10 41.75 309.34 40.41 303.54 C 30.90 302.98 21.37 303.36 11.85 303.25 C 11.25 296.54 10.47 289.85 9.92 283.14 C 18.94 280.46 27.95 277.71 36.97 274.98 C 37.42 268.93 37.08 262.86 37.48 256.81 C 28.32 254.41 19.17 251.98 9.99 249.70 C 11.00 242.88 12.04 236.07 13.03 229.25 C 22.52 229.26 32.01 229.07 41.48 228.76 C 43.12 222.94 44.82 217.14 46.53 211.34 C 38.41 206.52 30.23 201.78 22.12 196.94 C 24.78 190.79 27.46 184.64 30.09 178.47 C 39.35 180.64 48.54 183.08 57.80 185.24 C 61.02 180.02 64.23 174.78 67.43 169.54 C 60.70 162.89 54.11 156.09 47.20 149.62 C 51.46 144.31 55.77 139.05 60.02 133.73 C 68.33 138.18 76.62 142.68 84.90 147.18 C 89.33 142.97 93.70 138.70 98.16 134.53 C 93.36 126.37 88.54 118.22 83.74 110.06 C 89.23 106.09 94.74 102.14 100.24 98.16 C 107.17 104.61 114.01 111.14 120.95 117.57 C 126.27 114.61 131.62 111.69 136.95 108.75 C 134.47 99.67 132.03 90.59 129.57 81.51 C 135.85 79.06 142.15 76.64 148.44 74.21 C 153.44 82.24 158.37 90.32 163.40 98.33 C 169.25 96.84 175.14 95.48 181.00 94.00 C 181.00 84.53 181.00 75.06 181.00 65.58 M 221.27 134.47 C 221.23 140.48 221.26 146.49 221.25 152.49 C 217.44 153.46 213.64 154.41 209.81 155.29 C 206.67 150.21 203.50 145.14 200.38 140.05 C 196.55 141.56 192.70 143.04 188.85 144.51 C 190.36 150.29 191.99 156.04 193.49 161.83 C 189.98 163.73 186.49 165.66 182.98 167.55 C 178.61 163.46 174.27 159.34 169.87 155.29 C 166.55 157.74 163.19 160.13 159.83 162.52 C 162.84 167.68 165.91 172.80 168.91 177.97 C 166.10 180.83 163.19 183.59 160.24 186.32 C 154.98 183.49 149.75 180.62 144.46 177.84 C 141.90 181.10 139.28 184.32 136.67 187.55 C 141.13 191.55 145.24 195.92 149.50 200.14 C 147.40 203.59 145.27 207.03 143.14 210.47 C 137.31 209.02 131.49 207.54 125.65 206.11 C 123.99 209.88 122.38 213.68 120.72 217.45 C 125.86 220.47 130.98 223.50 136.14 226.47 C 135.09 230.31 133.96 234.14 132.85 237.96 C 126.85 238.01 120.85 238.38 114.84 238.25 C 114.23 242.44 113.59 246.62 112.96 250.81 C 118.74 252.27 124.50 253.80 130.26 255.30 C 130.29 259.29 130.26 263.27 129.98 267.25 C 124.30 268.99 118.61 270.72 112.91 272.42 C 113.26 276.54 113.69 280.66 114.10 284.78 C 120.11 284.73 126.13 284.76 132.14 284.75 C 133.08 288.62 134.00 292.50 134.95 296.37 C 129.85 299.47 124.78 302.64 119.70 305.77 C 121.19 309.63 122.68 313.49 124.18 317.35 C 129.92 315.77 135.67 314.22 141.41 312.65 C 143.35 316.14 145.27 319.63 147.22 323.12 C 143.08 327.49 138.98 331.91 134.73 336.17 C 137.19 339.56 139.69 342.92 142.17 346.31 C 147.32 343.27 152.49 340.27 157.63 337.21 C 160.46 340.04 163.19 342.98 165.97 345.87 C 163.09 351.14 160.22 356.41 157.27 361.64 C 160.58 364.24 163.87 366.86 167.17 369.47 C 171.47 365.29 175.46 360.82 179.75 356.63 C 183.18 358.77 186.63 360.88 190.06 363.02 C 188.71 368.88 187.15 374.69 185.78 380.54 C 189.57 382.14 193.32 383.81 197.11 385.41 C 200.15 380.27 203.15 375.10 206.19 369.96 C 210.02 371.12 213.88 372.22 217.73 373.32 C 217.68 379.33 217.80 385.34 218.05 391.35 C 222.19 391.93 226.32 392.56 230.45 393.18 C 231.96 387.39 233.43 381.59 234.95 375.80 C 238.92 376.04 242.90 376.02 246.88 376.00 C 248.60 381.78 250.31 387.56 252.13 393.31 C 256.25 392.86 260.37 392.46 264.50 392.05 C 264.61 386.06 264.35 380.07 264.20 374.08 C 268.12 373.09 272.05 372.17 275.98 371.20 C 279.13 376.28 282.24 381.38 285.41 386.45 C 289.27 384.96 293.12 383.50 296.95 381.96 C 295.38 376.22 293.84 370.46 292.29 364.71 C 295.77 362.78 299.26 360.86 302.75 358.94 C 307.16 363.04 311.53 367.20 315.82 371.43 C 319.22 368.97 322.57 366.45 325.96 363.97 C 322.92 358.81 319.82 353.67 316.85 348.47 C 319.70 345.69 322.64 342.98 325.47 340.17 C 330.75 343.03 336.00 345.97 341.26 348.86 C 343.91 345.58 346.54 342.28 349.12 338.95 C 344.81 334.80 340.43 330.73 336.31 326.38 C 338.42 322.96 340.48 319.51 342.64 316.11 C 348.51 317.42 354.31 319.02 360.18 320.37 C 361.80 316.60 363.40 312.82 365.04 309.06 C 359.90 306.02 354.76 303.00 349.61 299.98 C 350.70 296.16 351.83 292.35 352.93 288.53 C 358.93 288.49 364.92 288.12 370.92 288.26 C 371.59 284.09 372.19 279.90 372.84 275.73 C 367.05 274.17 361.24 272.73 355.46 271.17 C 355.47 267.19 355.67 263.22 355.80 259.24 C 361.51 257.51 367.22 255.79 372.93 254.05 C 372.52 249.94 372.11 245.84 371.68 241.74 C 365.65 241.75 359.62 241.74 353.60 241.75 C 352.70 237.88 351.74 234.03 350.86 230.16 C 355.92 227.01 361.01 223.90 366.07 220.74 C 364.61 216.88 363.10 213.03 361.64 209.18 C 355.89 210.75 350.14 212.31 344.38 213.87 C 342.43 210.37 340.48 206.87 338.59 203.33 C 342.69 198.98 346.80 194.65 350.84 190.24 C 348.42 186.90 346.01 183.56 343.63 180.19 C 338.47 183.23 333.29 186.23 328.16 189.32 C 325.32 186.49 322.62 183.53 319.83 180.67 C 322.59 175.35 325.50 170.13 328.35 164.87 C 325.12 162.32 321.93 159.73 318.73 157.14 C 314.49 161.37 310.27 165.60 306.03 169.84 C 302.58 167.75 299.14 165.64 295.71 163.52 C 297.15 157.68 298.58 151.83 299.99 145.98 C 296.23 144.36 292.49 142.72 288.73 141.11 C 285.64 146.21 282.63 151.36 279.65 156.53 C 275.84 155.45 272.04 154.32 268.23 153.22 C 267.79 147.21 268.23 141.17 267.71 135.16 C 263.58 134.57 259.46 133.95 255.34 133.32 C 253.83 139.14 252.36 144.96 250.79 150.76 C 246.78 150.46 242.77 150.47 238.76 150.49 C 237.05 144.74 235.40 138.97 233.70 133.21 C 229.56 133.65 225.42 134.06 221.27 134.47 Z" />
</g>
<g id="#58585aff">
<path fill="#58585a" opacity="1.00" d=" M 276.53 165.80 C 280.33 165.26 284.17 164.96 288.00 164.70 C 289.31 169.25 290.22 173.91 290.92 178.60 C 294.63 178.90 298.31 179.51 301.92 180.43 C 304.17 176.33 306.67 172.37 309.44 168.59 C 313.02 169.95 316.51 171.54 319.87 173.39 C 318.76 177.94 317.34 182.40 315.65 186.77 C 318.65 188.96 321.53 191.32 324.16 193.95 C 328.22 191.56 332.37 189.30 336.71 187.46 C 339.16 190.49 341.39 193.69 343.38 197.04 C 340.09 200.36 336.55 203.43 332.88 206.33 C 334.46 209.68 335.71 213.17 336.76 216.72 C 341.44 216.70 346.11 216.96 350.77 217.46 C 351.34 221.29 351.73 225.14 351.83 229.01 C 347.32 230.24 342.74 231.16 338.12 231.81 C 337.70 235.52 337.06 239.21 336.21 242.84 C 340.29 245.13 344.26 247.62 348.04 250.39 C 346.65 253.94 345.01 257.39 343.25 260.77 C 338.67 259.69 334.17 258.28 329.79 256.57 C 327.66 259.60 325.28 262.44 322.69 265.09 C 325.08 269.16 327.29 273.34 329.16 277.68 C 326.12 280.05 322.95 282.27 319.66 284.29 C 316.29 281.04 313.19 277.52 310.29 273.84 C 306.87 275.37 303.35 276.68 299.75 277.71 C 299.84 282.38 299.69 287.06 299.17 291.70 C 295.35 292.28 291.51 292.62 287.66 292.82 C 286.35 288.30 285.45 283.68 284.78 279.02 C 281.06 278.61 277.37 278.03 273.74 277.11 C 271.52 281.24 269.01 285.20 266.18 288.94 C 262.63 287.56 259.20 285.90 255.82 284.17 C 256.92 279.60 258.33 275.12 260.05 270.75 C 257.03 268.57 254.15 266.19 251.41 263.66 C 247.41 266.08 243.26 268.23 238.98 270.08 C 236.55 267.05 234.32 263.87 232.29 260.57 C 235.54 257.20 239.11 254.16 242.76 251.24 C 241.24 247.84 239.98 244.33 238.91 240.76 C 234.24 240.83 229.57 240.60 224.93 240.10 C 224.30 236.28 223.96 232.41 223.94 228.53 C 228.42 227.30 232.97 226.35 237.58 225.75 C 237.97 222.03 238.60 218.33 239.50 214.70 C 235.40 212.42 231.44 209.91 227.64 207.17 C 229.04 203.62 230.61 200.14 232.42 196.78 C 236.99 197.85 241.48 199.24 245.85 200.97 C 248.02 197.93 250.44 195.08 252.96 192.33 C 250.57 188.32 248.32 184.21 246.55 179.89 C 249.57 177.47 252.74 175.25 256.05 173.24 C 259.42 176.49 262.50 180.02 265.37 183.72 C 268.80 182.14 272.35 180.83 276.00 179.85 C 275.93 175.16 275.96 170.46 276.53 165.80 M 285.40 215.55 C 279.52 216.65 274.62 221.94 274.47 228.00 C 273.87 234.77 279.27 241.19 285.94 242.09 C 293.63 243.43 301.36 236.76 301.28 228.97 C 301.65 220.83 293.36 213.81 285.40 215.55 Z" />
<path fill="#58585a" opacity="1.00" d=" M 110.62 640.57 C 115.09 635.30 122.63 634.49 129.00 636.02 C 129.00 638.60 129.00 641.18 129.01 643.77 C 125.19 642.29 120.06 641.60 117.17 645.20 C 113.74 649.70 115.35 655.76 115.01 661.00 C 119.01 661.00 123.00 661.00 127.00 661.00 C 127.00 663.41 127.00 665.83 127.00 668.25 C 123.00 668.25 119.00 668.25 115.00 668.25 C 115.00 683.00 115.00 697.75 115.00 712.50 C 112.16 712.50 109.33 712.49 106.50 712.50 C 106.50 697.75 106.50 683.00 106.50 668.25 C 103.58 668.25 100.67 668.24 97.75 668.25 C 97.75 665.83 97.75 663.41 97.75 661.00 C 100.67 660.99 103.59 660.99 106.51 660.99 C 106.53 654.09 105.56 646.12 110.62 640.57 Z" />
<path fill="#58585a" opacity="1.00" d=" M 1214.12 641.09 C 1218.49 635.41 1226.37 634.38 1232.95 636.04 C 1232.98 638.65 1232.99 641.27 1233.03 643.90 C 1230.18 642.90 1227.04 641.83 1224.10 643.07 C 1221.39 643.82 1219.80 646.48 1219.26 649.08 C 1218.46 653.00 1218.78 657.02 1218.75 661.00 C 1222.74 661.00 1226.74 661.00 1230.75 661.00 C 1230.74 663.41 1230.73 665.83 1230.75 668.25 C 1226.74 668.25 1222.74 668.25 1218.75 668.25 C 1218.74 683.00 1218.75 697.75 1218.75 712.50 C 1215.99 712.50 1213.24 712.49 1210.50 712.50 C 1210.50 697.75 1210.49 683.00 1210.50 668.25 C 1207.58 668.25 1204.66 668.24 1201.75 668.25 C 1201.74 665.83 1201.74 663.41 1201.75 661.00 C 1204.66 660.99 1207.58 660.99 1210.51 660.99 C 1210.61 654.30 1209.38 646.61 1214.12 641.09 Z" />
<path fill="#58585a" opacity="1.00" d=" M 11.00 637.50 C 18.83 637.50 26.67 637.50 34.50 637.50 C 34.50 640.08 34.50 642.66 34.50 645.25 C 32.08 645.24 29.67 645.25 27.25 645.25 C 27.25 665.08 27.25 684.92 27.25 704.75 C 29.67 704.74 32.08 704.74 34.50 704.75 C 34.50 707.33 34.50 709.91 34.50 712.50 C 26.67 712.50 18.83 712.50 11.00 712.50 C 11.00 709.91 11.00 707.33 11.00 704.75 C 13.42 704.74 15.83 704.74 18.25 704.75 C 18.25 684.92 18.25 665.08 18.25 645.25 C 15.83 645.24 13.42 645.24 11.00 645.25 C 11.00 642.66 11.00 640.08 11.00 637.50 Z" />
<path fill="#58585a" opacity="1.00" d=" M 407.35 638.17 C 410.77 635.96 416.30 638.57 415.79 642.93 C 415.96 647.07 410.84 649.72 407.41 647.59 C 403.96 645.70 403.91 640.10 407.35 638.17 Z" />
<path fill="#58585a" opacity="1.00" d=" M 578.00 640.50 C 581.73 640.50 585.47 640.50 589.20 640.50 C 594.43 652.33 599.63 664.18 604.84 676.03 C 608.12 683.72 611.84 691.23 614.62 699.13 C 617.24 691.55 620.81 684.35 624.05 677.03 C 629.52 664.85 635.05 652.69 640.50 640.50 C 644.08 640.49 647.66 640.49 651.25 640.50 C 651.25 664.50 651.25 688.50 651.25 712.50 C 648.41 712.50 645.58 712.50 642.75 712.50 C 642.75 699.00 642.75 685.49 642.75 671.99 C 642.80 664.96 642.46 657.90 643.39 650.91 C 641.61 657.47 638.41 663.51 635.75 669.73 C 629.41 683.99 623.08 698.25 616.74 712.51 C 615.28 712.49 613.83 712.49 612.38 712.50 C 604.66 695.24 596.96 677.96 589.22 660.71 C 587.85 657.80 586.88 654.73 585.95 651.66 C 586.61 671.93 586.08 692.22 586.25 712.50 C 583.49 712.49 580.75 712.50 578.00 712.50 C 578.00 688.50 578.00 664.50 578.00 640.50 Z" />
<path fill="#58585a" opacity="1.00" d=" M 1364.25 640.50 C 1376.41 640.50 1388.58 640.50 1400.75 640.50 C 1400.74 643.16 1400.73 645.83 1400.75 648.50 C 1391.41 648.50 1382.08 648.50 1372.75 648.50 C 1372.74 656.33 1372.74 664.16 1372.75 672.00 C 1381.41 672.00 1390.08 671.99 1398.75 672.00 C 1398.73 674.58 1398.74 677.16 1398.75 679.75 C 1390.08 679.75 1381.41 679.74 1372.75 679.75 C 1372.74 688.08 1372.74 696.41 1372.75 704.75 C 1382.66 704.75 1392.58 704.75 1402.50 704.75 C 1402.49 707.33 1402.49 709.91 1402.50 712.50 C 1389.75 712.50 1377.00 712.50 1364.25 712.50 C 1364.25 688.50 1364.25 664.50 1364.25 640.50 Z" />
<path fill="#58585a" opacity="1.00" d=" M 1773.38 641.53 C 1781.00 638.13 1790.84 643.14 1792.43 651.35 C 1794.26 658.59 1789.28 666.67 1781.91 668.08 C 1775.22 669.77 1767.74 665.80 1765.54 659.23 C 1762.96 652.45 1766.59 644.14 1773.38 641.53 M 1774.39 643.53 C 1769.96 645.30 1767.00 650.00 1767.07 654.73 C 1767.14 660.55 1771.95 665.91 1777.84 666.25 C 1785.28 667.05 1792.03 659.27 1790.17 652.02 C 1788.78 645.25 1780.85 640.63 1774.39 643.53 Z" />
<path fill="#58585a" opacity="1.00" d=" M 1773.25 645.24 C 1776.91 645.53 1781.82 644.10 1784.35 647.61 C 1786.28 650.54 1784.04 653.89 1781.20 655.06 C 1783.11 657.61 1784.55 660.47 1785.74 663.44 C 1782.07 664.08 1781.66 660.11 1780.18 657.82 C 1779.58 655.86 1777.40 655.69 1775.80 655.10 C 1775.73 657.81 1775.73 660.53 1775.74 663.25 C 1774.89 663.24 1774.06 663.24 1773.26 663.25 C 1773.24 657.24 1773.25 651.24 1773.25 645.24 M 1775.76 647.07 C 1775.72 649.17 1775.73 651.28 1775.75 653.40 C 1778.18 653.20 1782.59 653.71 1782.42 650.04 C 1782.14 646.73 1778.06 647.50 1775.76 647.07 Z" />
<path fill="#58585a" opacity="1.00" d=" M 374.01 648.52 C 376.74 647.61 379.48 646.71 382.24 645.87 C 382.25 650.91 382.25 655.95 382.25 661.00 C 386.58 661.00 390.91 661.00 395.25 661.00 C 395.25 663.41 395.25 665.83 395.25 668.25 C 390.91 668.25 386.58 668.25 382.25 668.25 C 382.28 677.83 382.19 687.41 382.28 696.99 C 382.45 700.02 382.66 703.71 385.52 705.52 C 388.60 707.37 392.22 706.24 395.27 704.93 C 395.25 707.37 395.25 709.80 395.26 712.25 C 390.35 713.83 384.68 714.35 379.93 712.00 C 375.69 709.74 373.98 704.67 374.01 700.12 C 373.97 689.49 374.02 678.87 374.00 668.25 C 371.00 668.25 368.00 668.25 365.00 668.25 C 365.00 665.83 365.00 663.41 365.00 661.00 C 368.00 661.00 371.00 660.99 374.00 661.00 C 374.00 656.84 373.99 652.68 374.01 648.52 Z" />
<path fill="#58585a" opacity="1.00" d=" M 1147.26 648.52 C 1150.07 647.60 1152.90 646.71 1155.75 645.85 C 1155.74 650.90 1155.74 655.95 1155.75 661.00 C 1159.99 661.00 1164.24 661.00 1168.50 661.00 C 1168.49 663.41 1168.49 665.83 1168.50 668.25 C 1164.24 668.25 1159.99 668.24 1155.74 668.26 C 1155.76 678.19 1155.72 688.13 1155.75 698.06 C 1155.66 701.17 1156.65 705.13 1160.10 706.03 C 1162.93 707.15 1165.85 705.98 1168.55 705.02 C 1168.50 707.45 1168.49 709.89 1168.47 712.33 C 1163.49 713.76 1157.76 714.42 1153.03 711.86 C 1148.84 709.60 1147.37 704.53 1147.27 700.07 C 1147.21 689.46 1147.28 678.86 1147.25 668.25 C 1144.33 668.25 1141.41 668.24 1138.50 668.25 C 1138.49 665.83 1138.49 663.41 1138.50 661.00 C 1141.40 660.99 1144.33 660.99 1147.25 661.00 C 1147.25 656.83 1147.25 652.67 1147.26 648.52 Z" />
<path fill="#58585a" opacity="1.00" d=" M 53.98 669.08 C 59.34 659.96 72.43 656.88 81.19 662.80 C 87.68 667.65 88.45 676.54 88.27 684.02 C 88.23 693.51 88.26 703.00 88.25 712.50 C 85.42 712.50 82.58 712.50 79.75 712.50 C 79.74 702.66 79.75 692.82 79.76 682.97 C 79.71 678.27 79.05 673.00 75.48 669.58 C 70.75 665.54 63.00 666.38 58.78 670.77 C 55.48 673.89 53.86 678.49 53.99 682.99 C 53.99 692.83 54.01 702.66 54.00 712.50 C 51.17 712.50 48.33 712.49 45.50 712.50 C 45.50 695.33 45.50 678.17 45.50 661.00 C 48.33 660.99 51.17 661.00 54.00 661.00 C 54.00 663.69 54.00 666.38 53.98 669.08 Z" />
<path fill="#58585a" opacity="1.00" d=" M 152.26 660.32 C 160.17 659.01 169.18 660.07 175.20 665.83 C 181.60 671.94 183.20 681.41 182.51 689.89 C 182.09 696.67 179.27 703.44 174.08 707.95 C 166.95 714.10 156.46 715.07 147.72 712.29 C 139.32 709.61 133.48 701.54 132.36 692.95 C 131.29 684.64 132.23 675.38 137.66 668.65 C 141.20 664.08 146.65 661.32 152.26 660.32 M 154.28 667.27 C 147.42 668.23 142.30 674.39 141.20 681.01 C 140.22 687.10 140.35 693.85 143.72 699.25 C 149.11 708.42 164.35 709.24 170.47 700.45 C 173.16 696.54 173.96 691.65 174.02 686.99 C 174.02 681.59 172.97 675.82 169.28 671.67 C 165.61 667.50 159.55 666.38 154.28 667.27 Z" />
<path fill="#58585a" opacity="1.00" d=" M 211.58 661.58 C 214.91 659.67 218.85 660.22 222.49 660.59 C 222.50 663.50 222.50 666.42 222.55 669.34 C 219.00 668.02 214.72 667.08 211.30 669.24 C 206.08 672.53 204.07 679.02 204.01 684.90 C 203.96 694.10 204.03 703.30 204.00 712.50 C 201.16 712.50 198.33 712.49 195.50 712.50 C 195.50 695.33 195.50 678.17 195.50 661.00 C 198.33 660.99 201.16 661.00 204.00 661.00 C 204.00 664.39 204.02 667.78 203.94 671.17 C 205.50 667.34 207.77 663.52 211.58 661.58 Z" />
<path fill="#58585a" opacity="1.00" d=" M 239.20 669.05 C 242.40 663.88 247.82 659.89 254.09 659.86 C 260.96 659.10 267.56 663.49 269.94 669.89 C 274.67 660.35 287.62 656.94 296.62 662.33 C 301.76 665.66 303.52 672.12 303.73 677.91 C 303.78 689.44 303.73 700.97 303.75 712.50 C 301.00 712.50 298.25 712.49 295.50 712.50 C 295.48 702.64 295.53 692.78 295.48 682.92 C 295.31 679.10 295.12 675.09 293.32 671.63 C 290.39 666.38 282.52 665.59 277.95 669.09 C 273.55 672.42 271.59 678.08 271.55 683.46 C 271.42 693.13 271.54 702.82 271.50 712.50 C 268.75 712.49 266.00 712.50 263.25 712.50 C 263.24 702.65 263.28 692.80 263.25 682.95 C 263.10 678.34 262.79 673.10 259.28 669.68 C 255.14 665.93 248.00 666.05 244.09 670.11 C 240.36 673.66 239.33 679.01 239.27 683.96 C 239.20 693.47 239.28 702.98 239.25 712.50 C 236.50 712.50 233.75 712.50 231.00 712.50 C 231.00 695.33 231.00 678.17 231.00 661.00 C 233.75 660.99 236.50 660.99 239.26 661.00 C 239.25 663.68 239.25 666.36 239.20 669.05 Z" />
<path fill="#58585a" opacity="1.00" d=" M 320.26 664.53 C 327.08 660.58 335.26 658.89 343.05 660.30 C 346.86 660.99 350.60 662.93 352.80 666.22 C 355.59 670.21 356.08 675.27 356.02 680.01 C 355.98 690.84 356.01 701.67 356.00 712.50 C 353.16 712.50 350.32 712.49 347.48 712.50 C 347.49 709.95 347.51 707.42 347.58 704.89 C 344.96 708.55 341.61 712.03 337.06 713.07 C 330.53 714.67 322.38 713.66 318.08 707.96 C 312.85 700.64 314.88 688.42 323.46 684.52 C 331.02 681.05 339.59 681.35 347.63 679.79 C 347.51 675.15 346.27 669.44 341.34 667.69 C 333.90 665.50 326.08 668.80 320.24 673.39 C 320.25 670.43 320.25 667.48 320.26 664.53 M 329.00 689.97 C 322.68 692.03 322.18 702.10 327.92 705.14 C 333.79 708.35 341.83 705.94 345.21 700.22 C 347.91 696.23 347.55 691.23 347.50 686.65 C 341.35 687.76 334.90 687.72 329.00 689.97 Z" />
<path fill="#58585a" opacity="1.00" d=" M 445.51 660.75 C 453.22 659.02 462.04 659.43 468.60 664.27 C 474.18 668.36 477.05 675.21 477.67 681.95 C 478.63 690.39 477.15 699.72 471.19 706.14 C 464.35 713.73 452.82 715.30 443.39 712.42 C 435.51 710.05 429.60 702.93 428.01 694.95 C 426.57 687.68 426.96 679.84 430.12 673.05 C 433.02 666.87 438.91 662.34 445.51 660.75 M 448.43 667.51 C 442.02 668.92 437.50 674.84 436.44 681.11 C 435.47 687.34 435.63 694.27 439.26 699.68 C 444.84 708.39 459.53 709.10 465.61 700.59 C 468.43 696.69 469.21 691.72 469.28 687.01 C 469.30 681.32 468.07 675.19 463.92 671.02 C 459.90 667.12 453.71 666.28 448.43 667.51 Z" />
<path fill="#58585a" opacity="1.00" d=" M 499.16 669.25 C 504.23 660.51 516.17 657.20 525.06 661.91 C 531.07 665.21 533.30 672.50 533.47 678.96 C 533.56 690.13 533.47 701.32 533.50 712.50 C 530.66 712.49 527.83 712.50 525.00 712.50 C 524.98 702.31 525.02 692.11 525.00 681.92 C 524.92 677.47 524.05 672.52 520.56 669.43 C 515.74 665.48 508.05 666.50 503.89 670.94 C 500.74 674.06 499.20 678.54 499.25 682.93 C 499.23 692.78 499.26 702.64 499.25 712.50 C 496.41 712.50 493.58 712.50 490.75 712.50 C 490.75 695.33 490.75 678.17 490.75 661.00 C 493.58 660.99 496.42 660.99 499.26 661.00 C 499.26 663.75 499.24 666.50 499.16 669.25 Z" />
<path fill="#58585a" opacity="1.00" d=" M 670.06 664.43 C 678.01 660.00 687.96 658.16 696.63 661.49 C 702.87 664.00 705.51 671.01 705.65 677.30 C 705.89 689.03 705.67 700.77 705.75 712.50 C 702.91 712.50 700.07 712.50 697.25 712.50 C 697.25 709.92 697.25 707.34 697.29 704.78 C 692.22 713.84 679.51 716.41 670.94 710.98 C 661.81 704.92 663.23 688.67 673.41 684.38 C 680.93 681.04 689.42 681.30 697.40 679.78 C 697.00 675.27 696.06 669.57 691.21 667.78 C 683.77 665.42 675.83 668.71 669.98 673.33 C 669.99 670.36 670.00 667.39 670.06 664.43 M 678.12 690.17 C 672.16 692.64 672.08 702.28 677.69 705.21 C 683.40 708.22 691.14 706.04 694.60 700.61 C 697.48 696.56 697.31 691.38 697.28 686.65 C 690.90 687.77 684.20 687.72 678.12 690.17 Z" />
<path fill="#58585a" opacity="1.00" d=" M 738.88 661.08 C 744.53 659.11 751.32 659.23 756.38 662.70 C 761.52 666.34 763.44 672.94 763.50 678.98 C 763.51 690.15 763.49 701.33 763.50 712.50 C 760.74 712.49 758.00 712.50 755.25 712.50 C 755.20 702.35 755.36 692.20 755.19 682.05 C 754.96 677.35 754.14 671.91 750.07 668.94 C 744.76 665.29 736.89 666.94 733.03 671.96 C 730.28 675.27 729.25 679.66 729.25 683.89 C 729.23 693.42 729.26 702.96 729.25 712.50 C 726.41 712.50 723.58 712.50 720.75 712.50 C 720.75 695.33 720.75 678.17 720.75 661.00 C 723.58 660.99 726.42 660.99 729.26 661.00 C 729.25 663.78 729.24 666.55 729.19 669.34 C 731.72 665.90 734.73 662.52 738.88 661.08 Z" />
<path fill="#58585a" opacity="1.00" d=" M 779.97 664.61 C 787.63 660.03 797.32 658.37 805.89 661.15 C 812.42 663.30 815.53 670.41 815.69 676.85 C 815.84 688.73 815.70 700.62 815.75 712.50 C 812.90 712.50 810.07 712.50 807.24 712.50 C 807.24 709.96 807.25 707.41 807.31 704.87 C 804.64 708.71 801.01 712.18 796.30 713.19 C 790.55 714.42 783.87 713.76 779.34 709.70 C 772.13 702.74 773.96 688.55 783.38 684.41 C 790.92 681.05 799.43 681.33 807.42 679.77 C 807.15 675.25 806.15 669.68 801.36 667.83 C 793.90 665.34 785.88 668.72 779.99 673.35 C 780.00 670.43 779.99 667.52 779.97 664.61 M 793.00 688.69 C 790.03 689.34 786.63 690.20 784.89 692.93 C 782.79 696.72 783.26 702.35 787.15 704.83 C 793.07 708.61 801.63 705.99 805.07 700.03 C 807.64 696.05 807.28 691.15 807.27 686.64 C 802.51 687.36 797.72 687.82 793.00 688.69 Z" />
<path fill="#58585a" opacity="1.00" d=" M 838.99 662.93 C 847.70 657.70 860.95 658.70 866.57 667.99 C 866.50 665.66 866.49 663.33 866.48 661.00 C 869.31 660.99 872.15 661.00 875.00 661.00 C 874.92 677.34 875.15 693.70 874.89 710.04 C 874.83 719.16 871.45 729.44 862.63 733.59 C 852.76 738.09 840.82 737.44 831.00 733.10 C 830.99 730.23 830.99 727.36 830.99 724.50 C 836.25 727.24 841.96 729.50 848.00 729.30 C 853.73 729.44 860.15 727.47 863.29 722.32 C 866.82 716.90 866.45 710.18 866.59 704.00 C 860.27 715.23 842.88 717.19 834.15 707.82 C 827.79 701.40 826.82 691.68 827.71 683.11 C 828.46 675.26 832.03 667.14 838.99 662.93 M 847.43 667.64 C 841.60 669.30 837.85 674.95 836.78 680.69 C 835.37 687.92 835.70 696.35 840.80 702.16 C 846.29 708.42 857.24 707.83 862.37 701.40 C 867.40 695.54 866.65 687.26 866.35 680.08 C 865.76 671.16 855.92 664.56 847.43 667.64 Z" />
<path fill="#58585a" opacity="1.00" d=" M 894.47 667.43 C 902.12 658.25 917.89 656.96 926.43 665.54 C 932.41 671.72 932.86 680.88 932.78 688.99 C 920.63 689.04 908.47 688.94 896.32 689.04 C 896.86 694.73 898.56 701.14 903.90 704.18 C 911.85 708.82 922.05 706.21 929.01 700.87 C 928.99 703.59 928.99 706.31 929.02 709.04 C 921.65 713.64 912.36 714.82 903.97 712.85 C 896.33 711.05 890.56 704.37 888.89 696.84 C 886.50 686.92 887.40 675.31 894.47 667.43 M 901.91 670.90 C 898.79 673.69 897.42 677.76 896.50 681.71 C 905.72 681.79 914.94 681.74 924.17 681.74 C 923.71 677.85 923.17 673.59 920.31 670.66 C 915.57 665.51 906.62 665.93 901.91 670.90 Z" />
<path fill="#58585a" opacity="1.00" d=" M 953.16 668.95 C 957.11 662.26 965.16 658.41 972.83 660.20 C 977.97 661.12 981.83 665.23 983.83 669.86 C 986.39 665.83 989.87 662.03 994.64 660.73 C 1000.68 658.98 1008.12 659.52 1012.78 664.17 C 1016.69 668.38 1017.69 674.39 1017.75 679.95 C 1017.75 690.80 1017.74 701.65 1017.75 712.50 C 1014.91 712.50 1012.07 712.49 1009.26 712.50 C 1009.23 701.97 1009.28 691.44 1009.25 680.91 C 1009.09 676.91 1008.53 672.47 1005.60 669.48 C 1001.71 666.22 995.38 666.04 991.49 669.40 C 987.49 672.70 985.52 677.92 985.50 683.02 C 985.47 692.84 985.52 702.67 985.50 712.50 C 982.66 712.49 979.83 712.50 977.00 712.50 C 977.00 702.68 976.98 692.86 977.02 683.04 C 977.05 678.88 976.81 674.32 974.22 670.87 C 970.49 665.93 962.39 665.72 958.09 670.01 C 954.67 673.35 953.29 678.22 953.25 682.90 C 953.22 692.76 953.27 702.63 953.25 712.50 C 950.41 712.50 947.58 712.50 944.75 712.50 C 944.75 695.33 944.75 678.17 944.75 661.00 C 947.58 660.99 950.42 660.99 953.26 661.00 C 953.25 663.64 953.24 666.30 953.16 668.95 Z" />
<path fill="#58585a" opacity="1.00" d=" M 1036.77 666.84 C 1044.89 657.83 1061.39 657.02 1069.25 666.74 C 1074.30 672.95 1074.63 681.35 1074.53 688.99 C 1062.39 689.02 1050.25 688.97 1038.12 689.02 C 1038.62 694.76 1040.36 701.21 1045.77 704.24 C 1053.80 708.83 1064.08 706.15 1071.02 700.70 C 1070.99 703.42 1070.99 706.15 1071.01 708.89 C 1063.71 713.59 1054.45 714.76 1046.05 712.94 C 1038.19 711.20 1032.27 704.32 1030.58 696.61 C 1028.27 686.51 1029.28 674.62 1036.77 666.84 M 1043.81 670.74 C 1040.68 673.58 1039.24 677.70 1038.23 681.69 C 1047.47 681.79 1056.70 681.77 1065.94 681.70 C 1065.49 677.91 1065.00 673.78 1062.28 670.87 C 1057.67 665.52 1048.64 665.88 1043.81 670.74 Z" />
<path fill="#58585a" opacity="1.00" d=" M 1104.32 661.20 C 1110.07 659.06 1117.04 659.23 1122.22 662.76 C 1127.30 666.44 1129.16 672.99 1129.25 679.00 C 1129.26 690.16 1129.24 701.33 1129.25 712.50 C 1126.49 712.49 1123.74 712.50 1121.00 712.50 C 1120.95 702.63 1121.08 692.75 1120.95 682.88 C 1120.76 678.00 1120.10 672.37 1116.02 669.10 C 1110.33 664.96 1101.62 667.17 1097.98 673.02 C 1094.46 677.95 1094.98 684.26 1094.99 689.99 C 1095.01 697.49 1094.99 705.00 1095.00 712.50 C 1092.16 712.50 1089.32 712.49 1086.50 712.50 C 1086.49 695.33 1086.50 678.17 1086.50 661.00 C 1089.32 660.99 1092.16 661.00 1095.00 661.00 C 1094.99 663.78 1094.99 666.56 1094.97 669.35 C 1097.41 665.99 1100.30 662.68 1104.32 661.20 Z" />
<path fill="#58585a" opacity="1.00" d=" M 1256.30 660.31 C 1264.37 658.98 1273.72 660.17 1279.59 666.40 C 1285.93 672.74 1287.13 682.40 1286.33 690.94 C 1285.61 699.31 1280.77 707.51 1273.07 711.19 C 1266.22 714.31 1258.14 714.57 1251.05 712.12 C 1243.04 709.24 1237.40 701.45 1236.32 693.12 C 1235.45 685.64 1235.81 677.51 1239.94 670.96 C 1243.48 665.21 1249.62 661.26 1256.30 660.31 M 1256.44 667.68 C 1250.63 669.20 1246.51 674.47 1245.29 680.19 C 1243.83 686.74 1244.15 694.23 1248.07 699.91 C 1253.18 707.52 1265.08 708.76 1272.03 703.05 C 1276.61 699.08 1277.88 692.64 1277.89 686.85 C 1277.84 681.34 1276.78 675.33 1272.76 671.26 C 1268.58 667.06 1261.98 666.13 1256.44 667.68 Z" />
<path fill="#58585a" opacity="1.00" d=" M 1315.57 661.55 C 1318.80 659.62 1322.68 660.28 1326.24 660.55 C 1326.24 663.48 1326.24 666.41 1326.28 669.36 C 1322.80 667.96 1318.60 667.15 1315.24 669.25 C 1309.88 672.48 1308.06 679.12 1307.84 685.00 C 1307.60 694.16 1307.82 703.34 1307.74 712.50 C 1304.98 712.49 1302.24 712.50 1299.50 712.50 C 1299.49 695.33 1299.50 678.17 1299.50 661.00 C 1302.24 660.99 1304.98 660.99 1307.75 661.00 C 1307.74 664.49 1307.76 667.98 1307.69 671.47 C 1309.29 667.52 1311.62 663.54 1315.57 661.55 Z" />
<path fill="#58585a" opacity="1.00" d=" M 1466.98 666.93 C 1475.06 657.86 1491.46 657.03 1499.44 666.61 C 1504.59 672.81 1504.96 681.30 1504.76 688.99 C 1492.66 689.01 1480.55 688.98 1468.45 689.01 C 1468.79 695.01 1470.92 701.52 1476.55 704.53 C 1484.55 708.72 1494.44 706.04 1501.27 700.74 C 1501.24 703.48 1501.23 706.22 1501.23 708.97 C 1493.80 713.58 1484.47 714.84 1476.01 712.85 C 1468.48 711.05 1462.80 704.48 1461.02 697.10 C 1458.50 686.91 1459.48 674.87 1466.98 666.93 M 1474.39 670.47 C 1471.04 673.31 1469.56 677.59 1468.56 681.73 C 1477.76 681.77 1486.97 681.75 1496.18 681.74 C 1495.83 678.07 1495.38 674.11 1492.86 671.22 C 1488.49 665.63 1479.37 665.74 1474.39 670.47 Z" />
<path fill="#58585a" opacity="1.00" d=" M 1533.41 661.38 C 1536.57 659.63 1540.29 660.30 1543.73 660.56 C 1543.74 663.50 1543.73 666.44 1543.79 669.40 C 1540.21 667.88 1535.83 667.13 1532.43 669.45 C 1527.23 672.79 1525.54 679.35 1525.34 685.17 C 1525.12 694.28 1525.31 703.39 1525.25 712.50 C 1522.49 712.49 1519.74 712.50 1517.00 712.50 C 1517.00 695.33 1517.00 678.17 1517.00 661.00 C 1519.74 661.00 1522.49 660.99 1525.25 661.00 C 1525.25 664.49 1525.26 667.98 1525.15 671.47 C 1526.83 667.41 1529.28 663.32 1533.41 661.38 Z" />
<path fill="#58585a" opacity="1.00" d=" M 1620.46 660.74 C 1629.25 658.72 1639.82 659.72 1646.23 666.71 C 1652.52 673.42 1653.46 683.29 1652.48 692.03 C 1651.42 700.86 1645.54 709.27 1636.96 712.19 C 1629.62 714.57 1621.18 714.40 1614.29 710.71 C 1607.51 707.02 1603.22 699.68 1602.44 692.11 C 1601.85 685.68 1602.18 678.91 1605.08 673.03 C 1607.98 666.88 1613.85 662.28 1620.46 660.74 M 1624.29 667.30 C 1618.27 668.28 1613.49 673.18 1611.90 678.95 C 1609.95 685.98 1610.25 694.21 1614.65 700.30 C 1619.26 706.82 1628.88 708.19 1635.78 704.76 C 1641.52 701.82 1643.83 695.04 1644.14 688.97 C 1644.42 682.93 1643.58 676.26 1639.39 671.59 C 1635.65 667.47 1629.58 666.33 1624.29 667.30 Z" />
<path fill="#58585a" opacity="1.00" d=" M 1674.18 669.10 C 1679.29 660.47 1691.15 657.21 1699.97 661.90 C 1706.34 665.37 1708.34 673.18 1708.46 679.93 C 1708.56 690.79 1708.47 701.64 1708.50 712.50 C 1705.65 712.49 1702.82 712.50 1700.00 712.50 C 1699.96 702.34 1700.05 692.17 1699.97 682.01 C 1699.76 677.37 1698.95 672.02 1695.00 669.02 C 1689.97 665.46 1682.37 666.71 1678.41 671.34 C 1675.44 674.41 1674.15 678.77 1674.23 682.98 C 1674.25 692.82 1674.25 702.66 1674.25 712.50 C 1671.40 712.50 1668.57 712.50 1665.75 712.50 C 1665.75 695.33 1665.75 678.17 1665.75 661.00 C 1668.57 660.99 1671.41 660.99 1674.26 661.00 C 1674.24 663.70 1674.23 666.39 1674.18 669.10 Z" />
<path fill="#58585a" opacity="1.00" d=" M 1722.77 673.71 C 1725.88 666.78 1732.41 661.19 1740.06 660.13 C 1747.22 658.97 1755.49 660.86 1760.02 666.93 C 1764.92 673.14 1765.25 681.43 1765.01 689.00 C 1752.95 689.01 1740.89 688.98 1728.83 689.01 C 1729.02 695.15 1731.42 701.87 1737.25 704.76 C 1745.24 708.56 1754.75 705.97 1761.52 700.82 C 1761.48 703.52 1761.49 706.23 1761.52 708.95 C 1754.11 713.64 1744.73 714.83 1736.27 712.84 C 1728.09 710.84 1722.23 703.35 1720.88 695.24 C 1719.73 688.09 1719.70 680.41 1722.77 673.71 M 1735.07 670.13 C 1731.49 672.97 1729.93 677.44 1728.86 681.72 C 1738.09 681.79 1747.33 681.72 1756.56 681.76 C 1756.10 677.96 1755.59 673.88 1752.95 670.90 C 1748.55 665.80 1740.01 665.81 1735.07 670.13 Z" />
<path fill="#58585a" opacity="1.00" d=" M 406.00 661.00 C 408.83 661.00 411.66 660.99 414.50 661.00 C 414.50 678.17 414.50 695.33 414.50 712.50 C 411.66 712.49 408.83 712.50 406.00 712.50 C 406.00 695.33 406.00 678.17 406.00 661.00 Z" />
<path fill="#58585a" opacity="1.00" d=" M 1407.16 661.02 C 1410.27 660.99 1413.40 660.99 1416.53 661.01 C 1419.82 670.55 1423.17 680.07 1426.50 689.61 C 1428.21 694.65 1430.28 699.61 1431.31 704.86 C 1432.96 696.41 1436.72 688.59 1439.43 680.46 C 1441.77 673.97 1444.15 667.50 1446.48 661.01 C 1449.48 661.00 1452.48 660.99 1455.50 661.00 C 1448.68 678.17 1441.79 695.32 1435.00 712.50 C 1432.21 712.50 1429.43 712.50 1426.67 712.51 C 1420.17 695.34 1413.66 678.18 1407.16 661.02 Z" />
<path fill="#58585a" opacity="1.00" d=" M 1548.89 661.02 C 1552.04 660.99 1555.20 660.99 1558.37 661.00 C 1563.20 675.44 1568.75 689.65 1573.25 704.20 C 1577.99 689.64 1583.72 675.42 1588.87 661.00 C 1591.81 660.99 1594.75 660.99 1597.71 661.01 C 1589.82 681.02 1581.85 701.00 1573.95 721.01 C 1571.58 726.71 1568.23 732.67 1562.37 735.33 C 1558.73 737.09 1554.61 736.49 1550.76 736.21 C 1550.74 733.64 1550.73 731.08 1550.72 728.52 C 1554.41 729.43 1558.91 729.88 1561.77 726.79 C 1565.39 722.71 1566.56 717.15 1568.96 712.36 C 1562.32 695.23 1555.58 678.14 1548.89 661.02 Z" />
</g>
<g id="#3a3a3cff">
<path fill="#3a3a3c" opacity="1.00" d=" M 1741.75 273.00 C 1757.25 273.00 1772.75 273.00 1788.25 273.00 C 1788.25 373.58 1788.25 474.16 1788.25 574.75 C 1772.75 574.75 1757.25 574.75 1741.75 574.75 C 1741.75 474.16 1741.75 373.58 1741.75 273.00 Z" />
<path fill="#3a3a3c" opacity="1.00" d=" M 717.43 276.56 C 727.14 274.21 738.18 276.51 745.34 283.72 C 755.13 292.74 755.65 309.76 746.33 319.30 C 736.20 330.71 716.81 331.60 705.57 321.37 C 697.11 314.19 695.04 301.32 699.43 291.39 C 702.78 284.08 709.64 278.51 717.43 276.56 Z" />
<path fill="#3a3a3c" opacity="1.00" d=" M 472.19 307.16 C 496.47 291.79 525.42 284.71 554.01 284.74 C 581.90 284.42 610.37 287.63 636.25 298.55 C 636.24 314.91 636.27 331.26 636.24 347.62 C 618.92 336.13 598.79 329.18 578.18 326.84 C 558.75 324.65 538.56 325.14 520.02 331.89 C 502.18 338.21 486.57 350.21 475.22 365.29 C 463.88 380.18 457.33 398.37 455.25 416.89 C 453.28 434.94 454.30 453.41 458.82 471.02 C 463.83 490.78 474.99 509.28 491.42 521.57 C 504.52 531.57 520.75 536.84 537.07 538.15 C 557.82 539.67 579.38 537.02 598.00 527.27 C 598.00 504.76 598.00 482.26 598.00 459.75 C 578.00 459.75 558.00 459.74 538.00 459.75 C 538.00 446.42 538.00 433.08 538.00 419.75 C 573.83 419.75 609.67 419.75 645.50 419.75 C 645.50 464.93 645.50 510.12 645.50 555.30 C 610.16 574.66 568.95 582.11 528.95 578.83 C 513.07 577.43 497.33 573.72 482.73 567.26 C 453.85 554.53 429.99 530.77 417.21 501.91 C 409.38 484.53 405.61 465.54 404.61 446.58 C 403.50 424.25 405.76 401.52 413.26 380.37 C 423.74 350.14 445.28 324.24 472.19 307.16 Z" />
<path fill="#3a3a3c" opacity="1.00" d=" M 886.06 373.20 C 900.93 366.12 918.24 364.51 934.30 367.82 C 954.51 372.27 971.75 388.11 977.58 408.02 C 984.56 395.16 994.22 383.35 1006.99 375.90 C 1018.98 368.74 1033.15 365.83 1047.03 366.23 C 1062.62 366.28 1078.98 370.53 1090.57 381.45 C 1099.94 390.08 1105.58 402.01 1108.65 414.22 C 1111.83 426.86 1112.64 439.98 1112.51 452.98 C 1112.50 493.57 1112.50 534.16 1112.50 574.74 C 1097.00 574.75 1081.50 574.74 1066.00 574.75 C 1066.00 545.15 1066.00 515.55 1066.00 485.96 C 1065.73 471.26 1066.82 456.47 1064.76 441.86 C 1063.26 431.48 1060.67 420.51 1053.26 412.67 C 1045.96 405.19 1034.98 402.83 1024.88 403.27 C 1016.19 403.59 1008.02 407.87 1002.04 414.06 C 991.89 424.50 985.95 438.56 984.16 452.91 C 983.24 459.25 983.53 465.66 983.50 472.04 C 983.50 506.27 983.50 540.51 983.50 574.75 C 967.92 574.75 952.33 574.75 936.75 574.75 C 936.75 535.84 936.74 496.93 936.76 458.02 C 936.63 443.78 934.79 428.56 926.26 416.68 C 917.45 404.28 900.06 400.68 886.03 404.85 C 872.72 409.05 863.82 421.37 859.10 433.95 C 855.49 443.84 854.09 454.45 854.24 464.95 C 854.26 501.55 854.24 538.15 854.25 574.75 C 838.75 574.75 823.25 574.75 807.75 574.75 C 807.75 506.83 807.75 438.92 807.75 371.00 C 823.25 371.00 838.75 371.00 854.25 371.00 C 854.25 381.89 854.25 392.78 854.25 403.67 C 862.02 391.04 872.45 379.57 886.06 373.20 Z" />
<path fill="#3a3a3c" opacity="1.00" d=" M 1255.79 369.61 C 1273.58 364.42 1293.85 364.47 1310.34 373.69 C 1323.65 380.92 1333.81 393.48 1338.33 407.92 C 1345.75 394.22 1356.35 381.73 1370.33 374.45 C 1381.20 368.58 1393.67 366.07 1405.96 366.22 C 1421.48 366.04 1437.84 369.75 1449.82 380.14 C 1461.36 389.97 1467.58 404.60 1470.47 419.19 C 1472.97 431.28 1473.33 443.69 1473.25 456.01 C 1473.25 495.59 1473.25 535.17 1473.25 574.75 C 1457.75 574.75 1442.25 574.75 1426.75 574.75 C 1426.73 535.82 1426.78 496.90 1426.73 457.98 C 1426.27 445.77 1425.16 433.22 1420.13 421.92 C 1416.92 414.55 1410.80 408.43 1403.16 405.77 C 1394.57 402.80 1384.85 402.11 1376.19 405.15 C 1364.95 409.32 1357.04 419.31 1351.77 429.71 C 1346.36 440.59 1343.96 452.87 1344.24 464.99 C 1344.26 501.58 1344.24 538.16 1344.25 574.75 C 1328.66 574.75 1313.08 574.75 1297.50 574.75 C 1297.49 535.14 1297.51 495.54 1297.49 455.94 C 1297.23 446.48 1296.11 436.90 1292.91 427.95 C 1290.41 421.19 1286.55 414.68 1280.72 410.30 C 1272.94 404.22 1262.56 402.51 1252.95 403.48 C 1243.53 404.52 1235.01 409.91 1229.21 417.27 C 1218.84 430.01 1214.95 446.87 1214.99 463.01 C 1215.02 500.26 1214.99 537.50 1215.00 574.75 C 1199.50 574.74 1184.00 574.75 1168.50 574.75 C 1168.50 506.83 1168.50 438.92 1168.50 371.00 C 1184.00 370.99 1199.50 371.00 1215.00 371.00 C 1215.01 381.89 1214.98 392.77 1215.01 403.66 C 1224.20 388.12 1238.21 374.84 1255.79 369.61 Z" />
<path fill="#3a3a3c" opacity="1.00" d=" M 1592.84 366.85 C 1612.98 365.32 1634.33 365.86 1652.71 375.23 C 1666.48 382.13 1676.67 395.06 1681.19 409.69 C 1686.74 426.20 1685.70 443.81 1685.75 460.95 C 1685.75 498.88 1685.75 536.82 1685.75 574.75 C 1670.75 574.75 1655.75 574.75 1640.75 574.75 C 1640.71 564.01 1640.82 553.28 1640.70 542.55 C 1633.20 554.95 1623.24 566.41 1609.95 572.75 C 1596.24 579.52 1580.44 580.62 1565.46 578.79 C 1549.89 576.97 1534.64 569.50 1525.24 556.69 C 1513.94 541.81 1512.25 521.81 1515.54 503.94 C 1518.02 490.17 1525.48 477.22 1536.82 468.89 C 1551.27 457.96 1569.50 453.88 1587.15 451.74 C 1605.13 449.21 1623.09 446.60 1641.08 444.15 C 1640.74 434.71 1639.58 424.83 1634.43 416.68 C 1630.37 409.96 1623.56 405.20 1616.09 403.01 C 1605.65 399.94 1594.53 400.49 1583.88 402.09 C 1565.35 404.95 1548.14 413.87 1534.00 426.02 C 1533.99 412.43 1534.00 398.84 1534.00 385.25 C 1551.82 374.60 1572.21 368.65 1592.84 366.85 M 1605.51 479.77 C 1595.38 481.15 1585.03 482.35 1575.59 486.51 C 1570.51 488.67 1565.57 491.83 1562.71 496.69 C 1558.83 503.32 1558.04 511.35 1558.71 518.88 C 1559.60 528.26 1566.03 536.53 1574.40 540.58 C 1582.96 544.76 1592.93 544.99 1602.17 543.45 C 1619.56 540.38 1633.82 526.18 1638.63 509.42 C 1642.02 498.21 1640.76 486.37 1641.00 474.84 C 1629.16 476.45 1617.33 478.14 1605.51 479.77 Z" />
<path fill="#3a3a3c" opacity="1.00" d=" M 701.50 371.00 C 716.91 371.00 732.33 371.00 747.75 371.00 C 747.74 438.92 747.75 506.83 747.75 574.75 C 732.33 574.75 716.91 574.75 701.50 574.74 C 701.50 506.83 701.50 438.92 701.50 371.00 Z" />
</g>
</svg>
