<svg id="Layer_1" data-name="Layer 1" xmlns="http://www.w3.org/2000/svg" viewBox="0 0 162.62 132.58"><defs><style>.cls-1{fill:#00953a;}.cls-2{font-size:10.54px;fill:#636466;font-family:ProximaNova-ExtrabldIt, Proxima Nova;font-weight:700;font-style:italic;}</style></defs><title>HCSS Logo_Construction Software and Services</title><path class="cls-1" d="M164.92,33l-3.71,16.86c-24.52-1.24-56.44,5.18-84.48,15.57l-8.14,34-21.58,6L54.9,74.73A150,150,0,0,0,30.36,89.44L25.51,109.8l-21.59,6L26.08,29.45l20.45-7.86-11,46.32A196.76,196.76,0,0,1,59.85,55.47l9.33-36.32,20.45-7.86-8.55,35.9c28.83-10.08,61.55-17,83.85-14.16m-48.6-13.26c.48-3.94-1.37-9.45-8.57-9.45-6.17,0-11.94,4.76-13.73,14.09s1.9,14,8.3,14c6,0,10.21-4.05,12.33-9.85h-5c-1.23,3.26-3.51,5-6.28,5-4.26,0-5.12-4.31-4.22-9.11,1.45-7.54,5.33-9.33,7.75-9.33,4.14,0,4.33,3,4.43,4.61Zm2.25,4.46c-.64,3.3-.22,8.92,8.55,8.92,2.11,0,9.62-.71,11.14-8.74.91-4.81-1.81-6.28-4.92-7.18l-5.54-1.61c-1-.26-2.42-.7-2-2.78.46-2.42,2.88-3.19,4.8-3.19,4.38,0,4.23,2.83,4.14,4h4.82c.59-3.26-.37-8.61-7.71-8.61C124,5,121.6,10.28,121,13.26c-1.12,5.88,2.44,6.85,6.13,7.84l2.45.68c2.42.67,4.11,1.22,3.71,3.31-.54,2.82-3.3,3.45-5.68,3.45-4.37,0-4.51-2.81-4.26-4.3ZM143,21.81c-.62,3.31-.2,8.92,8.57,8.92,2.1,0,9.6-.7,11.13-8.74.92-4.79-1.81-6.28-4.91-7.17l-5.56-1.6c-1-.27-2.41-.7-2-2.79.47-2.41,2.9-3.19,4.8-3.19,4.38,0,4.24,2.83,4.15,4H164c.59-3.28-.36-8.63-7.72-8.63-7.79,0-10.23,5.24-10.81,8.22-1.12,5.88,2.44,6.84,6.13,7.85l2.45.66c2.4.68,4.11,1.24,3.72,3.32-.54,2.83-3.31,3.46-5.68,3.46-4.38,0-4.51-2.83-4.26-4.32Z" transform="translate(-3.42 -2.63)"/><text class="cls-2" transform="translate(0 128.54)">Construction Software &amp; Services</text></svg>