<?xml version="1.0" encoding="UTF-8" ?>
<!DOCTYPE svg PUBLIC "-//W3C//DTD SVG 1.1//EN" "http://www.w3.org/Graphics/SVG/1.1/DTD/svg11.dtd">
<svg width="1605pt" height="468pt" viewBox="0 0 1605 468" version="1.1" xmlns="http://www.w3.org/2000/svg">
<g id="#c41230ff">
<path fill="#c41230" opacity="1.00" d=" M 0.00 0.00 L 173.25 0.00 C 173.24 6.25 173.25 12.49 173.24 18.74 C 155.41 18.76 137.58 18.74 119.75 18.75 C 119.74 82.92 119.74 147.08 119.75 211.25 C 185.33 211.26 250.92 211.25 316.50 211.25 C 316.51 147.08 316.51 82.92 316.50 18.75 C 298.75 18.74 281.00 18.75 263.25 18.75 C 263.25 12.50 263.25 6.25 263.25 0.00 L 436.50 0.00 C 436.49 6.25 436.50 12.50 436.49 18.75 C 418.66 18.75 400.83 18.74 383.01 18.75 C 382.99 158.50 383.00 298.25 383.00 438.00 C 400.83 438.00 418.66 437.99 436.50 438.00 C 436.50 444.33 436.50 450.66 436.50 457.00 C 378.75 457.00 321.00 457.00 263.25 457.00 C 263.25 450.66 263.25 444.33 263.25 438.00 C 281.00 437.99 298.75 438.01 316.50 438.00 C 316.50 369.08 316.51 300.17 316.50 231.25 C 250.92 231.24 185.33 231.24 119.75 231.25 C 119.74 300.17 119.75 369.08 119.75 438.00 C 137.58 438.01 155.41 437.99 173.24 438.01 C 173.25 444.33 173.25 450.66 173.24 457.00 C 115.50 457.01 57.75 457.00 0.00 457.00 L 0.00 438.00 C 17.75 438.00 35.50 438.01 53.25 437.99 C 53.25 298.25 53.26 158.50 53.25 18.75 C 35.50 18.74 17.75 18.75 0.00 18.75 L 0.00 0.00 Z" />
<path fill="#c41230" opacity="1.00" d=" M 508.75 0.00 L 573.00 0.00 C 573.00 21.41 573.01 42.83 572.99 64.24 C 551.58 64.24 530.17 64.25 508.76 64.24 C 508.75 42.83 508.76 21.41 508.75 0.00 Z" />
<path fill="#c41230" opacity="1.00" d=" M 466.26 136.76 C 502.34 136.86 538.95 137.47 574.24 128.78 C 574.25 231.86 574.25 334.93 574.24 438.00 C 588.74 438.01 603.25 437.99 617.75 438.00 C 617.74 444.25 617.75 450.50 617.75 456.75 C 567.16 456.75 516.59 456.74 466.01 456.75 C 465.99 450.50 466.00 444.25 466.00 438.00 C 481.00 438.00 496.00 438.00 511.00 438.00 C 511.00 343.92 511.00 249.83 511.00 155.75 C 496.08 155.74 481.17 155.75 466.25 155.75 C 466.25 149.42 466.25 143.09 466.26 136.76 Z" />
<path fill="#c41230" opacity="1.00" d=" M 689.11 136.72 C 712.22 135.79 735.40 133.96 757.99 128.76 C 758.03 157.34 757.95 185.92 758.03 214.50 C 758.43 214.33 759.21 214.01 759.61 213.84 C 767.19 197.18 776.05 180.89 787.93 166.86 C 799.21 153.41 813.62 142.37 830.10 136.13 C 850.02 128.40 871.93 127.53 892.97 129.93 C 910.13 132.01 927.45 137.02 941.45 147.52 C 951.78 155.19 959.64 166.06 963.86 178.20 C 967.59 188.70 968.97 199.92 968.75 211.02 C 968.74 286.68 968.75 362.34 968.75 438.00 C 983.33 438.01 997.91 437.99 1012.50 438.00 C 1012.49 444.25 1012.49 450.50 1012.49 456.75 C 962.83 456.75 913.17 456.74 863.51 456.75 C 863.50 450.50 863.50 444.25 863.50 438.00 C 877.50 437.99 891.51 438.02 905.51 437.99 C 905.50 370.66 905.51 303.34 905.50 236.02 C 905.41 221.04 906.15 205.94 903.48 191.12 C 901.64 180.57 898.21 169.52 890.10 162.06 C 880.89 153.79 867.83 152.51 855.99 152.47 C 840.78 152.07 826.02 158.04 813.97 167.04 C 799.43 177.91 788.13 192.58 779.41 208.38 C 766.14 232.72 758.36 260.20 758.00 287.97 C 758.00 337.98 758.00 387.99 758.00 438.00 C 772.58 438.00 787.16 437.99 801.75 438.00 C 801.74 444.25 801.75 450.50 801.74 456.75 C 751.33 456.74 700.92 456.75 650.50 456.74 C 650.50 450.49 650.50 444.25 650.50 438.00 C 665.25 437.99 680.00 438.01 694.76 438.00 C 694.75 343.91 694.76 249.83 694.75 155.75 C 680.00 155.74 665.25 155.75 650.51 155.75 C 650.50 149.42 650.50 143.09 650.51 136.76 C 663.37 136.72 676.24 136.81 689.11 136.72 Z" />
<path fill="#c41230" opacity="1.00" d=" M 1168.97 129.46 C 1206.84 127.68 1246.24 138.67 1275.00 164.03 C 1299.59 185.24 1314.87 215.97 1319.60 247.88 C 1320.80 256.27 1321.63 264.75 1321.50 273.24 C 1245.33 273.25 1169.17 273.24 1093.00 273.24 C 1093.17 304.45 1092.07 335.84 1096.73 366.80 C 1099.84 386.34 1105.49 406.27 1118.15 421.89 C 1129.39 436.13 1146.45 444.77 1164.06 448.14 C 1181.87 451.47 1200.52 451.91 1218.11 447.04 C 1252.88 437.75 1282.36 411.42 1296.24 378.30 C 1300.02 369.32 1302.74 359.89 1304.31 350.27 C 1310.32 350.24 1316.33 350.24 1322.36 350.27 C 1318.75 369.26 1312.51 387.90 1302.59 404.56 C 1294.06 418.82 1282.80 431.50 1269.33 441.27 C 1240.44 462.48 1203.36 469.48 1168.14 467.51 C 1132.22 465.12 1097.42 450.32 1070.33 426.71 C 1051.19 410.04 1035.85 388.86 1026.75 365.12 C 1019.86 347.31 1016.56 328.13 1016.99 309.04 C 1017.35 274.33 1026.23 239.58 1043.48 209.40 C 1056.47 186.71 1074.43 166.66 1096.48 152.46 C 1118.00 138.46 1143.33 130.50 1168.97 129.46 M 1152.18 148.26 C 1136.82 152.93 1123.51 163.05 1113.63 175.57 C 1107.71 183.16 1102.31 191.50 1099.97 200.96 C 1095.69 216.60 1094.09 232.84 1093.45 248.99 C 1144.80 249.00 1196.15 249.01 1247.51 248.99 C 1247.16 226.62 1249.47 203.12 1240.11 182.11 C 1233.17 165.45 1217.88 153.10 1200.53 148.64 C 1184.83 144.55 1167.87 143.59 1152.18 148.26 Z" />
<path fill="#c41230" opacity="1.00" d=" M 1402.92 145.99 C 1420.44 134.57 1441.47 129.67 1462.18 128.90 C 1480.37 127.77 1498.72 131.80 1515.02 139.87 C 1525.39 144.88 1534.97 151.37 1543.98 158.51 C 1548.80 151.29 1553.66 144.09 1558.41 136.81 C 1563.10 136.70 1567.79 136.77 1572.49 136.76 C 1572.50 167.00 1572.50 197.25 1572.49 227.49 C 1566.46 227.51 1560.43 227.47 1554.40 227.52 C 1549.53 209.07 1542.07 190.92 1529.80 176.11 C 1520.83 165.09 1509.04 156.33 1495.77 151.21 C 1477.80 144.26 1457.65 143.42 1439.00 148.04 C 1424.04 151.75 1410.20 160.61 1401.56 173.51 C 1395.98 181.71 1392.22 191.20 1390.92 201.04 C 1390.19 209.07 1391.07 218.04 1396.80 224.23 C 1404.02 232.09 1414.25 236.14 1423.98 239.96 C 1446.05 248.01 1469.02 253.18 1491.89 258.36 C 1511.87 263.03 1532.47 265.66 1551.61 273.39 C 1565.76 278.97 1579.23 287.26 1588.65 299.42 C 1599.21 312.88 1603.49 330.16 1604.40 346.98 C 1605.88 368.82 1602.31 391.38 1591.85 410.78 C 1582.44 428.56 1567.39 443.16 1549.69 452.63 C 1513.79 471.68 1468.91 472.09 1432.25 454.80 C 1418.41 448.33 1405.83 439.20 1395.42 428.01 C 1389.53 437.58 1383.71 447.20 1377.81 456.77 C 1371.79 456.72 1365.77 456.76 1359.76 456.74 C 1359.75 421.16 1359.75 385.58 1359.76 350.00 C 1366.04 350.00 1372.33 349.99 1378.62 350.01 C 1386.67 380.90 1402.79 410.90 1428.81 430.23 C 1444.99 442.36 1464.79 449.40 1484.95 450.65 C 1506.94 452.67 1529.49 445.36 1546.50 431.38 C 1558.50 421.62 1567.61 407.89 1570.32 392.53 C 1571.59 385.08 1572.12 377.05 1569.00 369.97 C 1565.42 361.53 1558.21 355.29 1550.70 350.40 C 1536.29 341.44 1520.12 335.88 1504.01 330.85 C 1482.19 324.18 1460.03 318.74 1437.84 313.46 C 1419.95 308.85 1401.52 303.81 1386.46 292.66 C 1374.88 284.20 1366.81 271.46 1363.25 257.64 C 1356.94 233.08 1359.08 206.22 1370.31 183.37 C 1377.49 168.24 1388.83 155.07 1402.92 145.99 Z" />
</g>
</svg>
