<?xml version="1.0" encoding="UTF-8" ?>
<!DOCTYPE svg PUBLIC "-//W3C//DTD SVG 1.1//EN" "http://www.w3.org/Graphics/SVG/1.1/DTD/svg11.dtd">
<svg width="930pt" height="678pt" viewBox="0 0 930 678" version="1.1" xmlns="http://www.w3.org/2000/svg">
<g id="#f8931dff">
<path fill="#f8931d" opacity="1.00" d=" M 493.52 73.65 C 508.72 71.82 524.07 76.18 537.12 83.87 C 554.48 93.92 568.41 109.06 579.07 125.91 C 600.58 160.09 609.29 201.84 604.43 241.85 C 601.75 263.73 595.07 285.14 584.63 304.56 C 574.80 322.53 561.69 339.03 544.90 350.95 C 532.13 360.08 516.91 366.42 501.05 366.61 C 486.32 366.60 472.10 361.05 459.93 353.05 C 443.68 342.15 430.88 326.74 421.04 309.97 C 388.42 254.12 389.32 180.49 423.51 125.55 C 434.47 108.01 449.03 92.26 467.36 82.33 C 475.48 77.94 484.33 74.77 493.52 73.65 Z" />
<path fill="#f8931d" opacity="1.00" d=" M 166.76 109.54 C 183.45 107.30 199.91 114.86 212.15 125.78 C 230.63 142.52 241.84 165.85 248.13 189.66 C 256.30 222.27 256.07 257.57 244.10 289.23 C 236.78 308.89 224.81 327.32 207.71 339.81 C 195.25 348.89 179.53 354.50 164.00 352.54 C 146.78 350.64 131.48 340.47 120.34 327.59 C 105.53 310.24 96.81 288.33 92.71 266.06 C 86.98 234.58 89.99 201.48 101.78 171.70 C 108.16 156.01 117.01 141.09 129.24 129.25 C 139.41 119.19 152.44 111.49 166.76 109.54 Z" />
<path fill="#f8931d" opacity="1.00" d=" M 621.40 119.52 C 625.76 117.71 630.56 120.46 632.90 124.18 C 636.82 130.35 637.15 137.84 638.61 144.80 C 642.79 165.62 648.04 186.32 656.02 206.03 C 662.63 222.24 671.02 238.05 683.09 250.89 C 692.26 260.65 704.00 268.43 717.30 271.03 C 731.62 273.73 746.61 271.00 759.55 264.48 C 776.02 256.36 789.65 243.23 800.03 228.21 C 805.13 220.63 809.24 212.29 811.31 203.36 C 814.47 189.82 817.48 176.24 820.10 162.59 C 821.20 157.99 822.25 153.11 825.23 149.30 C 826.55 147.44 829.52 146.80 831.08 148.77 C 834.08 152.32 835.05 157.04 836.12 161.44 C 838.23 171.78 839.11 182.32 840.06 192.82 C 842.31 221.49 842.97 250.50 838.49 279.00 C 837.07 288.58 834.02 297.79 831.45 307.09 C 827.69 320.44 820.38 332.75 810.51 342.49 C 798.57 354.18 783.59 362.38 767.82 367.65 C 746.81 374.46 724.31 376.55 702.40 373.82 C 681.34 371.25 660.52 364.26 643.21 351.79 C 625.17 338.72 611.93 318.54 609.06 296.27 C 608.82 244.20 608.81 192.12 608.93 140.04 C 608.55 131.59 613.46 122.78 621.40 119.52 Z" />
<path fill="#f8931d" opacity="1.00" d=" M 324.56 147.64 C 340.69 145.98 358.26 149.25 370.48 160.55 C 384.57 173.24 390.40 192.31 393.25 210.49 C 396.03 231.46 396.74 253.09 391.56 273.76 C 387.00 292.50 378.51 310.96 364.18 324.24 C 354.14 333.88 340.11 339.87 326.06 338.48 C 313.60 336.94 301.12 333.94 290.05 327.86 C 277.73 321.52 268.16 310.35 263.29 297.42 C 256.94 281.42 255.94 263.98 255.46 246.96 C 255.44 232.40 256.13 217.71 259.30 203.45 C 262.50 188.81 268.64 174.13 280.10 164.03 C 292.26 153.22 308.73 149.11 324.56 147.64 Z" />
<path fill="#f8931d" opacity="1.00" d=" M 607.47 418.47 C 614.77 414.64 624.61 419.81 625.80 427.89 C 627.48 435.53 620.85 443.50 613.04 443.25 C 605.55 443.56 599.09 436.27 600.03 428.91 C 600.35 424.42 603.48 420.38 607.47 418.47 Z" />
<path fill="#f8931d" opacity="1.00" d=" M 505.90 419.40 C 513.30 419.41 520.70 419.40 528.10 419.40 C 528.15 432.73 527.97 446.05 528.20 459.38 C 532.85 455.12 538.02 451.05 544.33 449.72 C 553.97 447.18 564.83 450.08 571.84 457.20 C 578.25 463.31 581.18 472.27 581.22 480.99 C 581.23 497.57 581.17 514.14 581.24 530.72 C 573.82 530.70 566.40 530.72 558.97 530.71 C 558.96 515.14 559.01 499.57 558.95 484.01 C 558.82 478.66 557.32 472.46 552.43 469.50 C 545.69 465.86 536.69 468.02 531.99 473.98 C 528.91 477.52 528.11 482.40 528.09 486.95 C 528.11 501.54 528.08 516.12 528.11 530.71 C 520.70 530.71 513.29 530.71 505.88 530.72 C 505.93 493.61 505.89 456.50 505.90 419.40 Z" />
<path fill="#f8931d" opacity="1.00" d=" M 398.79 425.90 C 412.86 425.93 426.93 425.85 441.01 425.94 C 451.98 426.43 463.86 427.27 472.97 434.10 C 479.79 439.23 482.84 447.77 483.44 456.02 C 484.14 465.61 482.95 476.07 476.81 483.85 C 473.56 488.28 468.63 491.09 463.66 493.20 C 465.62 496.84 468.25 500.06 470.60 503.45 C 477.09 512.53 483.40 521.75 490.02 530.74 C 480.57 530.69 471.13 530.71 461.69 530.73 C 454.06 519.58 446.35 508.47 438.56 497.44 C 432.96 496.88 427.30 497.38 421.68 497.21 C 421.78 508.38 421.66 519.56 421.74 530.74 C 414.08 530.69 406.41 530.72 398.75 530.72 C 398.83 495.78 398.76 460.84 398.79 425.90 M 421.82 445.82 C 421.84 456.27 421.83 466.72 421.82 477.18 C 428.86 477.12 435.90 477.26 442.95 477.13 C 448.22 476.67 454.65 475.86 457.66 470.87 C 460.78 465.15 460.99 457.82 458.15 451.95 C 455.91 447.53 450.42 446.67 446.00 446.07 C 437.96 445.50 429.87 446.00 421.82 445.82 Z" />
<path fill="#f8931d" opacity="1.00" d=" M 129.98 454.87 C 137.10 450.03 146.16 448.24 154.61 449.78 C 163.74 451.46 171.75 458.12 175.02 466.82 C 177.52 473.56 177.79 480.84 178.02 487.95 C 178.03 502.20 178.01 516.46 178.03 530.71 C 174.77 530.71 171.51 530.70 168.26 530.74 C 168.31 516.48 168.28 502.22 168.28 487.96 C 167.95 480.33 167.99 472.00 163.32 465.53 C 159.06 459.48 151.01 457.55 144.00 458.39 C 133.81 459.29 124.81 466.74 121.19 476.19 C 119.26 480.85 118.97 485.96 118.71 490.94 C 118.42 504.20 118.56 517.46 118.52 530.72 C 115.27 530.71 112.01 530.71 108.76 530.72 C 108.81 504.24 108.81 477.76 108.76 451.28 C 112.01 451.29 115.27 451.28 118.53 451.29 C 118.55 456.01 118.43 460.74 118.63 465.46 C 122.33 461.85 125.57 457.68 129.98 454.87 Z" />
<path fill="#f8931d" opacity="1.00" d=" M 223.38 451.60 C 237.04 446.93 253.36 449.04 264.44 458.64 C 274.07 466.61 279.02 479.08 279.09 491.43 C 255.03 491.66 230.97 491.43 206.91 491.54 C 206.86 501.52 210.98 511.80 219.17 517.82 C 230.31 526.53 246.93 525.19 258.02 517.08 C 262.25 513.80 265.37 509.33 268.05 504.75 C 270.80 506.18 273.54 507.64 276.26 509.14 C 270.88 519.89 261.25 528.76 249.37 531.53 C 237.57 534.12 224.28 532.90 214.23 525.76 C 203.50 517.70 196.64 504.49 196.87 491.00 C 196.75 474.23 207.43 457.40 223.38 451.60 M 218.42 465.48 C 212.90 469.88 209.75 476.49 207.96 483.17 C 227.99 483.17 248.02 483.17 268.05 483.17 C 266.92 478.45 265.23 473.76 262.17 469.92 C 251.95 457.16 230.98 454.86 218.42 465.48 Z" />
<path fill="#f8931d" opacity="1.00" d=" M 328.69 449.79 C 337.62 448.44 347.12 449.51 355.14 453.83 C 368.47 461.00 377.50 475.73 377.25 490.95 C 377.69 508.83 365.16 526.39 347.83 531.20 C 335.69 534.44 321.92 532.83 311.63 525.29 C 305.12 520.11 299.59 513.44 296.80 505.50 C 292.43 493.28 293.90 478.97 301.14 468.13 C 307.31 458.63 317.34 451.41 328.69 449.79 M 328.44 459.86 C 319.46 461.98 311.96 468.60 307.80 476.72 C 301.44 489.70 304.49 506.89 315.68 516.27 C 325.62 524.65 340.88 525.65 351.99 519.02 C 363.67 512.18 369.41 497.32 366.39 484.28 C 364.68 475.36 358.62 467.69 350.97 463.01 C 344.27 458.97 335.98 458.23 328.44 459.86 Z" />
<path fill="#f8931d" opacity="1.00" d=" M 684.42 449.70 C 694.25 447.18 705.42 450.14 712.36 457.66 C 718.45 463.77 721.21 472.51 721.21 481.01 C 721.24 497.58 721.17 514.15 721.24 530.72 C 713.82 530.70 706.40 530.72 698.97 530.71 C 698.95 514.45 699.04 498.18 698.93 481.92 C 698.63 476.67 697.13 470.42 692.08 467.79 C 684.36 463.94 674.20 467.49 670.25 475.07 C 668.53 478.43 668.03 482.25 668.09 485.99 C 668.11 500.90 668.07 515.80 668.11 530.71 C 660.70 530.71 653.29 530.71 645.89 530.72 C 645.92 503.90 645.91 477.09 645.89 450.28 C 653.29 450.29 660.70 450.28 668.11 450.29 C 668.08 453.31 668.07 456.34 668.20 459.38 C 672.86 455.09 678.08 451.04 684.42 449.70 Z" />
<path fill="#f8931d" opacity="1.00" d=" M 770.47 449.83 C 780.74 447.79 791.89 448.74 801.18 453.81 C 812.97 460.07 821.58 472.34 822.74 485.73 C 823.54 493.32 822.56 501.25 819.20 508.16 C 813.78 519.64 802.84 528.51 790.32 530.96 C 780.38 532.94 769.66 532.12 760.53 527.54 C 749.30 521.99 740.76 511.09 738.52 498.72 C 736.79 489.31 737.93 479.20 742.61 470.77 C 748.26 460.20 758.66 452.18 770.47 449.83 M 774.40 468.57 C 768.29 470.35 763.53 475.50 761.54 481.46 C 758.29 491.40 760.39 504.21 769.74 510.17 C 777.51 515.03 788.69 513.81 794.88 506.91 C 802.83 497.75 802.66 482.50 794.46 473.55 C 789.47 468.11 781.33 466.57 774.40 468.57 Z" />
<path fill="#f8931d" opacity="1.00" d=" M 601.89 450.28 C 609.30 450.29 616.70 450.28 624.11 450.29 C 624.09 477.09 624.09 503.90 624.11 530.71 C 616.70 530.71 609.29 530.71 601.89 530.72 C 601.92 503.90 601.91 477.09 601.89 450.28 Z" />
<path fill="#f8931d" opacity="1.00" d=" M 277.48 565.28 C 284.23 564.18 291.06 566.33 296.64 570.11 C 295.45 571.90 294.23 573.68 293.00 575.44 C 287.34 571.92 279.75 569.97 273.65 573.56 C 273.15 575.51 272.05 577.64 273.10 579.61 C 274.03 582.26 277.09 582.97 279.46 583.76 C 284.98 585.35 291.05 586.38 295.39 590.46 C 299.00 594.67 299.17 601.40 295.85 605.83 C 292.46 610.37 286.38 612.13 280.90 611.74 C 274.42 611.71 268.47 608.65 263.47 604.76 C 264.97 602.97 266.43 601.14 267.91 599.33 C 271.90 602.57 276.73 605.20 282.02 605.01 C 285.07 605.10 289.05 604.40 290.27 601.15 C 290.80 598.87 290.69 595.89 288.48 594.55 C 282.13 591.07 273.95 591.66 268.46 586.51 C 265.08 583.50 264.75 578.52 265.61 574.37 C 266.98 569.08 272.38 566.00 277.48 565.28 Z" />
<path fill="#f8931d" opacity="1.00" d=" M 340.43 565.81 C 348.90 563.61 358.57 565.90 364.52 572.49 C 373.20 581.30 372.66 597.22 363.34 605.37 C 354.93 613.54 340.44 613.84 331.52 606.33 C 326.02 602.01 322.88 594.96 323.24 587.99 C 322.83 577.76 330.70 568.31 340.43 565.81 M 341.40 572.58 C 335.44 574.70 331.01 580.60 330.73 586.94 C 329.91 594.41 334.72 602.23 342.03 604.33 C 348.80 606.65 356.91 603.68 360.58 597.54 C 364.75 591.14 363.86 581.98 358.47 576.55 C 354.28 571.88 347.22 570.64 341.40 572.58 Z" />
<path fill="#f8931d" opacity="1.00" d=" M 631.41 565.82 C 639.91 563.60 649.61 565.90 655.56 572.53 C 664.40 581.54 663.58 597.86 653.79 605.87 C 644.61 614.28 628.96 613.50 620.47 604.48 C 614.60 598.62 612.98 589.57 615.00 581.72 C 617.19 574.06 623.74 567.83 631.41 565.82 M 632.36 572.59 C 622.48 575.91 618.57 589.12 624.30 597.61 C 628.69 605.03 639.43 607.40 646.57 602.58 C 655.16 597.43 656.74 584.31 649.94 577.06 C 645.78 572.01 638.41 570.53 632.36 572.59 Z" />
<path fill="#f8931d" opacity="1.00" d=" M 766.01 567.88 C 774.02 562.84 784.62 564.94 792.08 570.05 C 790.93 571.89 789.73 573.70 788.52 575.49 C 783.55 572.32 777.16 570.47 771.41 572.48 C 767.21 573.67 767.15 580.20 770.81 582.14 C 777.25 585.29 785.27 585.17 790.71 590.34 C 795.80 595.76 794.19 605.51 787.69 609.10 C 778.57 614.53 766.65 611.26 758.99 604.69 C 760.45 602.88 761.94 601.08 763.50 599.36 C 766.82 601.99 770.54 604.42 774.88 604.84 C 778.43 605.20 782.88 605.33 785.28 602.15 C 786.63 599.59 786.33 595.64 783.46 594.25 C 777.69 591.36 770.71 591.51 765.36 587.66 C 758.73 583.27 759.19 571.88 766.01 567.88 Z" />
<path fill="#f8931d" opacity="1.00" d=" M 135.47 566.29 C 137.89 566.28 140.31 566.28 142.74 566.26 C 142.69 581.26 142.72 596.25 142.72 611.25 C 140.30 611.21 137.89 611.20 135.47 611.21 C 135.48 596.23 135.48 581.26 135.47 566.29 Z" />
<path fill="#f8931d" opacity="1.00" d=" M 169.76 566.27 C 181.42 566.29 193.08 566.31 204.73 566.26 C 204.72 568.41 204.72 570.57 204.73 572.74 C 200.05 572.69 195.38 572.73 190.70 572.70 C 190.74 585.55 190.70 598.40 190.72 611.25 C 188.30 611.21 185.89 611.20 183.47 611.21 C 183.48 598.37 183.47 585.54 183.48 572.71 C 178.91 572.72 174.34 572.71 169.77 572.72 C 169.78 570.56 169.78 568.41 169.76 566.27 Z" />
<path fill="#f8931d" opacity="1.00" d=" M 398.47 566.29 C 400.89 566.28 403.32 566.28 405.74 566.26 C 405.67 578.97 405.75 591.69 405.70 604.40 C 412.67 604.39 419.63 604.40 426.60 604.40 C 426.59 606.67 426.60 608.94 426.60 611.22 C 417.23 611.20 407.85 611.22 398.48 611.22 C 398.47 596.24 398.48 581.26 398.47 566.29 Z" />
<path fill="#f8931d" opacity="1.00" d=" M 452.89 566.29 C 455.34 566.28 457.79 566.28 460.25 566.28 C 460.17 574.54 460.24 582.80 460.19 591.07 C 460.10 595.26 461.33 599.82 464.64 602.62 C 467.68 605.23 472.08 605.29 475.81 604.50 C 480.81 603.13 483.68 597.95 483.83 593.01 C 484.00 584.11 483.87 575.19 483.89 566.29 C 486.29 566.28 488.70 566.28 491.11 566.29 C 491.06 574.87 491.13 583.45 491.09 592.03 C 491.04 597.04 489.78 602.39 486.08 606.00 C 478.29 614.42 462.61 613.56 456.26 603.83 C 453.45 599.78 452.95 594.73 452.90 589.95 C 452.89 582.06 452.93 574.17 452.89 566.29 Z" />
<path fill="#f8931d" opacity="1.00" d=" M 517.27 566.26 C 528.92 566.32 540.58 566.28 552.24 566.28 C 552.21 568.42 552.21 570.57 552.24 572.72 C 547.56 572.70 542.88 572.74 538.20 572.68 C 538.23 585.53 538.19 598.37 538.23 611.22 C 535.80 611.21 533.39 611.21 530.98 611.21 C 530.98 598.38 530.98 585.54 530.98 572.71 C 526.40 572.72 521.83 572.69 517.27 572.74 C 517.28 570.57 517.28 568.41 517.27 566.26 Z" />
<path fill="#f8931d" opacity="1.00" d=" M 578.97 566.29 C 581.39 566.28 583.82 566.28 586.25 566.28 C 586.18 581.26 586.22 596.24 586.23 611.22 C 583.80 611.21 581.39 611.21 578.98 611.21 C 578.97 596.24 578.98 581.26 578.97 566.29 Z" />
<path fill="#f8931d" opacity="1.00" d=" M 689.97 566.28 C 692.49 566.28 695.02 566.28 697.56 566.32 C 706.37 577.76 715.15 589.23 724.19 600.48 C 724.39 589.07 724.26 577.66 724.26 566.26 C 726.67 566.28 729.10 566.29 731.53 566.29 C 731.52 581.26 731.52 596.24 731.52 611.21 C 728.87 611.21 726.22 611.21 723.59 611.23 C 714.78 600.21 706.50 588.76 697.45 577.94 C 696.92 589.02 697.35 600.13 697.22 611.23 C 694.80 611.21 692.39 611.21 689.98 611.21 C 689.97 596.23 689.98 581.26 689.97 566.28 Z" />
</g>
</svg>
