<?xml version="1.0" encoding="utf-8"?>
<!-- Generator: Adobe Illustrator 19.0.0, SVG Export Plug-In . SVG Version: 6.00 Build 0)  -->
<svg version="1.1" id="Layer_1" xmlns="http://www.w3.org/2000/svg" xmlns:xlink="http://www.w3.org/1999/xlink" x="0px" y="0px"
	 viewBox="561.4 112 173.2 63.9" style="enable-background:new 561.4 112 173.2 63.9;" xml:space="preserve">
<style type="text/css">
	.st0{fill:#EE3124;}
	.st1{fill:#5F6369;}
</style>
<g>
	<path class="st0" d="M648,112c-17.6,0-32,14.3-32,32c0,2.9,0.4,5.7,1.1,8.3l0.2,0.3c1.5,2.5,6.9,7.9,25.5,3.3
		c11.4-2.8,22.8-10.7,30.1-18.1c0.1,0.6,0.3,1.3,0.3,1.9c-6.4,8.5-17.4,18-30.4,22c-8.8,2.7-15,3.2-19.4,2.7
		c5.9,7,14.7,11.5,24.6,11.5c17.6,0,32-14.3,32-32C679.9,126.4,665.6,112,648,112z"/>
	<path class="st1" d="M734.6,114l-36.7,60h-26.1c8.8-7,14.5-17.8,14.5-30s-5.7-23-14.5-30h26v22.4l13.5-22.4H734.6z M609.6,144
		c0-12.2,5.7-23,14.5-30h-26v22.4L584.6,114h-23.2v60h23v-22.4l13.5,22.4h26.2C615.3,167,609.6,156.2,609.6,144z"/>
</g>
</svg>
