<?xml version="1.0" encoding="utf-8"?>
<!-- Generator: Adobe Illustrator 19.0.0, SVG Export Plug-In . SVG Version: 6.00 Build 0)  -->
<svg version="1.1" xmlns="http://www.w3.org/2000/svg" xmlns:xlink="http://www.w3.org/1999/xlink" x="0px" y="0px"
	 viewBox="0 0 258.5 73.3" style="enable-background:new 0 0 258.5 73.3;" xml:space="preserve">
<style type="text/css">
	.st0{fill:#DE272E;}
	.st1{fill:#FFFFFF;}
	.st2{fill:#999999;}
	.st3{fill:#555655;}
	.st4{fill:#333333;}
</style>
<g id="Layer_1">
	<g id="XMLID_90_">
		<path id="XMLID_91_" d="M82.5,56.3l-0.9,4.9h4.3l0.9-4.9h2l-2.3,12h-2l1-5.3h-4.3l-1,5.3h-2l2.3-12H82.5z"/>
		<path id="XMLID_93_" d="M97,67.9c-0.8,0.4-1.8,0.6-2.8,0.6c-2.3,0-3.3-1.5-3.3-3.5c0-2.6,1.8-5.6,4.7-5.6c1.6,0,2.6,1,2.6,2.4
			c0,2.2-2.2,3-5.3,2.9c0,0.3,0,0.9,0.2,1.3c0.3,0.6,0.9,0.9,1.6,0.9c0.9,0,1.6-0.2,2.2-0.5L97,67.9z M96.2,61.9
			c0-0.5-0.4-0.9-1-0.9c-1.1,0-1.9,1.1-2.2,2.3C94.9,63.3,96.2,63,96.2,61.9L96.2,61.9z"/>
		<path id="XMLID_96_" d="M105.6,68.3c0-0.5,0.1-1.1,0.1-1.8h0c-0.8,1.5-1.9,2-2.9,2c-1.4,0-2.3-1.1-2.3-2.8c0-2.9,1.9-6.2,5.8-6.2
			c0.9,0,1.8,0.2,2.4,0.4l-0.9,4.6c-0.2,1.2-0.4,2.8-0.4,3.9H105.6z M106.5,61.1c-0.2-0.1-0.4-0.1-0.8-0.1c-1.8,0-3.2,2.4-3.2,4.3
			c0,0.9,0.3,1.6,1.1,1.6c0.9,0,1.9-1.2,2.3-3.3L106.5,61.1z"/>
		<path id="XMLID_99_" d="M111,68.3l2.4-12.6h2L113,68.3H111z"/>
		<path id="XMLID_101_" d="M121.3,57.4l-0.4,2.2h1.9l-0.3,1.5h-1.9l-0.7,3.8c-0.1,0.4-0.1,0.8-0.1,1.1c0,0.5,0.2,0.8,0.8,0.8
			c0.2,0,0.4,0,0.7-0.1l-0.2,1.6c-0.3,0.1-0.8,0.2-1.3,0.2c-1.4,0-2-0.8-2-1.8c0-0.5,0.1-0.9,0.2-1.5l0.8-4.1h-1.1l0.3-1.5h1.1
			l0.3-1.6L121.3,57.4z"/>
		<path id="XMLID_103_" d="M124.3,68.3l2.4-12.6h2l-1,5.1l0,0c0.7-0.9,1.6-1.4,2.7-1.4c1.1,0,2,0.8,2,2.2c0,0.4-0.1,1-0.2,1.5
			l-1,5.1h-2l1-5c0.1-0.3,0.1-0.7,0.1-1.1c0-0.6-0.3-1.1-0.9-1.1c-0.9,0-1.9,1.1-2.3,2.8l-0.8,4.4H124.3z"/>
		<path id="XMLID_105_" d="M140.9,68.1c-0.4,0.2-1.2,0.4-2.2,0.4c-2.1,0-3.2-1.4-3.2-3.4c0-3,2.1-5.7,5.2-5.7c0.7,0,1.3,0.1,1.6,0.3
			l-0.5,1.6c-0.3-0.1-0.6-0.2-1.1-0.2c-1.9,0-3.1,1.9-3.1,3.8c0,1.2,0.6,2,1.7,2c0.7,0,1.2-0.2,1.6-0.4L140.9,68.1z"/>
		<path id="XMLID_107_" d="M149.1,68.3c0-0.5,0.1-1.1,0.1-1.8h0c-0.8,1.5-1.9,2-2.9,2c-1.4,0-2.3-1.1-2.3-2.8c0-2.9,1.9-6.2,5.8-6.2
			c0.9,0,1.8,0.2,2.4,0.4l-0.9,4.6c-0.2,1.2-0.4,2.8-0.4,3.9H149.1z M149.9,61.1c-0.2-0.1-0.4-0.1-0.8-0.1c-1.8,0-3.2,2.4-3.2,4.3
			c0,0.9,0.3,1.6,1.1,1.6c0.9,0,1.9-1.2,2.3-3.3L149.9,61.1z"/>
		<path id="XMLID_110_" d="M154.5,68.3l1.1-5.5c0.2-1.2,0.3-2.4,0.4-3.2h1.7c0,0.6-0.1,1.1-0.2,1.8h0.1c0.6-1.2,1.5-1.9,2.6-1.9
			c0.1,0,0.3,0,0.4,0l-0.4,2c-0.1,0-0.2,0-0.4,0c-1.3,0-2.3,1.4-2.6,3.2l-0.7,3.7H154.5z"/>
		<path id="XMLID_112_" d="M168.3,67.9c-0.8,0.4-1.8,0.6-2.8,0.6c-2.3,0-3.3-1.5-3.3-3.5c0-2.6,1.8-5.6,4.7-5.6c1.6,0,2.6,1,2.6,2.4
			c0,2.2-2.2,3-5.3,2.9c0,0.3,0,0.9,0.2,1.3c0.3,0.6,0.9,0.9,1.6,0.9c0.9,0,1.6-0.2,2.2-0.5L168.3,67.9z M167.5,61.9
			c0-0.5-0.4-0.9-1-0.9c-1.1,0-1.9,1.1-2.2,2.3C166.2,63.3,167.5,63,167.5,61.9L167.5,61.9z"/>
		<path id="XMLID_115_" d="M176.9,66.1c0.6,0.4,1.5,0.7,2.4,0.7c1.2,0,2.1-0.7,2.1-1.8c0-0.8-0.5-1.4-1.6-2
			c-1.2-0.8-2.1-1.7-2.1-3.1c0-2.2,1.8-3.7,4.2-3.7c1.2,0,2,0.3,2.4,0.5l-0.6,1.7c-0.4-0.2-1.1-0.5-1.9-0.5c-1.2,0-2,0.8-2,1.6
			c0,0.8,0.6,1.3,1.6,2c1.3,0.8,2.1,1.8,2.1,3.1c0,2.4-1.8,3.9-4.4,3.9c-1.3,0-2.4-0.4-2.9-0.7L176.9,66.1z"/>
		<path id="XMLID_117_" d="M194.6,62.9c0,2.8-1.8,5.6-4.7,5.6c-2.1,0-3.2-1.5-3.2-3.4c0-2.9,1.9-5.7,4.7-5.7
			C193.7,59.5,194.6,61.2,194.6,62.9z M188.8,65.1c0,1.1,0.4,1.9,1.4,1.9c1.5,0,2.4-2.5,2.4-4.1c0-0.8-0.3-1.8-1.4-1.8
			C189.7,61,188.8,63.4,188.8,65.1z"/>
		<path id="XMLID_120_" d="M197.2,68.3l2.4-12.6h2l-2.4,12.6H197.2z"/>
		<path id="XMLID_122_" d="M211.6,59.6l-1.1,5.9c-0.2,1.1-0.3,2-0.4,2.7h-1.8l0.2-1.4l0,0c-0.8,1.1-1.8,1.6-2.8,1.6
			c-1.2,0-2.1-0.7-2.1-2.3c0-0.5,0.1-1,0.2-1.6l0.9-5h2l-0.9,4.9c-0.1,0.5-0.1,0.9-0.1,1.2c0,0.6,0.3,1.1,1,1.1
			c0.9,0,1.9-1.1,2.2-2.8l0.8-4.5H211.6z"/>
		<path id="XMLID_124_" d="M218.3,57.4l-0.4,2.2h1.9l-0.3,1.5h-1.9l-0.7,3.8c-0.1,0.4-0.1,0.8-0.1,1.1c0,0.5,0.2,0.8,0.8,0.8
			c0.2,0,0.4,0,0.7-0.1l-0.2,1.6c-0.3,0.1-0.8,0.2-1.3,0.2c-1.4,0-2-0.8-2-1.8c0-0.5,0.1-0.9,0.2-1.5l0.8-4.1h-1.1l0.3-1.5h1.1
			l0.3-1.6L218.3,57.4z"/>
		<path id="XMLID_126_" d="M221.3,68.3l1.7-8.7h2l-1.7,8.7H221.3z M224.3,58.4c-0.6,0-1-0.4-1-1.1c0-0.7,0.5-1.2,1.2-1.2
			c0.6,0,1.1,0.5,1,1.1C225.6,58,225,58.4,224.3,58.4L224.3,58.4z"/>
		<path id="XMLID_129_" d="M235.5,62.9c0,2.8-1.8,5.6-4.7,5.6c-2.1,0-3.2-1.5-3.2-3.4c0-2.9,1.9-5.7,4.7-5.7
			C234.5,59.5,235.5,61.2,235.5,62.9z M229.6,65.1c0,1.1,0.4,1.9,1.4,1.9c1.5,0,2.4-2.5,2.4-4.1c0-0.8-0.3-1.8-1.4-1.8
			C230.5,61,229.6,63.4,229.6,65.1z"/>
		<path id="XMLID_132_" d="M238,68.3l1.1-5.9c0.2-1.1,0.3-2,0.4-2.8h1.8l-0.2,1.5h0c0.8-1.1,1.8-1.6,2.9-1.6c1.2,0,2,0.8,2,2.2
			c0,0.4-0.1,1-0.2,1.5l-1,5.2h-2l1-5.1c0.1-0.3,0.1-0.7,0.1-1c0-0.6-0.2-1.1-0.9-1.1c-0.9,0-1.9,1.1-2.3,3l-0.8,4.2H238z"/>
		<path id="XMLID_134_" d="M249.1,66.5c0.4,0.2,1.1,0.5,1.9,0.5c0.8,0,1.3-0.5,1.3-1.1c0-0.6-0.3-0.9-1.1-1.4
			c-0.9-0.5-1.6-1.3-1.6-2.2c0-1.6,1.4-2.8,3.4-2.8c0.8,0,1.5,0.2,1.9,0.4l-0.5,1.4c-0.3-0.2-0.8-0.3-1.4-0.3c-0.8,0-1.3,0.4-1.3,1
			c0,0.5,0.4,0.8,1,1.2c0.9,0.6,1.6,1.3,1.6,2.3c0,1.9-1.5,3-3.5,2.9c-0.9,0-1.8-0.3-2.2-0.6L249.1,66.5z"/>
	</g>
	<g id="XMLID_3_">
		<path id="XMLID_4_" d="M73.4,39.9l0.4,0.4c0.9,0.8,1.8,1.5,2.7,1.9c1,0.5,2,0.7,3,0.7c0.6,0,1.2-0.1,1.8-0.4
			c0.6-0.3,0.9-0.7,1-1.3c0-0.1,0-0.1,0-0.2V41c0-0.4-0.1-0.7-0.4-0.9c-0.3-0.2-0.7-0.3-1.3-0.4c-0.1,0-0.2,0-0.3,0l-1.9-0.4
			c-1.8-0.4-3.3-1.1-4.4-2.1c-1.1-1.1-1.7-2.5-1.7-4.3c0-0.4,0-0.8,0.1-1.3c0.2-1.7,0.8-3.2,1.6-4.5c0.9-1.3,1.9-2.5,3.2-3.4
			c1.3-0.9,2.6-1.6,4.1-2.1c1.5-0.5,3-0.7,4.4-0.7c3.1,0,5.9,0.8,8.2,2.5l-3.8,7.4c-0.8-0.7-1.7-1.2-2.6-1.6
			C87,28.9,86,28.7,85,28.7c-0.5,0-1,0.1-1.5,0.4c-0.5,0.2-0.8,0.6-0.8,1.2c0,0.4,0.1,0.7,0.4,0.9c0.3,0.2,0.7,0.3,1.1,0.5l0.2,0
			l2.2,0.5c1.9,0.5,3.4,1.3,4.5,2.4c1.1,1.1,1.6,2.6,1.6,4.4c0,0.5,0,1-0.1,1.5c-0.3,1.7-0.8,3.1-1.7,4.4c-0.8,1.3-1.9,2.4-3.1,3.3
			c-1.2,0.9-2.6,1.5-4.1,2c-1.5,0.4-3,0.7-4.4,0.7c-1.7,0-3.5-0.2-5.3-0.7c-1.8-0.5-3.4-1.1-4.8-1.9L73.4,39.9z"/>
		<path id="XMLID_6_" d="M98.4,21.4h9.5l-1.4,9.7h6l1.4-9.7h9.5l-4.3,28.9h-9.5l1.5-10.1h-6l-1.5,10.1h-9.5L98.4,21.4z"/>
		<path id="XMLID_8_" d="M128,21.4h9.9l-4.3,28.9h-9.9L128,21.4z"/>
		<path id="XMLID_10_" d="M142.4,21.4h12.5c3,0,5.3,0.7,7,2.1s2.6,3.5,2.6,6.3c0,0.7,0,1.4-0.1,2.1c-0.5,3-1.6,5.3-3.5,7
			c-1.9,1.7-4.2,2.6-6.9,2.6h-5l-1.3,8.7h-9.5L142.4,21.4z M150,34.3h1c1.1,0,2-0.2,2.7-0.5c0.7-0.4,1.2-1.1,1.3-2.1
			c0-0.1,0-0.2,0-0.3v-0.2c0-0.8-0.3-1.3-0.9-1.6c-0.6-0.2-1.4-0.3-2.4-0.3h-0.9L150,34.3z"/>
		<path id="XMLID_13_" d="M187,33.1c-0.8-0.9-1.6-1.6-2.5-2.1c-0.9-0.5-1.8-0.8-2.9-0.8c-0.7,0-1.4,0.1-2.1,0.4
			c-0.7,0.3-1.3,0.7-1.9,1.2c-0.6,0.5-1.1,1.1-1.4,1.8c-0.4,0.7-0.6,1.4-0.7,2.2c0,0.3-0.1,0.6-0.1,0.8c0,1.4,0.5,2.5,1.3,3.4
			c0.9,0.9,2,1.4,3.4,1.4c1.1,0,2.1-0.2,3.1-0.7c1-0.5,2-1.1,3-2l-1.9,10.8c-0.4,0.2-0.9,0.3-1.5,0.5c-0.6,0.2-1.3,0.3-1.9,0.4
			c-0.7,0.1-1.3,0.2-2,0.2c-0.7,0.1-1.2,0.1-1.7,0.1c-1.7,0-3.3-0.3-4.8-0.9c-1.4-0.6-2.7-1.5-3.7-2.6c-1.1-1.1-1.9-2.4-2.4-3.9
			c-0.6-1.5-0.8-3.1-0.8-4.9c0-0.8,0.1-1.6,0.2-2.4c0.3-2.1,1-4,2-5.9c1-1.9,2.2-3.5,3.7-4.9c1.5-1.4,3.2-2.5,5-3.3
			c1.8-0.8,3.7-1.2,5.7-1.2c2.3,0,4.4,0.4,6.4,1.2L187,33.1z"/>
		<path id="XMLID_15_" d="M211.5,21.8c1.6,0.6,3,1.4,4.1,2.5s2.1,2.4,2.7,4c0.6,1.5,1,3.3,1,5.1c0,0.8-0.1,1.7-0.2,2.5
			c-0.3,2.3-1,4.3-2.1,6.2c-1,1.8-2.3,3.4-3.9,4.7c-1.6,1.3-3.3,2.3-5.2,3c-1.9,0.7-3.9,1-6,1c-1.9,0-3.6-0.3-5.2-0.8
			c-1.6-0.5-3-1.4-4.1-2.4c-1.2-1.1-2.1-2.4-2.7-3.9c-0.6-1.5-1-3.2-1-5.1c0-0.8,0.1-1.7,0.2-2.6c0.3-2.2,1-4.3,2.1-6.1
			c1.1-1.9,2.4-3.4,3.9-4.8c1.6-1.3,3.3-2.3,5.3-3c1.9-0.7,3.9-1.1,6-1.1C208.2,20.9,209.9,21.2,211.5,21.8z M201,32.1
			c-1.1,1.1-1.8,2.4-2,4c0,0.4-0.1,0.7-0.1,1.1c0,1.4,0.4,2.4,1.2,3.3c0.8,0.8,1.8,1.2,3.1,1.2c1.5,0,2.8-0.5,3.9-1.6s1.8-2.4,2-4
			c0-0.4,0.1-0.7,0.1-1c0-1.3-0.4-2.4-1.2-3.3c-0.8-0.9-1.8-1.3-3.2-1.3C203.4,30.4,202.1,31,201,32.1z"/>
		<path id="XMLID_18_" d="M228,21.4h10.1l1.5,15.2h0.3l0-0.2c0.5-1.7,0.9-2.9,1.2-3.6l4.7-11.4h10l0.2,28.9h-9.5l1-15.8h-0.2v0
			c-0.4,1.3-0.8,2.3-1,2.8l-5.9,13h-5.8l-1.7-12.2c-0.1-1-0.1-1.8-0.1-2.4c0-0.2,0-0.4,0-0.6c0-0.3,0-0.5,0-0.6h-0.3v0.1
			c-0.3,1.5-0.6,2.7-0.8,3.4l-3,12.4h-9.5L228,21.4z"/>
	</g>
</g>
<g id="Layer_2">
	<rect id="XMLID_2_" x="13.5" y="8.5" class="st0" width="50.9" height="60.6"/>
</g>
<g id="Layer_3">
	<path id="XMLID_21_" class="st1" d="M30.5,11.9C43,18.7,59.9,30.8,64.6,50.1c0.3,1,0.5,2.1,0.7,3.2v14.5c0,0-10.1-3.4-13.2-3.4
		c-3.4,0-12.7,3.4-12.7,3.4s1.9-20.7,0.7-27.8C38.9,33.1,30.5,11.9,30.5,11.9z"/>
	<path id="XMLID_23_" class="st1" d="M32.8,46.3c0.7,4.2,1.3,8.2,2.3,12.4L37.7,69l-7.4-1.9c-6.1-1.5-12.4-2.5-18.7-2.9l-8.7-0.5
		c0,0,3.5-4.9,4.4-6.7c1-2,3-6.5,3.5-8.7c0.6-2.5,1.8-7.4,2.1-10c0.3-2.1,0.6-6.5,0.6-8.6c0-2.8-0.3-8.4-0.6-11
		C12.5,14.7,9.4,2.9,9.4,2.9l21.4,12.4l0.1,6.9"/>
</g>
<g id="Layer_4">
	<path id="XMLID_22_" class="st2" d="M30.9,15.3c-0.1,6.3,0,15.5,1.4,26.6C33.8,54.8,36.8,69.1,38,69c1-0.1,0.6-12.5-0.6-22.6
		C35.9,33.3,33.2,22.6,30.9,15.3z"/>
	<path id="XMLID_24_" class="st3" d="M9.4,3c0.4,0,0.8,0.2,0.9,0.6c2.1,5.6,5.2,16.4,3.9,29.9c-1.5,14.6-7.4,25-10.8,30
		c-0.2,0.3-0.5,0.3-0.8,0.1l0,0c-0.9-0.7-1.1-2-0.4-3c3.4-5.2,8.6-14.9,10-27.9c1.3-12.6-1.5-22.7-3.6-28.3C8.3,3.8,8.8,3.1,9.4,3
		L9.4,3z"/>
	<path id="XMLID_20_" class="st4" d="M30.6,11.9c0.2-0.1,0.5,0.1,0.6,0.4c2.4,4.8,6.6,14.1,8.6,26.5c2.2,13.4,0.9,23.6,0,28.6
		c0,0.3-0.2,0.3-0.4,0.2l0,0c-0.7-0.6-1.1-1.7-0.9-2.7c0.9-5.2,1.9-14.6,0-26.6c-1.9-11.6-5.7-20.3-8.1-25.1
		C30.2,12.8,30.3,12.1,30.6,11.9L30.6,11.9z"/>
</g>
</svg>
