<?xml version="1.0" encoding="utf-8"?>
<!-- Generator: Adobe Illustrator 19.0.0, SVG Export Plug-In . SVG Version: 6.00 Build 0)  -->
<svg version="1.1" xmlns="http://www.w3.org/2000/svg" xmlns:xlink="http://www.w3.org/1999/xlink" x="0px" y="0px"
	 viewBox="0 0 514.6 338.8" style="enable-background:new 0 0 514.6 338.8;" xml:space="preserve">
<style type="text/css">
	.st0{fill:#12649B;}
	.st1{fill:#FFFFFF;}
</style>
<g id="Layer_1">
	<rect id="XMLID_4_" x="294.9" y="26.9" class="st0" width="5.5" height="209.2"/>
	<g id="XMLID_6_">
		<path id="XMLID_7_" class="st0" d="M349.9,38.9L348,63.1l-2.9,0.4l-3.4-10l-3.4,10l-2.9-0.4l-1.9-24.1l3.2-0.2l1.2,15.9l3.8-11
			l3.8,11l1.3-15.9L349.9,38.9z"/>
		<path id="XMLID_9_" class="st0" d="M376,63.3h-3.2V51.8h-9.5v11.5h-3.2V38.7h3.2v9.8h9.5v-9.8h3.2V63.3z"/>
		<path id="XMLID_11_" class="st0" d="M400.8,62.9h-14.8V38.6h14.8v3.3h-11.7V49h9.6v3.3h-9.6v7.3h11.7V62.9z"/>
		<path id="XMLID_13_" class="st0" d="M428.4,45.7c0,1.9-0.6,3.5-1.8,4.8c-1.2,1.3-2.8,2-4.7,2h-0.7l6.8,9.4l-2.6,2l-8.3-11.4h-2.1
			V63h-3.2V38.7h9.8C426.2,38.7,428.4,41,428.4,45.7z M425.2,45.6c0-2.5-1.2-3.7-3.6-3.7h-6.6v7.2h6.9c0.9,0,1.7-0.3,2.3-1
			S425.2,46.6,425.2,45.6z"/>
		<path id="XMLID_16_" class="st0" d="M452.4,62.9h-14.8V38.6h14.8v3.3h-11.7V49h9.6v3.3h-9.6v7.3h11.7V62.9z"/>
		<path id="XMLID_18_" class="st0" d="M347.9,116.9h-11.1v-3.3h4V96h-4v-3.3h11.1V96h-4v17.7h4V116.9z"/>
		<path id="XMLID_20_" class="st0" d="M375.3,95.9h-6.1v21.4H366V95.9H360v-3.3h15.3V95.9z"/>
		<path id="XMLID_22_" class="st0" d="M349.2,170.9h-14.8v-24.3h3.2v21h11.6V170.9z"/>
		<path id="XMLID_24_" class="st0" d="M374.9,170.9h-14.8v-24.4h14.8v3.3h-11.7v7.2h9.6v3.3h-9.6v7.3h11.7V170.9z"/>
		<path id="XMLID_26_" class="st0" d="M402.8,170.1l-3,1.2l-2.2-6.6h-7.3l-2.1,6.6l-3-1.1l7.6-23.5h2.3L402.8,170.1z M396.5,161.3
			l-2.5-7.9l-2.6,7.9H396.5z"/>
		<path id="XMLID_29_" class="st0" d="M427.6,162.5c0,2.3-0.8,4.3-2.4,6c-1.6,1.7-3.5,2.5-5.8,2.5h-7.7v-24.2h7.7
			c2.3,0,4.3,0.8,5.8,2.5c1.6,1.7,2.4,3.6,2.4,6V162.5z M424.4,162.5v-7.4c0-1.4-0.5-2.6-1.5-3.6c-1-1-2.2-1.5-3.6-1.5h-4.5v17.7
			h4.5c1.4,0,2.6-0.5,3.6-1.5C423.9,165.1,424.4,163.9,424.4,162.5z"/>
		<path id="XMLID_32_" class="st0" d="M452.4,170.9h-14.8v-24.4h14.8v3.3h-11.7v7.2h9.6v3.3h-9.6v7.3h11.7V170.9z"/>
		<path id="XMLID_34_" class="st0" d="M480.1,153.7c0,1.9-0.6,3.5-1.8,4.8c-1.2,1.3-2.8,2-4.7,2h-0.7l6.8,9.4l-2.6,2l-8.3-11.4h-2.1
			V171h-3.2v-24.4h9.8C477.8,146.7,480.1,149,480.1,153.7z M476.9,153.6c0-2.5-1.2-3.7-3.6-3.7h-6.6v7.2h6.9c0.9,0,1.7-0.3,2.3-1
			S476.9,154.6,476.9,153.6z"/>
		<path id="XMLID_37_" class="st0" d="M505.3,164c0,2.4-0.7,4.3-2.1,5.6c-1.4,1.3-3.3,2-5.7,2c-1.9,0-3.5-0.3-4.8-0.9
			c-1.3-0.6-2.6-1.6-3.8-3l2.3-2.2c1.6,1.8,3.7,2.7,6.2,2.7c1.4,0,2.5-0.4,3.3-1.1s1.2-1.8,1.2-3.2c0-2.3-1.8-3.6-5.4-4.1
			c-2.3-0.3-4.1-0.8-5.2-1.6c-1.5-1-2.3-2.6-2.3-4.7c0-2.3,0.7-4.2,2.2-5.5c1.5-1.4,3.4-2,5.7-2c2.4,0,4.4,0.7,6.2,2.2l-2,2.7
			c-1.2-1-2.6-1.5-4.2-1.5c-1.2,0-2.2,0.4-3.2,1.3c-1,0.9-1.5,1.8-1.5,3c0,1.2,0.5,1.9,1.6,2.4c0.5,0.2,1.5,0.4,3.1,0.5
			c2.2,0.2,4.1,1,5.6,2.2C504.5,160.2,505.3,161.9,505.3,164z"/>
		<path id="XMLID_39_" class="st0" d="M349.5,222.3c-2,2.2-4.4,3.4-7.1,3.4c-2.3,0-4.2-0.8-5.8-2.5c-1.6-1.7-2.3-3.7-2.3-6v-8.5
			c0-2.3,0.8-4.3,2.3-6c1.6-1.7,3.5-2.5,5.8-2.5c2.4,0,4.6,1.1,6.5,3.3l-2.5,2.2c-1.2-1.4-2.6-2.2-4.1-2.2c-1.4,0-2.6,0.5-3.5,1.6
			c-1,1-1.4,2.2-1.4,3.6v8.5c0,1.4,0.5,2.6,1.4,3.7c1,1,2.1,1.6,3.5,1.6c1.8,0,3.4-0.8,4.8-2.4L349.5,222.3z"/>
		<path id="XMLID_41_" class="st0" d="M376.2,217.1c0,2.3-0.8,4.3-2.4,6c-1.6,1.7-3.6,2.5-5.9,2.5c-2.3,0-4.3-0.8-5.9-2.5
			c-1.6-1.7-2.4-3.7-2.4-6v-8.5c0-2.3,0.8-4.3,2.4-6c1.6-1.7,3.6-2.5,5.9-2.5c2.3,0,4.3,0.8,5.9,2.5c1.6,1.7,2.4,3.7,2.4,6V217.1z
			 M372.9,217.1v-8.5c0-1.4-0.5-2.6-1.5-3.7c-1-1-2.2-1.5-3.6-1.5c-1.4,0-2.6,0.5-3.6,1.5s-1.5,2.2-1.5,3.7v8.5
			c0,1.4,0.5,2.6,1.5,3.7s2.2,1.5,3.6,1.5c1.4,0,2.6-0.5,3.6-1.5C372.4,219.8,372.9,218.6,372.9,217.1z"/>
		<path id="XMLID_44_" class="st0" d="M401.1,225.3h-3.2v-5.3l-8.7-12.8v18.2H386v-24.6l3,0.1l8.9,13.4v-13.4h3.2V225.3z"/>
		<path id="XMLID_46_" class="st0" d="M426.9,225.3h-3.2v-5.3l-8.7-12.8v18.2h-3.2v-24.6l3,0.1l8.9,13.4v-13.4h3.2V225.3z"/>
		<path id="XMLID_48_" class="st0" d="M452.4,224.9h-14.8v-24.4h14.8v3.3h-11.7v7.2h9.6v3.3h-9.6v7.3h11.7V224.9z"/>
		<path id="XMLID_50_" class="st0" d="M478.6,222.3c-2,2.2-4.4,3.4-7.1,3.4c-2.3,0-4.2-0.8-5.8-2.5c-1.6-1.7-2.3-3.7-2.3-6v-8.5
			c0-2.3,0.8-4.3,2.3-6c1.6-1.7,3.5-2.5,5.8-2.5c2.4,0,4.6,1.1,6.5,3.3l-2.5,2.2c-1.2-1.4-2.6-2.2-4.1-2.2c-1.4,0-2.6,0.5-3.5,1.6
			c-1,1-1.4,2.2-1.4,3.6v8.5c0,1.4,0.5,2.6,1.4,3.7c1,1,2.1,1.6,3.5,1.6c1.8,0,3.4-0.8,4.8-2.4L478.6,222.3z"/>
		<path id="XMLID_52_" class="st0" d="M504.5,203.9h-6.1v21.4h-3.2v-21.4h-6.1v-3.3h15.3V203.9z"/>
	</g>
</g>
<g id="Layer_2">
	<circle id="XMLID_1_" class="st0" cx="134.5" cy="133.7" r="125.9"/>
	<g id="XMLID_5_">
		<path id="XMLID_54_" class="st1" d="M42.4,113.4c0-12.4,10.2-21.5,26.2-21.5c10.5,0,18.5,3.5,26.1,9.3l-6.8,10.3
			c-5.7-4.6-12-7.3-20-7.3c-5.9,0-12.4,2.9-12.4,9.2c0,15,42.1,5.6,42.1,34.9c0,12.8-13,23.7-29.2,23.7c-11.1,0-21.2-3.9-28.6-9.9
			l6.6-11c5.8,4.6,14.5,7.9,22.6,7.9c7.3,0,14.3-4.4,14.3-10.7C83.3,133.1,42.4,142.9,42.4,113.4z"/>
		<path id="XMLID_56_" class="st1" d="M114.6,93.6h14.9v76.8h-14.9V93.6z"/>
		<path id="XMLID_58_" class="st1" d="M187.7,129.7l22.9-36.1h14.5v76.6h-13.8v-55.5l-20.6,32.8h-5.9l-20.5-32.8v55.5h-13.8V93.7
			h14.5L187.7,129.7z"/>
	</g>
	<g id="XMLID_2_">
		<path id="XMLID_60_" class="st0" d="M53.4,319.1H41.1v12.3h-5.5v-28.5h5.5v11.3h12.3v-11.3h5.5v28.5h-5.5V319.1z"/>
		<path id="XMLID_62_" class="st0" d="M63.5,317.1c0-8.3,5.6-14.9,15.1-14.9s15.1,6.6,15.1,14.9c0,8.3-5.6,14.9-15.1,14.9
			S63.5,325.4,63.5,317.1z M69,317.1c0,5.4,3.8,9.5,9.6,9.5c5.8,0,9.6-4.2,9.6-9.5c0-5.3-3.8-9.5-9.6-9.5
			C72.8,307.5,69,311.7,69,317.1z"/>
		<path id="XMLID_65_" class="st0" d="M115.9,320.7v-17.9h5.5v17.7c0,6.4-4.3,11.5-11.7,11.5s-11.7-5.1-11.7-11.5v-17.7h5.5v17.9
			c0,3.3,2.5,6.2,6.1,6.2S115.9,324,115.9,320.7z"/>
		<path id="XMLID_67_" class="st0" d="M126.5,310.2c0-4.6,3.8-8,9.7-8c3.9,0,6.9,1.3,9.7,3.5l-2.5,3.8c-2.1-1.7-4.4-2.7-7.4-2.7
			c-2.2,0-4.6,1.1-4.6,3.4c0,5.6,15.7,2.1,15.7,13c0,4.8-4.9,8.8-10.8,8.8c-4.1,0-7.9-1.5-10.6-3.7l2.4-4.1c2.2,1.7,5.4,2.9,8.4,2.9
			c2.7,0,5.3-1.6,5.3-4C141.7,317.5,126.5,321.2,126.5,310.2z"/>
		<path id="XMLID_69_" class="st0" d="M171.3,307.8h-8.5v23.5h-5.5v-23.5h-8.5v-5h22.5V307.8z"/>
		<path id="XMLID_71_" class="st0" d="M173.1,317.1c0-8.3,5.6-14.9,15.1-14.9s15.1,6.6,15.1,14.9c0,8.3-5.6,14.9-15.1,14.9
			S173.1,325.4,173.1,317.1z M178.6,317.1c0,5.4,3.8,9.5,9.6,9.5c5.8,0,9.6-4.2,9.6-9.5c0-5.3-3.8-9.5-9.6-9.5
			C182.4,307.5,178.6,311.7,178.6,317.1z"/>
		<path id="XMLID_74_" class="st0" d="M213.5,331.4H208v-28.5h5.5l12.6,19.3v-19.3h5.5v28.5h-5.5l-12.6-19.2V331.4z"/>
	</g>
</g>
</svg>
