<?xml version="1.0" encoding="UTF-8" ?>
<!DOCTYPE svg PUBLIC "-//W3C//DTD SVG 1.1//EN" "http://www.w3.org/Graphics/SVG/1.1/DTD/svg11.dtd">
<svg width="572pt" height="228pt" viewBox="0 0 572 228" version="1.1" xmlns="http://www.w3.org/2000/svg">
<g id="#ffffffff">
<path fill="#ffffff" opacity="1.00" d=" M 0.00 0.00 L 572.00 0.00 L 572.00 228.00 L 0.00 228.00 L 0.00 0.00 M 57.40 102.96 C 60.91 103.04 64.42 103.06 67.94 102.94 C 71.12 82.88 86.45 65.38 106.02 59.81 C 120.40 55.48 136.61 57.51 149.38 65.45 C 162.72 73.49 172.22 87.57 174.64 102.96 C 178.23 103.01 181.82 103.01 185.41 102.98 C 185.33 83.85 185.39 64.72 185.37 45.59 C 142.71 45.65 100.05 45.60 57.39 45.61 C 57.43 64.73 57.41 83.84 57.40 102.96 M 115.09 63.13 C 93.35 65.59 74.84 84.26 72.76 106.06 C 70.51 123.99 79.07 142.89 94.34 152.65 C 104.10 159.24 116.34 161.97 127.98 160.33 C 139.83 158.89 151.03 152.76 158.73 143.64 C 166.39 134.66 170.81 122.82 170.38 110.97 C 170.48 94.95 161.70 79.36 148.27 70.73 C 138.61 64.26 126.58 61.70 115.09 63.13 M 215.85 91.64 C 215.83 94.09 215.83 96.55 215.86 99.01 C 221.89 99.00 227.92 98.99 233.95 99.03 C 234.00 110.04 234.08 121.05 233.92 132.05 C 237.15 132.03 240.38 132.03 243.61 132.03 C 243.56 121.05 243.63 110.07 243.57 99.09 C 249.78 98.92 256.00 99.10 262.22 98.96 C 262.18 96.52 262.19 94.08 262.22 91.65 C 246.76 91.62 231.30 91.65 215.85 91.64 M 268.44 131.95 C 271.62 132.05 274.80 132.05 277.99 131.93 C 279.48 129.01 281.03 126.12 282.49 123.18 C 290.99 123.16 299.50 123.19 308.00 123.19 C 309.57 126.02 311.12 128.86 312.57 131.76 C 316.20 132.15 319.87 132.04 323.52 131.95 C 315.75 118.52 308.00 105.08 300.34 91.59 C 297.29 91.63 294.23 91.63 291.17 91.65 C 283.76 105.17 276.01 118.51 268.44 131.95 M 338.76 91.65 C 338.90 105.12 338.85 118.59 338.79 132.06 C 341.92 132.04 345.06 132.03 348.19 131.94 C 348.15 126.81 348.20 121.68 348.17 116.55 C 351.04 116.58 353.91 116.61 356.78 116.64 C 361.39 120.89 366.00 125.13 370.51 129.49 C 371.80 130.58 373.07 132.15 374.96 132.02 C 378.92 132.13 382.89 132.06 386.84 131.77 C 381.40 127.72 376.36 123.17 371.00 119.02 C 369.96 118.00 368.25 117.21 368.35 115.53 L 369.01 116.63 C 372.67 116.36 376.86 117.28 380.10 115.08 C 382.80 112.89 382.37 109.14 382.40 106.05 C 382.27 102.65 382.68 99.16 381.91 95.82 C 380.86 92.56 376.93 91.72 373.92 91.67 C 362.20 91.58 350.48 91.65 338.76 91.65 M 405.42 93.53 C 403.61 95.14 403.47 97.74 403.39 99.99 C 403.37 107.68 403.39 115.37 403.39 123.06 C 403.46 125.18 403.48 127.48 404.67 129.33 C 406.64 131.78 410.10 131.69 412.94 132.00 C 422.32 132.04 431.72 132.05 441.11 131.99 C 444.42 131.67 449.26 131.59 450.22 127.56 C 451.75 121.35 450.71 114.88 451.05 108.56 C 442.91 108.71 434.76 108.60 426.62 108.63 C 426.63 110.88 426.62 113.12 426.62 115.37 C 431.66 115.36 436.70 115.37 441.75 115.36 C 441.83 118.38 441.83 121.41 441.76 124.43 C 432.03 124.40 422.30 124.41 412.57 124.43 C 412.63 115.97 412.65 107.51 412.58 99.06 C 422.34 98.97 432.10 98.98 441.86 99.04 C 441.83 100.51 441.81 101.97 441.79 103.44 C 444.95 102.84 448.11 102.22 451.30 101.76 C 450.80 99.32 450.73 96.71 449.52 94.49 C 447.64 91.79 443.95 91.79 441.01 91.66 C 432.01 91.61 423.02 91.65 414.03 91.63 C 411.11 91.77 407.83 91.59 405.42 93.53 M 488.24 91.63 C 480.85 105.21 473.04 118.55 465.52 132.06 C 468.62 132.04 471.75 132.21 474.85 131.82 C 476.77 129.13 478.09 126.07 479.68 123.19 C 488.18 123.22 496.67 123.09 505.17 123.26 C 506.69 126.17 508.31 129.01 509.79 131.94 C 513.34 132.04 516.89 132.04 520.45 131.94 C 512.88 118.43 505.04 105.06 497.38 91.60 C 494.33 91.65 491.28 91.65 488.24 91.63 M 175.06 120.22 C 171.94 140.03 157.16 157.57 137.89 163.43 C 124.01 167.89 108.36 166.44 95.57 159.42 C 81.03 151.67 70.36 136.92 67.79 120.62 C 64.33 120.64 60.87 120.63 57.41 120.66 C 57.37 139.77 57.40 158.88 57.39 177.99 C 100.05 178.03 142.71 177.99 185.36 178.00 C 185.35 158.79 185.35 139.59 185.36 120.38 C 181.93 120.42 178.49 120.50 175.06 120.22 Z" />
<path fill="#ffffff" opacity="1.00" d=" M 109.91 69.83 C 121.89 65.07 136.02 67.02 146.50 74.44 C 156.10 81.19 162.59 92.40 163.11 104.19 C 164.55 121.31 153.13 138.32 136.89 143.77 C 125.81 147.79 112.97 146.27 103.03 139.97 C 94.43 134.49 87.81 125.68 85.61 115.65 C 87.16 114.79 86.23 113.60 85.17 112.86 C 81.54 95.06 92.96 75.96 109.91 69.83 M 111.68 90.17 C 110.81 90.27 109.94 90.37 109.08 90.47 C 108.56 90.25 107.52 89.80 106.99 89.57 C 105.92 90.83 105.17 92.63 103.47 93.17 C 99.44 94.33 95.38 95.36 91.36 96.56 C 91.74 97.37 92.51 99.00 92.90 99.81 C 97.26 98.42 101.83 97.59 105.90 95.41 C 106.25 106.69 105.00 117.95 105.67 129.23 C 106.29 129.24 107.51 129.24 108.13 129.25 C 108.03 123.53 109.04 117.88 109.27 112.18 C 109.91 106.25 109.32 100.21 110.33 94.34 C 116.72 91.11 123.50 88.69 130.23 86.25 C 130.53 85.66 131.11 84.49 131.41 83.91 C 124.70 85.51 118.01 87.39 111.68 90.17 M 124.63 92.52 C 122.11 93.41 118.74 92.75 117.23 95.46 C 115.20 96.65 112.63 97.41 111.60 99.74 C 112.14 100.98 112.93 102.04 113.98 102.93 C 114.33 102.29 115.03 101.01 115.39 100.36 C 115.94 100.34 117.06 100.28 117.62 100.26 C 117.67 105.83 117.99 111.42 117.40 116.98 C 116.87 121.67 117.99 126.31 117.97 130.99 C 118.52 130.78 119.63 130.36 120.18 130.15 C 121.03 124.02 120.15 117.83 120.54 111.67 C 121.95 112.69 123.59 112.46 125.17 112.08 C 128.85 114.66 131.85 118.26 136.08 120.03 C 140.99 122.66 147.28 121.91 151.94 119.05 C 155.37 117.49 158.13 114.08 157.27 110.14 C 153.47 117.02 143.56 119.96 136.69 116.16 C 134.20 114.22 131.91 112.03 129.65 109.83 C 135.75 107.68 140.83 103.69 146.04 100.01 C 147.90 97.13 150.22 93.06 146.77 90.37 C 139.48 87.20 131.78 90.63 124.63 92.52 Z" />
<path fill="#ffffff" opacity="1.00" d=" M 130.95 94.32 C 135.11 92.94 139.53 92.93 143.85 93.24 C 144.22 94.39 146.64 95.70 145.08 96.80 C 140.20 101.84 133.65 105.18 127.12 107.53 C 126.67 107.30 125.77 106.84 125.32 106.60 C 124.46 107.09 123.58 107.58 122.71 108.06 C 122.27 109.13 121.85 110.21 121.42 111.30 C 121.44 107.01 120.67 102.64 121.47 98.41 C 124.06 96.00 127.69 95.38 130.95 94.32 Z" />
<path fill="#ffffff" opacity="1.00" d=" M 348.15 98.62 C 356.47 98.89 364.90 97.84 373.12 99.35 C 373.50 102.72 373.56 106.15 372.74 109.46 C 364.57 110.18 356.37 109.68 348.18 109.84 C 348.20 106.10 348.19 102.36 348.15 98.62 Z" />
<path fill="#ffffff" opacity="1.00" d=" M 295.51 99.72 C 298.39 105.07 301.30 110.40 303.99 115.85 C 298.20 115.84 292.41 115.92 286.63 115.72 C 289.64 110.42 292.47 105.01 295.51 99.72 Z" />
<path fill="#ffffff" opacity="1.00" d=" M 492.50 99.78 C 495.57 105.02 498.22 110.49 501.18 115.79 C 495.40 115.87 489.62 115.86 483.84 115.80 C 486.59 110.39 489.59 105.11 492.50 99.78 Z" />
</g>
<g id="#04457fff">
<path fill="#04457f" opacity="1.00" d=" M 57.40 102.96 C 57.41 83.84 57.43 64.73 57.39 45.61 C 100.05 45.60 142.71 45.65 185.37 45.59 C 185.39 64.72 185.33 83.85 185.41 102.98 C 181.82 103.01 178.23 103.01 174.64 102.96 C 172.22 87.57 162.72 73.49 149.38 65.45 C 136.61 57.51 120.40 55.48 106.02 59.81 C 86.45 65.38 71.12 82.88 67.94 102.94 C 64.42 103.06 60.91 103.04 57.40 102.96 Z" />
<path fill="#04457f" opacity="1.00" d=" M 215.85 91.64 C 231.30 91.65 246.76 91.62 262.22 91.65 C 262.19 94.08 262.18 96.52 262.22 98.96 C 256.00 99.10 249.78 98.92 243.57 99.09 C 243.63 110.07 243.56 121.05 243.61 132.03 C 240.38 132.03 237.15 132.03 233.92 132.05 C 234.08 121.05 234.00 110.04 233.95 99.03 C 227.92 98.99 221.89 99.00 215.86 99.01 C 215.83 96.55 215.83 94.09 215.85 91.64 Z" />
<path fill="#04457f" opacity="1.00" d=" M 268.44 131.95 C 276.01 118.51 283.76 105.17 291.17 91.65 C 294.23 91.63 297.29 91.63 300.34 91.59 C 308.00 105.08 315.75 118.52 323.52 131.95 C 319.87 132.04 316.20 132.15 312.57 131.76 C 311.12 128.86 309.57 126.02 308.00 123.19 C 299.50 123.19 290.99 123.16 282.49 123.18 C 281.03 126.12 279.48 129.01 277.99 131.93 C 274.80 132.05 271.62 132.05 268.44 131.95 M 295.51 99.72 C 292.47 105.01 289.64 110.42 286.63 115.72 C 292.41 115.92 298.20 115.84 303.99 115.85 C 301.30 110.40 298.39 105.07 295.51 99.72 Z" />
<path fill="#04457f" opacity="1.00" d=" M 338.76 91.65 C 350.48 91.65 362.20 91.58 373.92 91.67 C 376.93 91.72 380.86 92.56 381.91 95.82 C 382.68 99.16 382.27 102.65 382.40 106.05 C 382.37 109.14 382.80 112.89 380.10 115.08 C 376.86 117.28 372.67 116.36 369.01 116.63 L 368.35 115.53 C 368.25 117.21 369.96 118.00 371.00 119.02 C 376.36 123.17 381.40 127.72 386.84 131.77 C 382.89 132.06 378.92 132.13 374.96 132.02 C 373.07 132.15 371.80 130.58 370.51 129.49 C 366.00 125.13 361.39 120.89 356.78 116.64 C 353.91 116.61 351.04 116.58 348.17 116.55 C 348.20 121.68 348.15 126.81 348.19 131.94 C 345.06 132.03 341.92 132.04 338.79 132.06 C 338.85 118.59 338.90 105.12 338.76 91.65 M 348.15 98.62 C 348.19 102.36 348.20 106.10 348.18 109.84 C 356.37 109.68 364.57 110.18 372.74 109.46 C 373.56 106.15 373.50 102.72 373.12 99.35 C 364.90 97.84 356.47 98.89 348.15 98.62 Z" />
<path fill="#04457f" opacity="1.00" d=" M 405.42 93.53 C 407.83 91.59 411.11 91.77 414.03 91.63 C 423.02 91.65 432.01 91.61 441.01 91.66 C 443.95 91.79 447.64 91.79 449.52 94.49 C 450.73 96.71 450.80 99.32 451.30 101.76 C 448.11 102.22 444.95 102.84 441.79 103.44 C 441.81 101.97 441.83 100.51 441.86 99.04 C 432.10 98.98 422.34 98.97 412.58 99.06 C 412.65 107.51 412.63 115.97 412.57 124.43 C 422.30 124.41 432.03 124.40 441.76 124.43 C 441.83 121.41 441.83 118.38 441.75 115.36 C 436.70 115.37 431.66 115.36 426.62 115.37 C 426.62 113.12 426.63 110.88 426.62 108.63 C 434.76 108.60 442.91 108.71 451.05 108.56 C 450.71 114.88 451.75 121.35 450.22 127.56 C 449.26 131.59 444.42 131.67 441.11 131.99 C 431.72 132.05 422.32 132.04 412.94 132.00 C 410.10 131.69 406.64 131.78 404.67 129.33 C 403.48 127.48 403.46 125.18 403.39 123.06 C 403.39 115.37 403.37 107.68 403.39 99.99 C 403.47 97.74 403.61 95.14 405.42 93.53 Z" />
<path fill="#04457f" opacity="1.00" d=" M 488.24 91.63 C 491.28 91.65 494.33 91.65 497.38 91.60 C 505.04 105.06 512.88 118.43 520.45 131.94 C 516.89 132.04 513.34 132.04 509.79 131.94 C 508.31 129.01 506.69 126.17 505.17 123.26 C 496.67 123.09 488.18 123.22 479.68 123.19 C 478.09 126.07 476.77 129.13 474.85 131.82 C 471.75 132.21 468.62 132.04 465.52 132.06 C 473.04 118.55 480.85 105.21 488.24 91.63 M 492.50 99.78 C 489.59 105.11 486.59 110.39 483.84 115.80 C 489.62 115.86 495.40 115.87 501.18 115.79 C 498.22 110.49 495.57 105.02 492.50 99.78 Z" />
</g>
<g id="#231f20ff">
<path fill="#231f20" opacity="1.00" d=" M 115.09 63.13 C 126.58 61.70 138.61 64.26 148.27 70.73 C 161.70 79.36 170.48 94.95 170.38 110.97 C 170.81 122.82 166.39 134.66 158.73 143.64 C 151.03 152.76 139.83 158.89 127.98 160.33 C 116.34 161.97 104.10 159.24 94.34 152.65 C 79.07 142.89 70.51 123.99 72.76 106.06 C 74.84 84.26 93.35 65.59 115.09 63.13 M 109.91 69.83 C 92.96 75.96 81.54 95.06 85.17 112.86 C 86.23 113.60 87.16 114.79 85.61 115.65 C 87.81 125.68 94.43 134.49 103.03 139.97 C 112.97 146.27 125.81 147.79 136.89 143.77 C 153.13 138.32 164.55 121.31 163.11 104.19 C 162.59 92.40 156.10 81.19 146.50 74.44 C 136.02 67.02 121.89 65.07 109.91 69.83 Z" />
<path fill="#231f20" opacity="1.00" d=" M 175.06 120.22 C 178.49 120.50 181.93 120.42 185.36 120.38 C 185.35 139.59 185.35 158.79 185.36 178.00 C 142.71 177.99 100.05 178.03 57.39 177.99 C 57.40 158.88 57.37 139.77 57.41 120.66 C 60.87 120.63 64.33 120.64 67.79 120.62 C 70.36 136.92 81.03 151.67 95.57 159.42 C 108.36 166.44 124.01 167.89 137.89 163.43 C 157.16 157.57 171.94 140.03 175.06 120.22 Z" />
</g>
<g id="#db1f38ff">
<path fill="#db1f38" opacity="1.00" d=" M 111.68 90.17 C 118.01 87.39 124.70 85.51 131.41 83.91 C 131.11 84.49 130.53 85.66 130.23 86.25 C 123.50 88.69 116.72 91.11 110.33 94.34 C 109.32 100.21 109.91 106.25 109.27 112.18 C 109.04 117.88 108.03 123.53 108.13 129.25 C 107.51 129.24 106.29 129.24 105.67 129.23 C 105.00 117.95 106.25 106.69 105.90 95.41 C 101.83 97.59 97.26 98.42 92.90 99.81 C 92.51 99.00 91.74 97.37 91.36 96.56 C 95.38 95.36 99.44 94.33 103.47 93.17 C 105.17 92.63 105.92 90.83 106.99 89.57 C 107.52 89.80 108.56 90.25 109.08 90.47 C 109.94 90.37 110.81 90.27 111.68 90.17 Z" />
<path fill="#db1f38" opacity="1.00" d=" M 124.63 92.52 C 131.78 90.63 139.48 87.20 146.77 90.37 C 150.22 93.06 147.90 97.13 146.04 100.01 C 140.83 103.69 135.75 107.68 129.65 109.83 C 131.91 112.03 134.20 114.22 136.69 116.16 C 143.56 119.96 153.47 117.02 157.27 110.14 C 158.13 114.08 155.37 117.49 151.94 119.05 C 147.28 121.91 140.99 122.66 136.08 120.03 C 131.85 118.26 128.85 114.66 125.17 112.08 C 123.59 112.46 121.95 112.69 120.54 111.67 C 120.15 117.83 121.03 124.02 120.18 130.15 C 119.63 130.36 118.52 130.78 117.97 130.99 C 117.99 126.31 116.87 121.67 117.40 116.98 C 117.99 111.42 117.67 105.83 117.62 100.26 C 117.06 100.28 115.94 100.34 115.39 100.36 C 115.03 101.01 114.33 102.29 113.98 102.93 C 112.93 102.04 112.14 100.98 111.60 99.74 C 112.63 97.41 115.20 96.65 117.23 95.46 C 118.74 92.75 122.11 93.41 124.63 92.52 M 130.95 94.32 C 127.69 95.38 124.06 96.00 121.47 98.41 C 120.67 102.64 121.44 107.01 121.42 111.30 C 121.85 110.21 122.27 109.13 122.71 108.06 C 123.58 107.58 124.46 107.09 125.32 106.60 C 125.77 106.84 126.67 107.30 127.12 107.53 C 133.65 105.18 140.20 101.84 145.08 96.80 C 146.64 95.70 144.22 94.39 143.85 93.24 C 139.53 92.93 135.11 92.94 130.95 94.32 Z" />
</g>
</svg>
