<?xml version="1.0" encoding="utf-8"?>
<!-- Generator: Adobe Illustrator 19.0.0, SVG Export Plug-In . SVG Version: 6.00 Build 0)  -->
<svg version="1.1" id="Layer_1" xmlns="http://www.w3.org/2000/svg" xmlns:xlink="http://www.w3.org/1999/xlink" x="0px" y="0px"
	 viewBox="-162 156 274 89" style="enable-background:new -162 156 274 89;" xml:space="preserve">
<g id="_x23_ffffffff">
	<path d="M-120.5,156h5.2c15,0.7,29.2,9.6,36.3,22.8c7.3,12.9,7.3,29.3,0.6,42.4c-10.7,4.6-22.6,6.5-34.1,4.4
		c7.3,4.4,15.3,7.8,23.9,8.7c-7.5,6.2-16.8,10.2-26.6,10.8h-4.3c-11.4-0.5-22.5-5.6-30.3-13.9c-7.2-7.6-11.5-17.9-12.1-28.3v-5.4
		c0.8-9.4,4.4-18.6,10.6-25.7C-143.8,162.4-132.3,156.8-120.5,156 M-130.8,185c-1.3,11.2-2.6,22.4-3.9,33.6c2.8-2.9,5.6-5.7,8.3-8.6
		c2.8,3.3,5.3,7.2,9.5,9c5.3,2.3,11.2,2.3,16.9,2.5c-5.4-4-11.6-7.5-14.8-13.6c3.6,0.6,7.1,1.4,10.7,2.1
		C-113,201.6-121.9,193.3-130.8,185z"/>
	<path d="M-72.7,161.4c9.3,0,18.5,0,27.8,0c0,2.2,0,4.4,0,6.6c-3.3,0-6.5,0-9.8,0c0,12.6,0,25.2,0,37.9c-2.7,0-5.4,0-8.1,0
		c0-12.6,0-25.2,0-37.9c-3.3,0-6.6,0-9.9,0C-72.7,165.8-72.7,163.6-72.7,161.4z"/>
	<path d="M11.5,163.4c5.4-3.7,12.4-2.9,18.4-1.1c-0.1,2.3-0.2,4.6-0.3,6.9c-3.7-1.2-7.8-2.7-11.6-1.2c-3.2,1.3-3.8,6.1-1.2,8.3
		c3.2,2.6,7.2,4.1,10.5,6.5c7.7,5.1,6.3,18.8-2.3,22.2c-5.5,2.2-11.9,1.8-17.4-0.2c-0.3-2.5,0.1-5,0.2-7.5c3.8,1.8,8.3,3.6,12.5,2
		c3.9-1.5,4.9-7.5,1.5-10.1c-3.9-3.2-9.3-4.5-12.5-8.6C5.3,175.6,5.9,167.1,11.5,163.4z"/>
	<path d="M97.6,166.3c2.6-0.8,5.2-1.6,7.9-2.4c0,3,0,6.1,0,9.1c2.2,0,4.3,0,6.5,0v5.9c-2.2,0-4.3,0-6.5,0c0.2,6.3-0.4,12.7,0.3,19
		c0.5,3,4.1,2.3,6.2,2.1v5.4c-3.5,1-7.6,1.5-10.9-0.5c-2.7-1.6-3.4-4.9-3.4-7.8c-0.1-6.1,0-12.2,0-18.2c-1.7,0-3.5,0-5.2,0
		c0-2,0-3.9,0-5.9c1.7,0,3.5,0,5.2,0C97.6,170.8,97.6,168.5,97.6,166.3z"/>
	<path d="M-42.8,173.2c5.4-1.5,12-0.5,15.6,4.1c3.6,4.8,3.8,11.2,3.1,16.9c-0.6,4.8-3.5,9.7-8.3,11.2c-5.8,1.9-13.3,1-17-4.3
		c-3.3-5-3.4-11.4-2.5-17.1C-51.2,179.1-47.8,174.5-42.8,173.2 M-40.5,178.7c-2.9,1.6-3.4,5.3-3.7,8.4c-0.2,3.9-0.2,8.3,2.2,11.7
		c2.2,2.9,7.2,2.2,8.6-1.1c2-4.9,1.9-10.6,0.4-15.5C-33.8,179-37.6,177.1-40.5,178.7z"/>
	<path d="M-22.2,173c2.5,0,4.9,0,7.4,0c0.1,1.7,0.1,3.3,0.1,5c2-3.8,6.2-6.3,10.6-5.4c5.9,0.7,8.9,6.9,9.5,12.3
		c0.6,6.3,0.5,13.6-4,18.5c-4.3,4.6-12.7,3.5-15.5-2.2c0.1,6.1,0,12.2,0,18.2c-2.6,0-5.2,0-7.9,0C-22.1,204-21.7,188.5-22.2,173
		 M-9.5,178.6c-3.4,1.2-4.1,5.2-4.4,8.4c-0.2,4-0.2,8.4,2.2,11.7c2.1,2.9,7.1,2.1,8.3-1.2c1.8-4.8,1.6-10.4,0.4-15.3
		C-3.6,179.2-6.8,177.6-9.5,178.6z"/>
	<path d="M34.4,173c2.5,0,4.9,0,7.4,0c0.1,1.6,0.1,3.3,0.1,4.9c2.7-5.9,11.1-7.3,15.7-2.9c4.4,4.4,4.8,11,4.6,16.9
		c-0.3,5-1.9,10.9-6.7,13.4c-4.6,2.4-10.6,0.5-13.1-4.1c0.2,6.1,0.1,12.2,0.1,18.3c-2.6,0-5.2,0-7.9,0C34.6,204,35,188.5,34.4,173
		 M47.4,178.5c-3.6,1-4.5,5.4-4.8,8.6c-0.2,4-0.2,8.6,2.4,11.8c2.3,2.6,7,1.7,8.1-1.6c1.7-4.9,1.5-10.3,0.3-15.3
		C52.9,179.3,50,177.7,47.4,178.5z"/>
	<path d="M74.2,173.2c5.4-1.5,12-0.6,15.6,4.1c3.6,4.8,3.8,11.1,3.1,16.8c-0.6,4.8-3.5,9.7-8.3,11.3c-5.7,1.8-13.1,1.1-16.9-4.1
		c-3.3-4.6-3.5-10.8-2.8-16.2C65.4,179.8,68.8,174.6,74.2,173.2 M76.5,178.7c-2.9,1.6-3.4,5.4-3.8,8.4c-0.2,3.9-0.2,8.4,2.2,11.7
		c2.2,2.9,7.2,2.2,8.6-1.2c2-4.9,1.9-10.6,0.4-15.6C83.1,178.9,79.4,177.1,76.5,178.7z"/>
</g>
<g>
	<path d="M-70.9,225.8h1.9v14.3h-1.9V225.8z"/>
	<path d="M-63.6,225.8h1.8l1.9,5.7c0.6,1.6,1,3.3,1.5,5.2c-0.2-1.1-0.3-2.1-0.3-3c-0.1-0.9-0.1-1.7-0.1-2.5v-5.3h1.9v14.3h-1.8
		l-2.2-6.4c-0.2-0.6-0.4-1.2-0.6-1.8c-0.2-0.6-0.3-1.3-0.5-2c0-0.1,0-0.2-0.1-0.3s-0.1-0.3-0.1-0.4c0,0.2,0,0.3,0,0.4
		c0,0.1,0,0.2,0,0.3l0.1,1.5l0.1,1.8c0,0.1,0,0.2,0,0.4c0,0.1,0,0.3,0,0.5l0.1,6.2h-1.9V225.8z"/>
	<path d="M-52.8,225.8h6.3v1.7h-2.2v12.6h-1.9v-12.6h-2.2V225.8z"/>
	<path d="M-42.3,225.8h5.1v1.6h-3.2v4.5h2.8v1.6h-2.8v4.9h3.2v1.6h-5.1V225.8z"/>
	<path d="M-32.3,225.8h2.5c1.1,0,1.8,0.2,2.3,0.8c0.6,0.7,1,1.6,1,3c0,1-0.2,1.9-0.5,2.5c-0.3,0.6-0.8,1-1.5,1.2l2.6,7h-2l-2.6-7v7
		h-1.9V225.8z M-30.3,232.2c0.7,0,1.3-0.2,1.6-0.5c0.3-0.3,0.5-0.9,0.5-1.8c0-0.4,0-0.8-0.1-1.1c-0.1-0.3-0.2-0.6-0.3-0.8
		s-0.3-0.3-0.5-0.4s-0.5-0.1-0.8-0.1h-0.3V232.2z"/>
	<path d="M-21.1,225.8h1.8l1.9,5.7c0.6,1.6,1,3.3,1.5,5.2c-0.2-1.1-0.3-2.1-0.3-3c-0.1-0.9-0.1-1.7-0.1-2.5v-5.3h1.9v14.3h-1.8
		l-2.2-6.4c-0.2-0.6-0.4-1.2-0.6-1.8c-0.2-0.6-0.3-1.3-0.5-2c0-0.1,0-0.2-0.1-0.3c0-0.1-0.1-0.3-0.1-0.4c0,0.2,0,0.3,0,0.4
		c0,0.1,0,0.2,0,0.3l0.1,1.5l0.1,1.8c0,0.1,0,0.2,0,0.4c0,0.1,0,0.3,0,0.5l0.1,6.2h-1.9V225.8z"/>
	<path d="M-9.1,225.8H-4v1.6h-3.2v4.5h2.8v1.6h-2.8v4.9H-4v1.6h-5.1V225.8z"/>
	<path d="M-0.3,225.8H6v1.7H3.9v12.6H2v-12.6h-2.2V225.8z"/>
	<path d="M17.9,225.8h1.7l1.3,5.8c0.2,0.7,0.3,1.5,0.4,2.2s0.2,1.5,0.3,2.3c0-0.1,0-0.2,0-0.2c0-0.1,0-0.1,0-0.1l0.3-1.6l0.2-1.6
		l0.2-1l1.1-5.7h1.7l1.3,14.3h-1.8l-0.3-4.9c0-0.2,0-0.5,0-0.6c0-0.2,0-0.3,0-0.4l-0.1-1.9l0-1.8c0,0,0,0,0-0.1c0,0,0-0.1,0-0.2
		l0,0.3c0,0.3-0.1,0.6-0.1,0.9s-0.1,0.5-0.1,0.6l-0.2,1.3l-0.1,0.5l-1.2,6.3H21l-1.1-5.4c-0.2-0.7-0.3-1.4-0.4-2.2
		c-0.1-0.7-0.2-1.5-0.3-2.3l-0.6,9.9h-1.8L17.9,225.8z"/>
	<path d="M33.3,225.8h1.5l3.1,14.3h-1.9l-0.5-2.8h-2.8l-0.5,2.8h-1.9L33.3,225.8z M35.1,235.9l-0.4-2.3c-0.3-1.6-0.5-3.2-0.7-5
		c-0.1,0.9-0.2,1.7-0.3,2.6c-0.1,0.9-0.3,1.8-0.5,2.8l-0.4,1.8H35.1z"/>
	<path d="M42.1,225.8h2.5c1.1,0,1.8,0.2,2.3,0.8c0.6,0.7,1,1.6,1,3c0,1-0.2,1.9-0.5,2.5c-0.3,0.6-0.8,1-1.5,1.2l2.6,7h-2l-2.6-7v7
		h-1.9V225.8z M44,232.2c0.7,0,1.3-0.2,1.6-0.5c0.3-0.3,0.5-0.9,0.5-1.8c0-0.4,0-0.8-0.1-1.1c-0.1-0.3-0.2-0.6-0.3-0.8
		c-0.1-0.2-0.3-0.3-0.5-0.4s-0.5-0.1-0.8-0.1H44V232.2z"/>
	<path d="M53.2,225.8h1.9v6.9l2.7-6.9h1.9l-2.8,6.9l3,7.4h-2.2l-2.7-7.4v7.4h-1.9V225.8z"/>
	<path d="M64.3,225.8h5.1v1.6h-3.2v4.5h2.8v1.6h-2.8v4.9h3.2v1.6h-5.1V225.8z"/>
	<path d="M73.2,225.8h6.3v1.7h-2.2v12.6h-1.9v-12.6h-2.2V225.8z"/>
	<path d="M83.7,225.8h1.9v14.3h-1.9V225.8z"/>
	<path d="M90.9,225.8h1.8l1.9,5.7c0.6,1.6,1,3.3,1.5,5.2c-0.2-1.1-0.3-2.1-0.3-3c-0.1-0.9-0.1-1.7-0.1-2.5v-5.3h1.9v14.3h-1.8
		l-2.2-6.4c-0.2-0.6-0.4-1.2-0.6-1.8c-0.2-0.6-0.3-1.3-0.5-2c0-0.1,0-0.2-0.1-0.3c0-0.1-0.1-0.3-0.1-0.4c0,0.2,0,0.3,0,0.4
		c0,0.1,0,0.2,0,0.3l0.1,1.5l0.1,1.8c0,0.1,0,0.2,0,0.4c0,0.1,0,0.3,0,0.5l0.1,6.2h-1.9V225.8z"/>
	<path d="M106.4,232.6h3.5v0.6c0,2.8-0.2,4.7-0.7,5.7c-0.5,1-1.4,1.5-2.7,1.5c-1.4,0-2.3-0.6-2.9-1.7c-0.6-1.1-0.9-3-0.9-5.6
		c0-3,0.3-5,0.9-6c0.6-0.9,1.5-1.4,2.7-1.4c0.9,0,1.7,0.2,2.2,0.7c0.5,0.5,0.9,1.2,1.2,2.3l-1.8,0.8c-0.1-0.4-0.2-0.7-0.3-1
		c-0.1-0.3-0.2-0.5-0.3-0.6c-0.2-0.3-0.6-0.4-1.1-0.4c-0.6,0-1.1,0.4-1.3,1.2c-0.2,0.8-0.4,2.3-0.4,4.5c0,2.2,0.1,3.6,0.4,4.4
		c0.2,0.8,0.7,1.2,1.4,1.2c0.6,0,1-0.3,1.3-0.8c0.3-0.6,0.4-1.5,0.4-2.8v-0.4v-0.3h-1.7V232.6z"/>
</g>
</svg>
