<?xml version="1.0" encoding="utf-8"?>
<!-- Generator: Adobe Illustrator 19.0.0, SVG Export Plug-In . SVG Version: 6.00 Build 0)  -->
<svg version="1.1" id="Layer_1" xmlns="http://www.w3.org/2000/svg" xmlns:xlink="http://www.w3.org/1999/xlink" x="0px" y="0px"
	 viewBox="595 -82 1789 564" style="enable-background:new 595 -82 1789 564;" xml:space="preserve">
<style type="text/css">
	.st0{fill:#FCFAF9;}
	.st1{fill:#A1342E;}
</style>
<g id="_x23_fcfaf9ff">
	<path class="st0" d="M595-82h270.2c-59.7,2.5-118.6,24.4-165,62.1c-33.8,27.2-61.3,62.2-79.5,101.6
		c-15.4,33.4-24.1,69.8-25.8,106.6V-82z"/>
	<path class="st0" d="M888.8-82H2384v564H893.8c12.5-0.9,24.9-2.5,37.2-5c3.5-0.9,7-1.7,10.6-2.3c4.9-0.8,9.7-2.3,14.5-3.7
		c38.9-11.4,75.4-31.2,105.8-58c-13-1.3-26.1-2.8-38.8-5.8c-2-0.8-4.7,1.2-6-1.2c-13.8-3.7-27.6-7.8-40.8-13.4
		c-1.8-0.9-3.8-1.2-5.8-1.6c-3.1-2.8-7.3-3.8-11-5.7c-17-8.1-33.3-17.5-49.5-27c29.9,6.1,60.7,7.7,91.1,5.1
		c43.5-3.3,86-15,125.9-32.5c18.2-34.6,29.1-73,31.7-112c2.6-39-2.9-78.6-16.2-115.4c-12.8-35.4-32.9-68-58.5-95.6
		c-36.2-39.2-83.8-67.6-135.4-81.1c-0.7,0.2-1.4,0.4-2.2,0.5c-0.9-0.7-1.7-1.5-2.8-1.7C925.6-78.6,907.2-81.1,888.8-82 M1763.9-46
		c-16.2,2.2-32.2,7.5-45.5,17.3c-11.2,8.1-20,19.5-24.8,32.5c-4.7,12.5-5.5,26.1-4.2,39.2c1.4,14.1,6.6,27.9,15.3,39.1
		c8.5,11.1,20,19.4,32.2,26.1c10.7,5.8,21.3,11.9,32,17.8c8.1,4.6,16.2,9.5,22.7,16.2c5.9,5.9,9.1,14.3,9.2,22.6
		c0.3,10.5-2.2,21.5-9.3,29.5c-8.1,9.3-20.5,13.7-32.6,14c-15.7,0.2-31.4-3.1-46-9c-6-2.4-11.5-5.9-17.4-8.5
		c-1,15.7-2,31.5-2.9,47.2c15.9,8.9,34.5,11.4,52.4,12.4c14.7,0.8,29.5,0.4,43.9-2.9c18.3-4,36.2-12.8,48.3-27.5
		c13.5-15.7,18.8-36.9,18.5-57.2c0-13.7-2.1-27.6-8.3-39.9c-4.6-8.6-11.2-15.9-18.6-22c-13.4-11-29.2-18.3-44-27
		c-10.8-6.2-22.3-11.5-31.5-20.2c-12.9-13-13.1-37.2,1.2-49.3c0.8-1.4,2.2-0.1,3.2,0.2c-0.5-0.4-1.4-1.1-1.9-1.4
		c12.4-8.8,28.5-8.7,43-6.8c13.8,1.6,26.8,6.6,39.6,11.5c0.4-14.9,2-29.9,2.2-44.8C1816-44.7,1789.8-49.2,1763.9-46 M1168.1-42.8
		c-0.3,14.2-0.1,28.3-0.1,42.5c21.5,0,43,0,64.5,0c0.2,82.3,0.1,164.6,0,247c17.8,0.1,35.6,0,53.4,0.1c0.3-82.4,0-164.7,0.2-247.1
		c21.4,0,42.9,0.2,64.3-0.1c-0.3-14.1-0.2-28.1-0.1-42.2c-5.1-0.3-10.2-0.1-15.3-0.2C1279.4-42.8,1223.8-42.7,1168.1-42.8
		 M2300.2-15.5c-0.2-0.3-0.5-0.9-0.7-1.2c0,0.3-0.1,0.9-0.1,1.2c-4.2,2.2-9.2,2.7-13.6,4.6c-0.7,1.5-0.2,3.3-0.3,5
		c0.1,13-0.1,26,0.1,38.9c-11.4,0.2-22.8,0.1-34.1,0c0,12.7,0.1,25.3,0,38c11.4,0.1,22.7,0,34.1,0.1c-0.1,33.3,0,66.7,0,100
		c0.2,10.9-0.6,21.9,0.9,32.8c1.5,9.4,4.2,19,10,26.7c5.7,8,14.4,13.5,23.8,16.3c8.7,2.6,17.8,3.4,26.9,3.1
		c11.1,0.2,22.1-2.5,32.4-6.5c0.7-12.4,0.1-24.8,0.3-37.2c-8.4,4.5-18.5,5.8-27.7,3.8c-6.9-1.6-12-7.6-13.5-14.4
		c-2.5-11.3-1.2-23-1.5-34.5c0-30.1-0.1-60.1,0.1-90.2c14.2,0.2,28.5,0.2,42.7,0c0-12.6-0.1-25.1,0.1-37.7
		c-14.9-0.7-29.9,0.6-44.7-0.7c0.5,0,1.4,0,1.9,0c0-18.2,0-36.4,0-54.5c0.1-1.6-0.3-3.3,0.7-4.7
		C2325.1-23.2,2312.8-19.1,2300.2-15.5 M1384.9,30.1c-14.4,1.2-28.9,5.1-41.3,12.7c-15.2,8.9-26.5,23.5-33.2,39.6
		c-7.7,18.5-9.9,38.8-9.9,58.7c0.3,17.9,2.1,36,8.3,52.8c5.7,16.3,16,31.2,30.4,40.9c15.9,11,35.6,15.3,54.8,15.2
		c15.4,0.3,31.1-2.3,45.1-8.8c15.5-7.2,28.2-19.9,36-35c9.7-18.8,13-40.2,13.4-61.1c0.5-22.4-1.8-45.5-11.3-66.1
		c-6.3-14.3-16.8-26.9-30-35.2C1428.8,32,1406.3,28.4,1384.9,30.1 M1593,30.9c-13.3,2.1-25.7,9.3-33.9,20
		c-4.2,4.8-6.7,10.7-9.9,16.1c-0.8-11.3-0.3-22.8-2.1-34c-16.1,0-32.2,0-48.2,0c1.7,11.9,1.4,24,1.8,35.9c0,89.1,0,178.2,0,267.3
		c17.1-0.1,34.3,0,51.5,0c0-40.1-0.2-80.3,0.1-120.4c1.2,1.5,2,3.3,2.9,5c5.3,9.9,14,17.8,23.9,23c15.1,7.2,32.9,8,48.9,3.5
		c15.4-4.5,28.2-15.7,36.4-29.3c12.1-20.1,16.2-43.8,17.4-66.9c1-26.7-1.2-54.3-12.3-79c-6.4-14-16.3-26.8-29.9-34.4
		C1625.6,29.8,1608.7,28.2,1593,30.9 M1940.9,40.9c-8.4,6.2-14.4,14.9-18.9,24.2c-0.1,0.6-1.4,2.3-1.4,0.8c-0.2-11-0.5-22-1.7-33
		c-16.1,0-32.2,0-48.3,0c2.8,25.6,1.3,51.3,1.7,77c0,75.4,0,150.8,0,226.2c17.1,0.1,34.2-0.1,51.3,0.1c0.3-37.4,0.1-74.8,0.1-112.2
		c0.2-2.7-0.5-5.7,0.7-8.2c1.9,4.7,4.8,8.8,7.6,12.9c11.1,14.1,29.2,21.7,47,21.2c11,0.4,22.1-2.1,31.8-7.3
		c15.6-8.3,26.2-23.5,32.5-39.6c8-20.7,10.5-43.1,10.1-65.1c0.2-14.1-1.3-28.2-4.4-41.9c-3.9-16.9-10.9-33.5-22.7-46.5
		c-9.4-9.9-22-16.9-35.5-18.8C1973.8,28.1,1955,30.3,1940.9,40.9 M2152.9,30.1c-10.4,0.9-20.8,3-30.5,7.1
		c-17.7,7.1-32.5,21-40.9,38.1c-10.6,20.8-13.5,44.6-13.1,67.7c0.1,13.8,1.5,27.8,5.1,41.2c4.5,17.4,13.4,34.1,27.2,45.8
		c16.5,14.2,38.8,20.1,60.2,20c12.8,0.3,25.8-1.3,38-5.6c13.6-4.7,26-13,34.9-24.4c14.1-17.4,19.9-40,21.7-61.9
		c1.8-21.5,0.8-43.5-5.1-64.4c-5.6-19-16.4-37-33-48.3C2198.9,32.3,2175.3,28.4,2152.9,30.1z"/>
	<path class="st0" d="M2158.5,66.7c8.1-0.9,16.6,0.6,23.3,5.5c6.1,4,10.1,10.3,13.2,16.7c5.4,12.4,7.2,26.1,8,39.5
		c0.4,12.2,0.3,24.4-1.3,36.5c-1.4,10.1-3.7,20.2-8.5,29.3c-4.4,8.9-12.5,16.2-22.4,18.4c-8.6,1.8-18.1,1-25.6-3.7
		c-8.6-5.2-14.1-14.4-17.2-23.8c-5.9-17.3-6.6-35.9-6.1-54c0.7-15.2,2.6-30.9,9.5-44.7C2136.5,76,2146.6,67.5,2158.5,66.7z"/>
	<path class="st0" d="M1387.1,67.2c8.8-1.7,18.4-0.7,25.9,4.3c9.1,5.8,14.1,15.9,17.2,25.9c4.7,15.7,5.3,32.3,5.1,48.5
		c-0.7,17.1-2.4,35-11,50.3c-4.5,7.6-11.6,14-20.4,16.1c-9.6,2.3-20.5,1.1-28.5-4.9c-4.1-2.5-7-6.5-9.6-10.4
		c-6.9-11.1-9.5-24.3-10.9-37.2c-1.6-17-1.4-34.2,1.5-51c2.3-12.1,6.2-24.5,15.1-33.4C1375.7,71.3,1381.2,68.5,1387.1,67.2z"/>
	<path class="st0" d="M1584.5,68.6c9-1.9,19-1.1,27,3.9c7.4,4.9,11.9,13.2,14.2,21.6c3.2,11.3,4.1,23.1,4.6,34.8
		c0.4,16.4,0.4,32.9-3.2,49c-2.5,10-6.2,20.6-14.5,27.3c-7.4,6.4-17.9,7.9-27.2,6.3c-10.5-1.9-18.8-10-23.4-19.3
		c-7.8-15.5-9.1-33.2-9.6-50.3c0.2-18.3,1.4-37.4,9.7-54.1C1566.3,78.7,1574.4,70.9,1584.5,68.6z"/>
	<path class="st0" d="M1955.5,68.8c7-1.6,14.5-1.3,21.4,0.8c7.7,2.6,13.8,8.9,17.1,16.2c4.8,10.4,6.2,22,7.1,33.3
		c1,15.3,1.2,30.7-0.4,46c-1.5,11.1-3.7,22.4-9.7,32c-3.4,4.9-7.6,9.4-13.1,12c-10.2,4.6-22.7,4.1-32.1-2.1
		c-6.1-3.9-10.3-10.2-13.5-16.6c-5.8-12.6-7.6-26.6-8.4-40.4c-0.6-19.4,0.1-39.4,7.3-57.6C1935.6,81.6,1943.8,71.5,1955.5,68.8z"/>
	<path class="st0" d="M789.6,109.2c1.2,0.4,2.5,0.8,3.7,1.3c3.8,5.4,9.4,9.3,13.8,14.2c3.6,2.3,6.3,5.8,9.6,8.6
		c48.2,45.2,96.8,90.1,145.2,135.1c-10.5-2.1-21-3.8-31.5-6.2l0.4,1.3c-0.7-0.9-1.5-1.7-2.7-1.7c-11.2-2-22.3-4.5-33.6-6.4
		c1.7,5.6,4.7,10.6,8,15.3c10.8,14.1,24.5,25.4,38.4,36.4c12.9,9.9,26,19.4,39.5,28.5c2.2,1.8,4.9,3.1,6.6,5.5
		c-25.5-0.4-51.2-1.3-76.4-6.1c-18.1-3.4-36.4-9.2-51-20.8c-16.3-12.4-27.2-30.2-41-45c-16.5,16.6-32.7,33.6-49.1,50.3
		c-1.1,1.4-2.4,2.9-4.3,3.2c1.5-12.4,3-24.9,4.4-37.4l-1.3,0.3c1.9-0.2,1.5-2.3,1.8-3.6c3.9-35.4,8.3-70.7,12.1-106.1
		c0.9-8.7,2.4-17.4,2.8-26.2c0.8-2.9,0.8-5.9,0.8-8.9c1.8-3,0.5-6.7,1.2-9.9C788.2,123.8,788.7,116.5,789.6,109.2z"/>
	<path class="st0" d="M595,211.7c0.3,4.8,0.6,9.5,0.9,14.3c0.1,1.4,0.9,2.6,1.5,3.8l-0.2,0.4c-0.9,2.5-0.1,5.2,0.2,7.7
		c1.7,10.8,3.1,21.7,6.5,32.1c3,14.2,8.1,28,13.7,41.4c19.1,44.6,49.9,84.1,88.6,113.4c29.9,22.8,64.4,39.5,100.9,48.8
		c2,0.7,4.6-1,5.9,1.3c16.8,4,34,6.3,51.2,7.1H595V211.7z"/>
</g>
<g id="_x23_a1342eff">
	<path class="st1" d="M865.2-82h23.6c18.4,0.9,36.8,3.4,54.8,7.7c1.1,0.2,2,1,2.8,1.7c0.7-0.2,1.4-0.3,2.2-0.5
		c51.6,13.5,99.2,41.9,135.4,81.1c25.6,27.6,45.6,60.3,58.5,95.6c13.3,36.8,18.8,76.4,16.2,115.4c-2.6,39-13.5,77.4-31.7,112
		c-39.8,17.5-82.4,29.2-125.9,32.5c-30.4,2.6-61.2,1-91.1-5.1c16.2,9.5,32.5,18.9,49.5,27c3.7,1.9,7.3,3.3,11.4,5.5
		c2,0.5,3.5,1,5.3,1.9c13.2,5.6,27,9.7,40.8,13.4c6,1.2,4,0.4,6,1.2c12.8,3,25.8,4.4,38.8,5.8c-30.5,26.8-66.9,46.6-105.8,58
		c-4.8,1.4-9.6,2.8-14.5,3.7c-3.7,0.8-7.8,1.6-10.6,2.3c-12.3,2.5-24.7,4.1-37.2,5h-29.6c-17.2-0.8-34.4-3.1-51.2-7.1
		c-1.3-2.3-3.9-0.7-5.9-1.3c-36.4-9.3-71-26-100.9-48.8c-38.7-29.3-69.5-68.8-88.6-113.4c-5.6-13.4-10.8-27.2-13.7-41.4
		c-3.5-10.4-4.9-21.3-6.5-32.1c-0.3-2.6-1.1-5.2-0.2-7.7l0.2-0.4c-0.6-1.2-1.4-2.4-1.5-3.8c-0.4-4.8-0.6-9.5-0.9-14.3v-23.4
		c1.6-36.8,10.3-73.2,25.8-106.6c18.2-39.4,45.6-74.4,79.5-101.6C746.6-57.6,805.5-79.5,865.2-82 M638.7,165.1
		c0.3-2.9-1.2-5.5-1.2-8.3c1.1-2.1,3.4-1.2,5.2-1.2c-0.1-0.5-0.3-1.6-0.4-2.1c2.7,0,5.3,0,8,0c0.3-2.1,0.9-4.2,1.4-6.2
		c0.8,0.4,2.5,1,3.3,1.4c0.9-1.2,2.2-1.5,3.8-1.1c-0.1-0.5-0.3-1.4-0.5-1.9c2.8-0.4,5.6-1.6,8.5-1.1c0.3-1.1,0.7-2.2,1-3.3
		c2.2,0.2,4.3,0.9,6.4,1.4c0.5-1.1,1.1-2.2,1.6-3.3c2.3,0.2,4.9-0.2,6.7,1.5c0-0.8-0.1-2.4-0.1-3.2c2.8-0.4,5.4-1.6,8.2-1.1
		c0.3-2.7-1.3-6.2,1.2-8.1c2.3-0.2,4.7-0.4,6.5,1.4c0.1-1.6,0.1-3.3,1.5-4.4c1.9-0.5,3.4,1.2,5.3,1c1.3-0.6,2.4-1.7,2.7-3.1
		c2.3,0.1,4.6,0.1,6.9,0.2c-0.1-0.5-0.3-1.5-0.4-2c2.8-0.3,5.5-1.6,8.3-1c-0.4-2.9,0-5.7,1.1-8.4c2.2,0.3,4.2,1.6,6.5,1.3
		c0.8-0.9,1.2-1.9,1.4-3c5-1.8,10.4-0.4,15.6-1.2c0.2-0.5,8.7-7.1,8.4-10c1.9,0.1,4,0,5.6,1.4c0.6-0.4,1.7-1.2,2.3-1.7
		c0-0.7,0.1-2.1,0.1-2.8c2.2,0.4,4.4,1.1,6.7,1.5c0.5-1.8,1.4-4.4,3.8-4.2c2-0.4,5.8,1.1,5.8-2.1c2.3,0.1,4.6,0.1,6.9,0.2
		c0.2-2.7-1.4-6.3,1.2-8.1c2.2-0.1,4.7-0.3,6.4,1.4c0.5-1.5,0.9-3.1,1.5-4.5c2.2,0.1,4.5,0.1,6.7,0.2c0.5-2.7,3.6-4.6,5.6-2
		c1.6-0.7,3.6-1.2,3.8-3.3c2,1.2,6.4-2.5,7.6-4.2c0.1-1.3,0.1-2.5,0.1-3.8c2.7,0.3,5.6,2.2,8,0c0-0.7-0.1-2.1-0.1-2.9
		c2.5,0.1,5,0.1,7.5,0.2c0.3-1.1,0.5-2.2,0.7-3.2c2.8-0.1,6,0.8,8.5-0.9c1.8-1.4,6.4-5.5,6.3-7.8c2.5-1.1,5.3-1.4,8.1-1.1
		c-0.2-4.7,5.3-2.8,8.2-3c-0.1-0.5-0.3-1.6-0.4-2.1c3,0.2,6.1-0.3,8.9-1.4c0.1-0.4,0.5-1.3,0.6-1.7c2.2,0,4.5,0.1,6.8,0.2
		c-0.3-1.4,0-2.6,0.9-3.6c0.1-1.6,0.1-3.1,0.1-4.7c2.3,0.1,4.6,0.2,6.9,0.2c0.1-1.3,0.7-3.6,2.5-3.1c3.3,0.4,7.4-1.1,10,1.1
		c1-0.7,4.2-3.2,4.7-4.2c2.3,0.1,6.8-2.9,8.3-4.6c2.1-0.8,6.5-2.9,6.4-4.3c2.8,0.2,5.5-0.1,8.2-1c-0.1-1.2,0.3-2.2,1.3-3
		c2.6,0,7.8-2.4,7.8-3.1c2.4,0.2,6.9-1.2,6.9-2.5c0.3-0.6,1-1.9,1.3-2.5c2.2,0.1,7.3-0.6,7.6-1.2c0.1-1.3,0.1-2.7,0.1-4
		c1.6,1.4,3.7,1.5,5.7,1.6c1-0.9,2.2-1.6,2.4-3c0.6-0.3,1.7-0.9,2.3-1.2c1.5,0.1,5.2-1.5,5.4-2c2.8-0.1,23.4-12.7,27-12.1
		 M789.6,109.2c-0.9,7.3-1.4,14.5-2.8,21.8c-0.7,3.3,0.6,6.9-1.2,9.9c0,3-0.1,6-0.8,8.9c-0.4,8.8-1.9,17.5-2.8,26.2
		c-3.7,35.4-8.1,70.7-12.1,106.1c-0.3,1.4,0.1,3.5-1.8,3.6l1.3-0.3c-1.4,12.5-2.8,24.9-4.4,37.4c1.9-0.3,3.1-1.8,4.3-3.2
		c16.4-16.7,32.6-33.7,49.1-50.3c13.9,14.8,24.7,32.6,41,45c14.6,11.6,32.9,17.5,51,20.8c25.2,4.8,50.9,5.6,76.4,6.1
		c-1.7-2.3-4.4-3.6-6.6-5.5c-13.5-9.1-26.6-18.6-39.5-28.5c-13.8-11-27.6-22.3-38.4-36.4c-3.3-4.7-6.3-9.8-8-15.3
		c11.2,1.9,22.4,4.3,33.6,6.4c1.2,0,2,0.8,2.7,1.7l-0.4-1.3c10.4,2.4,21,4.1,31.5,6.2c-48.4-45-97-89.9-145.2-135.1
		c-3.3-2.8-6-6.2-9.6-8.6c-4.4-4.9-9.9-8.8-13.8-14.2C792.1,110.1,790.8,109.6,789.6,109.2z"/>
</g>
<g id="_x23_000000ff">
	<path d="M1763.9-46c25.9-3.2,52.1,1.3,76.7,9.2c-0.2,15-1.8,29.9-2.2,44.8c-12.8-4.9-25.9-9.9-39.6-11.5c-14.5-1.9-30.5-1.9-43,6.8
		c0.5,0.4,1.4,1.1,1.9,1.4c-1-0.3-2.4-1.6-3.2-0.2c-14.2,12.1-14.1,36.3-1.2,49.3c9.2,8.6,20.7,13.9,31.5,20.2
		c14.8,8.7,30.6,16.1,44,27c7.5,6.1,14.1,13.4,18.6,22c6.2,12.3,8.3,26.3,8.3,39.9c0.3,20.3-5,41.6-18.5,57.2
		c-12.1,14.7-30,23.5-48.3,27.5c-14.4,3.3-29.2,3.6-43.9,2.9c-17.9-1.1-36.5-3.5-52.4-12.4c1-15.7,1.9-31.5,2.9-47.2
		c5.9,2.6,11.4,6.1,17.4,8.5c14.6,5.9,30.3,9.2,46,9c12.1-0.3,24.5-4.7,32.6-14c7.1-8,9.6-19,9.3-29.5c-0.1-8.3-3.3-16.7-9.2-22.6
		c-6.5-6.7-14.6-11.6-22.7-16.2c-10.7-5.9-21.3-11.9-32-17.8c-12.2-6.7-23.7-15-32.2-26.1c-8.7-11.2-13.9-25-15.3-39.1
		c-1.3-13.2-0.5-26.8,4.2-39.2c4.8-13,13.6-24.4,24.8-32.5C1731.7-38.4,1747.8-43.7,1763.9-46z"/>
	<path d="M1168.1-42.8c55.6,0,111.2,0,166.9,0c5.1,0.1,10.2-0.2,15.3,0.2c-0.1,14-0.2,28.1,0.1,42.2c-21.4,0.3-42.9,0.1-64.3,0.1
		c-0.2,82.3,0.1,164.7-0.2,247.1c-17.8,0-35.6,0.1-53.4-0.1c0.1-82.3,0.1-164.6,0-247c-21.5,0-43,0-64.5,0
		C1168.1-14.4,1167.8-28.6,1168.1-42.8z"/>
	<path d="M2300.2-15.5c12.5-3.6,24.9-7.7,37.4-11.2c-1,1.4-0.6,3.1-0.7,4.7c0.1,18.2,0,36.4,0,54.5c-0.5,0-1.4,0-1.9,0
		c14.8,1.3,29.8,0,44.7,0.7c-0.1,12.6,0,25.1-0.1,37.7c-14.2,0.2-28.5,0.2-42.7,0c-0.1,30.1,0,60.1-0.1,90.2
		c0.3,11.5-1,23.2,1.5,34.5c1.4,6.8,6.6,12.8,13.5,14.4c9.2,2,19.4,0.7,27.7-3.8c-0.2,12.4,0.4,24.9-0.3,37.2
		c-10.3,4-21.3,6.7-32.4,6.5c-9.1,0.3-18.2-0.6-26.9-3.1c-9.3-2.8-18.1-8.3-23.8-16.3c-5.8-7.8-8.5-17.3-10-26.7
		c-1.5-10.9-0.8-21.9-0.9-32.8c0-33.3,0-66.7,0-100c-11.4-0.1-22.7,0-34.1-0.1c0.2-12.7,0.1-25.3,0-38c11.4,0.1,22.8,0.1,34.1,0
		c-0.3-13,0-26-0.1-38.9c0.1-1.6-0.4-3.4,0.3-5c4.4-1.8,9.4-2.4,13.6-4.6c0-0.3,0.1-0.9,0.1-1.2C2299.7-16.4,2300-15.8,2300.2-15.5z
		"/>
	<path d="M1384.9,30.1c21.4-1.7,43.8,1.8,62.2,13.5c13.3,8.4,23.7,21,30,35.2c9.5,20.6,11.8,43.7,11.3,66.1
		c-0.4,20.9-3.7,42.3-13.4,61.1c-7.7,15.2-20.5,27.9-36,35c-14.1,6.5-29.7,9.1-45.1,8.8c-19.1,0.1-38.8-4.2-54.8-15.2
		c-14.4-9.7-24.7-24.6-30.4-40.9c-6.2-16.9-8-35-8.3-52.8c0-19.9,2.2-40.2,9.9-58.7c6.7-16.1,18-30.7,33.2-39.6
		C1356.1,35.2,1370.5,31.3,1384.9,30.1 M1387.1,67.2c-5.8,1.3-11.4,4.1-15.6,8.3c-8.9,8.9-12.9,21.3-15.1,33.4
		c-2.9,16.8-3.1,34-1.5,51c1.4,12.9,4,26,10.9,37.2c2.7,3.9,5.5,7.9,9.6,10.4c8.1,6,18.9,7.2,28.5,4.9c8.7-2.1,15.8-8.5,20.4-16.1
		c8.6-15.2,10.3-33.1,11-50.3c0.2-16.3-0.4-32.8-5.1-48.5c-3-10-8.1-20.1-17.2-25.9C1405.4,66.6,1395.8,65.5,1387.1,67.2z"/>
	<path d="M1593,30.9c15.7-2.7,32.6-1.1,46.6,6.8c13.6,7.5,23.5,20.4,29.9,34.4c11,24.7,13.3,52.3,12.3,79
		c-1.2,23.1-5.3,46.9-17.4,66.9c-8.2,13.6-20.9,24.8-36.4,29.3c-16,4.5-33.8,3.7-48.9-3.5c-9.9-5.2-18.6-13-23.9-23
		c-0.9-1.7-1.7-3.5-2.9-5c-0.2,40.1-0.1,80.3-0.1,120.4c-17.2,0-34.3,0-51.5,0c-0.1-89.1,0-178.2,0-267.3c-0.3-12-0.1-24-1.8-35.9
		c16.1,0,32.2,0,48.2,0c1.8,11.2,1.3,22.7,2.1,34c3.2-5.4,5.7-11.3,9.9-16.1C1567.4,40.3,1579.8,33,1593,30.9 M1584.5,68.6
		c-10.1,2.2-18.1,10.1-22.6,19.2c-8.3,16.7-9.5,35.8-9.7,54.1c0.5,17.1,1.8,34.8,9.6,50.3c4.6,9.3,12.9,17.4,23.4,19.3
		c9.4,1.6,19.9,0.1,27.2-6.3c8.3-6.7,12.1-17.2,14.5-27.3c3.6-16,3.7-32.6,3.2-49c-0.5-11.7-1.4-23.5-4.6-34.8
		c-2.4-8.4-6.8-16.7-14.2-21.6C1603.5,67.6,1593.5,66.8,1584.5,68.6z"/>
	<path d="M1940.9,40.9c14.1-10.6,32.9-12.8,50-10.2c13.6,2,26.2,8.9,35.5,18.8c11.8,12.9,18.7,29.6,22.7,46.5
		c3.1,13.7,4.6,27.8,4.4,41.9c0.3,22-2.1,44.4-10.1,65.1c-6.3,16.1-17,31.3-32.5,39.6c-9.7,5.2-20.8,7.7-31.8,7.3
		c-17.8,0.4-35.8-7.1-47-21.2c-2.9-4.1-5.7-8.2-7.6-12.9c-1.2,2.6-0.5,5.5-0.7,8.2c-0.1,37.4,0.2,74.8-0.1,112.2
		c-17.1-0.2-34.2,0-51.3-0.1c0-75.4,0-150.8,0-226.2c-0.4-25.7,1.1-51.4-1.7-77c16.1,0,32.2,0,48.3,0c1.2,10.9,1.5,22,1.7,33
		c0,1.4,1.4-0.3,1.4-0.8C1926.4,55.8,1932.5,47.1,1940.9,40.9 M1955.5,68.8c-11.8,2.7-20,12.9-24.2,23.7
		c-7.2,18.2-7.8,38.3-7.3,57.6c0.8,13.7,2.6,27.8,8.4,40.4c3.2,6.4,7.4,12.7,13.5,16.6c9.4,6.2,22,6.7,32.1,2.1
		c5.4-2.6,9.7-7.1,13.1-12c6-9.6,8.2-21,9.7-32c1.6-15.3,1.5-30.7,0.4-46c-0.9-11.3-2.3-22.9-7.1-33.3c-3.3-7.4-9.4-13.6-17.1-16.2
		C1970.1,67.4,1962.6,67.1,1955.5,68.8z"/>
	<path d="M2152.9,30.1c22.4-1.7,46,2.2,64.6,15.2c16.6,11.3,27.5,29.3,33,48.3c5.8,20.9,6.9,42.9,5.1,64.4
		c-1.9,21.9-7.7,44.5-21.7,61.9c-8.9,11.4-21.3,19.7-34.9,24.4c-12.1,4.3-25.1,5.9-38,5.6c-21.5,0.1-43.7-5.8-60.2-20
		c-13.9-11.7-22.7-28.4-27.2-45.8c-3.6-13.4-5-27.3-5.1-41.2c-0.4-23.1,2.5-46.8,13.1-67.7c8.4-17.1,23.2-31,40.9-38.1
		C2132.1,33.1,2142.5,31,2152.9,30.1 M2158.5,66.7c-11.9,0.8-21.9,9.3-27.1,19.7c-6.9,13.8-8.8,29.4-9.5,44.7
		c-0.5,18.1,0.2,36.7,6.1,54c3.1,9.4,8.6,18.5,17.2,23.8c7.6,4.7,17,5.5,25.6,3.7c9.9-2.1,17.9-9.5,22.4-18.4
		c4.8-9.1,7.1-19.2,8.5-29.3c1.6-12.1,1.7-24.4,1.3-36.5c-0.8-13.4-2.5-27.1-8-39.5c-3.1-6.4-7.1-12.7-13.2-16.7
		C2175.1,67.3,2166.5,65.8,2158.5,66.7z"/>
</g>
</svg>
