<?xml version="1.0" encoding="utf-8"?>
<!-- Generator: Adobe Illustrator 19.0.0, SVG Export Plug-In . SVG Version: 6.00 Build 0)  -->
<svg version="1.1" id="Layer_1" xmlns="http://www.w3.org/2000/svg" xmlns:xlink="http://www.w3.org/1999/xlink" x="0px" y="0px"
	 viewBox="-202 -152 387 449" style="enable-background:new -202 -152 387 449;" xml:space="preserve">
<style type="text/css">
	.st0{fill:#F9B4BF;}
	.st1{fill:#F3687F;}
	.st2{fill:#ED1D3F;}
	.st3{fill:#840B1F;}
	.st4{fill:#C8102E;}
	.st5{fill:#F68E9F;}
	.st6{fill:#5E0816;}
	.st7{fill:#39050D;}
	.st8{fill:none;}
	.st9{fill:#FCD9DF;}
	.st10{fill:#AA0E28;}
	.st11{fill:#F0425F;}
</style>
<g>
	<path class="st0" d="M-142.2-131.9l-10.7-6.6l-2.3-0.8l-6.9-1.2l-5.4-1.3l0.1-1l12.8-0.9l20.3,11.9l-0.3,0.9"/>
	<path class="st0" d="M-168.7-143.2l1.4,0.3v1h-0.5l-0.8-0.2l-0.2,0.3l-1.5,0.1"/>
	<path class="st0" d="M-191.4-129.2l5.9-8.4l6.6-4.5l11.1-0.7l-3.6,3.4l-3.5,2.1l-0.5-0.3l-1.6,1.5l-6.7,4h-0.1l-6,10.6l-0.4,0.3
		l-2.6,2.4l-1.5,1.3"/>
	<path class="st1" d="M-167.2-138.9h-1l-2.8-0.2h-0.7l-1.1-0.2l4-3.7l6.8,1.6l6.7,1.3l-0.1,0.9l-9.1,0.4"/>
	<path class="st2" d="M-184.6-132.5l6.9-4.1l0.6,0.7l-4.3,3.9l-1.9,2 M-175.9-137.7l4-2.4h0.2l0.7,0.1l2.8,0.1l1.1,0.1h2.6l9.1-0.3
		l0.4-0.1l3.8,1.3l-11.7,4.1l-3.7,1.1"/>
	<path class="st3" d="M-177.5-128.2l-4.9-0.2l-1.3-2.4l1.6-1.9l6.5-5.8l10.6,4.5l-4.2,0.8l0.3,2.8l-5.9,0.1l0.2,0.7l0.7,2.1l0.9,2.5
		"/>
	<path class="st4" d="M-193.5-89.4l1.2-23.6l9.3-0.2l-2.1-7.5l-3.6-2.6l5.3-0.4l-0.1-0.1h0.3l-3.5-1.8l2.6-8l1.3,2.6l1,1.6l4.7,0.2
		l2.3,1.7l-0.7-1.8l-0.7-2l6.3-0.1l-0.3-2.5l0.4-0.2l3.1-0.7l3.4-1l10.7-3.7l10.9,6.6l7.3,8.1l-8.7-1.8l16.4,14.6l-0.1-0.3l0.2,0.1
		l-2.7-9.4l3.1,1.6l0.1-0.4l0.7,0.7l3,3.2l2.1,2.5l9,11l-4.7-1.2l0.1,0.2l-0.2-0.1l6.1,9.4l-14.2-3.3l-1-1.1l-0.1-0.1l-0.2-0.3v-0.5
		l-0.2-9l-14.1-1.2l-3.2-1.4l-3.1-15.2l-15.9,9.1l-6.9,6l-9.5,1.9l-4.3-0.3v0.1l-0.6,2.9v7.7l-4.9-3.3l-0.5-3l-0.2-0.1l-0.1-0.4
		l-1.4-0.6l-2.2,17.5"/>
	<path class="st5" d="M-126-118.9l-3-1.5l-1.7-0.9l-5-3.4l-0.3-0.3l-7.2-8l8.9,1.2l9.5,7.9l-0.5,4.3v0.3l-0.1,0.6"/>
	<path class="st2" d="M-192.3-112.7l0.7-3.2l0.9-6l0.1-0.1l6.1-10.6l0.8,0.3l-1.9,6.3l4,2l1.8,0.8l-6.5,0.6l1.9,1.3l2.3,8.3l0.4,0.6
		l-0.8,0.1l-9.8,0.2 M-159.8-95.2l-0.2-7.4l-0.5-2l-11.1-3.4l-7-1.7v-1l9.2-1.7l6.9-6l17-9.7l3.5,16.8l-22.3,0.5l4.4,4l2.1,5.2
		l-1,6.5"/>
	<path class="st3" d="M-146.3-128.2l4.2,0.9l4,0.8l2.6,0.6l0.4,0.3l4.8,3.4l2,1l3,10.4l0.4,1.5"/>
	<path class="st0" d="M-105-97.7l-7.8-5.9l-8.3-10l-2-2.3l-3.2-3.4v-0.3l0.6-5.2l15.7,14.5l13.9,15.7l-0.6,0.7"/>
	<path class="st5" d="M-194.5-79.4l-1.3-3.9l-0.6-20.1l2.4-15.4l4.5-4.1l-1.2,7.3l-0.6,3.1l-1.3,23.1l0.1,0.2l0.4,5l-1.5,4.6v0.1
		l-0.4,1.7"/>
	<path class="st1" d="M-132.9-74.9l-9,4.2l-0.6,0.4l-1.2-1.4l-6.8-12.2l-9.4-4.8l0.2-6.7l1-6.2l-2-4.7l-6-5.4l24.2-0.6l3.1,1.3
		l1.3,1.1h-0.1l12.7,9.7v-0.2l0.8,0.6l0.1,0.1l0.9,1l1,1.2l8.8,9.8l-0.2,0.4l4.6,7l0.2,0.4l-8.4,14L-132.9-74.9L-132.9-74.9z
		 M-127.4-81.5l-2.8-3.7l-8.5-9.9l-4.1,9l1.4,2.3C-141.4-83.9-127.4-81.5-127.4-81.5L-127.4-81.5z"/>
	<path class="st3" d="M-175.2-33.8l-0.9-5.2l2.2-1.6l-0.1-0.2l0.1-0.1l-0.9-1.8l1.2-3.3l2.4-0.1v-0.5h0.9l-6.1-4.1v-1.2l-0.1-0.1
		v-0.4l-10.3-15.3l0.6-5.2l-4-0.7l-2.7-10.4l-0.4-4.8l2.4-19l3.1,1.4l0.5,3.1l3.3,2.5l-0.1-6.5l0.7-3.7l5,0.3l7.4,1.9l0.1,5.3
		l-0.2,7.5l11.2,6.6l0.4,0.2l-0.2,0.4l-3.5,8.6l6.6,2.4l5.6,3l0.2,9.7h0.2l15.5,3.3l-0.4,2.2l-1.1,1.3l-1.1,1.4l-6.2,7.8l-1.8,2.3
		l-3.4,8.6l-0.6,1.5l-0.8-0.8v-0.2l-2.5-2.8l4.7-6l-0.6,0.2l0.5-0.6l-6.7,1.6l1.3-3.4l-0.3,0.2l0.2-0.5l-5.1,2.7l-1.3-1.5l-0.5-4.5
		l-3.7,1.8l0.1,0.2l-0.1,0.1l1.7,3.1l1.6,8l-5.5-3.5l-0.2,1.3l-3.6,1.5l0.1,0.5l-0.4,0.2l-1.1,0.1l-2.5,1.6l0.1,0.2h-0.1l2.4,4.4
		l-3.1,1L-175.2-33.8L-175.2-33.8z M-170.9-57.4l4.6-1.4l-7-0.1L-170.9-57.4z M-167.9-63l0.5-0.5l-0.3-0.4l0.1-0.1l-6.4-7.1l-7-0.9
		l-5-0.8l7.3,6.4C-178.7-66.4-167.9-63-167.9-63z M-183.1-86.9l-2.8,2.8l5.2-1.2l-0.9-1.3l-0.9-2.3l-5.7,0.5
		C-188.2-88.4-183.1-86.9-183.1-86.9z M-182.5-88.9l-1-2.5v0.1l-1.6,0.4L-182.5-88.9z"/>
	<path class="st2" d="M-141.2-111.2l1.7,0.1l14.8,1.4l0.2,11.3"/>
	<path class="st4" d="M-159.9-88.5v0.1l-0.5-0.2l-11.7-6.8l0.2-8.1l-0.1-5.4l12.3,3.6l0.6,2.6l0.3,7.6l-0.2,7"/>
	<path class="st3" d="M-102.4-59.4V-60h1l-0.1,1.5 M-55.5-57.7l-0.1,0.2l-0.8-0.5l0.1-0.2L-55.5-57.7z"/>
	<path class="st2" d="M-114.7-87.4l-10.7-11.9l1.6,0.5l13,2.9l0.7,0.2l0.6,0.8l-4.7,8.1"/>
	<path class="st1" d="M-93.2-82.2l-0.7-1l-11.3-14.5l0.6-0.7l8.4,3.8l7.9,7.8l7.2,8.6"/>
	<path class="st5" d="M-142-83l-1.8-3.1l4.9-10.8l9.5,11.1l4.2,5.5"/>
	<path class="st6" d="M-184.9-86.5l-5.9-1.8l0.1-0.9l5.6-0.5l-2.1-1.6l2.8-0.8v-1.4l0.9-0.2l2.7,6.6l1.7,2.3l-9.8,2.3"/>
	<path class="st2" d="M-152.1-76.2l-0.6-8.3l-10.6,5.3l-1.1-0.4l3.8-9.6l0.3-0.5l1.1,0.5l9.4,4.7l7.7,13.9"/>
	<path class="st6" d="M-82.4-53.8l-12.5-6.7l-0.1-0.2l-1.3-11.1l-9.5-1.6l-0.5-0.1l3.9-15.9l3.9,4.7l5.2,0.8l0.2,0.1l0.6,0.9
		l10,12.9l0.6,1.3l3.8,6.7l0.1,0.1l3.5-7.3l0.6,1.3l1.2,2.7l0.5,1.7l-2.3,9l1.4,4.2l1.1,2.6l1.1,2.6"/>
	<path class="st4" d="M-151.7-64.4l-0.2-9.9l-5.1-2.6l-7.5-2.7l12.6-6.3l0.6,9.1l8.3,4.6l1.3,1.6l-8.8,6.4 M-178.8-48.8l-1.1-3.5
		l-0.2-0.5V-53l-1.3-1.8l-0.2,1.6l-0.1,0.5h-0.9l-0.5-2.3l-0.2-0.7V-56l-4.8-9.6l-6.5-14l0.1-0.2l1.9-6.3l3.1,11.7l8.6,1.4l7.3,1
		l7.4,8.1l-0.6,0.4l-1,0.9l-11.5-3.6l-6.3-5.5l-0.4,3.5l10.5,15.5v1.4l8.2,5.5l-3.8,0.1l-2,0.1l-1,2.9l-1.6,1"/>
	<path class="st3" d="M-83.2-69.4l-11-14.1l11.8,3.9l1.5,0.4l-1.4,9.3v0.2l-0.2,1.1"/>
	<path class="st4" d="M-118.5-66.3l0.4-0.7l8-13.2l0.7-1.1l8.3,20.6"/>
	<path class="st2" d="M-83.3-69.7v-0.2l1.6-10.2l8.1,11.3l-9.2,0.1"/>
	<path class="st5" d="M-141.5-69l0.8-0.6L-141.5-69 M-125.1-31.2l-1.4-10.5l-11.1-8.5l13.9-7.9l-4.9-6.2l-12.8-4.7l-0.4-0.5
		l-1.1-1.7l9.9-4.6l15.5,8.8l13.3,12.5l-4.7,8.5l-0.9,1.5l-0.1,0.3l1.1,12l-7.4,2.4l3.2,7.6"/>
	<path class="st2" d="M-151.8-64.4l9-6.6l0.7-0.4l1.1,1.5l0.3,0.3l6,8.9"/>
	<path class="st1" d="M-114.3,28.7l-1.5-0.7l2.3-0.3l-0.1,0.7l-0.1,0.3l-0.3,0.1h-0.1 M-142.5-24.5l0.2-0.7l1.3,1.1l-0.9,0.2
		l-0.8,0.2"/>
	<path class="st1" d="M-126.8,23l-16.1,2l7.7-10.3l9.1-11.4l0.3-6.3l-3.8-9.8l-3.5-2.8l-12.7,4.2l-0.3,0.3l-0.4-0.3l-9.3-10.6
		l0.8-0.2l12.4-2.5l5.9-13l-1-14l1.2-8.1l0.3-1.4l-6.2-8.9l1.4,0.5l12.9,4.7l5.7,7.2l-13.7,7.8l10.3,7.8l1.4,10.5l9.2,6.9l-2.3-5.5
		l7.6-2.4l-1.2-12.5l5,4.1l5.8,4.4l-8.1,5l0.1,0.1l5.8,4.5l-6,3.8l1.8,3.1l1.5,2.2l1.2,1.7l-5.3-0.6v0.2l0.3,6.4l-0.2,2.5l-6.9,10.3
		l-9.2,18.3V21l15.4-7.5l-4.4,15.7L-126.8,23L-126.8,23z M-115.7-12.4l4.5-5.3l-3-1.2L-115.7-12.4z M-133.5-17.8l6.2-9l-13.9,2.7
		C-141.2-24.2-133.5-17.8-133.5-17.8z M-118.1-66.3l0.4-0.7l16.1,5.2l0.2,1.8l-3.3,6.4"/>
	<path class="st4" d="M-28.8-60l-9.2-2.2l-1.9-0.5l7.2-2.1l5.9,5.1"/>
	<path class="st2" d="M-33.3-53.4l-6.4,0.6l-12.4-5l2.4-2.2l11.5-3.1l0.3,0.1l9.5,2.3h0.1l5.6-0.3l0.2,0.1l2.5,0.6l1.3,7.9l-5.9,3.2
		"/>
	<path class="st4" d="M-8.8,10.8l-0.1,0.1L-9,10.8l-8.4-18.9l1.6-17.4l-6.5-13.4l6.6-5.8l0.5-0.4l-4.3-7.6l-1.2-7.1l-1.6-0.4
		l-0.6-0.2l0.2-0.9l14.1,2.8l14.4-2.8L6-60.4l-0.6,0.2l-1.6,0.3l-1.2,7.1l-4.3,7.6l0.1,0.1l0.3,0.3L5.4-39l-6.5,13.4L0.5-8.2
		L-8.1,11 M-176.5-59.9l13.2,0.1l0.1,0.9l-7.9,2.5 M-156.2-25.7l-15.5-3l6.4-6.2l2,6h0.2v0.1l11.5-3.7l1.2-5.4l0.3-0.7l3.4-8.7
		l1.9-2.5l6.2-7.9l3.3-3.9l-0.3,1.8l-1.1,7.9l1,14.2l-6.2,13.6l-3.3,0.7"/>
	<path class="st2" d="M-104.5-16.4l-0.3-0.1l-0.8-1l-1.5-2.3l-2.3-3.9l5.6-3.5l-5.4-4.2l-0.5-0.4l8.1-5l-4.8-3.7l-3.6-2.9l-1-0.8
		l0.2-0.3l1.1-1.8l4.5-8.2l2.9-5.7l0.9,0.2v9.5l0.1,2.6h0.1l8.6-1.2l-2.6-3.4l3.7-0.2h1.1l10.1,1.1l2.5,10l-0.5,0.2h-0.2l-4.9-0.9
		l-6.9,6.4l-0.7,1.1l-1.8,11.2l-7.4,1.6l3.7-7.8l-4.1,2.3l-0.5,0.5l-2,10.8"/>
	<path class="st4" d="M-102.3-50.5l-0.1-9.1v-1.3l13.4,9l-4.5,0.1l2.6,3.4l-10.8,1.4h-0.4"/>
	<path class="st2" d="M-77.4,5.3l-6.4-1.2l-0.1-10.3l-9.9,3.4l6.8-9.7l-1-6.8l9.5-5.5l8.7-10.7l6.1-12.3l-5.3-8.5l-0.3-0.4l5.5-3.9
		l8.6,2.4l-0.4,0.7l-5.4,8.4l15.1-0.9l-1.8,3l-2.4,4.4l-1,4.2l0.1,0.9l1.6,11.6l13.6,2l7.9-0.7l1-2.8l0.7-1.9l4-9.7l0.5-0.5l0.4,0.6
		l6.4,13.2l-1.6,17.4l-0.9,0.1l-2.9-7.3l-0.1,0.1v-0.1L-31.9-3.8l-11.6-2.4v0.3l0.8,4.5l0.7,3.3l-1.3-0.3l-6.3-1.2l-3.6-2.3
		l-8.4-10.2l-6.1,7.6l6.9,10.1l-3.8-1.3l-7.7-3.1l-4.2,4.4"/>
	<path class="st1" d="M-50.2-25L-52-37.3v-1.1l1-4.5l2.5-4.5l0.9-1.5L-62.7-48l6.5-10.3l5.1-0.2l0.1,0.2l11.5,4.5l6.4-0.6l8.5,4.2
		l5.6-3.1l0.2,0.4l4.7,8.2l-0.3,0.3l-0.7,0.5l-6.3,5.6l-3.9,9.4l-0.8,2l-1.2,3.2l-8.5,0.9"/>
	<path class="st2" d="M-185.6-42.5l2.3-13.4l0.6-1.4l0.4,1.4l0.6,3.2l-0.1,0.6l-0.6,6.3l-0.5,0.9l-1.8,2.8"/>
	<path class="st3" d="M-184.5-37.8l1.3-8.2l-0.1-0.1l0.5-6.2l0.2-1l0.6-3.7l2.8,3.9l-1.7,4.3l-1.6,20.2l-0.1,3.3l-0.9,0.1"/>
	<path class="st2" d="M-166.1-34.2l0.2-0.3l3.5-4.9h-0.1l-8.1,0.1l-1.5,0.1l-0.2-0.9l4.6-1.9l0.4-2.1l4.7,2.8l-1.1-5.8l-1.8-3.3
		l-0.4-0.7l5.6-2.8l0.4,1l0.5,4.4l0.6,0.7l6.7-3.5l-1.7,4.5l7.9-1.8l-1.3,1.5l-4.8,6.2l2.5,2.8l-0.1,0.4l-1.3,5.8l-12.5,4l-0.4,0.1
		L-166.1-34.2L-166.1-34.2z M-153.2-41.8l1.3-2.7l-3.6,0.1L-153.2-41.8z"/>
	<path class="st7" d="M-181.8-48.9l1.8-4.2l0.6-0.8l0.2,0.9l1.2,4l3.2,7.2l-5.8,1.9"/>
	<path class="st6" d="M-179.8-30.8l-0.2,0.3v-0.3l-3.4,3.3l1.6-21.3l1-0.1l1,7.8l4.2-1.4l1.4-0.9l0.3,0.6l1.2,2.3l-2.5,1.8l0.9,4.8
		l0.2,1.8l-0.4,0.1l-3.3,1l-0.2,8.4l-1,0.1"/>
	<path class="st4" d="M-116.4,2l6.7-10.2l0.2-2.2l-0.4-7.6l5.6,0.6l0.5,0.1l2-10.2l0.6-0.8l6.9-3.7l-4.3,8.6l5.1-1l1.8-10.9l0.7-1.2
		l7.4-6.8l5.2,0.9l14.8-5.8l1.1-0.1l-0.3,0.7L-69-34.9L-77.9-24l-9.1,5.2l1,6.5l-5.5,7.8l8.6-2.8l0.1,10.7l6.8,1.2l-0.3,0.7
		l-2.5,7.7l-1.1,0.3L-97,16.2l-2.8-15.6l-5.8,2.9l-4.1,10.7l-0.2,0.2l-15.6,7.6l-1.3,0.6"/>
	<path class="st5" d="M-186-26.7l0.4-15.9l1.9-3l0.6-0.9l0.9,0.4l-1.3,8.4l-1.5,11.1"/>
	<path class="st3" d="M-157.6-45.3l7.1-0.2l-2.5,5.3"/>
	<path class="st1" d="M-179-31.7l4.2-1.2l1.6-0.6l-2.1-3.7l-0.3-0.7l3.4-2.2l1.3-0.1l9.2-0.1l1.1,0.1l-4.5,6.3l-5.2,5.1v0.8
		l-0.5,5.5l-0.6,5.1"/>
	<path class="st4" d="M-183.4-16.8l-2.6-9.9l1.5-11.2l1,0.1l0.9,12.5v0.6l5,9.6l0.2-2.7l0.9-0.1l2.6,9.2l0.3-0.1v3.2"/>
	<path class="st7" d="M-177.9-13.5l-5.7-10.9l0.1-0.8v-3.5l0.4-0.3l3.9-4l0.1,1.4l1,9.2l1.5,4.4l-0.6,5.9"/>
	<path class="st2" d="M-177.4-17.5v-0.1l-1.6-4.5v-0.5l0.3-10.5l7.5,14.1v0.2l-1.3,10.3v0.3l-0.3,0.2l-1.2,0.4l-0.5,0.2"/>
	<path class="st3" d="M-173.2-5.8l1.3-1.1l0.7,1.6"/>
	<path class="st3" d="M-159.8-1.3L-172.9-6l11.8-10.7l-6.8-8.1l-3.3-2.9v-1.8l15.2,2.9l10.9,2.3v1l-8.7,1.7l8.5,9.8l-0.3,0.3
		l-8.2,12.3"/>
	<path class="st4" d="M-173.5-8.5v-0.1l1.3-10.4l0.4-3.5l0.6-6.4l0.8,0.8l3.2,2.8l7.2,8.6l-12,11l-0.8,0.9"/>
	<path class="st5" d="M-143-24.7l0.8-0.3l16.7-3.3l-0.5,1l-7.3,10.7 M-117.1-10.8l2.2-9.4l5.2,2.1l-6.5,7.7"/>
	<path class="st4" d="M-142.2,13l-7.4-3.5l0.3-0.5h0.1l5.2-5l-2.3-14.4l-0.1,0.1l-0.2-1.5l0.4-0.4h0.2l13.2-4.4l4.1,3.2l3.9,10.2
		l-0.3,6.8l-9.5,11.8"/>
	<path class="st1" d="M-55,9.2l-7.2-4.1l-6.6-9.6L-62-13l0.4-0.5l9,10.8l3.3,2.2l6.2,1.2l0.9,0.2l0.1,0.4l1.4,5.4l-6.2,12.5"/>
	<path class="st6" d="M-150.8,11.5l0.1-0.3l0.8,0.4v0.2l-0.1,0.1 M-164.5,12.6l-8-18.4l-0.4-0.9l0.9,0.1l0.1,0.1l12.5,4.5l5.2,1.7
		l7.7-11.4l0.8-1.1l2.7,17.2l-5.5,5.2l-0.2,0.3h-0.1l-1.1,1.9l-8.7,6.7"/>
	<path class="st5" d="M-43.1,1.5l-0.5-2.7l-0.8-4.4l-0.3-1.9l0.8,0.4L-32-4.7h6.3l4,8l-12.5-4.8l-0.1,0.1l-4.6,5.7l-1.9,2.6L-41.4,8
		"/>
	<path class="st0" d="M-41.5,37.5l-6.5-9.1l0.3-8.8l-0.2,0.1l0.2-1l0.1-0.1v-0.1l0.2-0.3l5.8-11.8V6.3l1.9-2.6l5-6.1l0.3-0.3
		L-22.5,2l0.3,0.1l1.2,2.1l3.3,6l1.1,3l-10.6,12l-8.1,0.1l-0.1,4.6v0.4l-4.6,6.2l-1.1,1.5"/>
	<path class="st2" d="M-114.7,28.6l4.1-14.5v-0.3l4.2-10.9l0.2-0.2l6.9-3.4l3.1,16.6l-4.4,8l-2.8,2.1l-10.6,2.8l-0.2,0.1"/>
	<path class="st1" d="M-77.1,4.8l4.6-4.9l8.6,3.6l-0.3,0.7l-0.4,1L-80,13.6"/>
	<path class="st5" d="M-63.2,18.7l-6-3.7l3.8-10.3l0.4-0.8l0.2-0.7l2.9,1l7.8,4.4l-8.5,10l-0.3,0.3"/>
	<path class="st0" d="M-120.8,51.6l4.9-13l8.9-7.2l3.1-6l2.8-2.1l7-3.2l6.1-6.3h0.4l0.3,0.1l5.2,5l1.7-6.3l1-0.3L-64.1,4l-4,11
		l-0.3,7.5l-5.7,5.8l-13.7,0.3l-11.4,11.3l11-2.5l0.9,1.4l1.5,8.8l0.3,0.8l0.2,0.7h-5.2l-1,1.5l-21,4.5"/>
	<path class="st2" d="M-163.6,21.5l-0.6-5l1-0.2l0.9,5.3l1.5,0.1h5l0.7-0.2l1.6-2.9l2.8-7.4l1.5-2.6l0.4,0.2l6.9,3.2l7.9,2.6
		l-7.7,10.1l-0.2,0.1h-0.2l-13.3-1.7l-12.8,10 M-69.2,23.5l-0.2,0.3v-1.6L-69,14l0.6,0.4l5.4,3.3l8.2-9.7l8.3,10.3l-0.1,0.3
		l-0.4,0.7l-0.2,0.1l-9.5,4.1l-0.1,0.2l-0.2-0.1l-12,10.5"/>
	<path class="st3" d="M-160.8,22.7l-2.3-0.2l-1.1-6l-0.6-5.4l6.2,6.2l9.3-7.2l-3.3,8.9l-1.8,3.1l-0.1,0.2l-0.2,0.1l-1,0.2
		L-160.8,22.7"/>
	<path class="st4" d="M-56.6,49.7"/>
	<path class="st1" d="M-96.9,15.3l10.4-1.8l-7,7.2l-8.5,3.8 M-88.6,13.8l9.2-1.6l-2.1,8.3"/>
	<path class="st1" d="M-87.8,13.5l0.4,0.3l0.8,0.7l-0.9,0.2l-0.3-0.4l0.1,0.4l-1.5,0.3"/>
	<path class="st5" d="M-31.9,36.8h-0.3l-3.7-5.8l-0.4,0.7l-0.1-1.9l0.3-5.4l8.6-0.2L-16.6,12l1.2,14.1l0.1,0.6l-12.3,10.8"/>
	<path class="st1" d="M-58.9,30.7l9.1-3.5l-8.1-4l10.4-4.6l0.2-0.1l0.6-0.1l-0.3,9.8l6.5,9.2l-0.8,0.3l-0.2-0.1l-14.7,3.6"/>
	<path class="st5" d="M-131.9,44.2l-9.8-18l-0.6-0.1l-13.2,10.6l-12.1-3l-0.6-2l0.8-0.4l11.8-9.2l13.7,1.7l15.3-1.9l12.5,5.9l11.5-3
		l-3.6,7l-8.9,7.2l-4.9,12.8 M-100.7,40.2L-88,27.5l13.6-0.3l5.2-5.2l0.8-1l0.3,12.1l0.1,0.3l-4.9,6.2l-0.6-0.5l-8.3-8.2h-0.1
		l-6,7.3l-0.3,0.1l-13.4,2.9"/>
	<path class="st0" d="M-160.4,52.3l-4.1-0.2h-0.5l-3-19.3l12.2,3l13.2-10.6l1.4,0.3l10.4,19h-13.5l-2.3,0.2l-9.1,8.7"/>
	<path class="st2" d="M-44.1,45.8l-9,2.1l-3.7-7.7l0.8-0.1l14.7-3.6l0.7,0.7l6.2,4.2v-0.1l-0.3-5.4h1.3l-0.2-0.1h1.8l4,0.7
		l12.3-10.9l0.2,0.8l3.3,15.9l-1.1-0.4l-7.7-2.6l-3.8,7.6l-9.1-3.5l-5.2,5.5"/>
	<path class="st1" d="M-71.2,54.2l-0.7-0.1l-6.1-0.4l0.1,0.1l-1.6-0.1l-0.1-0.1l-1.1-0.9l-1.1-4.9l-3.8-5.4l-2.2-3.1l-0.9-1.4
		l6.7-8.3l9.3,9.1l0.3,0.3l-0.7,0.8l4.6,5l-0.8,1.1v-0.1l-3,4.3l2,1.8l2.2,2.1h-2.3v0.2H-71.2L-71.2,54.2z M-81.3,45.8l6.9-5.8
		l-7.5-0.8L-81.3,45.8L-81.3,45.8z M-41.9,37.5l0.3-0.4l0.5,0.2l-0.4-0.3l0.8-1l4.8-6.6l0.4,0.5l3.9,6.2l1.4,0.9h-3.5l0.3,6.3"/>
	<path class="st3" d="M-65.4,40.5l-4-5.7l11.4-3.9l-3.8,13.8"/>
	<path class="st6" d="M-68.8,44.2l-0.4-10.9l4.5,6.5l3.1,3.7l-0.4,9.1"/>
	<path class="st3" d="M-8.5,75.2L-8.9,76L-9,74.5l-3.3-5.1l-9.4,3.4l-0.9-6.5l-10,4.5l-2.5-2.4l-0.6-1.6l-4.1-11.1l10.1-6.1l0.2-0.2
		l0.4-0.3l2.9,4.1l4.4-1.3l4.2-2.7l6.7-8.5l1.9-2.3v-1.2l2.9,3.4l6.8,8.6l4.2,2.7l4.4,1.2l2.9-4l0.6,0.5l10.1,6l-4.1,11.1l-0.6,1.6
		l-2.5,2.4l-10-4.5l-0.9,6.6l-9.4-3.5L-8,74.4V76"/>
	<path class="st5" d="M-82.6,51.3l-0.1-0.1l-2-1l-3.4-0.3h-0.2l-0.3,0.1l-0.3-0.3v-0.1l-1-1.5h3.3l-0.1-0.4l-1.4-8.7l0.9-0.4
		l2.3,3.1l3.9,5.6l1.3,6.1 M-161.5,64.7l-3.4-13.5l4.6,0.1l4.5,1.1l8.9-8.5l2.6-0.3l12.8-0.1h0.6l-1.5,6.8l-3.4,14.6l-11-3.4
		l-7.2-6.8l-6.5,9.9l-0.1,0.2l-0.5,1"/>
	<path class="st2" d="M-136.6,64.7l3.3-14.6l1.5-6.9l11.9,7.6l7.7,3.3l2.8,3.5l-5.9,0.5l-0.3-0.8l2.2-1.5h-0.3l0.1-0.1l-10.2-0.9
		l-13.7,12.5 M-63.9,60.2l-6.8-6.1l-1.2-0.1l0.1-1h1.2l-0.5-0.4l-1.8-1.7l-0.8-0.7l4.6-6.6l2.4,10l10.9-4.7l-0.4,0.9l-2.6,7.1
		l-3.2,6.6 M-92.5,50.3l1.6-2.3h2.1l0.7,1.1l2.7,0.8l0.8-0.7l2.9,1.4v1.3l0.2,3.3"/>
	<path class="st2" d="M-45,67.5l-7.9-9l-2-4.1l-2.3-4.9l2.5-1.1l0.3-0.1l1.8-0.4l6.6,8l1.6,8.9l8.8,1.3l0.4,0.1l0.8,1.9l-0.4,1.1
		v-0.1l-4.7,14.1"/>
	<path class="st6" d="M-88.7,50l-0.5-1h0.8l5,0.4l-0.8,0.7l-1,0.9"/>
	<path class="st3" d="M-87.1,56.2l-7.7-1.3l-6.8,2.3l-8.7,0.7l-3.1-3.6l21.7-4.6l9.2,4.3l-0.2-3.8l0.8,0.5l1.8,1.3l1,0.8l5,4
		l1.5,1.2l-0.4,0.8"/>
	<path class="st5" d="M-47.8,79.7l-5.9-4.4l-5.6-4v-0.2l-3.1-8.4l-0.1-0.1l-0.1-0.2l3-6l2.9-8l0.5,1l4,8.4l7.9,9.2l5.4,15.5"/>
	<path class="st4" d="M-72.9,58.7h-0.2l-7.7-6.3l9,0.6l0.8,0.2l7.9,6.5l0.8,7.3"/>
	<path class="st1" d="M-161.5,64.6l0.1-0.3l7.2-10.9l7.8,7.4L-136,64l0.6,0.2l-0.7,2.1l-2.2,1.7l-3.8,3.5l-2,1.9l-13.4,4.4"/>
	<path class="st3" d="M-130.8,70.2l-0.2-0.1l-0.4-0.2l-5.9-3.8l13.6-12.4l0.3,0.5l0.5,0.8h-0.1l1.6,3l6.4,7.2h0.1l0.6,0.4v0.1
		l0.4,0.7l-0.6,0.2h-0.2l-11.1,3.8l-2.9,0.7"/>
	<path class="st6" d="M-124.6,54h0.8l11.5,1.1l1.5,0.2l-4.3,2.9l-0.2,0.1l-0.3,0.1l-3.1-0.1l-3.5,0.2"/>
	<path class="st7" d="M-90.3,59l0.8,0.6l-0.2,0.6l-0.2,0.1l-0.9,0.2"/>
	<path class="st7" d="M-56.3,112.8l5.6-15.6v-0.4l-4.2,1.5l-9.6,3.1l-5.4-3.7l-12.6-0.8l-2-0.2v-0.9h0.2l8.2-1.1L-91,91.1v-0.9
		l4.5-0.6l11.8,2.2l10.6-6l3.6-5.7l-1.1-7.2l-0.2-0.3l-3.1-4.4l-14-8L-89,59.7h0.1l-5.8,1.5L-97,66l-0.1,0.4l-0.1,0.2l-1,5.5
		l2.7,9.2l8,7.6l-2.9,0.4l-0.3,0.1l-2.1,0.6l-11.5-12.2l-3.9-11.6l1.9-7.7l-4.4-0.2l-3.7,7.5l-0.3,0.9l-8.3-9.4l1.1-0.1l3.2-0.2
		l3.1,0.1l5.3-0.5l8.4-0.7l7-2.3l7.9,1.3l14.1,2.7l0.3,0.1l9,7.1l-0.5-5.1l0.9-0.3l1.5,2.7l3.2,8.6l0.5,1.4l-0.1-0.1l6.8,17.7
		l0.6,1.5l3.4,5.4v2.1l-0.2-0.3l-1.4,18.6l-5.6,2.7L-56.3,112.8L-56.3,112.8z M-93.2,87l-4.4-4.7l1.3,2.7L-93.2,87z M-100,77.2
		l1.2-15.7l-3.2,7l0.1,4.8L-100,77.2L-100,77.2z"/>
	<path class="st6" d="M-84.4,96.8l-6.2-1.4l-1.1-0.5l-0.5-0.2l-1.1-0.5l-9.4-7.6L-113,70.1l-1.9-3.8l-0.3-0.1l0.1-0.5l3.8-7.8
		l0.1-0.2l0.2-0.2l6,0.3l-2.1,8.5l3.7,11.2l10.9,11.6l1.8-0.5l0.2-0.1l1.9-0.2l0.4-0.1l3,2.2l-3.2,0.4l15,3.6v1L-84.4,96.8
		 M-83.4,70.2l4-0.2l0.3-4.3l-4.7-1.4l-3.5,0.3l-0.1-2.8l-2.6-1.7l-0.8-0.4l0.2-0.9l12.1,0.6l14.9,8.5l-3.9,2.8l-11,9.3
		C-78.5,80-83.4,70.2-83.4,70.2z M-77,75.6l3.8-3.1l-2.2-0.9l-4.4,1.3L-77,75.6L-77,75.6z M-71.6,71.7l1.3-0.3l1-1.1l-2.2-1.2
		L-71.6,71.7z M-75.1,70.6l2.4,0.9l0.1-2.9l-4.5-2.5l-0.2,3.4L-75.1,70.6z M-64.8,68.3l0.6-0.7l0.5,0.4l-0.4,0.4l-0.4,0.2"/>
	<path class="st3" d="M-102.9,73.6l-0.1-5.2l4.5-9.6l1.4-0.8l-0.5,1.2l-1.7,21.6"/>
	<path class="st3" d="M-90.6,89.7l-0.3-0.1l-6-3.8l-0.1-0.1l-2.8-5.7l0.8-0.5l9.7,10.3"/>
	<path class="st3" d="M-100.2,79.6l0.2-2.3l1.1,2.3l-0.8,0.5"/>
	<path class="st8" d="M-98.6,59.1l0.9,0.1l-1.6,19.9l-0.9-0.1L-98.6,59.1z"/>
	<path class="st4" d="M-98.2,66.7l0.2-0.5l2.7-5.6l6-1.6l-0.3,1l-2.1,6.4l-1,2.5"/>
	<path class="st5" d="M-91.8,77.2l-1.5-8.6h-0.2l0.1-0.5l0.8-2.1l2.1-6.4l0.2-0.6l0.6,0.2l3,1.9l0.1,2.9l0.2,0.9l-2.5,4.3l3.3,3.9
		l-1.5,0.6l-1.2,0.6l-0.4,0.2l11,11.3l-2.2,0.1"/>
	<path class="st1" d="M-86.4,69l-0.7-3v0.1l-0.3-1.1l-0.1-1.3l3.6-0.4l5.6,1.7l-0.4,5.8l-4.1,0.3"/>
	<path class="st2" d="M-156.9,97.3l-0.7-20.3l13-4.5l1.8-1.8l3.9-3.5l2.4-1.9l5.6,3.7l0.3,0.2l2,0.9l1.2,0.6l-0.3,0.1l0.2,0.2
		l-7.8,8.6l-2.8,9.2l-0.7,0.2l-0.6,0.2l-3.9,1.1l-0.5,0.1l-0.9,0.1l-7.3-5.2l2.8,12.3l0.1,0.6l-7,4.8"/>
	<path class="st9" d="M-90,69.5l2.7-4.7l0.1-0.2l0.6-0.8l1.1,4.9l-0.4,5.3"/>
	<path class="st10" d="M-75.5,71.3l-2.7-1.3l0.3-5.6l1.1,0.7l1.3,0.9h-0.1l4,2.9l-0.2,3.9"/>
	<path class="st11" d="M-72.5,69.5l-5.9-4.2l1.6-0.1l9,4.9l-2.1,2.1l-2.7,0.7"/>
	<path class="st4" d="M-117.3,70.3l-8.8,0.1l-0.2-0.9l11.8-4.1l2.5,5"/>
	<path class="st0" d="M-86.7,90.5l-2-1.4l-7.6-7.1l-2.9-9.6l1.2-6.5l0.6,0.2l4.8,1.9l0.2,0.3l1.4,8.4l11.4,8.4l0.8-0.1l5.8-1.4
		l11.5-11l0.6-1.3l0.3,1.4l1.1,7.7l-3.9,6.3l-4.2-0.2l-6.9,6.3"/>
	<path class="st11" d="M-90.2,74.2l1.5-0.7l1.2-0.6l0.8-0.3l0.3-4.7l0.6,0.3l3.5,2v0.1l4.4,8.8l2.5,3.1l4,1.8l-7.4,1.9"/>
	<path class="st10" d="M-76,83l-2.7-3.2l-0.4-0.4l11-9.4l3.7-2.6l0.4,0.4l3.3,4.9l-0.1,0.3l-0.1,0.1l-11.9,11.4"/>
	<path class="st1" d="M-123.2,75.7l-4.8-4.1v0.1l-0.3-0.2l-1.6-1.1l1.1-0.3l2.6-0.6l10-0.1l-6.7,6.8"/>
	<path class="st0" d="M-139,88.7l2.9-9.4l13.6-1.2l-0.1-0.2h0.1l-0.8-2.4l5.9-6.1l5,0.1l10.5,16.8l-0.3,1.1l-0.1-0.1l-1.9,7.3h0.1
		l-0.3,1.2l-0.6-0.5l-0.5-0.4v-0.1l-10.2-9.5l-12,6.1l-5.8,10.9"/>
	<path class="st5" d="M-128.3,70.7l0.3-0.3l5.6,4.7v0.1l0.1,0.2l1,3.2l-0.5,0.1l-15.1,1.3"/>
	<path class="st7" d="M-81.6,72.5l6.2-1.9l4,1.6l-5.6,4.6"/>
	<path class="st3" d="M-46.4,151.2l7.6-6.6l-9.8-15.1l-6,13.8l-5.6-13.7l2.7-11.5l-5.4,7.3l-0.1,0.3l-0.6,0.6l-0.3-0.8l-2.6-9.6
		l-2.7-7.4l-10.3-2.6l-2,0.2l0.4-0.4l-3.3,0.5l1.7-10l13.3,0.8l5.2,3.6l9.5-3.1l2.4,7.8l-3.8,0.1l-0.7,2.1l1.5,5.4l1.7,6.5l0.1,0.4
		l4.7,7.2l6.4-10l-6.1-1.6l4.7-9.9l-4.3-8.2l-3.4-5.3l-0.6-1.6L-60,69.9l1.4,0.9l5.5,3.8l0.9,0.7l5,3.9l3.1,16.4l-0.1,0.8l12.8-4.6
		l-1,3.5l-1.7,6.2l-0.8,2.8l-0.3,0.1l-6.7,1.2l7.4,12.8l0.9,19.2l2.5,14.9l-0.1,0.3h-0.1l-7.2,4.4"/>
	<path class="st1" d="M-45,95.7l-3.1-16.9l8.6,2.7l0.6,0.2l-5.2,14.1"/>
	<path class="st5" d="M-89.8,154.1l-0.8-8.1l-5.4-3.4l-13.7-8.9l-0.7,0.6l-5.1,5.2l-2.4-0.6l-8.4-10l-1.8,4.4l-8.5-16.9l1.2,9.8
		l0.5,3.8l-4.5,21.1l-9.3-11l3.8-8.9v-0.3l-1.7-13.5l-3.8,2.7l-0.3-11.6l-5.7,7.1l-0.6-18.7l1-0.1l0.6,4.7l5.3-3.6l-3.3-14.7
		l1.1,0.8l7.7,5.5h0.7l0.4-0.1l3.8-1.1l1.3-0.5l0.2,0.4l4.8,11.9l5.1-9.3l12.8-6.7l11.4,10.6l-0.4,0.3l-0.6,0.9l-14.2,1.3l-2.8,13.7
		l0.1-0.1v0.4l7.8-4.2l0.2-0.3l0.2,0.2l14.1-2.2l6.9,1.3l8-0.5v-0.3h0.4v-0.1l5.9-0.7l-1.3,1.3l-6.1,6.1l-9.4-4.4l-0.1,5.9l-6.9-1.5
		l1.2,14.3h0.1l0.1,0.5l9,0.1l1.5,10.1l0.2,0.1v0.3l12.8,9.5l-0.5,3.5v0.4l6.8,0.4l-5.7,9.1l-3.6,3.5"/>
	<path class="st1" d="M-105.4,95.2l2.7-9.8l0.6,0.8l10.1,8.1l-12.7,1.1"/>
	<path class="st11" d="M-75.8,92.8L-75,92l6.9-6.5l5.9,0.3l-12.2,7"/>
	<path class="st2" d="M-114,106.7l4.1-5.3l4.2-6l0.8-0.9l11.9-1.2l3,1.4l-2.6,5.6l8.1,5l0.6,0.2l-0.2,0.9l-8.7,0.6l-6.9-1.3
		L-115,108"/>
	<path class="st1" d="M-123,111.7l3-15l15.7-1.5l-4.8,6.8l-4.1,5.4l-0.4,0.5l-9.6,5"/>
	<path class="st4" d="M-84.6,106.2l-9.1-5.5l2.8-6.2l6.6,1.4l2.4,0.3l-1.6,9.8l-0.1,0.5"/>
	<path class="st6" d="M-56.3,113.1l-1.5-5.7l1-3l3.3-0.1l-2.1-6.5l0.4-0.1l5.5-2v1.8l-6.2,17 M-54.9,119.3l5.2-2.5l1.5-21.2l0.9,1.4
		l4.4,8.5l-4.3,9.3l6.1,1.6l-7.2,11.4l-0.5,0.7"/>
	<path class="st0" d="M-78.1,147.5l-0.1-0.1l-12.8-9.5l-0.1-0.6l-1.5-9.5l-9.1-0.1l-0.1-0.9l-1.3-15.6l6.9,1.5l0.1-6.1l10.2,4.6
		l6.1-6.3h0.3l11,2.8l2.9,8.2l-6.3,5.9l4.7,12.8l-4.1,5.4l0.1,0.2l-0.6,0.9l-0.1-0.2l-5.5,6.4v0.6 M-154.7,128l-2.1-13.4l0.5-0.3
		l6.4-8.1l0.3,12.5l3.8-2.5l1.9,14.9v0.4l-3.8,8.7l-0.5,1.2"/>
	<path class="st2" d="M-127,136.8l-8.7-6.2l-0.6-4.2l-1.5-12.1l0.9-0.3l8.8,17.4l1.6-4l10.2,12.2"/>
	<path class="st5" d="M-72.9,121.6l7-6.8l0.3,0.8l2.6,9.6l0.9,3.5l-5.8,6.7"/>
	<path class="st4" d="M-68.7,177.2l1.4-15l6.8-9l-6.3-11.3l3.8-13.4l-0.9-3.3l0.1-0.3l6.8-9.2l0.9,0.4l-0.1,0.1l-3,13.2l4.6,11.4
		l5.8-13.4l11.2,17.2l-0.3,0.3L-45,151l6.5,4.9l6.7-4l0.4,0.5h0.3l0.9,14.8l-20.7-2.3H-51l-0.9,4.2l-7.2-5l-2.6,11l-4.3-8.8l-0.7,13
		"/>
	<path class="st1" d="M-125.5,167.2l-14.7-16.7l4.5-20.9l9.1,6.6l1.1,1.3h-0.1l2.9,3.5l4.8,5.8l2.8,3.2l11.1,18.2l-11.5-5.1l1,8.4"
		/>
	<path class="st2" d="M-31.2,167l-0.9-14.6l0.2-0.2l16.3-23.1l0.4,1.1l2.6,8l-0.9,2.4l-16.7,27.5"/>
	<path class="st1" d="M-93,155.2l-12.6-1.8l6.6-7.9l-13,4.8l0.7-16l1.3-1.3l14.4,9.2l5.7,3.6l0.9,8.8l-3.1,0.6l-0.4,0.1l-0.3,0.1"/>
	<path class="st4" d="M-99.9,179.1l-4.5-10l-1.1-1.5l-0.1-0.2l-10.3-16.9l-2.7-3.1l-4.8-5.8l-4.8-5.9l1.5,0.5l9.1,2.3l1.7,0.4
		l5.6-5.7l-0.7,15.7l14.8-5.4l-1.1,1.4l-6.6,7.8l11.3,1.7l1.1,1l0.8,0.8l-5.1,7.4l7.6,13.6l-11.6,2.3"/>
	<path class="st1" d="M-77.9,160.5l5.4-8.6l-6.4-0.4l0.7-4.6v-0.1l6.5-7.7l0.4,0.9l1.5,7l-0.1,2.5l1,6.8l2.7,6.8 M-67,163l-0.5-0.1
		l0.5-1.8l0.5,1.3l0.3,0.8"/>
	<path class="st2" d="M-68.6,177.2l-5.5-5.7l-5.7-5.8l-8.7,11.5h-0.2l-0.1,0.1h-0.4l-0.2-0.3l-7.5-13.5l5-7.3l-0.3-0.3l-1.4-1.4
		l0.8-0.3l3.2-0.5l0.3-0.1l8.9,8.9l3.1-2.9l9.6,2.1l-2.1-5.3l-1.1-6.9l0.1-2.5l-1.4-6.9V140l-0.1-0.3l4.2-5.6l5.1-5.9l0.9,0.4
		l-3.8,13.1l6.5,11.5l-7.1,9.4l-1.4,15.3"/>
	<path class="st5" d="M-115.4,171.2l-0.1-0.4l-1.1-9.2l0.8,0.3l11,4.9l0.3,0.4l1.3,1.9L-114,171l0.5,0.4"/>
	<path class="st4" d="M-89.1,176.6l8.9-11.8l0.4-0.4l7.1,7.3l-0.8,0.2l-16.5,6"/>
	<path class="st2" d="M-105.3,188.4l-0.2-0.1l-20-21.1l0.5-0.7l10.3,4l11.2,17.3l0.8,1.1"/>
	<path class="st1" d="M-104.1,188.5l-11.1-17.3l-0.8-0.7l12.3-2.1l4.6,10.4v0.1l0.1,0.1v2.7l-0.3,9"/>
	<path class="st6" d="M-84,244l1.5-12.1l-10.3-8.9v0.3l-1.1,8.8l-8.3-15.6l-2.7-13.3l3.3-9l0.4-1.1l1.1,0.3l-0.1,0.1l7.9,0.1
		l3.5-6.3v-0.2l0.1-0.5l7.1-2l8.8,1.9l-2.3-3.7l13-4.8l0.7-4.4l5.8-2.5l8,8l-0.1,0.3l-4.4,7.1l-3.8,8.9l-0.2,0.2l-0.9,0.6l-0.5,0.3
		l-1.3,1l-3.6-8.3h-2.5l-2.2,0.7l0.5,9.6l-7-5.9l-7-2.2v0.1h-0.2l-0.1,10l-3.6-1.6v0.1h-0.2l-1.5,5.5l-8.8-0.4l12,13.5l-7.5,2.8
		l9.9,3.2l0.1-0.1h0.3l0.1,0.1l0.6,0.3l6.9,3.3l-0.4,1l-0.1-0.1l-4.7,11.4l6.9,3l-2.8,7.9"/>
	<path class="st4" d="M-47.7,196l2.2-5.5l-1.4-5.6l8.4-5.1l2.5-0.2l10.9,2v1l-11.8,2.8l-1.4,2l12.5,1.6v-0.1h0.1l1.1-6.8l0.6-2.1
		l0.3-1.3l6.9,9.9l-6.5,7l-0.5-0.1l-8.3-2.1l-12.6,1.2l-2.2,1.9"/>
	<path class="st4" d="M-45.3,194.2l0.8-0.4l0.2,0.5L-45,195"/>
	<path class="st2" d="M-39.9,188.2l0.7-1.1l1.7-2.4l12.3-3l1.5,0.2l-1.2,7.7L-25,190"/>
	<path class="st7" d="M-101.6,194.5l0.4-1l4.9-10.6l8.6,4.2l-0.2,0.4l-3.8,7.1 M-10,243.2l-5.8-8.8l-5.2-4l-0.9-0.7l-3.2-3.7
		l-0.5-0.8l-2.9-8.5l-5.4-1.3l-11.8-8l-4,1.7l-1.8-10.1l-6,2.1l2.9-6.6l-2.9,1.9l4.9-11.3l0.7,1.8l0.6,1.4l0.6,1.4l0.3,0.7l0.6,1.5
		l0.5,1.5l0.4,3.7l1.1-1.2l0.2-0.2l2.8-2.5l1.5,4.3l4.3-0.9l6.7-4.3l8.6,2.1l3.8,1l3.1-3.1l0.7,4.8l6-1.2l1.5,1.3l1.5-1.4l6,1.2
		l0.7-4.8l3.1,3.1l3.8-1l8.6-2.2l6.7,4.3l4.3,0.9l1.5-4.3l2.8,2.5l0.2,0.1l1.1,1.2l0.4-3.6l0.5-1.6l0.6-1.5l0.3-0.7l0.6-1.4l0.6-1.4
		l0.7-1.8l4.9,11.4l-2.9-1.9l2.9,6.6l-6-2.1l-1.8,10.1l-4-1.7l-11.8,8l-5.4,1.3L8.5,225l-0.4,0.8l-3.2,3.7l-1,0.8l-5.2,4l-5.8,8.8
		H-10L-10,243.2L-10,243.2z M-14.8,224.5l5.9-2.9l0.3-0.1h0.1l0.3-0.1l6.1,3.1H-2l5.2-3.5l8.8-13l-6.1-6.5l-5.6-2.4l-0.1,0.1
		l-2.2,3.5l-6.1,1.7h-0.2l-0.3,0.1l-6.1-1.7l-2.2-3.5l-0.1-0.1l-5.7,2.5l-6.1,6.5l8.8,13L-14.8,224.5L-14.8,224.5z"/>
	<path class="st3" d="M-93.3,221.5l1.5-0.5l7.2-2.8l-12.5-14h1.4l8.7,0.4l1.7-6l0.6,0.3l2.8,1.4l0.1-10l0.8,0.2l7.6,2.4l5.8,4.8
		l-0.5-8.4l3.1-1.1l2.1,0.1l1-0.1l0.1,0.3l3.3,7.6l0.5-0.3l0.5-0.4l0.9-0.7l2.7-1.7l1.5-1l-3.7,8.3l10.5,13.8l-2.6-0.6l-13.9-4.3
		h-0.3l-0.1-0.1l-12-1.3l-1.8-0.3l-1.1-0.1l-8.8-0.2h-0.2l-1.8,4.4l14.9,0.2l-2.1,8.6l-4.6,4.9l-0.4,0.3"/>
	<path class="st6" d="M-45.3,194.2l-0.3-0.6l13.5-1.3l0.3,0.9l-6.7,4.2l-5.3,1.1 M-46.8,213.7l-10.5-13.5l6.7-2.3l1.8,10l3.4-1.4
		l13.2,9l-9.8,0.7 M-15.2,225.4l-5.5-3.7l-9.3-13.8l0.3-0.4l6.4-6.8l6.5-2.8l2.5,3.9l5.3,1.5v-0.1l0.6,0.1h0.2l5.6-1.5l2.4-4
		l6.6,2.9l6.4,6.8l0.3,0.4l-9.3,13.7l-5.8,3.9l-6.3-3.2l-0.1,0.1l-0.1-0.1l-6.4,3.2"/>
	<path class="st4" d="M-73.4,229l-7.7-3.7l0.5-0.4l4.6-4.8l1.7-7.2l-15.1-0.2l2.6-6.4h0.3l9.1,0.3l1.7,0.2l0.3,0.6l7.6,9.1v-0.1
		l0.7,0.7l0.6,0.5l-0.5,0.9h-0.1l-5.6,10.9"/>
	<path class="st1" d="M-77.2,206.5l2.9,0.4l13,1.4L-62,209l-5.2,8.3l-0.4,0.7"/>
	<path class="st0" d="M-29.8,229.4v-1l0.1,1"/>
	<path class="st0" d="M-57.5,240.5l-0.1-9.1h-0.1v-0.1l-8.7,2.6l3.3-11.2l-4.2-4.7h-0.1l-0.8-0.7l0.2-0.4l5.4-8.4l0.5-0.6l2.6,5.2
		l1.9,1.9l9.5-2.5l1.8,0.5l4.6,2.4l14.6,8.3l1.6,0.8l0.6,0.2l0.2,0.1l0.7,1.3l-0.7,0.4l-4.7,2.6l7.4,5.8l0.5,0.3l0.3,0.2v1.9
		l-7.4,8.9h-0.1l-2.3,3l0.2,0.1l-0.7,0.9l-0.4-0.1l-0.4-0.2h-0.3l-8.1-2.3l-9,2.2l-3.2,0.5"/>
	<path class="st5" d="M-60.2,213.7l-2.9-5.7l16.7,5.1l-11.4,3"/>
	<path class="st4" d="M-27.6,224.5l-14.5-8.3l0.2-0.9l8.3-0.6l6,1.4l2.9,8.9l0.3,1.1"/>
	<path class="st1" d="M-66.6,233.5l-3.9-2.7l-3-2l0.2-0.3l6-11.7l0.5,0.6l4.5,5l-3.2,10.8l-0.2,1.2"/>
	<path class="st7" d="M-85.5,242.5l-0.6-9.8l-8.6-0.9v-1.1l1.1-9.3l0.7,0.7l11.3,9.7l-1.7,13.5"/>
	<path class="st2" d="M-31.3,229.2l1.3-0.7l5.4-3.1l0.3,0.3l3.8,4.5"/>
	<path class="st3" d="M-69.6,253.7l-5-2.6l0.2-0.6l2.3-6.4l-6.9-3.2l5.5-13.1l1.9,1.2l1.7,1.1l4.3,3l-3,6.5l0.4,1.2l0.2,0.2l0.3,4.7
		l-1.2,7.1l0.1,0.1l-0.1,0.4l-0.2,0.6"/>
	<path class="st5" d="M-22.1,236l-9.1-7.1l1.3-0.6l8.5,0.7l1.2,1l-1.3,6.4 M-57.9,248.9l-7.3-2.1l-3.6-5.3h-0.1l-0.1-0.2l-0.9-2.2
		l1.6-0.1v0.1l6.9-0.5l-5.2-4.9l0.5-0.8l0.3-0.1l9.1-2.6v0.6l0.1,9.6l4.3,9.1l0.4,0.5l-1.8,5.9"/>
	<path class="st1" d="M-22.2,237.2v-1.5l1.3-6.2l6.3,4.7l-7.3,9.8"/>
	<path class="st6" d="M-95.4,230.9l10,1.1l0.9,11.8"/>
	<path class="st4" d="M-69.5,239.2l3.2-6.7l0.7,0.8l5.4,5l0.9,1l-10.6,0.7 M-13.7,248.2L-22,244v-1.5l0.1-0.1l6.6-8.9l6.6,10h-0.7
		l-1.5,4.1l-0.7,1.8l-2.4,0.8"/>
	<path class="st5" d="M-29.4,245.7l8.1-9.8l0.3,6.6v1.9l-0.2-0.1l-0.3,5.8"/>
	<path class="st2" d="M-69.9,253.7v-0.5l1.3-7.4l-0.3-4.5l-0.1-0.1l0.9-0.4l3.6,5.3l3,5.9l1.3,3.7"/>
	<path class="st6" d="M-8.7,255.5l-0.2,0.1l-3.6-6.6l0.7-1.8l1.8-4.7h3.1l1.8,4.7l0.7,1.8l-3.7,6.7"/>
	<path class="st1" d="M-31.7,250l-0.9-0.2l3.7-4.8l0.5,0.3l6.1,3.3l0.3-5.6l9.3,4.5v0.4l-0.3,1.9l-9.2,3 M-26.3,264.7l-0.4-0.5
		l-0.8-0.8l-0.1-0.1l-6.1-1.9l-4.1,3.1l-8.8-3.3l1.6,4.7l-2.9-0.5l-2.3-0.5l-3.9-1.1l-3.2-4l-2.1-3.4l-1.8-0.8v-0.3l-1.2-3l-3.4-6.7
		l8.5,2.4l3.9,6.5l0.1,0.2l-0.1,0.1l2,2.8l4.7-2.6l29.2,4.2l9,5.6l-0.3,0.9l-9.6-0.8l-0.3-0.2l-0.6-0.4l-2.2-1.3l-1.1-0.6l-1.1,6"/>
	<path class="st1" d="M-38.3,263.7l0.1-0.1l0.6,0.8"/>
	<path class="st5" d="M-49.8,249.7h-0.1v-1l9.2-2.2h0.1l0.1,0.1l9.2,2.6l-7.9,4.7"/>
	<path class="st1" d="M-52.5,250.5l-1.1-1.1l3.9-0.7l0.2,0.1l11.6,4.6l-1.4,0.4l-7.3,1.3"/>
	<path class="st0" d="M-48.9,275l-2.5,0.8l1-3l-4.4,1.3l2.3-3.2l-6.3,0.8l2.7-4.8l-2,0.8l0.6-9.5l3.9,4.8l0.1,0.2l0.4,0.9h-0.1
		l2.1,4.9l6.6,4.4l-0.5,1l-3.5,2.4 M-30.1,273.5h-5.8l0.1-4.8l-6.8-1.4l0.7-0.7l3.6-2.9l4.4-3.3l6.9,2.1l1,1.1l0.4,0.6l1.4,1.9
		l1-5.3l2.2,1.4l2.1,1.3l0.9,0.5l0.1,0.3l1.4,4.5l0.4,8l-0.7-0.5l-6.6-3.9l-1.4,4.5"/>
	<path class="st1" d="M-24.7,281.2l9.9-4.8h0.2l0.5-0.2l0.3,6.3v4.8l-3-5.3l-3.1,6.4l-0.6-4.8l-1.3,5.1"/>
	<path class="st0" d="M117.4-131.9l20.3-11.8l12.8,0.9l0.1,0.9l-5.4,1.3l-6.9,1.3l-2.3,0.8l-10.8,6.5l-7.6,1 M151.9-141.9l-0.2-0.2
		l-0.8,0.1h-0.5l-0.1-0.8l1.5-0.4l1.6,1.5"/>
	<path class="st0" d="M175.9-118.9l-2.6-2.3l-0.4-0.4l-6.1-10.5v-0.1l-6.7-3.9l-1.6-1.5l-0.5,0.2l-3.5-2.1l-3.7-3.4l11.1,0.8
		l6.7,4.4l5.9,8.5l2.9,11.7"/>
	<path class="st1" d="M138.5-139.4l-0.1-0.9l6.7-1.2l6.8-1.7l4,3.8l-1.1,0.1l-0.7,0.1l-2.8,0.1l-1,0.1h-2.7"/>
	<path class="st2" d="M164.5-132.2l-4.3-3.8l0.6-0.8l6.9,4.1l-1.3,2.6 M146.1-134.9l-11.8-4.1l3.8-1.2h0.5l9,0.4l2.6-0.1h1.1
		l2.8-0.2h1l3.9,2.4l-9.3,3.9"/>
	<path class="st3" d="M157-127.7l0.7-2.1l0.3-0.7l-6-0.1l0.3-2.8l-4.2-0.8l10.6-4.5l6.4,5.9l1.7,1.9l-1.3,2.3l-5,0.2l-4.4,3.3"/>
	<path class="st4" d="M173.5-106.9l-1.5,0.7v0.4l-0.2,0.1l-0.5,2.9l-4.9,3.3v-7.8l-0.6-2.9l-4.3,0.3l-9.5-1.8l-7-6.1l-15.8-9
		l-3.1,15.2l-3.2,1.3l-14.2,1.3l-0.1,8.9v0.7l-0.2,0.2l-0.1,0.1l-1,1.1l-14.2,3.2l6.1-9.3h-0.1l0.1-0.1l-4.9,1.1l9.1-11l2.1-2.4
		l3.7-4l0.1,0.4l3.1-1.5l-2.7,9.4l0.1-0.1v0.3l16.4-14.5H126l-8.5,1.8l7.3-8.1l10.9-6.7l10.6,3.7l3.5,1.1l3.5,0.7l-0.3,2.6l6.2,0.1
		l-0.6,1.9l-0.7,1.9l2.3-1.7l4.7-0.2l0.9-1.6l1.4-2.6l0.3,1l2.3,7l-3.5,1.7l0.3,0.1h-0.1l5.3,0.5l-3.6,2.5l-2.1,7.6l9.2,0.2
		l1.3,23.6l-0.9,0.1"/>
	<path class="st5" d="M108.4-119.7l-0.5-4.3l9.5-8l8.9-1.2l-7.3,8l-0.2,0.3l-4.9,3.4l-1.7,0.9l-0.2,0.1l-3.5,1.8"/>
	<path class="st2" d="M164.8-112.4l0.4-0.7l2.3-8.2l1.9-1.4l-6.5-0.5l1.8-0.9l4-2l-1.9-6.1l0.8-0.5l6.1,10.6v0.2l1,6l0.7,3.1v0.6
		 M140.9-101.7l2.1-5.3l4.4-3.9l-22.3-0.6l3.5-16.8l16.9,9.7l7,6l9.2,1.8v0.9l-7,1.8l-11.1,3.3l-0.5,2.2l-0.2,7.2l-1,0.1"/>
	<path class="st3" d="M108.5-110.9l2.9-10.2l0.2-0.2l1.8-0.9l4.8-3.4l0.3-0.2l0.2-0.1l2.5-0.6l4-0.8l4.2-0.9L108-109.3"/>
	<path class="st0" d="M79.2-94.7L93-110.4l15.7-14.4l0.7,5.4l-0.2,0.2l-3,3.2l-2.1,2.5l-8.2,9.9l-7.8,5.9l-8.3,3.8"/>
	<path class="st5" d="M176.7-79.7l-1.5-4.6l0.4-4.9l0.1-0.2l-1.3-23.1l-0.6-3.1l-1.2-7.4l4.5,4.1l2.3,15.4l-0.5,20.1l-1.8,5.6"/>
	<path class="st1" d="M92.3-79.9l0.2-0.4l4.7-7L97-87.7l8.8-9.8h-0.1l1.1-1.3l1-1.1l0.8-0.6v0.1l12.8-9.7h-0.1l1.3-1.1l3.1-1.3
		l24.2,0.6l-6,5.4l-2,4.7l1,6.2l0.2,6.8l-9.4,4.8L127-71.8l-1.2,1.5l-0.7-0.4l-8.9-4.2l-15.4,8.8L92.3-79.9L92.3-79.9z M113.2-85.2
		l-2.8,3.6l14-2.3l1.4-2.3l-4.1-9L113.2-85.2z"/>
	<path class="st3" d="M155-32.9l2.4-4.4l0.1-0.3l-2.5-1.6l-1.1-0.1l-0.4-0.2l0.1-0.5l-3.6-1.5l-0.2-1.3l-5.3,3.2l1.6-8l1.7-3.1
		l0.1-0.2l-3.8-1.8l-0.5,4.5l-1.3,1.5l-5.1-2.7l0.2,0.5l-0.3-0.2l1.3,3.4l-6.7-1.6l0.5,0.6l-0.6-0.2l4.7,6l-2.5,2.8v0.2l-0.8,0.8
		l-0.6-1.5l-3.4-8.6l-1.8-2.4l-6.2-7.8l-1.1-1.3v0.1l-1.1-1.4v-0.1l-0.4-2l15.4-3.3h0.2l0.2-9.7l5.5-2.9l6.7-2.4l-3.6-9.1l0.4-0.2
		l11.2-6.6l-0.2-7.5l0.1-4.3v-1.1l7.3-1.9l5-0.3l0.2,0.4l0.7,3.3l-0.1,6.5l3.3-2.5l0.5-3.1l3.1-1.4l2.4,18.9l-0.4,4.8l-2.9,11
		l-4,0.7l0.6,5.2l-10.4,15.3v0.4l-0.1,0.1v1.2l-6.1,4.1h0.9v0.5l2.4,0.1l1.2,3.3l-0.9,1.8l0.1,0.1l-0.1,0.2l2.2,1.6l-0.9,5.1
		l-0.3,1.9L155-32.9L155-32.9z M154-57.5l2.3-1.5l-7,0.1L154-57.5z M151-63.2l10.9-3.4l7.3-6.4l-5,0.8l-7,0.9l-6.4,7.1l0.1,0.1
		l-0.3,0.4L151-63.2z M169-84.2l-2.8-2.8l5.1-1.5l-5.7-0.5l2.6-2l-1.6-0.4v-0.1l-1.9,4.7l-0.9,1.3L169-84.2L169-84.2z"/>
	<path class="st2" d="M107.6-100.2l0.2-9.6l14.8-1.3l1.7-0.1l-16.7,12.7"/>
	<path class="st4" d="M141.9-95.2v-0.2l0.3-7.3l0.6-2.7l12.3-3.7l-0.1,5.5l0.2,8l-11.7,6.9l-0.5,0.2l-0.1-0.1l-0.8,0.3"/>
	<path class="st3" d="M84.5-59.7v-0.4l1-0.1v0.6l-0.1,0.1 M39.1-57.8L39-57.9L39.1-57.8"/>
	<path class="st3" d="M-81.1-50.8l-9.3-0.9h-1l-0.5-0.1v-0.9l-10.5-7v-1.4h-0.3l-0.3-1.1l0.3,0.1l-6.9-17.1l-0.2,0.2l-0.4-0.8
		l-4.9-7.4l0.6-1.2l0.1,0.1l3.7-6.5l-0.5-0.1l-0.2-0.3l-6.7-10.3l5.8,1.4l7.8,5.9l12,15.3l-6.4-1l-3.1-3.5l-3.1,13.1h0.1v0.2
		l9.5,1.7l1.4,11.3l0.1,0.2l12.2,6.5l8.8,6.6l-1-2.2l-1.4-4.3l2.3-9l-0.5-1.5l-0.9-2.2l-3.5,7.1l-0.9-1.6l-3.8-6.8l-0.6-1.1l8.8-0.1
		l17,0.4l47.9-4.6l0.9,0.1h0.2l1.1-0.1l48,4.6l17-0.4l8.7,0.1l-0.5,1.1L62-61.6L61-60l-3.4-7l-0.9,2.1l-0.5,1.6l2.3,9L57.1-50
		l-1,2.2l8.7-6.6l12.3-6.5v-0.2l0.1-0.1l1.3-11.3l9.6-1.6v-0.2h0.1L85-87.4l-3,3.5l-6.4,1l12-15.4l7.8-5.9l5.7-1.4l-0.5,1l-6.1,9.4
		l-0.2,0.3l-0.5,0.1h-0.1l3.8,6.4l0.1-0.1l0.6,1.3l-4.9,7.4L92.8-79l-0.1-0.3l-6.9,17.1l0.3-0.1l-0.3,1.1l-0.3,0.1l-0.1,1.3L75-52.7
		v0.8l-0.4,0.1h-1.1l-9.3,1l-2.5,9.5l-15.8-6.3l5.4-8.6l-0.2-0.1l0.1-0.1l-4.5-3.1L39-57.4l-4.4-0.2l-0.2,0.2L34-57.7l-1.6-1.5
		l-11.1-3L21-62.1l-1.3-0.6L16-63.8l-3.1,2.6h0.3l-1.3,1.3l-0.5,0.1l-5.5-0.3L5.7-60l-0.5-0.1L-8-57.6v0.2l-0.6-0.1l-13.5-2.6
		l-0.6,0.1h-0.2l-5.4,0.3l-0.5-0.1l-1.3-1.4l0.3,0.1l-3.1-2.7l-3.7,1.1L-38-62l-0.2-0.1l-11.1,2.9l-2,1.9l-0.2-0.2l-4.5,0.2
		l-7.6-2.2l-4.5,3.1l0.1,0.1l-0.2,0.1l5.4,8.7l-15.9,6.2"/>
	<path class="st8" d="M-8-73.2h-1H-8"/>
	<path class="st2" d="M92.6-94.9l0.6-0.8l0.7-0.1l13-3l1.6-0.4l-10.8,12l-0.4,0.5"/>
	<path class="st1" d="M71.3-86.9l8-7.7l8.4-3.9l0.6,0.7L77-83.3l-0.7,1l-12.1,4"/>
	<path class="st5" d="M112.5-85.9L122-97l4.9,10.8l-1.8,3.1l-16.8,2.7"/>
	<path class="st6" d="M162.2-84.9l1.7-2.3l2.7-6.5l0.9,0.1v1.5l2.8,0.8l-2.2,1.6l5.7,0.5l0.1,0.9l-5.9,1.8l4,4"/>
	<path class="st2" d="M132.8-84.5l9.5-4.8l1.1-0.5l0.3,0.6l3.8,9.5l-1.1,0.5l-10.6-5.3l-0.6,8.2l-10,5.7"/>
	<path class="st6" d="M55.1-47.8l1.1-2.7l1.4-4.2l-2.3-9l0.5-1.6L57-68l0.6-1.3l3.5,7.3l0.1-0.2l3.8-6.7l0.3-0.6l0.3-0.6l10-12.9
		l0.7-1.1h0.2l5-0.8l4-4.7l3.9,15.9l-0.7,0.1l-9.3,1.7L78-60.6l-0.2,0.1l-12.4,6.6L54-45.2"/>
	<path class="st4" d="M124.8-70.7l1.3-1.5l8.2-4.6L135-86l12.6,6.3l-7.6,2.8l-5.1,2.5l-0.2,9.9l-1.1,0.2 M157.2-42.7l-1-2.9l-2-0.1
		l-3.8-0.1l8.1-5.5l0.1-1v-0.5l10.5-15.4l-0.4-3.5l-6.3,5.5l-11.5,3.6l-1.1-1l-0.5-0.4l7.4-8.1L164-73l8.6-1.5l2.6-10.1l0.4-1.4
		l0.5,1.4l1.6,4.9l-6.5,14l-4.8,9.6l-0.3,1.7l-0.4,1.6h-0.9l-0.1-0.4l-0.2-1.6l-1.3,1.8l-0.3,1l-1,3.1l-3.1,7.1"/>
	<path class="st3" d="M65.4-69.9L64-79.3l1.5-0.4l11.8-3.9l-11.7,15"/>
	<path class="st4" d="M92.5-81.4l0.7,1.1l8.1,13.5l0.3,0.5l-17.4,5.6"/>
	<path class="st2" d="M56.7-68.9l8.1-11.3l1.6,10.4l-0.5,1"/>
	<path class="st5" d="M124.1-69.4h0.1 M99.3-29.8l-7.4-2.3l1.1-12l-0.1-0.3L92-45.9l-4.7-8.5l13.3-12.5l15.5-8.9l9.9,4.7l-1.1,1.6
		l-0.4,0.5l-12.8,4.7l-4.9,6.2l13.9,8l-11.1,8.4l-1.4,10.5l-12.1,9.1"/>
	<path class="st2" d="M123.8-69.7l0.3-0.4l1.1-1.5l0.6,0.5l9.1,6.6l-17.2,3.7"/>
	<path class="st1" d="M97.1,28.7h-0.3l-0.3-1l0.7,0.1l1.6,0.2l-1.4,0.7h-0.1 M125.1-23.9l-1-0.2l1.2-1.1l0.3,0.6l0.3,0.8"/>
	<path class="st1" d="M92.5,13.2l15.4,7.5l-0.1-0.1L98.6,2.3L91.8-8l-0.2-2.5l0.3-6.7l-5.3,0.6l1.2-1.7l1.5-2.3l1.8-3.1l-6-3.8
		l5.8-4.5l0.1-0.1l-8.1-5l5.9-4.4l5-4.1l-1.2,12.5l7.6,2.4l-2.3,5.6l9.2-6.9l1.4-10.5l10.3-7.8l-13.7-7.8l5.7-7.2l14.3-5.2l-0.8,1.2
		l-5.4,7.7l0.3,1.4l1.2,8.2l-1,14l5.9,13l13.1,2.6l-0.5,0.6l-9.1,10.4l-0.3-0.3l-12.7-4.2l-3.5,2.8l-3.8,9.8l0.3,6.3l9.1,11.4
		l7.7,10.3l-16.1-2l-12.9,6L92.5,13.2L92.5,13.2z M98.8-12.4l-1.5-6.5l-3,1.2L98.8-12.4z M116.6-17.8l7.7-6.3l-13.9-2.7L116.6-17.8
		L116.6-17.8z M84.5-60l0.1-1.8l16.1-5.2l0.5,0.8L87.8-53.6"/>
	<path class="st4" d="M15.8-64.9l7.2,2.2l-1.9,0.5L12-60.1l-2.2,0.4"/>
	<path class="st2" d="M1.8-52.5l1.3-7.8L5.6-61h0.2l5.6,0.3l0.1-0.1L21-63l0.3-0.1l11.5,3l2.4,2.3l-12.4,4.9l-6.4-0.6l-8.7,4.3"/>
	<path class="st4" d="M146.2-58.9l0.2-0.9l13.2-0.1l-5.4,3.5 M125-24l-6.2-13.7l1-14.1l-1.2-8.1l-0.2-1.6l3.3,3.9l6.2,7.8l1.9,2.5
		l3.4,8.7l0.2,0.7l1.3,5.5l11.5,3.7v-0.2l0.2,0.1l2-6.1l6.4,6.2l-15.5,3l-11,2.3"/>
	<path class="st2" d="M84.2-27l-0.5-0.6l-4.1-2.2l3.7,7.7l-7.4-1.5L74-34.9L73.3-36l-6.9-6.3l-5,0.8l-0.5-0.2l0.1-0.4l2.4-9.6l10-1
		h1.1l3.8,0.1l-2.7,3.5l8.7,1.1v-0.1l0.1-2.5l0.1-9V-60l0.9-0.3l2.9,5.7l4.5,8.2l1.3,2.2l-1,0.8l-3.6,2.9l-4.8,3.6l8.1,5l-0.6,0.5
		l-5.3,4.1l5.6,3.6l-2.3,3.9l-1.5,2.3l-0.8,1h-0.4l-1.3,0.3"/>
	<path class="st4" d="M84.6-47.2L74-48.6l2.6-3.3L72.1-52l13.3-9l0.1,1.3l-0.1,9.1l-0.2,3.5"/>
	<path class="st2" d="M59.4,5.3l-4-4.3l-7.6,3.2l-3.9,1.2l6.9-10l-6.1-7.7L36.3-2.1l-3.6,2.3l-6.3,1.3l-1.3,0.2l0.7-3.2l0.8-4.9
		L15-3.9L3.4-15.6L0.5-8.2l-0.9-0.2L-2-25.7l6.7-13.9l0.5,0.5l0.1,0.2l4,9.5l0.7,2l1,2.7l7.9,0.8L32.5-26l1.6-11.6l0.1-0.8l-1-4.3
		l-2.4-4.4l-1.8-3l15,0.9l-5.4-8.5l-0.3-0.5l8.6-2.5l5.5,3.9l-0.3,0.5l-5.3,8.5l6.1,12.3l8.7,10.7l9.5,5.5l-1,6.7l6.8,9.7l-10-3.3V4
		l-6.5,1.2l0.1,0.1l-0.8,0.1"/>
	<path class="st1" d="M10.3-23.8l-1.1-3.3l-0.8-2l-3.9-9.4l-6.3-5.6l-1-0.7l0.2-0.4l4.7-8.3l0.4,0.2l5.2,2.9l8.5-4.1l6.4,0.6
		l11.5-4.6v-0.1h0.3l4.9,0.2l6.5,10.3L30.7-49l0.9,1.4l2.5,4.6l1,4.5v1l-1.8,12.4L18.9-23"/>
	<path class="st2" d="M166-45l-0.6-0.8v-0.3l-0.5-6.1l-0.1-0.6l0.9-4.6l0.6,1.4l0.1,0.1l2.2,13.4l-0.8,0.3"/>
	<path class="st3" d="M165.7-25.3l-0.1-3.3L164-48.8l-1.7-4.3l2.8-4l0.6,3.7l0.1,1l0.6,6.3h-0.1l1.3,8.2l-1,12.6"/>
	<path class="st2" d="M146.4-27.8l-12.3-3.9l-1.3-5.8l-0.1-0.4l2.5-2.8l-4.8-6.2l-1.3-1.5l7.9,1.8l-1.7-4.5l6.7,3.5l0.6-0.7l0.5-4.4
		l0.4-1l5.6,2.8l-0.4,0.7l-1.8,3.3l-1.1,5.8l4.7-2.8l0.4,2.1l4.6,1.9l-0.2,0.9l-1.5-0.1l-8.1-0.1h-0.1l3.5,4.9l0.2,0.2l-2.2,6.5
		L146.4-27.8L146.4-27.8z M136.3-41.9l2.3-2.6l-3.6-0.1L136.3-41.9L136.3-41.9z"/>
	<path class="st7" d="M157.9-41.9l3.2-7.2l1.4-4.9l0.6,0.8v0.1l1.8,4.2l-1.2,9"/>
	<path class="st6" d="M161.1-22.7l-0.2-8.4l-3.3-1l-0.4-0.2l0.2-1.6l0.9-4.9l-2.5-1.8l1.2-2.3l0.3-0.6l1.4,0.8l4.2,1.4l1-7.7h1
		l1.5,21.4l-3.3-3.3v0.2l-0.2-0.2l-0.9,8.2"/>
	<path class="st4" d="M108.6,21.8l-15.8-7.7v-0.2L88.7,3.3l-5.8-2.9l-2.8,15.7l-17.1-3l-1.1-0.3l-2.5-7.7l-0.3-0.6l6.8-1.2L66-7.5
		l8.6,2.9l-5.5-7.8v-0.2l1-6.3L61-24.2l-8.9-10.9l-6.6-13.4l0.8,0.1h0.4l14.8,5.9l5.2-1l7.4,6.8l0.7,1.3l1.8,10.9l5,1l-4.2-8.7
		l6.8,3.8l0.7,0.7l2,10.3l0.5-0.1l5.6-0.7l-0.1,0.8l-0.3,6.9l0.1,2.2l6.8,10.1l10.4,20.6"/>
	<path class="st5" d="M166.6-37.8l-1.3-8.4l0.9-0.3l0.6,0.9l1.9,2.9l0.4,15.9l-1,0.1"/>
	<path class="st3" d="M133.5-45.5l7.2,0.1l-4.6,5.2"/>
	<path class="st1" d="M153.9-22.5l-0.5-5.4v-0.9l-5.1-5l-0.1-0.1l-4.5-6.3h1l9.3,0.1l1.2,0.1l3.5,2.2l-0.4,0.6l-2,3.8l1.5,0.5h0.1
		l4.2,1.3l-7.6,14.2"/>
	<path class="st4" d="M156.7-8.8l0.3,0.1l2.6-9.2l0.9,0.1l0.2,2.7l5-9.7v-0.5l0.9-12.6h1l1.5,11.2l-2.6,9.9l-9.8,11.2"/>
	<path class="st7" d="M160.1-13.8l-0.4-4.2l1.5-4.5l1-9.2v-1.4l4,4l0.4,0.3v3.6l0.1,0.8l-6.4,12.2"/>
	<path class="st2" d="M157-7.7l-1.5-0.6l0.1-0.4L154.3-19v-0.2l7.5-14l0.3,10.9l-1.6,4.5l-0.1,0.2l-2.8,10.1"/>
	<path class="st3" d="M155-6.8l1.3,1.1l-2,0.5"/>
	<path class="st3" d="M128.7-11.4v-0.1l-0.3-0.3l8.5-9.7l-8.7-1.8v-0.9l10.9-2.3l15.2-2.9v1.8l-3.3,2.9l-6.8,8L156-5.9l-13.2,4.7
		l-5.9,2"/>
	<path class="st4" d="M155.1-5.8l-12.1-11l7.3-8.6l3.2-2.9l0.8-0.8l0.6,6.4l0.4,3.7l1.3,10.4l-0.1,0.1L155.9-5"/>
	<path class="st5" d="M109.2-27.3l-0.6-1l17.6,3.5l-0.7,0.6l-0.4-0.3l0.3,0.4l-9,7.4 M92.8-18l5.2-2.2l2.1,9.4l-0.8,0.5"/>
	<path class="st4" d="M108.2,3.5l-0.3-6.7l3.9-10.2l4.1-3.3l13.3,4.4l0.5,0.5l-0.3,1.4L127.1,4l5.3,5l0.3,0.5l-0.5,0.2l-6.9,3.2
		l-7.6,2.5"/>
	<path class="st1" d="M-16.4,26.2l-1.1-13l-1.1-2.7l-3.2-6l-1-1.8l-3.3-6.5l-7-0.1l12.6-12.7l0.6-0.5l3.4,8.7l8,18l8.1-18L3-17.2
		l0.6,0.6L16.2-4l-7,0.1L5.9,2.7l-1,1.8l-3.3,6l-1.1,2.7l-1,12.9l-0.9,0.2l-7-12.4l-7.1,12.4 M23.8,6.7l1.4-5.5l0.1-0.4l0.9-0.1
		l6.2-1.2l3.3-2.2l9-10.9l0.4,0.5l6.8,8.5L45.3,5l-7.2,4.1L30,19.2"/>
	<path class="st6" d="M133,11.7l-0.1-0.2l0.9-0.3l0.1,0.1l-0.8,0.5 M133,11.7l-1.1-2l-0.3-0.3l-5.5-5.2l2.7-17.2l0.7,1.1l7.8,11.5
		l5.2-1.8l12.4-4.5l1.1-0.2l-0.5,1.1l-7.9,18.2l-5.9,5.9"/>
	<path class="st5" d="M23.9,6.7L22,4.1l-4.7-5.8L4.8,3.2l4-8h6.4L27-7.3l0.8-0.4l-0.2,0.9l-0.1,1l-0.8,4.4l-0.6,2.7l-1.6,6.6"/>
	<path class="st0" d="M23.1,36.5l-4.6-6.3v-0.3l-0.2-4.7l-8-0.1l-10.7-12l1.2-2.9l3.3-6.1l1.2-2l0.3-0.2l11.9-4.6l0.3,0.4l4.9,5.9
		l2,2.7l5.9,12.1l0.1,0.1l0.1,0.1l0.1,0.3v0.7l-0.1-0.1l0.3,8.9l-6.4,9l-0.2,0.2L24.2,38"/>
	<path class="st2" d="M97.1,28.7l-10.6-2.8l-2.8-2.1l-4.4-8.1l3-16.5l7,3.4l0.2,0.2l4.1,10.8l0.1,0.3l4.1,14.6l-0.4,0.2H97.1"/>
	<path class="st1" d="M47.7,5.2l-0.4-1L47,3.5l8.6-3.6l0.2,0.2l4.4,4.6l2.9,8.8"/>
	<path class="st5" d="M45.7,18.7L37.2,8.6l7.7-4.4l3-0.9l0.2,0.6l0.4,0.9L52.2,15L52,15.2l-6.1,3.7"/>
	<path class="st0" d="M74.6,50.6L73.5,49h-5.2l0.6-1.6l1.4-8.6l0.9-1.4l11.1,2.4L70.9,28.5l-13.7-0.3l-5.7-5.8l-0.3-7.5L47.2,4
		l15.3,8.2l1,0.4l1.6,6.3l5.5-5.2l0.4,0.1l0.2,0.1l6,6.2l7,3.1l2.8,2.1l3.1,6l8.9,7.3l4.9,12.9L95.6,55"/>
	<path class="st2" d="M138.5,23.1l-13.4,1.7h-0.3l-7.7-10.2L125,12l7.2-3.3l0.3,0.3l1.3,2.2l0.1,0.2l2.7,7.2l1.6,2.9l0.7,0.1
		l4.8,0.1h0.1l1.6-0.1l0.9-5.3l1,0.1l-0.6,5.1l4.6,11.7 M40.1,23.7L40,23.8l-0.2-0.2l-9.6-4.2L30,19.3v-0.1l-0.5-0.8l0.2-0.2L37.9,8
		l8.2,9.7l6-3.7l0.4,8.3v1.4l-0.2-0.2l-0.2,10.7"/>
	<path class="st3" d="M138.8,22.6l-1.2-0.4l-1.8-3.2l-3.4-8.9l9.2,7.1l6.3-6.1l-0.6,5.3l-1.1,6.1l-2.5,0.1"/>
	<path class="st1" d="M76.6,20.7l-7-7.2L80,15.3l5.1,9.3"/>
	<path class="st1" d="M62.4,12.2l9.3,1.6l-7.1,6.6"/>
	<path class="st1" d="M69.8,14.5l0.5-0.7l0.5-0.4l0.3,0.3l1.2,1.2"/>
	<path class="st5" d="M-1.6,26.7l0.1-0.6L-0.3,12l10.9,12.3l8.6,0.2l0.3,5.3l-0.1,1.6L19,30.9l-3.7,5.9h-0.4l-4.3,0.7"/>
	<path class="st1" d="M24.6,37.6l-0.1,0.1l-0.9-0.3l0.3-0.5l6.2-8.8l-0.3-9.8l0.7,0.2L41,23.1l-8.2,4l9.1,3.6l-2.6,10.5"/>
	<path class="st5" d="M98.2,39l-8.9-7.1l-3.6-7.1l11.4,3.1l12.6-5.9l15.3,1.9l13.7-1.7l11.8,9.2l0.7,0.3l-0.5,2l-12.1,3.1
		l-13.2-10.6l-0.6,0.1l-9.9,18l-11.8,7.6 M71.4,38.3L71,38.2l-6-7.4v0.1v-0.1L56.6,39L56,39.5l-4.9-6.1V33l0.3-12.1l0.9,1.1l5.2,5.2
		l13.6,0.3l12.7,12.6l0.8,1.1"/>
	<path class="st0" d="M129.7,44.7l-2.4-0.3h-13.4l10.4-19l1.4-0.3l13.2,10.6l12.2-3l-3,19.3h-0.4l-4.3,0.2l-4.7,1.1"/>
	<path class="st2" d="M16.8,43.3l-9.1,3.5l-3.8-7.6l-7.7,2.7l-1.1,0.3l3.5-16.7l0.6,0.6l11.7,10.4l3.9-0.7h1.9l-0.2,0.1h1.3
		l-0.3,5.4l6.3-4.3l0.1-0.2l0.4-0.4l14.8,3.7l0.8,0.1l-3.8,7.7l-8.9-2.2L22,48.8"/>
	<path class="st1" d="M53.6,54.1v-0.2h-2.3l2.2-2.1l2-1.8l-3-4.2v0.1l-0.8-1.1l0.2-0.4l4.3-4.7l-0.7-0.8l0.4-0.4l9.1-8.9l0.4,0.3
		l6.4,7.9l-0.9,1.4l-2.2,3.1l-3.8,5.4l-1.1,4.9l-1.2,1L61,53.7l0.1-0.1L54.9,54l-0.6,0.1L53.6,54.1L53.6,54.1z M64.4,45.7l0.7-6.6
		l-7.5,0.8L64.4,45.7L64.4,45.7z M16.5,42.2l0.3-5.3h-3.6l1.5-0.9l4.3-6.7l0.4,0.6l4.4,6l1.1,1.4l-0.3,0.4l-8.1,5.6"/>
	<path class="st3" d="M41.1,30.7l11.4,3.9l-4,5.7l-3.6,4.2"/>
	<path class="st6" d="M44.7,43.6l3.1-3.8l4.5-6.4l-0.5,10.8l-6.7,8.4"/>
	<path class="st5" d="M64.1,47.2l3.9-5.5l2.3-3.1l0.8,0.3l-1.3,8.7l-0.1,0.5H73l-1,1.5L71.8,50l-0.7-0.2l-3.3,0.3l-2.1,1v0.1
		l-2.9,2.1 M143.6,64.7v-0.1l-6.5-9.8l-7.2,6.8l-11,3.4l-3.4-14.6l-1.5-6.8h13.4l2.6,0.3l8.9,8.5l4.4-1l4.7-0.1l-3.7,14.6"/>
	<path class="st2" d="M106.9,54.7l-10.2,1h0.1h-0.3l2.2,1.5l-0.3,0.9l-5.9-0.6l2.8-3.4l7.8-3.4l11.8-7.5l1.5,6.9l3.4,14.5l-0.1,0.1
		l0.8,2.5 M41.9,56.8l-3-8.1l1,0.4l9.9,4.4l2.4-10.1l4.6,6.6L56,50.8l-1.8,1.6l-0.6,0.5h1.3l0.1,0.9L53.8,54L47,60l-1.9,3.4
		 M64.8,52v-1.3l2.9-1.5l0.8,0.7l2.7-0.8l0.7-1H74l1.6,2.2l-11,5"/>
	<path class="st2" d="M17.9,69.1l-0.2-0.5L17.5,68l0.8-1.9h0.4l8.8-1.4l1.5-8.9l6.7-8l1.8,0.4l0.2,0.1l2.6,1.1l-2.3,5l-2,4l-7.9,9.1
		l-5.5,15.7"/>
	<path class="st6" d="M67.3,50.1l-0.7-0.7l1-0.1l4.7-0.4l-0.5,0.9L71.6,50l-3.3,0.9"/>
	<path class="st3" d="M55.7,57.8l1.4-1.1l5.1-4l1-0.8l2.6-1.9v1l-0.2,2.8l9.2-4.2l21.7,4.6l-3.1,3.5L84.7,57l-6.9-2.3L70.2,56
		L56,58.7"/>
	<path class="st5" d="M27.4,67l7.9-9.1l4.5-9.6l0.3,1.2l2.6,7l3,6l-0.2,0.3l-3.1,8.4l-0.2,0.2l-5.4,3.9l-5.9,4.5l-9,2.8"/>
	<path class="st4" d="M46.1,59.7l8-6.5l0.7-0.1l9.1-0.6l-1.2,1l-6.5,5.2L56,58.8l-10.6,8.3"/>
	<path class="st1" d="M127.1,73.3l-1.9-1.9l-3.8-3.6l-2.2-1.7l-0.7-2.1l0.7-0.2l10.2-3.2l7.9-7.4l7.3,11.2l-4,13.2"/>
	<path class="st3" d="M108.9,70.3v-0.1l-11.1-3.8h-0.1l-0.6-0.1l0.2-0.6l0.1-0.2l0.1-0.1L98,65v0.1l6.5-7.3l0.1-0.2l1.5-2.8l0.3-0.7
		l0.3-0.6l0.5,0.4l13.1,12l-5.8,3.8l-0.4,0.2l-0.2,0.1l-2.1,0.9"/>
	<path class="st6" d="M101.8,58.2h-3.4L98.1,58l-4.2-2.8l1.5-0.3l12.3-1.1l-0.4,0.8l-2,3.7"/>
	<path class="st7" d="M73,60.2l-0.3-0.1l-0.2-0.6l0.5-0.2l0.4-0.2l0.4,1.3"/>
	<path class="st7" d="M31.9,117.2l-1.4-18.6l-0.2,0.3v-2.1l0.1-0.1l3.3-5.3l0.6-1.4l6.8-17.7L41,72.4l0.5-1.5l3.1-8.4l0.1-0.2
		l1.4-2.6L47,60l-0.5,5.1l9-7.1l0.3-0.1l14.1-2.7l7.9-1.3l7,2.3l8.4,0.7h0.1l5.3,0.5l3.2-0.1l3.3,0.2l0.9,0.1L97.7,67l-0.4-0.9
		l-3.7-7.5l-4.4,0.2l1.9,7.7l-3.9,11.6L75.7,90.3l-2.1-0.6l-0.3-0.1l-2.8-0.4l8-7.6l2.7-9.2l-1.1-5.5v-0.1l-0.2-0.4H80l-2.3-4.8
		l-5.8-1.5H72l-10.1,0.5l-14,8L44.8,73l-0.1,0.2l-0.1,0.1l-1,7.1l3.6,5.7l10.6,6l11.8-2.2l4.5,0.6v0.9L59.2,95l8.2,1.1h0.1V97
		l-2,0.2L52.9,98l-5.4,3.7l-9.6-3.1l-4.2-1.5v0.4l5.6,15.7l-1.9,7.1L31.9,117.2z M76.3,87l3.1-2l1.3-2.7L76.3,87z M83.1,77.2l1.9-4
		l0.1-4.8l-3.2-7L83.1,77.2z"/>
	<path class="st6" d="M56.5,95.3v-0.9l14.9-3.6l-3-0.4l0.8-0.7l2.1-1.5h0.3l2,0.3h0.2l0.1,0.1l1.6,0.4l11-11.6l3.7-11.2l-2.1-8.5
		l6-0.2l0.2,0.3l3.9,7.8l0.2,0.5l-0.5,0.2l-1.8,3.8L85.7,86.6l-9.4,7.5l-1,0.5l-0.5,0.3l-1,0.4l-6.3,1.4h-0.2 M50.6,70.7l-3.8-2.8
		l14.9-8.5l12.1-0.6l0.2,0.9l-0.9,0.4l-2.5,1.6l-0.1,2.8l-3.4-0.3H67l-4.7,1.4l0.3,4.3l4,0.2l-4.9,10L50.6,70.7z M60.1,75.5l2.8-2.7
		l-4.4-1.3l-2.2,0.9L60.1,75.5L60.1,75.5z M54.7,71.6L54.6,69l-2.2,1.2l1,1.1L54.7,71.6L54.7,71.6z M55.7,71.5l2.5-1l2.1-1l-0.2-3.4
		l-4.5,2.5L55.7,71.5z M47.2,68.3L46.7,68l0.5-0.4l0.7,0.6l-0.2,0.3"/>
	<path class="st3" d="M80.7,59.2l-0.6-1.5l1.5,1l4.4,9.7v5.2l-3.6,7.2"/>
	<path class="st3" d="M73.3,88.7l8.8-9.3l0.7,0.5l-2.7,5.7L80,85.7l-6,3.9l-1.9,0.3"/>
	<path class="st8" d="M81.6,59.1L83.2,79l-0.9,0.1l-1.6-19.9L81.6,59.1z"/>
	<path class="st3" d="M82,79.5l1.1-2.2l0.2,2.2l-0.5,0.6"/>
	<path class="st4" d="M74.8,66.3L72.4,59l0.8,0.1l5.2,1.4l2.9,6l-5.5,2.2"/>
	<path class="st5" d="M60.8,85.8l11-11.4l-0.4-0.1l-1.2-0.6L68.7,73l3.3-3.8l-2.5-4.4l0.2-1l0.1-2.7l3.6-2.3l0.1,0.6l2.2,6.6
		l0.9,2.4l-0.2,0.1l-1.5,8.6L63,85.9"/>
	<path class="st1" d="M61.7,70.7l-0.3-5.9l5.5-1.6H67l3.6,0.3l-0.1,1.3l-0.3,1.1l-0.1-0.1l-0.6,3.1l-3.6,2"/>
	<path class="st2" d="M132.2,98.2l0.1-0.7l2.8-12.1v-0.1l-7.3,5.1H127l-0.6-0.1l-3.9-1.2l-0.7-0.2l-0.3-0.1l-0.2-0.1l-0.2-0.2
		l-2.7-8.9l-7.9-8.7l0.3-0.2h-0.4l1.3-0.7l2-0.9l0.4-0.2l5.5-3.6l2.4,1.8l3.8,3.6l1.8,1.7l13.1,4.5L140,97.2l-0.8,5.7"/>
	<path class="st9" d="M68.6,68.7v-0.1l1-4.8l0.7,0.9l2.8,4.7L69,74"/>
	<path class="st10" d="M54.7,68.8l4-2.8l-0.1-0.1l1.2-0.8l1.2-0.8l0.3,5.6l-2.7,1.4l-3.8,1.4"/>
	<path class="st11" d="M52.9,72.2l-2-2.2l9-4.8h1.5l-5.8,4.3l0.1,3.4"/>
	<path class="st4" d="M-8.6,177.7l-12.2-2l-9.6-7.9l0.5-0.8l12.1,4.1l8.4-0.6l0.7,0.1l0.2-0.1h1l8.4,0.6L13,167l0.4,0.8l-9.5,7.9
		L-8,177.6v0.2 M-34.6,137.7l-0.9-19.1l-7.8-13.5l7.5-1.4l0.1-0.2l0.7-2.2l1.7-6.2l0.5-1.9l-12.4,4.6l0.1-2.3l0.2-0.3l4.8-12.9h-0.1
		l0.2-0.7l4.6-13.9l0.7,0.4l2.1,1.7L-22,65l0.9,6.7l9-3.4l3.6,5.6l3.7-5.6l9,3.3L5.1,65l10.6,4.7l2.1-1.7l0.6-0.4l4.9,14.6l-0.1,0.1
		L28,95.2l0.1,0.3l0.2,2.2l-12.4-4.5l0.5,1.9l1.7,6.1l0.7,2.3v0.1l7.6,1.5l-7.9,13.5l-0.8,19l-2.8,16l-16.2-22.9l-0.8,0.2l0.1-0.4
		h-6l-0.5,0.1h-6.4l0.1,0.3l-0.8-0.1l-16.2,22.8 M97.5,65.5l0.4,0.1l11.4,3.9l-0.1,0.9l-8.8-0.1l-0.1-0.4v0.4l-5.2,0.1"/>
	<path class="st0" d="M50.7,86.3l-4.2,0.2l-3.9-6.2v-0.2l1.3-9l0.7,1.3l11.5,11l5.8,1.5h0.8l11.4-8.3l1.5-8.7l0.2-0.1l5.2-2.1
		l0.1,0.6l1.2,5.9l-2.9,9.6l-7.6,7.1l-2,1.5l-12.3,2.3"/>
	<path class="st11" d="M54.5,84.1l4-1.9l2.5-3v-0.1l4.4-8.9l0.2-0.1l3.9-2.2l0.3,4.7l0.8,0.3l1.2,0.6l1.5,0.7L61.9,86"/>
	<path class="st10" d="M43.9,73l-0.1-0.4l0.1-0.2l3.3-4.7l0.3-0.4l0.4,0.3l3.3,2.4l10.9,9.3l-0.3,0.4v0.1L59.1,83l-3.2,1.4"/>
	<path class="st1" d="M99.2,69.5l10,0.1l2.7,0.6l1.1,0.3l-1.8,1.2h-0.1l-4.8,4l-0.3,0.5"/>
	<path class="st0" d="M110.7,91.5l-11.9-6.2l-10.3,9.5l-0.2,0.3l-0.8,0.8l-0.3-1.3h0.1l-1.9-7.3l-0.1,0.1l-0.3-1l0.1-0.3l10.4-16.6
		l4.9-0.1l0.2,0.1l5.8,6l-0.8,2.4V78l13.5,1.2l3,9.5l-5.5,13.6"/>
	<path class="st5" d="M104.4,78.7l0.1-0.6l0.9-2.8l0.1-0.1l0.1-0.1l5.5-4.7l0.4,0.4l8.4,9.2"/>
	<path class="st7" d="M54.5,72.1l4-1.5l6.2,1.8l-4.6,4.4"/>
	<path class="st3" d="M14.3,152.7l-0.1-0.2v-0.3l2.5-14.8l0.9-19.2l7.4-12.7l-6.9-1.3l-0.2-0.3l-0.7-2.5l-1.7-6.2l-1-3.6l12.8,4.7
		l-0.1-0.8v-0.1l3.1-16.2l5-3.9l0.9-0.7l5.4-3.8l1.4-0.9l-7.8,20.4l-0.6,1.5l-3.4,5.5l-4.3,8.2l4.6,9.9l-6,1.5l6.4,10l4.7-7.2
		l0.1-0.4l1.7-6.5l1.5-5.4l-0.7-2.1l-3.8-0.1l2.4-7.7l9.5,3l5.2-3.5l13.3-0.8l1.7,10l-3.3-0.5l0.4,0.4l-2-0.3l-10.4,2.6l-2.7,7.5
		l-2.8,10.4l-0.7-0.8v-0.1l-5.4-7.3l2.7,11.4l-5.6,13.8l-6-13.9l-9.8,15.1l7.6,6.6l-7.9,6"/>
	<path class="st1" d="M27.1,95.7L22,81.6l0.6-0.1l8.6-2.7l-3.5,18.4"/>
	<path class="st5" d="M59.9,160.1l-5.7-9.1l6.7-0.4v-0.4H61l-0.5-3.4l12.8-9.5v-0.4l0.1-0.1l1.6-10l9-0.1v-0.5h0.2l1.2-14.4
		l-6.9,1.5l-0.1-5.8l-9.4,4.3l-6.1-6l-1.3-1.4l5.9,0.8l0.4,0.1v0.2l8,0.6l6.9-1.3l14.1,2.2l0.2-0.2l0.2,0.3l7.8,4.1v-0.3l-2.7-13.6
		L88.2,96l-0.6-0.9l-0.4-0.4l0.4-0.3l11-10.2l12.8,6.6l5.1,9.4l4.9-12.3l0.4,0.1l1,0.4l3.8,1.1h0.4l0.6,0.1l7.9-5.6l1-0.8l-3.3,14.6
		l5.3,3.6l0.6-4.6l1,0.1l-0.6,18.6l-5.7-7.1l-0.3,11.7l-3.8-2.6L128,131v0.3l3.8,8.8l-9.3,11.1l-4.5-21.1l0.5-3.8l1.2-9.8l-8.6,16.9
		l-1.8-4.5l-8.4,10.1l-2.4,0.6l-5-5.2l-0.7-0.7l-13.7,8.8l-5.4,3.4l-0.8,8.2l-9.4,9.5"/>
	<path class="st1" d="M75.1,94.2l10.1-8.1V86l0.6-0.6l2.7,9.8l-0.7,0.2"/>
	<path class="st11" d="M45.3,85.8l5.9-0.3l7.8,7.2h-1.5"/>
	<path class="st2" d="M82.8,105.7l-6.9,1.3l-8.7-0.6l-0.2-0.9l0.7-0.2l8-4.9l-2.6-5.7l3-1.3L88,94.5l0.8,1l4.2,5.9l4.1,5.4l1,1.3"/>
	<path class="st1" d="M96.7,107.7l-0.4-0.4l-4.1-5.4l-4.8-6.8l15.7,1.4l3,15l0.2,1.3"/>
	<path class="st4" d="M66.6,105.7l-1.7-9.6l2.5-0.2l6.6-1.5l2.8,6.2l-9,5.5l-0.6,0.2l-0.5,0.2"/>
	<path class="st6" d="M38.4,113.1l-5.6-15.6v-1.8l5.9,2.1l-0.2,0.4l-1.9,6.1l3.3,0.1l0.9,3l-1.8,6.9 M31.4,127.8l-7.3-11.4l6.2-1.7
		l-4.3-9.3l4.4-8.4l0.8-1.5l1.6,21.2l5.2,2.6l-6.1,9.2"/>
	<path class="st0" d="M60.4,147.2l-5.4-6.4v0.1l-0.7-0.7l0.1-0.3l-4.1-5.4l4.6-12.7l-6.2-6l2.9-8.1l11.2-2.9L63,105l6,6.2l10.1-4.7
		l0.1,6.2l7-1.5l-1.3,15.5l-0.1,0.9l-9.1,0.1l-1.5,9.5l-0.1,0.6l-12.8,9.6l-0.8,0.5 M130.8,140.2l-3.8-8.8v-0.3l1.9-15l3.7,2.6
		l0.4-12.5l6.4,8l0.5,0.3l-2.2,13.5l-6.5,13.4"/>
	<path class="st2" d="M109.6,127.5l1.6,3.9l8.7-17.3l1,0.2l-1.5,12.1l-0.6,4.2l-8.7,6.3l-10.7,2.8"/>
	<path class="st5" d="M45.2,128.7l0.9-3.6l2.8-10.3l7.1,6.7l-5,13.9"/>
	<path class="st4" d="M49.1,166.2l-4.3,8.9l-2.6-11l-0.1,0.1v-0.1l-7.1,5l-0.9-4.2l-20.8,2.3l0.9-14.9h0.3l0.4-0.4l6.7,4l6.4-5
		l-7.3-6.3l0.2-0.4l11-16.8l5.8,13.3l4.6-11.4l-3-13.1l-0.1-0.2l0.9-0.3l6.9,9.4l-0.9,3.3l3.8,13.4l-6.4,11.3l6.8,9.1l1.5,14.9
		l-2,2.2"/>
	<path class="st1" d="M98.5,163l-11.4,5.2L98.2,150l2.8-3.3l4.8-5.7l2.9-3.5h-0.1l1.1-1.4l9.1-6.5l4.5,20.9l-14.7,16.6l-11.1,4.4"/>
	<path class="st2" d="M-3.4,140.6l-0.9-2.5l2.6-8l0.3-1.1L15,152.1l0.2,0.2l-1,14.6l-0.1,0.2l-0.8,1"/>
	<path class="st1" d="M-30.4,167.7l-0.1-0.1h-0.1l-0.2-0.3l0.2-0.3l16.3-26.9l0.7-2l-2.4-7.7l-0.3-0.9h15.6l-0.3,0.8l-2.3,7.7
		l0.7,2.1l16.5,27.1l-0.2,0.3l-0.1,0.1v0.1h-0.2L1,171.9l-8.5-0.6H-8v0.1h-1.4L-18,172 M74.8,155.1l-2.7-0.5l0.8-8.8l5.8-3.6
		l14.4-9.2l1.2,1.2l0.8,16l-13-4.7l6.6,7.8l-12.6,1.9l-0.2,0.1"/>
	<path class="st4" d="M82.5,179.3l-11.2-2.2l7.6-13.7l-5.1-7.3l0.7-0.8l1.2-1.1l11.3-1.7l-6.6-7.7l-1.1-1.4l14.8,5.4L93.4,133
		l5.5,5.7l1.8-0.3l9.1-2.4l1.5-0.5l-4.8,6l-4.8,5.8l-2.8,3.2l-10.2,16.8l-0.1,0.1l-0.2,0.3l-0.9,1.3L83,179v0.4"/>
	<path class="st1" d="M52,156.2l1-6.9l-0.1-2.4l1.5-7l0.1-0.2l0.2-0.8l6.6,7.8l0.7,4.7l-6.4,0.4l5.4,8.6L49.3,163"/>
	<path class="st1" d="M49.6,162.2l0.5-1.3l0.5,1.9l-0.5,0.1l-0.8,0.3"/>
	<path class="st2" d="M50.9,177l-1.3-14.3l-7.1-9.4l6.5-11.5l-3.8-13.1l0.8-0.5l5.1,5.9l4.3,5.7l-0.2,0.4l-1.3,6.9l0.1,2.3l-1.1,7.1
		l-2.1,5.3l9.6-2.1l0.2,0.1l2.9,2.8l8.8-9l0.4,0.1l4,0.7l-1.5,1.6l-0.2,0.3l4.9,7.2l-0.1,0.3l-7.5,13.6l-0.4-0.1h-0.1l-0.1-0.1
		l-0.2-0.1l-8.6-11.4l-5.8,5.9L51,178"/>
	<path class="st5" d="M97,171l-10.7-1.8l1.3-2l0.3-0.3l11.7-5.3v0.8l-1,8.4l-0.1,0.5l-2,0.2"/>
	<path class="st3" d="M-50.2,193.7l-0.4-1.4l-0.6-1.4l-0.3-0.7l-0.6-1.5l-0.6-1.5l-0.3-0.9l4.3-7l-7.1-7l-4.8,1.9l-0.7,4.5
		l-12.4,4.6h-0.2l2.7,4.5l-10.4-2.2l-6.3,1.8l-0.1,0.1l-0.4,0.2l-0.2-0.1L-96,184l-4.7,10l-0.6,1.5l-4.8-8.3l1.2,0.2l-0.1-0.1
		l1.3,0.2l0.1,0.1l3.5,1.6l0.2-7.6l-0.1-3.1l10.9-2.1l0.3-0.1l1.3-0.5l-0.1,0.2l14.1-5.2l5.5,5.8l0.5,0.5l0.6-12.6l0.9-0.2l0.1,0.3
		l3.9,7.8l2.3-9.8l0.7,0.5l6.5,4.5l0.7-3.7h0.5l20.8,2.4l0.6,0.7h0.1l0.1,0.1l9.3,7.8l11.8,1.9l12.1-2l9.3-7.8l0.2-0.1l0.5-0.7
		l21.3-2.3l0.1,0.4l0.7,3.3l6.6-4.6l0.6-0.4l2.3,9.8l3.9-7.9l0.1-0.2l0.9,0.1l0.6,12.6l0.4-0.5l5.6-5.8l14.1,5.2l-0.1-0.2l1.5,0.6
		l11,2.2l-0.1,3.1l0.2,7.5l3.5-1.6l1.3-0.3l-0.1,0.2l1.3-0.3l-4.8,8.4l-0.6-1.6l-4.7-9.9l-7.6,3.7l-0.4-0.2l-0.1-0.2l-6.3-1.8
		l-10.4,2.2l2.7-4.4l-0.2-0.1l-12.4-4.5l-0.7-4.5l-4.8-2l-7.1,7l4.3,7l-0.3,0.9l-0.6,1.5l-0.6,1.4l-0.3,0.7l-0.6,1.5l-0.5,1.4
		l-0.6,5.5l-2.5-2.7l-2.4-6.1l1.3-5.1l-7.6-4.6l-2.3-0.2l-10.7,2L7,182.6l-0.4-1.8L6.4,181l-0.1-0.1l-5.2,7.5l6.3,6.8l-4.9,1.3
		l-2.1-2.2l-0.5,4l-6.6-1.2l-2.3,2v-0.9l-1.2-1.1l-6.6,1.3l-0.5-4l-2.2,2.1l-4.9-1.3l6.4-6.7l-5.3-7.5v0.1l-0.2-0.3l-0.4,1.8
		l-1.4-0.1v-0.1v0.1l-10.7-2l-2.4,0.2l-7.6,4.5l1.4,5.1l-2.4,6.2l-2.6,2.7"/>
	<path class="st4" d="M56.5,171.7l-0.5-0.3l0.4-0.5l6.5-6.6l0.3,0.3l0.1,0.1l8.8,11.7l1,1.4"/>
	<path class="st2" d="M86.6,187.7l11.2-17.3l10.3-4.1l0.5,0.8l-20,21.1h-0.2l-2.6,0.5"/>
	<path class="st1" d="M82,181.7l0.1-2.8l0.1-0.1l4.6-10.5l12.3,2.2l-0.8,0.7l-11.1,17.2l-4.9,2.3"/>
	<path class="st6" d="M54,243.5l6.9-3.1l-4.7-11.3h-0.1l-0.2-0.5l-0.2-0.4l0.4-0.2l6.5-3.1l0.5-0.3l0.2-0.1l0.2-0.1l0.2,0.1l9.9-3.1
		h-0.1l-7.4-2.9l12-13.4l-8.8,0.3l-1.5-5.5l-0.2,0.1v-0.2l-3.6,1.7l-0.1-10.1l-0.2,0.1v-0.1l-7,2.2l-7,5.8l0.5-9.5l-2.2-0.8l-2,0.1
		l-0.5-0.1l-3.6,8.3l-1.3-0.9l-0.5-0.4l-1.1-0.7l-3.8-9l-4.5-7.2l0.1-0.3l7.9-7.8l5.8,2.4l0.7,4.5l13,4.7l-2.3,3.7l8.8-1.8l7.1,2
		l0.2,0.8l3.4,6.2l7.9-0.1l-0.1-0.1l1.1-0.3l0.4,1.1l3.3,8.9l-2.7,13.3L77,232.1l-1.1-9.2l-10.3,8.9l1.5,12.2l-10.3,7.4"/>
	<path class="st4" d="M27.8,194.5l-12.6-1.2l-8.3,2.1l-0.5,0.1l-6.5-6.9l6.9-9.9l0.3,1.3l0.5,2l1.2,6.9l12.6-1.5l-1.4-2l-11.8-2.9
		v-0.9l10.8-2l2.6,0.2l8.4,5l-1.4,5.6l2.1,5.5l-0.7,0.5"/>
	<path class="st4" d="M27.4,194.2l0.1-0.4l0.9,0.3l-0.3,0.9"/>
	<path class="st2" d="M8,189.4l-1.3-7.6l1.6-0.1l12.3,2.9l1.7,2.5l0.7,1L8.1,190"/>
	<path class="st7" d="M70.7,187.2l0.5-0.3l8.2-4l4.9,10.7l0.4,0.9l-9.9,0.1"/>
	<path class="st3" d="M63.1,225.4l-4.6-4.9l-2.1-8.6l14.9-0.2l-1.8-4.5h-0.2l-8.8,0.3l-1.2,0.1h-0.2l-1.6,0.3l-11.9,1.3h-0.4
		l-13.9,4.2l-2.6,0.7l10.4-13.8l-3.6-8.4L37,193l2.6,1.7l1,0.7l0.5,0.3l0.5,0.3l3.4-7.8h3.1l3.1,1l-0.5,8.4l5.8-4.8l7.6-2.3l0.7-0.2
		l0.2,9.9l2.9-1.4l0.5-0.2l1.6,6l9.1-0.4l1.1-0.1l-12.5,14.1l7.5,2.8l1.2,0.5l-12.9,4.1"/>
	<path class="st6" d="M21.6,197.5l-6.7-4.3l0.3-0.8l13.4,1.2l-0.2,0.8l-1.5,4.2 M15.3,215.5l13.2-9l3.4,1.5l1.8-10.1l6.7,2.3
		l-10.5,13.5l-4.8,2.5"/>
	<path class="st4" d="M50.2,218.4l-0.1,0.1l-0.3-0.6l-0.2-0.3l0.3-0.3l0.3-0.2l0.1-0.3l0.5-0.4v0.1l7.6-9.2l0.4-0.6H59l1.4-0.1
		l9.5-0.3l0.1,0.3l2.5,6l-15.1,0.2l1.7,7.2l5,5.2l-0.5,0.4l-7.1,3.4l-0.7,0.4"/>
	<path class="st1" d="M50.3,217.2l-5.3-8.3l-0.6-0.7h0.9l12.2-1.4l2.8-0.4L50.7,218"/>
	<path class="st0" d="M12.8,228.4l0.1,0.9 M32.8,249.7l-9.1-2.2l-8.3,2.4L15,250l-0.4,0.1l-0.7-0.9h0.2l-2.3-3h-0.1l-7.4-9v-1.9
		l0.9-0.6l7.3-5.6l-4.6-2.6l-0.4-0.2l-0.4-0.2l0.2-0.5l0.5-0.8l1.1-0.5l1.3-0.7l14.6-8.3l4.6-2.4l1.8-0.4l9.4,2.4l1.9-1.9l2.7-5.2
		l0.5,0.6l5.4,8.5l0.2,0.4l-0.9,0.7l-4.2,4.7l3.3,11.1l-8.7-2.5h-0.2v9.2l-4.6,9.7"/>
	<path class="st5" d="M29.5,213l16.7-5.1l-2.9,5.7l-2.4,2.4"/>
	<path class="st4" d="M7.7,225l3-8.9l5.9-1.4l9.4,0.7l-0.7,0.7l-14.6,8.3L7.5,226"/>
	<path class="st1" d="M48.5,233.2l-3.1-10.9l4.5-5.1l0.5-0.4l6.2,12l-0.4,0.2l-2.7,1.8l-3.8,2.7l-0.1,0.1l-0.8,0.8"/>
	<path class="st7" d="M64.7,231.7l11.9-10.3l0.2,0.8l0.9,8.3l0.1,0.2v1l-8.6,0.9l-0.7,9.7l-2.1,2.8"/>
	<path class="st2" d="M7.7,225.4l0.3,0.1l6.4,3.7l-1.5,0.1l-9.3,0.8"/>
	<path class="st3" d="M51.9,252.9H52l-1.2-7.2l0.3-4.7l0.2-0.2l0.4-1.2l-3-6.4l4.3-3.1l1.7-1.1l1.9-1.1l0.2,0.5l5.3,12.6l-6.9,3.1
		l2.2,6.5l0.3,0.6l-5.5,2.8"/>
	<path class="st5" d="M4.4,235.7l-1.1-5.6l1.2-1l8.4-0.7h0.2l1.2,0.5l-9.7,7.6 M35,249.9l0.4-0.4l4.3-9.2l0.1-10.1l0.6,0.1l8.5,2.5
		h0.3l0.5,0.8l-5.2,5l6.9,0.4v-0.1l1.5,0.1l-0.8,2.3l-0.1,0.2l-0.1-0.1l-3.6,5.4l-7.3,2l-4.2,7.1"/>
	<path class="st1" d="M-2.3,234.2l6.3-4.8l1.2,6.2l0.1,1.6L5,244"/>
	<path class="st6" d="M68.4,231.9l10.1-1l-10.9,12.8"/>
	<path class="st4" d="M42.3,239.2l1-1l5.4-5l0.7-0.8l3.2,6.9l0.3,0.7 M-5.3,249.2l-0.7-1.8l-1.5-4.1h-0.7l6.6-10l6.7,9.1v1.4
		L4.8,244l-8,3.9L-3,250"/>
	<path class="st5" d="M4.3,244.4H4.2l-0.1-0.7v-1l0.3-6.8l8.1,9.9l-7.9,4.3"/>
	<path class="st2" d="M44.6,252l3-5.9l3.6-5.3l0.9,0.3l-0.1,0.2l-0.3,4.4l1.3,7.9l-0.4,0.1l-9.3,2"/>
	<path class="st1" d="M-3.9,249.7l-0.3-2.1l0.3-0.3l8.4-4.1l0.6-0.3l0.3,5.7l6.1-3.4l0.5-0.3l3.7,4.8l-0.9,0.3l-9.5,2.7 M5.7,262.4
		l-1.1,0.7l-2.2,1.3l-0.6,0.3l-0.1,0.1l-0.1,0.1H1.4l-9.5,0.8l-0.3-0.9l9-5.6l29.2-4.1l4.7,2.5l2-2.7l-0.1-0.2l0.1-0.2l3.9-6.4
		l8.5-2.5l-3.4,6.8l-1.2,2.8v0.3l-0.3,0.2l-1.5,0.6l-2.1,3.4l-3.2,4l-3.9,1.1l-2.3,0.6l-2.9,0.4l1.6-4.7l-8.8,3.4l-4.1-3.1l-6.2,1.9
		l-0.8,0.9l-0.4,0.5l-2.6,3.7"/>
	<path class="st1" d="M20.7,264.4l0.6-0.7l-0.5,0.8"/>
	<path class="st5" d="M14.4,249.2l9.2-2.7h0.2l9.2,2.2v0.9h-0.1l-10.6,4.2"/>
	<path class="st1" d="M22.4,253.9h-0.2l-1.2-0.4l11.7-4.7l4,0.6l-1.1,1.1l-6,4.6"/>
	<path class="st2" d="M-8.9,265.7l-0.1-0.1l-8.9-5.6l-28.6-4l-5.1,2.8l-2.8-3.8l1.8-5.7l6.1,4.8l7-1.2l6.8-3.9l0.2-0.2l0.2,0.1
		l0.6,0.2h0.2l9.6,2.8l1.4,1.8l0.6,0.8l0.9,1l0.2,0.2l1.8,1.7h4.9l0.1,0.4l1.3,3.8h4.4l1.5-4.2h4.9l1.8-1.7l0.2-0.2l0.9-1.1l0.6-0.8
		l1.4-1.8l9.6-2.8h0.2l0.8-0.3l0.2,0.2l6.7,4h0.1l7,1.2l6.1-4.8l1.8,5.6l-2.8,3.9l-5.1-2.9L1,260l-9,5.6l-0.5,0.1"/>
	<path class="st3" d="M-11.2,262.7l-0.2-0.4l-1.3-3.8h-4.7l-2.1-2l-0.2-0.3l-0.9-1l-0.7-0.8l-1.7-2.2l9.5-3.1l1.7-0.7l3.3,6l3.4-6
		l1.7,0.6l9.5,3.1l-1.8,2.1L3.7,255l-0.9,1.1l-0.2,0.2l-2.1,2h-4.7l-1.4,4.2H-8l-0.5,0.1"/>
	<path class="st0" d="M28.1,274.4l-0.5-1l6.6-4.5l2.1-4.9l-0.1,0.1l0.4-0.9l0.1-0.2l3.9-4.9l0.6,9.6l-2-0.9l2.6,4.8l-6.2-0.8
		l2.3,3.3l-4.4-1.3l1,3L32,275l-0.4,1.7"/>
	<path class="st5" d="M-27.1,282.5l-2.2,3l-0.3-3.9l-2.3,3.7l-0.1-4.6l-1.4,1.6l-3.4-0.1l0.1-1.5l-2.6,3.7l0.5-5.9l-3.5,3.2l0.8-4.9
		l-3.7,3.4l0.7-3.9l-2.8,1.6l1.5-4l0.1-0.2l-6.2-4.2l-2.9-6.9l1.1,0.3l3.8,1l2.2,0.6l1.3,0.2l-1.8-5.1l11.2,4.2l-3.6,3l5.8,1.2
		l-0.1,4.5v0.1h5l4.5,3l1.4-4.5l6.9,4.1V275l-0.3-6.1l-1.6-5l10.2,0.8h0.6l10.3-0.9l-1.6,5.1L0.2,275v0.1l6.9-4.1l1.3,4.5l4.5-2.9
		H18l-0.1-4.6l5.8-1.2l-0.1-0.1l-3.5-2.8l0.7-0.4l10.5-3.9l-1.8,5.1l1.3-0.2l2.2-0.6l3.9-1.1l0.9-0.2l-0.3,0.8l-2.5,6.1l-6.2,4.1
		l0.1,0.2l1.5,4.1l-2.9-1.6l0.8,3.9l-3.7-3.5l0.8,4.9l-3.5-3.2l0.5,5.9l-2.6-3.6l0.1,1.4l-3.4,0.1l-1.4-1.5l-0.1,4.6l-2.4-3.7
		l-0.2,3.9l-2.2-3.1l-0.5,5.3l-2.8-6l-8.9-4.3l-0.1,4.9l-0.9,0.1l-0.4-0.8l-1.1,5.2l-1.8-3.2l-2-1.3h-0.2l-2.1,1.3l-1.8,3.2
		l-1.1-5.2l-0.4,0.9l-0.9-0.2l-0.1-4.8l-8.9,4.2l-2.8,6.1"/>
	<path class="st0" d="M6.5,272.5l-7.3,4.3v-0.9l0.4-7.1l1.5-4.7l0.2-0.2l0.7-0.3l2.1-1.3l2.2-1.4l1,5.2l1.4-1.8l0.4-0.6l1-1.2
		l6.9-2.1l4.3,3.3l4.5,3.6l-1,0.2l-5.9,1.2l0.1,4.8h-5.8L7.9,277"/>
	<path class="st1" d="M3.6,283.5L3,288.4l-3.1-6.4l-3,5.3v-5.1l0.2-6.1l0.7,0.2l10,4.8l-2.9,7.6"/>
	<path class="st4" d="M-45.2,65.6l-1.6-9.3l-6.1-7.4l-1.2,0.3l-0.2,0.1l-2.1,0.9L-67.3,55l-2.4-10l-3.9-4.3l-0.1-0.1l-8.3,7
		l-0.9-9.3l8.9,0.9h0.2l0.2-0.2l-0.1-0.1l0.6-0.7l0.2,0.1l4.1-5.1V33L-57,22.6l0.4,0.2l8.8,4.4l-10.3,4l2.3,9.4l3.1,6.4l8.6-2.1
		l4.8,2.9l0.2-0.2l0.1,0.1l5-5.3l8.7,3.4l0.1-0.2l0.3,0.1l3.7-7.4l7.9,2.7v-0.2l0.3,0.1L-16,27l-0.1-0.3l-0.1-0.3v-0.3L-8.8,13v-1.8
		L-0.4,26l0.1,0.1v0.2l-0.1,0.4l-0.2,0.6L-3.5,41l0.3-0.1v0.2l7.9-2.7l3.7,7.4l0.3-0.1l0.1,0.2l8.7-3.4l5,5.3l0.1-0.1l0.2,0.2
		l4.8-2.9l8.6,2.1l3.1-6.5l2.3-9.3l-10.3-4l8.9-4.5l0.3-0.1l11.8,10.4v0.2l4.1,5.1l0.2-0.2l0.6,0.7L57.1,39l0.2,0.2h0.2l8.9-0.9
		l-0.9,9.3l-8.3-7l-0.1,0.1L53.2,45l-2.4,10l-10.9-4.8l-2.1-0.9h-0.2L36.4,49l-6.1,7.4l-1.6,9.3l-10.3,1.6l4-11l-9.3-5.7L13,50.8
		l-0.2-0.2l-2.7,3.8l-5.2-1.5l-4.1-2.7l-7.1-8.8l-1.7-2l-1.7,2l-7.1,8.8l-4.1,2.7l-5.2,1.5l-2.7-3.8l-0.2,0.2l-0.1-0.2l-9.3,5.7
		l4,11L-45.2,65.6L-45.2,65.6z M-62.3,42.7l2.8-10.4l-8.8,3l0.4,8.6l5.1,6.2l0.2-6.2 M45.6,43.8l0.3,6.2l5-6.2l0.4-8.6l-8.8-3
		l2.8,10.4"/>
</g>
</svg>
