<?xml version="1.0" encoding="utf-8"?>
<!-- Generator: Adobe Illustrator 19.0.0, SVG Export Plug-In . SVG Version: 6.00 Build 0)  -->
<svg version="1.1" id="Layer_1" xmlns="http://www.w3.org/2000/svg" xmlns:xlink="http://www.w3.org/1999/xlink" x="0px" y="0px"
	 viewBox="0 0 910 300" style="enable-background:new 0 0 910 300;" xml:space="preserve">
<style type="text/css">
	.st0{fill:#FFFFFF;}
	.st1{fill:none;stroke:#FFFFFF;stroke-width:2;stroke-miterlimit:10;}
	.st2{fill:#C82030;}
</style>
<g id="XMLID_31_">
	<path id="XMLID_32_" class="st0" d="M92.7,257.3c0-4.6,0.8-9.2,2.4-13.8c1.6-4.6,4-8.7,7.1-12.3c3.1-3.6,6.9-6.5,11.4-8.8
		c4.5-2.3,9.6-3.4,15.4-3.4c6.8,0,12.7,1.6,17.5,4.7c4.8,3.1,8.4,7.1,10.8,12l-4.5,2.6c-1.4-2.7-3-4.9-4.8-6.7
		c-1.8-1.8-3.8-3.3-5.9-4.4c-2.1-1.1-4.3-1.9-6.6-2.4c-2.3-0.5-4.6-0.8-6.8-0.8c-4.9,0-9.2,1-13,3c-3.7,2-6.9,4.6-9.5,7.7
		c-2.6,3.2-4.6,6.8-5.9,10.7c-1.3,4-2,8-2,12c0,4.5,0.8,8.9,2.4,13c1.6,4.1,3.7,7.7,6.5,10.9c2.7,3.1,6,5.6,9.7,7.5
		c3.7,1.9,7.8,2.8,12.1,2.8c2.3,0,4.7-0.3,7.1-0.9c2.4-0.6,4.8-1.5,7-2.7c2.2-1.2,4.3-2.8,6.3-4.7c1.9-1.9,3.6-4.2,4.9-6.8l4.8,2.3
		c-1.3,2.9-3.1,5.4-5.3,7.7c-2.2,2.2-4.7,4.1-7.5,5.6c-2.7,1.5-5.6,2.6-8.7,3.4c-3.1,0.8-6.1,1.1-9,1.1c-5.3,0-10.1-1.2-14.4-3.5
		c-4.4-2.3-8.1-5.3-11.3-9c-3.2-3.7-5.6-7.9-7.4-12.6C93.6,267,92.7,262.2,92.7,257.3z"/>
	<path id="XMLID_34_" class="st0" d="M224.9,291.7c5.2,0,9.5-1,12.9-2.9c3.4-1.9,6.1-4.5,8.1-7.7c2-3.2,3.4-6.8,4.2-10.8
		c0.8-4,1.2-8.1,1.2-12.2v-38.6h5.5v38.6c0,5.1-0.6,10-1.7,14.7c-1.1,4.7-2.9,8.8-5.5,12.4c-2.5,3.6-5.8,6.4-9.8,8.5
		c-4,2.1-9,3.1-14.9,3.1c-6.1,0-11.2-1.1-15.3-3.3c-4.1-2.2-7.4-5.1-9.9-8.7c-2.5-3.6-4.2-7.8-5.3-12.4c-1-4.6-1.6-9.4-1.6-14.3
		v-38.6h5.5v38.6c0,4.2,0.4,8.4,1.2,12.4c0.8,4,2.3,7.6,4.3,10.7c2.1,3.1,4.8,5.7,8.2,7.6C215.6,290.7,219.8,291.7,224.9,291.7z"/>
	<path id="XMLID_162_" class="st0" d="M297.4,296.2v-76.7h31.9c3.2,0,6.2,0.7,9,2.1c2.7,1.4,5.1,3.2,7.1,5.5c2,2.3,3.5,4.8,4.6,7.7
		c1.1,2.8,1.7,5.7,1.7,8.6c0,2.8-0.4,5.5-1.3,8.2c-0.9,2.6-2.1,5-3.7,7.1c-1.6,2.1-3.5,3.8-5.7,5.2c-2.2,1.4-4.7,2.3-7.3,2.7
		l19.1,29.8h-6.4l-18.6-28.9h-24.8v28.9H297.4z M302.9,262.2h26.9c2.4,0,4.7-0.5,6.7-1.6c2-1.1,3.7-2.5,5.2-4.3
		c1.4-1.8,2.5-3.8,3.3-6c0.8-2.3,1.1-4.6,1.1-7c0-2.4-0.5-4.8-1.4-7.1c-0.9-2.3-2.1-4.3-3.7-6c-1.5-1.7-3.3-3.1-5.4-4.2
		c-2.1-1-4.3-1.6-6.6-1.6h-26.1V262.2z"/>
	<path id="XMLID_214_" class="st0" d="M389.1,296.2v-76.7h5.5v76.7H389.1z"/>
	<path id="XMLID_250_" class="st0" d="M466.9,296.7c-5.3,0-10.2-1.1-14.6-3.3c-4.4-2.2-8.2-5.1-11.3-8.7c-3.2-3.6-5.6-7.7-7.3-12.4
		c-1.7-4.7-2.6-9.5-2.6-14.4c0-5.1,0.9-10,2.8-14.7c1.8-4.7,4.4-8.8,7.6-12.4c3.2-3.6,7-6.5,11.4-8.6c4.4-2.1,9.1-3.2,14.3-3.2
		c5.3,0,10.2,1.1,14.6,3.4c4.4,2.3,8.2,5.2,11.3,8.9c3.1,3.7,5.6,7.8,7.3,12.5c1.7,4.6,2.6,9.3,2.6,14.1c0,5.2-0.9,10.1-2.8,14.8
		c-1.8,4.7-4.4,8.8-7.6,12.4c-3.2,3.6-7,6.4-11.4,8.5C476.7,295.7,472,296.7,466.9,296.7z M436.5,257.9c0,4.4,0.7,8.6,2.2,12.7
		c1.5,4.1,3.6,7.7,6.3,10.8c2.7,3.1,5.9,5.6,9.7,7.5c3.7,1.9,7.8,2.8,12.3,2.8c4.6,0,8.8-1,12.5-2.9c3.7-1.9,6.9-4.5,9.5-7.7
		c2.6-3.2,4.7-6.8,6.1-10.9c1.4-4,2.2-8.1,2.2-12.3c0-4.4-0.8-8.6-2.3-12.7c-1.5-4.1-3.6-7.7-6.3-10.8s-5.9-5.6-9.6-7.5
		c-3.7-1.9-7.7-2.8-12.1-2.8c-4.6,0-8.8,1-12.5,2.9c-3.7,1.9-6.9,4.5-9.6,7.7c-2.7,3.2-4.7,6.8-6.2,10.9
		C437.2,249.6,436.5,253.7,436.5,257.9z"/>
	<path id="XMLID_253_" class="st0" d="M583.8,232.3c-5-5.5-12-8.3-21.1-8.3c-7.5,0-12.9,1.4-16.4,4.3c-3.4,2.8-5.1,6.7-5.1,11.5
		c0,2.4,0.4,4.5,1.3,6.1c0.9,1.6,2.2,3,4.1,4.2c1.8,1.2,4.2,2.1,7,2.9c2.8,0.8,6.2,1.6,10.2,2.5c4.1,0.9,7.8,1.8,11.2,2.9
		c3.3,1,6.2,2.4,8.5,3.9c2.3,1.6,4.1,3.5,5.4,5.8c1.3,2.3,1.9,5.1,1.9,8.5c0,3.4-0.7,6.3-2,8.9c-1.3,2.5-3.2,4.6-5.6,6.3
		c-2.4,1.7-5.3,3-8.6,3.8c-3.3,0.9-7.1,1.3-11.2,1.3c-12,0-22.1-3.8-30.3-11.4l2.9-4.4c3.2,3.4,7.2,6.1,11.9,8c4.7,2,9.9,3,15.8,3
		c6.7,0,11.9-1.2,15.7-3.7c3.8-2.4,5.7-6.2,5.7-11.1c0-2.5-0.5-4.7-1.5-6.4c-1-1.8-2.5-3.3-4.5-4.6c-2-1.3-4.5-2.4-7.5-3.3
		c-3-0.9-6.6-1.8-10.6-2.7c-4.1-0.9-7.7-1.8-10.9-2.8c-3.1-1-5.8-2.2-7.9-3.7c-2.1-1.5-3.7-3.3-4.8-5.3c-1.1-2.1-1.6-4.7-1.6-7.9
		c0-3.5,0.7-6.5,2-9.2c1.3-2.7,3.2-4.9,5.6-6.8c2.4-1.8,5.2-3.2,8.5-4.2c3.3-0.9,7-1.4,11-1.4c5,0,9.4,0.7,13.3,2.2
		c3.9,1.5,7.4,3.7,10.6,6.8L583.8,232.3z"/>
	<path id="XMLID_256_" class="st0" d="M626.2,296.2v-76.7h5.5v76.7H626.2z"/>
	<path id="XMLID_258_" class="st0" d="M726.9,224.5h-28.1v71.7h-5.5v-71.7h-28.1v-5h61.7V224.5z"/>
	<path id="XMLID_260_" class="st0" d="M758.5,219.5l26.8,42.4l26.9-42.4h6.2L788,267.3v28.9h-5.5V267l-30.1-47.5H758.5z"/>
</g>
<line id="XMLID_334_" class="st1" x1="55.5" y1="188.9" x2="855.5" y2="188.9"/>
<g id="XMLID_312_">
	<path id="XMLID_332_" class="st0" d="M78.6,4.4h4.9c7.4,0.4,14.8,1.5,21.8,4c10.9,3.7,20.7,10.1,28.7,18.3
		c-4.3,4.2-8.7,8.4-13,12.6c-7.8-7.8-17.8-13.5-28.7-15.6c-14.5-2.8-30.2-0.5-42.6,7.6c-11.2,7.5-20.6,18.5-24.6,31.7
		c-3.1,10.5-3.3,21.9-0.5,32.5c3.7,13.9,13.3,25.6,25.2,33.5c11.8,7.8,26.6,10.1,40.4,8c11.6-1.7,22.5-7.5,30.8-15.7
		c4.3,4.1,8.7,8.3,13,12.4c-10.9,11-25.2,18.9-40.7,21.2c-3.8,0.6-7.6,0.9-11.5,1h-3.3c-10.1-0.2-20.1-2.2-29.3-6.5
		C33,142,19.5,128.5,11.7,112.2c-7-14.7-8.6-31.7-5.5-47.6c3.4-17.8,14-33.7,28.2-44.8C46.8,10,62.7,4.6,78.6,4.4z"/>
	<g id="XMLID_328_">
		<path id="XMLID_329_" class="st0" d="M364.5,8c0,18.5,0,37,0.1,55.4c-6.3-9.2-15.3-16.8-26.1-20.3c-11.3-3.6-23.8-3.6-35,0.3
			c-11.9,4.2-21.4,13.3-27.9,23.9c-7.2,11.7-9.6,26-7.8,39.6c1.4,11.5,6.6,22.5,14.4,31.1c6.4,7.3,14.7,13.1,24.1,15.7
			c4,1.2,8.1,1.7,12.2,2.1h4.3c9.3-0.2,18.7-2.7,26.5-7.9c6-3.9,11-9.2,15.2-15v19.4h18.2V8H364.5z M362.8,109.6
			c-2.6,8.8-8.7,16.4-16.2,21.6c-8.8,6-20.1,7.6-30.5,5.5c-15.4-3.1-28.1-16.6-30.5-32.2c-1.3-9,0-18.5,4.9-26.3
			c6.1-10.1,16.6-17.7,28.4-19.2v0c9.3-1.3,19.3,0.5,27.2,5.8c7.9,5.4,14.4,13.4,17,22.8C365,94.8,364.9,102.5,362.8,109.6z"/>
	</g>
	<g id="XMLID_324_">
		<path id="XMLID_325_" class="st0" d="M504.2,72.7c-8.3-16.3-24.4-28.8-42.6-31.4c-13-1.9-26.7,0-38,6.6
			c-9.2,5.4-17,13.1-22.1,22.5c-6.4,11.2-8.2,24.6-6.3,37.2c1.4,9.3,5.3,18.3,11.2,25.6c6.5,8,14.7,14.7,24.3,18.6
			c6.3,2.5,13,3.8,19.7,4h3.3c17.3-0.4,34.1-9,44.5-22.8c-4.9-3.3-10-6.5-15.1-9.8c-5.3,6.4-12.5,11.3-20.7,13.3
			c-9.5,2.3-19.9,1.3-28.5-3.4c-10-5.3-17.9-14.9-20.1-26.1h95.5C511.1,95.5,509.4,83.2,504.2,72.7z M413.6,88.8L413.6,88.8
			c3.5-17.5,20.8-30.3,38.2-30.1c17.7-0.4,35.1,12.6,38.8,30.1H413.6z"/>
	</g>
	<path id="XMLID_323_" class="st0" d="M152.2,68.4c7.4-11.7,18.6-21.1,31.8-25.3v19.5c-6.9,3.5-12.6,9-16.6,15.5
		c-4.8,7.6-6.2,16.9-5,25.7c2.1,15.6,14.5,29.3,29.8,32.6c10.6,2.4,22.3,0.9,31.3-5.3c8.1-5.6,14.6-14.1,16.8-23.8
		c2-8.8,1.2-18.3-2.9-26.4c-3.8-7.5-9.9-13.8-17.2-17.9c-0.1-6.6,0-13.2,0-19.8c13.3,4.5,24.7,14.1,31.9,26.2
		c7.1,12,8.9,26.7,6.3,40.3c-4.9,25.5-29.3,45.7-55.3,45.9h-3.3c-12.9-0.2-25.6-5.2-35.3-13.7c-9.3-8-16.5-18.8-19.1-30.9
		C142.4,96.7,144.3,81,152.2,68.4L152.2,68.4z"/>
	<g id="XMLID_319_">
		<path id="XMLID_320_" class="st2" d="M617.2,106.3c-4.2-6.3-8.1-13-13.8-18.2c10.4-4.3,19.8-11.9,24.8-22.1
			c4.2-8.4,5-18.2,2.9-27.3c-2.3-9.9-8.7-18.5-17-24.2c-8.3-5.9-18.3-8.9-28.4-9h-64.4v149h22.3V91.3h21c6.8,0.2,13.8,1.8,19,6.3
			c3,2.5,4.9,6,7.1,9.2c10.3,15.9,20.6,31.8,30.9,47.7c8.9,0.1,17.9,0,26.9,0C638.1,138.5,627.7,122.4,617.2,106.3z M583.4,68.9
			h-39.7V28c13.9-0.1,27.7,0,41.6,0c7.5,0,15.1,3,20.1,8.7c5.9,6.5,5.7,17.4-0.2,23.8C599.7,66.4,591.4,69.2,583.4,68.9z"/>
	</g>
	<polygon id="XMLID_318_" class="st2" points="657.7,5.6 763.1,5.6 763.1,28 680,28 680,68.9 745.1,68.9 745.1,91.2 680,91.2 
		680,132.2 763.1,132.2 763.1,154.5 657.7,154.5 	"/>
	<g id="XMLID_314_">
		<path id="XMLID_315_" class="st2" d="M904.5,73.7c-0.8-10.8-3.9-21.4-9.3-30.7c-4.9-8.6-11.8-15.9-19.5-22.1
			c-10-8-22.1-13.1-34.7-14.7c-6-0.8-12.1-0.7-18.1-0.7h-48.7v148.9c19.4,0,38.9,0.1,58.4,0c16-0.2,31.8-6,44-16.3
			c9.1-7.6,16.8-17,21.8-27.8C903.6,99,905.4,86.2,904.5,73.7z M875.5,106.4c-7.4,12.3-19.7,21.9-33.8,24.7
			c-6.6,1.4-13.3,1.1-20,1.1h-25.2V28c8.4-0.1,16.8,0,25.2,0c6.6,0.1,13.4-0.4,19.9,1.1c10.5,2.1,20,7.9,27.1,15.7
			c6.6,7,11.3,15.9,12.9,25.4C883.7,82.4,881.9,95.6,875.5,106.4z"/>
	</g>
	<rect id="XMLID_313_" x="193.1" y="27.9" class="st2" width="18.1" height="70.6"/>
</g>
</svg>
