<?xml version="1.0" encoding="utf-8"?>
<!-- Generator: Adobe Illustrator 19.0.0, SVG Export Plug-In . SVG Version: 6.00 Build 0)  -->
<svg version="1.1" id="Layer_1" xmlns="http://www.w3.org/2000/svg" xmlns:xlink="http://www.w3.org/1999/xlink" x="0px" y="0px"
	 viewBox="0 -20 1920 452.5" style="enable-background:new 0 -20 1920 452.5;" xml:space="preserve">
<style type="text/css">
	.st0{opacity:0.77;fill:url(#XMLID_2_);enable-background:new    ;}
	.st1{opacity:0.77;fill:#FABFBE;enable-background:new    ;}
	.st2{fill:#F9B49B;}
	.st3{fill:url(#XMLID_3_);}
	.st4{fill:#FABFBE;}
	.st5{fill:url(#XMLID_4_);}
	.st6{fill:#F8A274;}
	.st7{fill:#F8A58C;}
	.st8{fill:url(#XMLID_5_);}
	.st9{fill:url(#XMLID_6_);}
	.st10{fill:#F7996D;}
	.st11{fill:#F5845A;}
	.st12{fill:#F58759;}
	.st13{fill:#FBBD9D;}
	.st14{fill:#F47959;}
	.st15{fill:#F9AA7F;}
	.st16{fill:#F26558;}
	.st17{fill:#F8A57E;}
	.st18{fill:#F37159;}
	.st19{fill:#F79972;}
	.st20{fill:#F9A67C;}
	.st21{fill:#F37759;}
	.st22{fill:#F5855B;}
</style>
<g id="XMLID_9_">
	<g id="XMLID_10_">
		
			<linearGradient id="XMLID_2_" gradientUnits="userSpaceOnUse" x1="179.7776" y1="384.0402" x2="180.9961" y2="338.3459" gradientTransform="matrix(1 0 0 -1 0 480)">
			<stop  offset="0" style="stop-color:#F9E5F0;stop-opacity:0"/>
			<stop  offset="0.9104" style="stop-color:#F9E5F0;stop-opacity:0.9104"/>
			<stop  offset="1" style="stop-color:#F9E5F0"/>
		</linearGradient>
		<path id="XMLID_11_" class="st0" d="M-61,128.7c0,0,31.8-10,34.8-11.8S-11,99.7-11,99.7s53-1.2,60.6,0c0,0,7.6,18.3,13.6,20.1
			c6.1,1.8,69.7,2.9,69.7,2.9s131.8,0,142.4-1.2c10.6-1.2,48.5-7.6,48.5-7.6s6.1-26.6,10.6-28.3c0,0,21.2,2.4,27.3,5.3
			c0,0,7.6,20.6,12.1,24.2s48.5,13.5,48.5,13.5H-61z"/>
		<path id="XMLID_12_" class="st1" d="M-61,128.7c0,0,31.8-10,34.8-11.8S-11,99.7-11,99.7s53-1.2,60.6,0c0,0,7.6,18.3,13.6,20.1
			c6.1,1.8,69.7,2.9,69.7,2.9s131.8,0,142.4-1.2c10.6-1.2,48.5-7.6,48.5-7.6s6.1-26.6,10.6-28.3c0,0,21.2,2.4,27.3,5.3
			c0,0,7.6,20.6,12.1,24.2s48.5,13.5,48.5,13.5H-61z"/>
	</g>
	<g id="XMLID_13_">
		<path id="XMLID_14_" class="st2" d="M-1.5,131.3c0,0,79.9-29.7,87.4-38.3c0,0-9.1-0.9-12.1-3.8c0,0,16.7-28.3,22.7-46.6
			c6.1-18.3,3-43.6,9.1-46.6s22.7-5.3,25.8,0s4.5,38.2,9.1,53.9c4.5,15.7,13.6,34.6,12.1,36.9c-1.5,2.4-16.7,6.2-16.7,6.2
			s22.7,4.4,28.8,3.8s13.6-7.7,13.6-7.7s-9.1-2.4-9.1-4.2s7.6-47.2,9.1-54.3s30.3-3.5,31.8-1.2s4.5,48.4,7.6,50.2
			c3,1.8,16.7,4.7,15.2,7.1s-9.1,7.7-7.6,9.5s43.9,21.7,45.5,25.8S-1.5,131.3-1.5,131.3z"/>
		
			<linearGradient id="XMLID_3_" gradientUnits="userSpaceOnUse" x1="137.7931" y1="455.3363" x2="132.9941" y2="299.3694" gradientTransform="matrix(1 0 0 -1 0 480)">
			<stop  offset="0" style="stop-color:#F9E5F0;stop-opacity:0"/>
			<stop  offset="0.9104" style="stop-color:#F9E5F0;stop-opacity:0.9104"/>
			<stop  offset="1" style="stop-color:#F9E5F0"/>
		</linearGradient>
		<path id="XMLID_15_" class="st3" d="M-1.5,131.3c0,0,79.9-29.7,87.4-38.3c0,0-9.1-0.9-12.1-3.8c0,0,16.7-28.3,22.7-46.6
			c6.1-18.3,3-43.6,9.1-46.6s22.7-5.3,25.8,0s4.5,38.2,9.1,53.9c4.5,15.7,13.6,34.6,12.1,36.9c-1.5,2.4-16.7,6.2-16.7,6.2
			s22.7,4.4,28.8,3.8s13.6-7.7,13.6-7.7s-9.1-2.4-9.1-4.2s7.6-47.2,9.1-54.3s30.3-3.5,31.8-1.2s4.5,48.4,7.6,50.2
			c3,1.8,16.7,4.7,15.2,7.1s-9.1,7.7-7.6,9.5s43.9,21.7,45.5,25.8S-1.5,131.3-1.5,131.3z"/>
	</g>
	<g id="XMLID_16_">
		<path id="XMLID_17_" class="st4" d="M511.7,123.8c0,0,83.3-5.3,101.5-11.2s39.4-16.6,48.5-18.3c0,0,163.6-3.5,209.1-5.3
			c45.5-1.8,62,27.2,57.5,27.7C923.8,117.3,511.7,123.8,511.7,123.8z"/>
		
			<linearGradient id="XMLID_4_" gradientUnits="userSpaceOnUse" x1="707.4584" y1="427.9046" x2="727.4348" y2="323.4128" gradientTransform="matrix(1 0 0 -1 0 480)">
			<stop  offset="0" style="stop-color:#F9E5F0;stop-opacity:0"/>
			<stop  offset="0.9104" style="stop-color:#F9E5F0;stop-opacity:0.9104"/>
			<stop  offset="1" style="stop-color:#F9E5F0"/>
		</linearGradient>
		<path id="XMLID_18_" class="st5" d="M511.7,123.8c0,0,83.3-5.3,101.5-11.2s39.4-16.6,48.5-18.3c0,0,163.6-3.5,209.1-5.3
			c45.5-1.8,62,27.2,57.5,27.7C923.8,117.3,511.7,123.8,511.7,123.8z"/>
	</g>
	<g id="XMLID_19_">
		<path id="XMLID_20_" class="st6" d="M1008.4,78.3c-2.6-3.5-6.5-62-9.1-64c-2.6-2-34.9-1.5-34.9-1.5L953,15.4l-11.8-6
			c-8.9,0.5-101-1.5-104.9,0s-6.5,78.6-13,83s-49.1,24.8-49.1,24.8s310.4,0.5,320.8,0C1062.6,111,1011,81.9,1008.4,78.3z"/>
		<path id="XMLID_21_" class="st2" d="M1008.4,78.3c-2.6-3.5-6.5-62-9.1-64c-2.6-2-34.9-1.5-34.9-1.5L953,15.4l-11.8-6
			c-8.9,0.5-101-1.5-104.9,0s-6.5,78.6-13,83s-49.1,24.8-49.1,24.8s310.4,0.5,320.8,0C1062.6,111,1011,81.9,1008.4,78.3z"/>
		<g id="XMLID_22_">
			<polygon id="XMLID_23_" class="st7" points="941.2,9.3 957.4,89.6 964.4,12.8 953,15.4 			"/>
			<polygon id="XMLID_24_" class="st7" points="969.1,12.8 966.7,68.8 976.5,12.8 			"/>
			<path id="XMLID_25_" class="st7" d="M847.3,111.7l25.2-18.6l2.4-32.7c0,0,2.2,33.5,2.8,34.8c0.6,1.3-24.1,18.1-24.1,18.1
				L847.3,111.7z"/>
		</g>
		
			<linearGradient id="XMLID_5_" gradientUnits="userSpaceOnUse" x1="873.4713" y1="495.0025" x2="997.0275" y2="227.8539" gradientTransform="matrix(1 0 0 -1 0 480)">
			<stop  offset="0" style="stop-color:#F9E5F0;stop-opacity:0"/>
			<stop  offset="0.9104" style="stop-color:#F9E5F0;stop-opacity:0.9104"/>
			<stop  offset="1" style="stop-color:#F9E5F0"/>
		</linearGradient>
		<path id="XMLID_26_" class="st8" d="M1008.4,78.3c-2.6-3.5-6.5-62-9.1-64c-2.6-2-34.9-1.5-34.9-1.5L953,15.4l-11.8-6
			c-8.9,0.5-101-1.5-104.9,0s-6.5,78.6-13,83s-49.1,24.8-49.1,24.8s310.4,0.5,320.8,0C1062.6,111,1011,81.9,1008.4,78.3z"/>
	</g>
</g>
<g id="XMLID_27_">
	<g id="XMLID_28_">
		
			<linearGradient id="XMLID_6_" gradientUnits="userSpaceOnUse" x1="958.2913" y1="366.1022" x2="961.93" y2="72.275" gradientTransform="matrix(1 0 0 -1 0 480)">
			<stop  offset="0" style="stop-color:#F9AA7F"/>
			<stop  offset="1" style="stop-color:#F58759"/>
		</linearGradient>
		<path id="XMLID_29_" class="st9" d="M1922.3,444.6H-1.5V123.8c0,0,204-3.5,429.2-6.5c27.8-0.4,23.9,3.2,52.1,2.8
			c9.6-0.1,28.3,0.6,45-0.4c20.2-1.2,38.7-4.2,50.1-4.2c145.6-1.6,283.6-2.7,365.1-2c408.5,3.1,982.5,10.3,982.3,10.3V444.6z"/>
	</g>
	<g id="XMLID_30_">
		<g id="XMLID_42_">
			<g id="XMLID_43_">
				<path id="XMLID_44_" class="st10" d="M111.2,112.5c0,0,121.1-0.4,134.6,0.7c0,0,26.7,8.2,31.2,9.1c0,0,6.8-13.3,10.2-14.6
					c3.4-1.3,101.3-0.2,112.4,0c0,0,52.3,42.7,60.2,48.9c8,6.2,44.3,11.1,56.8,12.8c12.5,1.8,43.2-3.5,52.3,0s21.6,4.9,21.6,4.9
					l19.3,2.2c0,0-29.5,6.6-40.9,7.5s-63.6,0.4-77.3,0c-13.6-0.4-78.4,13-97.7,16.5C374.6,204,286,204,270,204
					c-15.9,0-301.7-3.5-306.8-5.8C47.4,172.7,111.5,112.2,111.2,112.5z"/>
				<g id="XMLID_52_">
					<g id="XMLID_230_">
						<g id="XMLID_296_">
							<g id="XMLID_297_">
								<path id="XMLID_298_" class="st11" d="M19.3,200.4c0,0,34.1,0,85.3,0.1c12.8,0,26.7,0.1,41.3,0.1c14.7,0,30.1,0.1,46.1,0.1
									s32.5,0.1,49.3,0.2c16.8,0,33.8,0.1,50.9,0.1c8.5,0,17.1,0,25.5,0c8.5,0,17,0,25.3-0.1c8.4,0,16.7-0.1,24.9-0.2
									c4.1,0,8.2-0.1,12.2-0.2c2,0,4-0.1,6-0.1c0.5,0,1,0,1.5-0.1l1.4-0.2c1-0.2,1.9-0.4,2.9-0.4c15.7-2.8,30.8-5.5,45.2-8.1
									c14.4-2.6,28-4.9,40.7-6.6c3.2-0.4,6.3-0.9,9.4-1.2c1.5-0.2,3.1-0.2,4.6-0.2s3,0,4.4,0c5.8,0.1,11.4,0.1,16.6,0.1
									c10.4,0.1,19.5,0.2,26.9,0.3c14.9,0.2,23.5,0.3,23.5,0.3s-8.5,0.1-23.5,0.3c-7.5,0.1-16.5,0.2-26.9,0.3
									c-5.2,0-10.7,0.1-16.6,0.1c-1.5,0-2.9,0-4.4,0c-1.5,0.1-2.9,0.1-4.4,0.3c-3,0.3-6.1,0.8-9.2,1.2
									c-12.6,1.9-26.1,4.4-40.5,7.1c-14.3,2.7-29.4,5.6-45.1,8.4c-1,0.2-2,0.4-3,0.5l-1.6,0.2c-0.5,0.1-1,0-1.5,0.1
									c-2,0.1-4.1,0.1-6.1,0.2c-4.1,0.1-8.2,0.2-12.3,0.3c-8.2,0.1-16.6,0.3-25,0.3c-8.4,0.1-16.9,0.1-25.4,0.1s-17,0-25.6,0
									c-17.1-0.1-34.1-0.1-50.9-0.2s-33.3-0.3-49.3-0.4c-16-0.2-31.5-0.4-46.1-0.4c-14.7-0.2-28.5-0.4-41.3-0.5
									C53.4,201.2,19.3,200.4,19.3,200.4z"/>
							</g>
						</g>
					</g>
				</g>
				<path id="XMLID_53_" class="st11" d="M287.3,107.7L277,122.3c0,0,28.3,42,35.1,48.2l49.5,22.6c0,0-34.7-24.4-38.1-26.2
					C320.1,165.3,287.3,107.7,287.3,107.7z"/>
				<path id="XMLID_54_" class="st11" d="M245.8,113.2c0,0,16.3,58.8,19.7,64.5v12.4c0,0,28.4-18.1,30.7-19.5S277,122.3,277,122.3
					L245.8,113.2z"/>
				<path id="XMLID_55_" class="st11" d="M111.2,112.5c0,0-19.6,40.9-20.7,52.8s30.2,36.9,30.2,36.9l-157.5-3.8
					C-36.7,198.3,83.1,136.2,111.2,112.5z"/>
				<path id="XMLID_56_" class="st11" d="M231.4,112.7c0,0,12.9,49.4,14.4,57.8c0,0-9.9-1.4-14.4-3.6c-4.5-2.1-21.6-54.4-21.6-54.4
					L231.4,112.7z"/>
				<g id="XMLID_64_">
					<g id="XMLID_216_">
						<g id="XMLID_227_">
							<g id="XMLID_228_">
								<path id="XMLID_229_" class="st11" d="M-30.7,207c0,0,7.4,0,20.3,0s31.4,0.1,53.5,0.2c11.1,0.1,23.1,0.1,35.8,0.2
									s26.1,0.2,39.9,0.3s28.1,0.2,42.7,0.4c14.5,0.1,29.3,0.3,44.1,0.4s29.5,0.3,44.1,0.4c14.5,0.1,28.8,0.3,42.7,0.4
									c13.8,0.1,27.2,0.2,39.9,0.4c12.7,0.1,24.7,0.2,35.8,0.1c5.5,0,10.8,0,15.9-0.2h0.5h0.1h0.2l0.9-0.2
									c0.6-0.1,1.2-0.3,1.8-0.4c1.2-0.2,2.4-0.4,3.6-0.6c2.3-0.4,4.6-0.8,6.8-1.2c8.8-1.6,16.5-3,22.8-4.1
									c12.7-2.2,19.9-3.5,19.9-3.5s-7.2,1.5-19.8,4.1c-6.3,1.2-13.9,2.8-22.7,4.6c-2.2,0.4-4.5,0.9-6.8,1.3
									c-1.2,0.3-2.3,0.4-3.5,0.7c-0.6,0.1-1.2,0.3-1.8,0.4l-1,0.2l-0.2,0.1c-0.1,0-0.2,0-0.3,0H384c-5.1,0.2-10.4,0.4-15.9,0.4
									c-11.1,0.2-23.1,0.3-35.8,0.4c-12.7,0.1-26.1,0.1-39.9,0c-13.8-0.1-28.2-0.1-42.7-0.2c-14.5-0.1-29.3-0.2-44.1-0.4
									c-14.8-0.2-29.5-0.3-44.1-0.4c-14.5-0.2-28.8-0.4-42.7-0.5c-13.8-0.2-27.2-0.4-39.9-0.6c-12.7-0.3-24.7-0.4-35.8-0.6
									c-22.1-0.4-40.6-0.8-53.5-1.2C-23.3,207.2-30.7,207-30.7,207z"/>
							</g>
						</g>
					</g>
				</g>
			</g>
			<g id="XMLID_65_">
				<g id="XMLID_73_">
					<g id="XMLID_202_">
						<g id="XMLID_213_">
							<g id="XMLID_214_">
								<path id="XMLID_215_" class="st12" d="M-50.4,255.2c0,0,26.5-3.6,66.4-8.7c3.4-0.4,6.9-0.9,11-1.4
									c6.3,1.9,13.3,4.2,20.6,6.5c9.6,3,19.6,6.2,30.1,9.5c1.1-0.1,2.4-0.3,3.7-0.4c12.5-1.3,25.4-2.7,38.5-4.2l8.2-0.9l31.8,3.9
									c13.3,1.6,26.6,3.3,39.7,4.9c13.1,1.6,26,3.2,38.4,4.7c12.5,1.5,24.5,2.9,35.9,4.3c11.4,1.3,22.2,2.7,32.2,3.7
									c5,0.5,9.8,1.1,14.3,1.2c4.6,0.1,8.9,0.1,13,0.1c4.1,0.1,7.9,0.1,11.5,0.1c1.8,0,3.5,0,5.1,0.1c0.8,0,1.6,0,2.4,0
									c0.4,0,0.8,0,1.1,0c0.2,0,0.4,0,0.6,0l0.5,0.1c11.5,2.1,18.1,3.4,18.1,3.4s-6.6-1.1-18.2-2.8l-0.5-0.1c-0.1,0-0.3,0-0.5,0
									c-0.4,0-0.8,0-1.1,0c-0.8,0-1.6,0-2.4,0c-1.6,0-3.3,0-5.1,0.1c-3.5,0-7.4,0.1-11.5,0.1s-8.4,0.1-13,0.1
									c-1.1,0-2.3,0-3.5-0.1c-1.2-0.1-2.4-0.1-3.6-0.3c-2.4-0.2-4.9-0.4-7.4-0.6c-10-0.9-20.9-2-32.3-3.3c-11.5-1.2-23.5-2.6-36-4
									c-12.5-1.4-25.4-2.9-38.5-4.5s-26.4-3.2-39.7-4.8l-31.5-3.9l-7.9,0.8c-13.1,1.3-26,2.7-38.6,3.9c-1.5,0.2-3,0.3-4.3,0.4
									c-10.7-3.5-20.8-6.8-30.6-10c-7.1-2.4-14-4.6-20.1-6.6c-3.9,0.4-7.3,0.8-10.5,1.2C-23.7,252.4-50.4,255.2-50.4,255.2z"/>
							</g>
						</g>
					</g>
				</g>
				<g id="XMLID_80_">
					<path id="XMLID_81_" class="st10" d="M474.6,229.5c0,0,61.9-8,71.9-10.6c9.9-2.7,21.3-16.6,25.9-18.4
						c4.5-1.9,69.3-2.8,77.3-2.4c0,0,25,15,34.1,18.1c9.1,3.1,36.7,4,36.7,4s-68.5,4.4-76.5,6.2c-8,1.8-50,6.2-61.4,6.2
						s-36.1-5.8-36.1-5.8L474.6,229.5z"/>
					<polygon id="XMLID_82_" class="st13" points="580.7,207.4 643.5,204.9 649.6,198.1 638.5,196.1 577.6,196.1 570.4,201.6 					
						"/>
					<path id="XMLID_83_" class="st12" d="M565.1,227.5l11-4.6l4-15.9l13.6-0.2c0,0-5.8,16-6.5,16.7
						C586.4,224.3,565.1,227.5,565.1,227.5z"/>
					<path id="XMLID_84_" class="st12" d="M570.4,201.6c0,0-16.9,13.9-21.1,16.2c0,0-52.3,9.3-74.6,11.6c0,0,81.8-9,83.7-9.6
						c1.9-0.6,16.6-15.8,16.6-15.8L570.4,201.6z"/>
					<path id="XMLID_85_" class="st12" d="M649.6,198.1l34.1,18.1l43.4,5c0,0-43.4-2.7-48.7-3.3
						C673.1,217.4,649.6,198.1,649.6,198.1z"/>
					<g id="XMLID_93_">
						<g id="XMLID_192_">
							<g id="XMLID_196_">
								<g id="XMLID_197_">
									<path id="XMLID_200_" class="st12" d="M611.2,233.9c0,0,1-0.5,2.9-1.3c1.9-0.8,4.6-1.9,8-3.2c1.7-0.6,3.5-1.2,5.5-1.9
										c2-0.6,4-1.2,6.3-1.7c2.2-0.4,4.7-0.8,7.1-0.8c2.5,0,5,0.3,7.4,0.7s4.8,1.2,7,2c1.1,0.4,2.2,0.9,3.2,1.4
										c0.5,0.3,1,0.5,1.5,0.7l0.8,0.4l0.1,0.1l0,0l0,0l0.2-0.1c0.3-0.1,0.6-0.2,0.8-0.3c0.6-0.2,1.1-0.4,1.7-0.4
										c1.1-0.3,2.2-0.4,3.2-0.5c2.1-0.3,4.1-0.3,6-0.3c3.7,0.1,6.7,0.7,8.7,1.3c0.5,0.2,0.9,0.4,1.3,0.4c0.4,0.2,0.7,0.3,0.9,0.4
										c0.5,0.3,0.8,0.4,0.8,0.4s-0.3-0.1-0.8-0.3c-0.3-0.1-0.6-0.2-1-0.3c-0.4-0.1-0.8-0.2-1.4-0.3c-2-0.4-5-0.5-8.5-0.4
										c-1.8,0.1-3.6,0.3-5.6,0.6c-1,0.2-2,0.4-2.9,0.7c-0.5,0.2-1,0.3-1.4,0.4c-0.2,0.1-0.5,0.2-0.7,0.3
										c-0.4,0.2-0.8,0.4-1.3,0.5c-0.1,0.1-0.2,0-0.4,0l-0.4-0.2l-0.7-0.4l-0.7-0.4c-0.5-0.3-1-0.4-1.5-0.6
										c-1-0.4-2.1-0.9-3.1-1.2c-2.1-0.8-4.3-1.4-6.5-1.9c-2.2-0.4-4.5-0.7-6.8-0.7s-4.5,0.2-6.6,0.5s-4.2,0.8-6.2,1.3
										c-2,0.5-3.8,1-5.6,1.4c-3.4,0.9-6.3,1.7-8.3,2.3C612.3,233.6,611.2,233.9,611.2,233.9z"/>
								</g>
							</g>
						</g>
					</g>
				</g>
				<g id="XMLID_97_">
					<path id="XMLID_98_" class="st12" d="M934.6,220c0,0,19.1-5,28.9-9.1l-6.9,5.6L934.6,220z"/>
					<polygon id="XMLID_99_" class="st12" points="1044,209.7 1049.6,214 1037.5,210.9 					"/>
					<path id="XMLID_100_" class="st12" d="M989.2,213.2c0,0-1.1,3.6-3,5.2c-1.8,1.6-6.2,4.4-6.2,4.4l12.3-2.8l5.5-8.1H989
						L989.2,213.2z"/>
					<path id="XMLID_101_" class="st13" d="M1044,209.7c0,0-23.4-4.6-28.9-5.6c-5.5-0.9-48.5,5-51.6,6.7s54.1,3.7,64.6,2.5
						C1038.5,212,1044,209.7,1044,209.7z"/>
				</g>
			</g>
			<g id="XMLID_102_">
				<path id="XMLID_103_" class="st14" d="M-123,291.4c0,0,122.2,2.1,129.1,0c0,0,12.5-8.3,19.3-9.2s22.7,0,22.7,0
					S72,239.7,77.6,237c0,0,90.7,0,101.1,0l12.5,3.5c0,0,11.4-3.1,15.9-0.9c4.5,2.2,13.6,50.5,17,52.7c3.4,2.2,54.5,10.6,58,13.7
					c3.4,3.1,22.7,23.9,22.7,23.9s135.2,31.4,148.9,33.6c13.6,2.2,30.7,27,30.7,27S358.3,404.3,339,404.7
					c-19.3,0.4-158,6.7-181.8,9.7c-23.9,3-276.1,18.1-276.1,18.1L-123,291.4z"/>
				<path id="XMLID_104_" class="st12" d="M253,392.3c-6.1-0.4-3.4-8.2,4.5-10.3c8-2.1,64.8-2.2,75-0.8c10.2,1.4,21.6,8.1,21.6,8.1
					C353,389.3,270.4,393.2,253,392.3z"/>
				<path id="XMLID_105_" class="st15" d="M324,338c0,0,14.8-14.3,23.1-14.7c8.3-0.4,24.9,8.2,25.8,10.4
					C373.9,335.8,332.4,338,324,338z"/>
				<path id="XMLID_106_" class="st15" d="M323.6,286.7c-3.9-2.9-7.4-5.1-13.7-5.3c-6.3-0.2-18.4,1.1-18.4,1.1s-10.8,5.4-11.2,7.1
					c-0.4,1.7,21.7,1.2,27.5,1.3C313.6,291,323.6,286.7,323.6,286.7z"/>
				<path id="XMLID_107_" class="st15" d="M358.2,343.1c0,0,26.6-7.5,40.9-8.2c14.3-0.7,26.4,4.2,26.4,4.2S375.7,345.6,358.2,343.1z
					"/>
				<path id="XMLID_108_" class="st13" d="M224.2,292.3c0,0,6.1,22.6,12.9,24.5h25l20-10.8C282.2,306,239.7,295.5,224.2,292.3z"/>
				<polygon id="XMLID_109_" class="st16" points="178.8,237 189.4,309.8 199.6,299.1 199.6,239 191.3,240.5 				"/>
				<path id="XMLID_110_" class="st16" d="M48.1,282.1l24.3,41.6l116.8,32.5c0,0-118-26.8-125.9-27.6c-8-0.9-57.2-37.2-57.2-37.2
					l13.2-9.2L48.1,282.1L48.1,282.1z"/>
				<polygon id="XMLID_111_" class="st16" points="72.4,323.7 106.5,242.9 97.6,330.7 				"/>
				<polygon id="XMLID_112_" class="st16" points="112.1,334.8 112.1,279 120.7,337.2 				"/>
				<polygon id="XMLID_113_" class="st13" points="304.9,329.9 311,344 296.4,360.6 460.2,366 				"/>
				<polygon id="XMLID_114_" class="st16" points="296.4,360.6 262.1,316.8 253.2,316.8 286.6,366 				"/>
				<path id="XMLID_115_" class="st13" d="M77.6,237l28.8,5.9c0,0,46.6,0.2,51.7,0s20.6-5.9,20.6-5.9l-8.7-1.2H92.3L77.6,237z"/>
				<polygon id="XMLID_116_" class="st13" points="207.2,239.7 204.9,237 196.8,235.9 191.3,240.5 199.6,242.9 				"/>
				<path id="XMLID_117_" class="st17" d="M150.2,239.4"/>
				<g id="XMLID_125_">
					<g id="XMLID_164_">
						<g id="XMLID_186_">
							<g id="XMLID_187_">
								<path id="XMLID_188_" class="st18" d="M484.4,390.5c0,0-30.8,3.4-77.1,8c-11.6,1.2-24.1,2.4-37.4,3.7
									c-6.6,0.6-13.4,1.3-20.4,2c-3.5,0.4-7,0.7-10.6,1.1c-1.8,0.2-3.6,0.4-5.4,0.5l-1.3,0.1l-1.4,0.1c-0.9,0-1.8,0.1-2.7,0.1
									c-14.5,0.7-29.6,1.4-44.8,2.1c-7.6,0.4-15.3,0.7-23,1.1c-3.9,0.2-7.7,0.4-11.6,0.5l-2.9,0.2l-2.9,0.2l-5.8,0.4
									c-15.5,1.1-31,2.2-46.2,3.3c-15.2,1.1-30.2,2-44.7,3.1c-14.5,1-28.5,1.9-41.8,2.8c-13.3,0.9-25.9,1.7-37.5,2.4
									c-23.2,1.4-42.6,2.7-56.1,3.5c-13.6,0.8-21.3,1.2-21.3,1.2s7.7-0.6,21.3-1.8c13.5-1.1,32.9-2.7,56.1-4.4
									c11.6-0.9,24.2-1.9,37.5-2.8s27.3-2,41.8-3.1c14.5-1.1,29.5-2.1,44.7-3.3c15.2-1.1,30.7-2.2,46.2-3.3l5.8-0.4l2.9-0.2
									l2.9-0.1c3.9-0.2,7.7-0.4,11.6-0.5c7.7-0.4,15.4-0.7,23-1.1c15.3-0.6,30.3-1.3,44.8-1.9c0.9,0,1.8-0.1,2.7-0.1l1.4-0.1
									l1.3-0.1c1.8-0.2,3.6-0.4,5.4-0.5c3.6-0.4,7.1-0.6,10.6-1c7-0.6,13.8-1.2,20.4-1.9c13.3-1.2,25.8-2.3,37.4-3.3
									C453.5,393.1,484.4,390.5,484.4,390.5z"/>
							</g>
						</g>
					</g>
				</g>
			</g>
			<path id="XMLID_126_" class="st12" d="M332.8,226.6c-4.1-0.8,14.5-8.9,19.1-9.6c4.5-0.7,24,0,24,0s15.9,8.5,15,9.6
				C390,227.6,338.3,227.6,332.8,226.6z"/>
			<g id="XMLID_134_">
				<g id="XMLID_147_">
					<g id="XMLID_159_">
						<g id="XMLID_160_">
							<path id="XMLID_161_" class="st12" d="M391.8,262.2c0,0,0.5-0.2,1.5-0.5c0.5-0.2,1.1-0.4,1.8-0.5c0.7-0.2,1.5-0.4,2.5-0.7
								c3.7-1,9.1-2.1,15.6-3.3c3.2-0.5,6.8-1.2,10.5-1.7c0.9-0.2,1.9-0.3,2.8-0.4l0.7-0.1l0.5-0.1c0.1,0,0.2,0,0.3,0h0.2
								c0.5,0,1,0.1,1.5,0.1c2,0.2,4,0.3,6.1,0.4c4.1,0.4,8.4,0.8,12.7,1.2c4.3,0.5,8.7,1.1,13.1,1.8c1.1,0.2,2.2,0.4,3.3,0.6
								l2.7-0.4c2.2-0.3,4.3-0.6,6.4-0.9c2.1-0.3,4.3-0.6,6.4-0.9c0.6-0.1,1.1-0.2,1.7-0.3c0.1,0,0.3-0.1,0.4,0l0.4,0.1l0.4,0.1
								l0.8,0.2c1,0.3,2,0.4,3,0.7c4,1,7.9,1.9,11.5,3.2c0.7,0.3,0.4,0.2,0.7,0.2c0.5-0.1,0.9-0.1,1.4-0.2c0.9-0.1,1.8-0.2,2.7-0.3
								c1.8-0.2,3.5-0.3,5.2-0.4c6.7-0.3,12.2,0.1,16,0.4c1.9,0.2,3.4,0.4,4.4,0.6s1.6,0.3,1.6,0.3s-0.5,0-1.6-0.1
								c-1-0.1-2.5-0.2-4.5-0.2c-3.8-0.1-9.3-0.1-15.8,0.5c-1.6,0.2-3.3,0.4-5.1,0.6c-0.9,0.1-1.8,0.3-2.6,0.4
								c-0.4,0.1-0.9,0.2-1.3,0.3l-0.5,0.1l-0.3,0.1c-0.1,0-0.2-0.1-0.3-0.1l-0.8-0.3c-3.4-1.1-7.3-1.9-11.3-2.7c-1-0.2-2-0.4-3-0.6
								l-0.8-0.2l-0.3-0.1l0,0l-1.5,0.3c-2.1,0.4-4.2,0.6-6.4,1c-2.1,0.4-4.3,0.6-6.5,1l-1.6,0.3l-0.8,0.1l-0.5,0.1
								c-0.3,0.1-0.5,0-0.8-0.1c-1.1-0.2-2.1-0.4-3.2-0.6c-4.3-0.7-8.6-1.3-12.9-1.9s-8.5-1.1-12.6-1.4c-2-0.2-4.1-0.4-6-0.6
								c-0.5-0.1-1-0.1-1.5-0.2h-0.2h-0.3l-0.7,0.1c-1,0.1-1.9,0.2-2.8,0.4c-3.7,0.4-7.3,0.8-10.5,1.2c-6.5,0.8-11.9,1.7-15.7,2.4
								c-0.9,0.2-1.8,0.4-2.5,0.5c-0.7,0.2-1.3,0.3-1.8,0.4C392.3,262.1,391.8,262.2,391.8,262.2z"/>
						</g>
					</g>
				</g>
			</g>
		</g>
		<g id="XMLID_135_">
			<g id="XMLID_143_">
				<path id="XMLID_144_" class="st14" d="M1919.1,286.1c0,0-227.3-10.7-242.4-11.5c-34.1,9.3-111.6,29.3-124.2,31.2
					c-14.6,2.2-106.1,16.2-106.1,16.2s7.6,1.6,22.7,1.8c15.2,0.2,127.3,3.6,131.8,4.9c4.5,1.2-18.2,21.2-13.6,24.8
					c4.5,3.5,107.6,8.9,124.2,12.4s207.6,54.9,207.6,54.9V286.1z"/>
				<g id="XMLID_152_">
					<g id="XMLID_132_">
						<g id="XMLID_139_">
							<g id="XMLID_140_">
								<path id="XMLID_145_" class="st18" d="M1446.4,322c0,0,8.8,0.2,24.2,0.4c15.4,0.4,37.5,0.9,63.9,1.7
									c13.2,0.4,27.5,0.9,42.7,1.6c3.7,0.2,7.4,0.4,11.2,0.6c1.9,0.1,3.8,0.3,5.8,0.4c1,0.1,2,0.2,3,0.3c0.5,0,1,0.1,1.5,0.2
									l1.1,0.2c0.4,0.1,0.9,0.2,1.3,0.3l-0.2,0.9c0,0.1,0,0.2-0.1,0.2c0,0.1,0,0.1,0,0.1c0.1,0.1,0.1,0.1,0.2,0.2l0.2,0.1
									c0.1,0,0.2,0.1,0.3,0.2l0.2,0.1c0.1,0,0,0.1,0,0.1l-0.2,0.3l-0.6,1c-0.5,0.8-0.9,1.5-1.4,2.3c-0.9,1.6-1.9,3.2-2.9,4.8
									c-1.9,3.3-3.8,6.5-5.7,9.9c-0.4,0.8-0.9,1.7-1.3,2.5c-0.2,0.4-0.4,0.8-0.6,1.2l-0.3,0.6l-0.1,0.4c0,0-0.1,0.1,0,0.1l0.6,0.1
									c0.9,0.3,2,0.4,3,0.5c2,0.3,4.1,0.5,6.2,0.8c2.1,0.3,4.2,0.4,6.3,0.6c8.4,0.8,17,1.5,25.7,2.1c17.3,1.4,34.9,2.7,52.4,4.2
									c4.4,0.4,8.8,0.8,13.2,1.3c2.2,0.3,4.4,0.5,6.6,1c0.6,0.1,1.1,0.2,1.7,0.3l1.6,0.4l3.2,0.8c8.5,2.1,16.9,4.2,25.2,6.5
									c16.7,4.3,33,8.7,48.8,12.9c15.8,4.2,31.1,8.4,45.6,12.3c14.5,4,28.2,7.7,40.8,11.2c25.3,6.9,46.3,12.7,61,16.8
									c14.7,4.2,23.1,6.5,23.1,6.5s-8.5-2.2-23.3-5.9c-14.8-3.8-36-9.3-61.4-15.9c-12.7-3.3-26.4-6.9-41-10.7
									c-14.5-3.8-29.9-7.8-45.7-11.9c-15.9-4.2-32.2-8.4-48.9-12.7c-8.3-2.1-16.7-4.3-25.2-6.4l-3.2-0.7l-1.6-0.4
									c-0.5-0.1-1.1-0.2-1.6-0.3c-2.1-0.4-4.3-0.6-6.4-0.9c-4.3-0.5-8.7-1-13.1-1.3c-17.5-1.6-35.1-2.9-52.4-4.2
									c-8.6-0.7-17.2-1.4-25.7-2.3c-2.1-0.2-4.2-0.4-6.3-0.7c-2.1-0.3-4.2-0.4-6.3-0.8c-1.1-0.2-2.1-0.3-3.2-0.5l-1-0.2l-0.7-0.2
									c-0.2-0.1-0.4-0.2-0.6-0.3l-0.3-0.1l-0.1-0.1c0,0,0-0.1,0-0.2v-0.5c0-0.4,0.1-0.8,0.2-1.2c0.1-0.2,0.1-0.4,0.2-0.5l0.1-0.4
									l0.3-0.7c0.2-0.4,0.4-0.9,0.6-1.3c0.4-0.9,0.9-1.7,1.3-2.6c1.9-3.5,3.8-6.8,5.8-10c1-1.6,2-3.2,2.9-4.8
									c0.5-0.8,1-1.6,1.4-2.3l0.2-0.3c0,0,0.1-0.1,0-0.1h-0.1h-0.1l-0.4-0.1c-0.5-0.1-1-0.1-1.5-0.2c-1-0.1-2-0.2-2.9-0.3
									c-1.9-0.2-3.9-0.3-5.8-0.4c-3.8-0.3-7.5-0.4-11.1-0.7c-15.1-0.8-29.4-1.5-42.6-2C1481.7,323.4,1446.4,322,1446.4,322z"/>
							</g>
						</g>
					</g>
				</g>
				<path id="XMLID_153_" class="st16" d="M1601,328.5c0,0,43.9-19.7,57.6-27.6c13.6-7.8,18.2-14.9,18.2-14.9l-103.2,40.4
					L1601,328.5z"/>
				<path id="XMLID_154_" class="st16" d="M1700.1,363.9c1.3-2.7,2.2-60.5,0-63c-2.2-2.5-17.3-5.2-17.3-5.2l-51.3,61.8L1700.1,363.9
					z"/>
				<polygon id="XMLID_155_" class="st16" points="1593.4,354.7 1631.4,329.9 1612.4,354.7 				"/>
				<path id="XMLID_156_" class="st13" d="M1676.7,274.6v11.5c0,0-11.2,4.4,6.1,9.6c17.3,5.2,108.4,21.8,108.4,21.8h153.7l28-38.6
					l-80.7-19.9C1892.2,259,1705.5,273.7,1676.7,274.6z"/>
			</g>
			<g id="XMLID_157_">
				<path id="XMLID_158_" class="st15" d="M860,123.8c0,0,143.7-18.3,156.1-20.6c12.3-2.4,88.5-110.9,95.1-115.1l13.8-3.6
					c0,0,120.1-1.9,127.6,0c0,0,4.9,8.2,7.2,9.1c2.3,0.9,11.4-9.1,11.4-9.1s140.9,4.2,146.6,5.1c5.7,0.9,25,27.4,25,27.4
					s17-14.8,23.9-21.7c6.8-0.9,101.1,1.8,105.7,2.7c4.5,0.9,46.6,81,51.1,84.5s44.3,17.3,48.9,17.7c0,0,17-9.7,19.3-12.8
					s4.5-31.1,8-34.2c3.5-3.1,29.5-4.8,29.5-4.8s4.5,37.2,5.7,40.7c1.1,3.5,26.1,11.1,31.8,12.4s113.6,22.3,113.6,22.3
					S957.9,136.7,860,123.8z"/>
				<g id="XMLID_166_">
					<g id="XMLID_122_">
						<g id="XMLID_128_">
							<g id="XMLID_129_">
								<path id="XMLID_130_" class="st19" d="M1020,104.2c0,0-0.1,0-0.6,0c-0.3,0-0.7,0-1.3,0s-1.4,0-2.3-0.4l0,0
									c-0.7-0.1,11.4-0.2,28.4,0.5c4.9,0.2,10.2,0.4,15.8,0.7c5.6,0.3,11.5,0.5,17.6,0.8c6.1,0.3,12.4,0.5,18.8,0.8
									c6.4,0.4,12.9,0.7,19.4,1.1c6.5,0.4,13,0.8,19.4,1.2c6.4,0.4,12.7,0.9,18.8,1.4c6.1,0.5,12,1.1,17.5,1.7
									c5.6,0.6,10.8,1.2,15.7,1.7c9.7,1.1,17.8,1.9,23.4,2.4c2.8,0.3,5.1,0.4,6.6,0.5s2.3,0.2,2.3,0.2s-0.8,0-2.3,0
									s-3.8-0.1-6.6-0.2c-5.7-0.2-13.8-0.7-23.6-1.4c-4.9-0.4-10.1-0.8-15.7-1.2s-11.4-0.9-17.5-1.3c-6.1-0.4-12.4-0.8-18.8-1.2
									c-6.4-0.4-12.9-0.8-19.4-1.2c-6.5-0.4-13-0.7-19.4-1.1c-6.4-0.4-12.7-0.7-18.8-1.1c-6.1-0.4-12-0.7-17.6-1.2
									c-5.6-0.4-10.9-0.8-15.7-1.2c-16.9-1.2-29-1.9-28.3-1.9l0,0c0.9,0.4,1.7,0.4,2.3,0.4s1,0,1.3,0
									C1020,104.2,1020,104.2,1020,104.2z"/>
							</g>
						</g>
					</g>
				</g>
				<path id="XMLID_167_" class="st19" d="M1234.9,124.4c0,0,154.9,3.3,171.3,3.7c16.4,0.4,315.6-9.1,315.6-9.1l-315.6,12.7
					L1234.9,124.4z"/>
				<path id="XMLID_168_" class="st19" d="M1040.5,122.8l177.3,5.8c0,0,207.9,10.7,211.4,10.2c3.4-0.4-211.4-7.1-211.4-7.1
					L1040.5,122.8z"/>
				<path id="XMLID_169_" class="st13" d="M947.8,113.9l65.4-8.9l101.4,6.6l59.9,5c0,0-8.7,4.3-12.5,5.2c2.4,0.1-62.5-0.5-82.2-1.4
					C1061,119.7,947.8,113.9,947.8,113.9z"/>
				<polygon id="XMLID_170_" class="st19" points="1252.6,-15.5 1217.8,116.2 1228.4,123.8 1271.2,-15.5 1259.8,-6.4 				"/>
				<polygon id="XMLID_171_" class="st19" points="1202.4,-16.3 1212.1,115.7 1174.5,112.6 1219.5,116.6 1217.8,-16.3 				"/>
				<polygon id="XMLID_172_" class="st19" points="1159.9,111.8 1213.2,88.9 1219.5,116.6 				"/>
				<path id="XMLID_173_" class="st19" d="M1672.3,100.3c0,0,31.1,4.9,42.1,7.5l24.6-7.5l-53.8-7.9L1672.3,100.3z"/>
				<polygon id="XMLID_174_" class="st19" points="1466.6,-4.6 1465.9,56.3 1442.8,17.1 				"/>
			</g>
			<g id="XMLID_175_">
				<g id="XMLID_176_">
					<path id="XMLID_177_" class="st20" d="M1079.6,366.6c-1.8-0.5,0.3-2.7,0.6-3.4s30.3-10.5,33.7-10.7c3.4-0.2,28.6,7,30.2,7.9
						c1.6,0.9,2.3,3.5,2.3,3.5s-19,2.9-32.1,3.7S1079.6,366.6,1079.6,366.6z"/>
					<path id="XMLID_178_" class="st20" d="M1040.5,354.5c-0.4-1.1,12.6-2.7,14.6-2.7c2.1,0,9.8,1.3,10.2,1.9c0.4,0.6-2,2.7-2.9,2.9
						C1061.5,356.9,1041.3,356.9,1040.5,354.5z"/>
					<path id="XMLID_179_" class="st20" d="M1177.4,354.3c-2.5-1.1,3.8-9.6,5.4-10s15.3-0.9,16.9,0c1.6,0.9,11.7,8.4,11.5,9.2
						s-11.1,4.1-14.5,4.2C1193.3,357.8,1179.6,355.3,1177.4,354.3z"/>
					<path id="XMLID_180_" class="st20" d="M1209,356.9c-1.4-0.4,0.8-4.2,3-4.4c2.2-0.1,12.3,2.7,12.9,3.5S1209,356.9,1209,356.9z"
						/>
					<path id="XMLID_181_" class="st20" d="M1232.8,351.8c3-0.3,7.5-2.4,7.5-3.1c0-0.6-19.4-3.6-22-3.2c-2.6,0.4-7.9,5.6-7.1,6.2
						C1212,352.4,1228.4,352.2,1232.8,351.8z"/>
					<path id="XMLID_182_" class="st20" d="M1074,376.8c-2-1.9,3.6-5.6,8.7-6.3c5-0.6,20.4,1.5,22.8,2.8s-11,3.5-16.2,3.5
						S1075,377.7,1074,376.8z"/>
				</g>
				<g id="XMLID_183_">
					<g id="XMLID_191_">
						<g id="XMLID_92_">
							<g id="XMLID_118_">
								<g id="XMLID_119_">
									<path id="XMLID_120_" class="st12" d="M1553.2,269.6c0,0,5.2-1.3,14.2-3.7c9.1-2.3,22-5.6,37.7-9.3
										c7.8-1.9,16.3-3.9,25.3-5.8c4.5-1,9.1-1.9,14-2.7l0.9-0.2c0.2,0,0.5-0.1,0.7,0l0.5,0.1l1.8,0.2c1.2,0.2,2.4,0.3,3.7,0.4
										c2.5,0.3,4.9,0.6,7.4,0.9c10,1.2,20.4,2.4,30.9,3.5c2.6,0.3,5.3,0.5,7.9,0.7c1.3,0.1,2.6,0.2,3.9,0.3c0.6,0,1.2,0,1.9-0.1
										c0.6-0.1,1.3-0.1,1.9-0.2c5.1-0.6,10.3-2.1,15.3-3.7c1.3-0.4,2.5-0.8,3.7-1.2l1.8-0.7l1.1-0.4c0.1,0,0.4-0.1,0.4-0.1h0.3
										l0.5-0.1c2.7-0.4,5.4-0.5,8.2-0.6c5.4-0.2,10.9,0,16.2,0.6l0.5,0.1l0,0l1-0.2l1.9-0.4c1.3-0.3,2.6-0.5,3.9-0.7
										c2.6-0.5,5.1-1,7.7-1.5c5.1-1,10.1-1.9,15.1-2.8c9.9-1.9,19.4-3.6,28.5-5.4c9.1-1.7,17.6-3.3,25.6-4.8
										c15.8-2.9,29-5.3,38.3-7c9.3-1.6,14.5-2.6,14.5-2.6s-5.2,1.2-14.4,3.1c-9.2,1.9-22.3,4.7-38.1,7.9
										c-7.9,1.6-16.4,3.4-25.5,5.2c-9,1.9-18.6,3.7-28.4,5.8c-4.9,1-9.9,1.9-15,3c-2.5,0.5-5.1,1-7.7,1.5
										c-1.3,0.3-2.6,0.5-3.9,0.8l-1.9,0.4l-1,0.2l-0.5,0.1l-0.5-0.1l-0.5-0.1c-5.2-0.6-10.5-0.8-15.7-0.6
										c-2.6,0.1-5.3,0.3-7.9,0.6l-0.8,0.1l-0.8,0.3l-1.9,0.7c-1.3,0.4-2.5,0.9-3.8,1.3c-5.1,1.6-10.4,3.1-15.9,3.8
										c-0.7,0.1-1.4,0.1-2.1,0.2c-0.7,0-1.4,0-2.1,0.1c-1.4-0.1-2.8-0.2-4.1-0.3c-2.7-0.2-5.3-0.4-8-0.8
										c-10.6-1.2-20.9-2.4-30.9-3.7c-2.5-0.4-5-0.6-7.4-1c-1.2-0.2-2.5-0.4-3.7-0.4l-1.8-0.3l-0.4-0.1c0,0,0,0-0.2,0l-0.9,0.2
										c-4.7,0.7-9.4,1.6-13.9,2.5c-9,1.9-17.5,3.6-25.4,5.3c-15.7,3.5-28.8,6.4-37.9,8.4C1558.4,268.4,1553.2,269.6,1553.2,269.6
										z"/>
								</g>
							</g>
						</g>
					</g>
					<g id="XMLID_199_">
						<g id="XMLID_78_">
							<g id="XMLID_88_">
								<g id="XMLID_89_">
									<path id="XMLID_90_" class="st12" d="M1250.2,304.6c0,0,22.5-1.9,56.1-4.6c8.4-0.7,17.5-1.5,27.1-2.5
										c1.2-0.1,2.4-0.3,3.6-0.4l0.9-0.1h0.4c0.1,0,0.3,0,0.4,0l0.7,0.2c0.6,0.1,1.2,0.3,1.8,0.4c2.4,0.4,4.9,0.9,7.4,1.4
										c5,1,10.1,1.9,15.2,2.9l18.4,3.5l13-1.2c11-1,22.3-1.9,33.5-2.9c11.2-1,22.4-1.9,33.5-2.8c11-1,21.9-1.8,32.4-2.7
										s20.7-1.7,30.4-2.4c9.7-0.7,18.8-1.4,27.2-2c0.4,0,0.8-0.1,0.9-0.1c8.3,1.2,15.8,2.4,22.5,3.4c6.6,1.1,12.4,1.9,17.2,2.7
										c9.7,1.6,15.3,2.5,15.3,2.5s-5.6-0.6-15.4-1.7c-4.8-0.5-10.6-1.2-17.3-1.9c-6.6-0.8-14.1-1.7-22.3-2.7c0,0-0.1,0-0.2,0
										s-0.3,0-0.5,0.1c-8.4,0.8-17.5,1.7-27.1,2.7s-19.8,1.9-30.3,2.8c-10.5,1-21.4,1.9-32.4,2.9s-22.3,1.9-33.5,2.9
										c-11.2,1-22.4,1.9-33.5,2.8l-13.7,1.1l-19-3.9c-5.1-1.1-10.2-2.1-15.2-3.1c-2.5-0.5-4.9-1.1-7.3-1.5
										c-0.6-0.1-1.2-0.3-1.8-0.4c-0.3-0.1-0.2-0.1-0.4,0l-0.9,0.1c-1.2,0.1-2.4,0.2-3.7,0.4c-9.7,0.8-18.8,1.3-27.3,1.8
										c-16.9,1-31,1.5-40.8,1.9C1255.8,304.4,1250.2,304.6,1250.2,304.6z"/>
								</g>
							</g>
						</g>
					</g>
					<g id="XMLID_207_">
						<g id="XMLID_69_">
							<g id="XMLID_74_">
								<g id="XMLID_75_">
									<path id="XMLID_76_" class="st12" d="M1403,263.6c0,0,0.8-0.3,2.1-0.7c1.4-0.4,3.3-1.2,5.7-1.8c1.2-0.4,2.5-0.7,3.8-1.1
										c1.4-0.4,2.8-0.8,4.3-1.2s3.1-0.7,4.7-1.1c1.6-0.4,3.2-0.6,4.9-1c1.7-0.3,3.3-0.5,5-0.7c1.7-0.2,3.3-0.3,5.1-0.2
										c0.8,0,1.8,0.2,2.6,0.5c0.8,0.3,1.5,0.6,2.2,1.1c1.3,0.8,2.3,1.7,3.2,2.5c1.8,1.6,3.1,3,4.3,3.5c1.2,0.5,2.2,0.1,2.1,0.2
										c0,0-0.2,0.1-0.5,0.3c-0.4,0.2-1,0.3-1.8,0.1c-1.6-0.4-3.3-1.6-5.3-2.9c-1-0.6-2-1.3-3.2-1.9c-1.2-0.5-2.4-0.9-3.7-0.9
										c-1.4,0-3,0.2-4.5,0.4c-1.6,0.2-3.2,0.4-4.8,0.7c-1.6,0.3-3.2,0.5-4.8,0.9c-1.6,0.3-3.2,0.5-4.7,0.8
										c-1.5,0.3-3,0.5-4.4,0.8c-1.4,0.3-2.7,0.4-4,0.7c-2.5,0.4-4.5,0.7-6,0.9C1403.8,263.5,1403,263.6,1403,263.6z"/>
								</g>
							</g>
						</g>
					</g>
				</g>
				<g id="XMLID_208_">
					<path id="XMLID_209_" class="st13" d="M1568.2,209.7c0,0,45.5-8.7,74.1-9.3l10.3,4.7c0,0-60.2,8.9-71.1,10.9
						s-22.1-2.7-22.1-2.7L1568.2,209.7z"/>
					<path id="XMLID_210_" class="st12" d="M1652.6,205.1c0,0,7.7,7.2,8.5,8.1c0.8,0.9-12.3,1.3-14.7,1.1s-10.4-6.6-10.4-6.6
						L1652.6,205.1z"/>
					<g id="XMLID_218_">
						<g id="XMLID_59_">
							<g id="XMLID_63_">
								<g id="XMLID_66_">
									<path id="XMLID_67_" class="st12" d="M1559.4,213.3c0,0-1,1.2-2.7,2.5c-0.4,0.4-0.9,0.7-1.4,1.1c-0.5,0.4-1.1,0.8-1.6,1.2
										c-0.6,0.4-1.2,0.7-1.8,1.1c-0.7,0.4-1.3,0.7-2,1.1c-0.3,0.2-0.7,0.3-1.1,0.4s-0.8,0.3-1.2,0.4c-0.7,0.2-1.4,0.4-2.1,0.5
										s-1.4,0.3-2,0.4s-1.3,0.2-1.8,0.3c-1.1,0.2-2.1,0.3-2.8,0.3c-0.7,0-1.1,0-1.1,0s0.3-0.2,0.9-0.5s1.4-0.8,2.4-1.2
										c0.5-0.3,1.1-0.4,1.7-0.7s1.2-0.4,1.9-0.7c0.7-0.3,1.3-0.4,2-0.7c0.3-0.1,0.6-0.2,0.9-0.4c0.3-0.2,0.6-0.3,1-0.4
										c0.7-0.3,1.3-0.6,1.9-0.9c0.7-0.3,1.3-0.6,1.9-0.9s1.2-0.5,1.8-0.8c0.6-0.3,1.1-0.4,1.7-0.7
										C1557.9,213.7,1559.4,213.3,1559.4,213.3z"/>
								</g>
							</g>
						</g>
					</g>
				</g>
				<g id="XMLID_219_">
					<path id="XMLID_220_" class="st21" d="M814.8,306.8c0,0-7.2,9.4-12.9,12.7c-5.6,3.3-18.5,3.8-18.5,3.8s21.2,0.5,22.6,0
						c1.4-0.5,19-16.5,19-16.5L814.8,306.8L814.8,306.8z"/>
					<path id="XMLID_221_" class="st21" d="M914.2,304.8c0,0,7.9,8.9,10.5,11.6l15.9,6.5c0,0-8-4.1-9.2-6.5s-6.6-14.6-6.6-14.6
						L914.2,304.8z"/>
					<path id="XMLID_222_" class="st21" d="M936.5,301c0,0,2.5,5.8,4.8,8.1l6.5,4.7c0,0-12.7-2.9-14.3-4.4s-7-8.4-7-8.4H936.5z"/>
					<path id="XMLID_223_" class="st13" d="M813.4,304c0,0-0.9,0.8,1.4,2.7s32.1,5,38.2,5.6c6.1,0.6,75.5-9.2,83.6-11.4
						c0,0-63.8-0.4-71.9-1.2c-8.1-0.9-44.6,0-44.6,0v2.9L813.4,304z"/>
				</g>
			</g>
			<g id="XMLID_233_">
				<path id="XMLID_234_" class="st10" d="M1943.1,109.9c0,0-248.8,4.2-269.4,3.4c0,0-93.5,26.7-113,31.2
					c-19.5,4.4-62.9,11.2-62.9,11.2s119.4,6.5,143.2,6.5l63.6-6.5l-10.3,11c0,0,17.7,0.9,44.2,0s242.9-4.4,242.9-4.4L1943.1,109.9z"
					/>
				<g id="XMLID_242_">
					<g id="XMLID_46_">
						<g id="XMLID_50_">
							<g id="XMLID_51_">
								<path id="XMLID_57_" class="st22" d="M1673.6,113.4c0,0-10.7,3.5-26.9,8.3c-4.1,1.2-8.4,2.5-13.1,3.9
									c-4.7,1.3-9.6,2.8-14.6,4.2c-5.1,1.4-10.3,3-15.7,4.5c-5.4,1.5-10.8,3-16.2,4.5c-5.5,1.5-10.9,3-16.3,4.3
									c-5.5,1.2-10.9,2.2-16.2,3.2c-5.2,1-10.3,1.9-15.1,2.7c-4.8,0.8-9.4,1.6-13.6,2.2c-8.4,1.4-15.4,2.4-20.4,3.2
									c-4.9,0.7-7.7,1.2-7.7,1.2s2.8-0.6,7.6-1.6c4.9-1.1,11.8-2.5,20.1-4.2c4.2-0.8,8.7-1.8,13.5-2.7c4.8-1,9.8-1.9,15-3
									s10.6-2.1,16-3.4c5.3-1.3,10.8-2.9,16.2-4.4c5.4-1.5,10.9-3,16.2-4.4c5.4-1.4,10.6-2.9,15.8-4.2c5.1-1.3,10.1-2.7,14.8-4
									c4.7-1.2,9.1-2.4,13.2-3.5C1662.6,116,1673.6,113.4,1673.6,113.4z"/>
							</g>
						</g>
					</g>
				</g>
				<polygon id="XMLID_243_" class="st11" points="1693.9,120.5 1641,162.2 1704.6,155.6 1709.5,120.5 				"/>
				<polygon id="XMLID_244_" class="st11" points="1704.6,155.6 1733.5,121.9 1700.1,151.2 				"/>
				<polygon id="XMLID_245_" class="st11" points="1733.5,166.7 1757.3,124.4 1763.9,124.4 1748.7,166.7 				"/>
				<polygon id="XMLID_246_" class="st11" points="1757.3,166.1 1769.8,124.4 1774.3,124.4 1763.9,166.7 				"/>
				<path id="XMLID_247_" class="st13" d="M1673.6,113.4c0,0,216.4-5.5,269.4-3.4c0,0-10.8,15.9-19.6,18.1
					c-8.8,2.2-203.4-4.6-219.5-6.2C1687.9,120.3,1675.1,116.5,1673.6,113.4z"/>
				<g id="XMLID_255_">
					<g id="XMLID_377_">
						<g id="XMLID_381_">
							<g id="XMLID_382_">
								<path id="XMLID_383_" class="st11" d="M1694.3,166.6c0,0,17.9-0.6,44.9-1.3c6.7-0.2,14-0.4,21.7-0.5s15.8-0.4,24.3-0.5
									c8.4-0.2,17.1-0.4,25.9-0.4c8.8-0.2,17.8-0.3,26.8-0.4c9-0.1,17.9-0.3,26.8-0.4c8.8-0.1,17.5-0.2,25.9-0.3
									s16.5-0.2,24.3-0.2c7.7-0.1,15-0.1,21.7-0.2c13.5-0.1,24.7-0.1,32.5-0.2c7.9-0.1,12.3-0.1,12.3-0.1s-4.5,0.2-12.3,0.6
									c-7.8,0.4-19.1,0.7-32.5,1.2c-6.7,0.2-14,0.4-21.7,0.6c-7.7,0.2-15.8,0.4-24.3,0.5c-8.4,0.2-17.1,0.4-25.9,0.5
									c-8.8,0.2-17.8,0.3-26.8,0.4c-9,0.1-17.9,0.3-26.8,0.4c-8.8,0.1-17.5,0.2-25.9,0.3s-16.5,0.1-24.3,0.2c-7.7,0-15,0-21.7,0.1
									C1712.2,166.8,1694.3,166.6,1694.3,166.6z"/>
							</g>
						</g>
					</g>
				</g>
			</g>
		</g>
	</g>
</g>
</svg>
