<?xml version="1.0" encoding="utf-8"?>
<!-- Generator: Adobe Illustrator 19.0.0, SVG Export Plug-In . SVG Version: 6.00 Build 0)  -->
<svg version="1.1" id="Layer_1" xmlns="http://www.w3.org/2000/svg" xmlns:xlink="http://www.w3.org/1999/xlink" x="0px" y="0px"
	 viewBox="0 0 656.9 439.8" style="enable-background:new 0 0 656.9 439.8;" xml:space="preserve">
<style type="text/css">
	.st0{fill:url(#SVGID_1_);}
	.st1{fill:#A7A9AC;}
	.st2{fill:#939598;}
	.st3{fill:#BCBEC0;}
	.st4{fill:#CCCCCC;}
	.st5{fill:#666766;}
	.st6{fill:#808285;}
	.st7{fill:#555655;}
	.st8{fill:#E6E7E8;stroke:#D1D3D4;stroke-width:0.25;stroke-miterlimit:10;}
	.st9{fill:#DEDDDD;}
	.st10{fill:#D1D3D4;}
	.st11{fill:#BBBBBB;}
	.st12{fill:#E6E7E8;}
	.st13{fill:#A8ACB1;}
	.st14{fill:#C5C5C4;}
	.st15{fill:url(#SVGID_2_);}
	.st16{fill:#ABABAB;}
	.st17{fill:#999999;}
	.st18{fill:#D5D5D5;}
	.st19{fill:#B0AFB0;}
	.st20{fill:#D1D3D4;stroke:#A7A9AC;stroke-width:0.25;stroke-miterlimit:10;}
	.st21{fill:#EEEEEE;}
	.st22{fill:#58595B;}
	.st23{fill:#787878;}
</style>
<g id="Viking">
	<g>
		<g>
			<g>
				<linearGradient id="SVGID_1_" gradientUnits="userSpaceOnUse" x1="284.5249" y1="193.7191" x2="301.6421" y2="193.7191">
					<stop  offset="0" style="stop-color:#BCBEC0"/>
					<stop  offset="0.4785" style="stop-color:#D1D3D4"/>
					<stop  offset="1" style="stop-color:#E6E7E8"/>
				</linearGradient>
				<rect x="284.5" y="173.4" class="st0" width="17.1" height="40.7"/>
				<rect x="284.3" y="197.6" class="st1" width="17.5" height="1.9"/>
			</g>
			<path class="st1" d="M302.6,175c0,2.1-0.6,3.8-1.4,3.8h-16.3c-0.8,0-1.4-1.7-1.4-3.8l0,0c0-2.1,0.6-3.8,1.4-3.8h16.3
				C302,171.2,302.6,172.9,302.6,175L302.6,175z"/>
			<rect x="284.3" y="172.4" class="st1" width="17.5" height="1.9"/>
		</g>
		<rect x="295.3" y="184.1" class="st2" width="1.1" height="3.8"/>
		<rect x="294.4" y="187.3" class="st3" width="2.8" height="10.1"/>
		<rect x="293.5" y="183.1" class="st2" width="8.1" height="1.4"/>
	</g>
	<path class="st4" d="M444.1,253.9c0,13.7-9.2,24.8-20.5,24.8H283.3c-11.3,0-20.5-11.1-20.5-24.8v-32.7c0-13.7,9.2-24.8,20.5-24.8
		h140.2c11.3,0,20.5,11.1,20.5,24.8V253.9z"/>
	<path class="st4" d="M415.4,175.3l139.3,7.2c0,0-27.1-21.4-31.7-30.1l-103.5-10.8L415.4,175.3z"/>
	<g>
		<polygon class="st5" points="517.7,348.2 520.9,344.5 602.1,414.7 598.9,418.4 		"/>
		<polygon class="st5" points="427.1,326.9 429.8,322.2 598.6,414.8 596,419.5 		"/>
		<polygon class="st5" points="517.1,289.7 522,289.6 522.7,348.1 517.8,348.1 		"/>
	</g>
	<path class="st6" d="M352.2,422.3c0,3.7-9.4,6.6-20.9,6.6c-11.5,0-20.9-3-20.9-6.6c0-3.6,9.4-6.6,20.9-6.6
		C342.9,415.7,352.2,418.7,352.2,422.3z"/>
	<path class="st6" d="M387.6,425.1c0,6.8-25.3,14.7-54.8,14.7c-29.5,0-51.6-8.9-51.6-15.7c0-6.8,26.2-0.5,55.8-0.5
		C366.4,423.7,387.6,418.3,387.6,425.1z"/>
	<polygon class="st5" points="337.8,327.2 326.8,327.2 326.7,423.1 337.7,423.1 	"/>
	
		<rect x="163.3" y="149.1" transform="matrix(0.9976 -6.905021e-02 6.905021e-02 0.9976 -10.9925 11.8997)" class="st7" width="6.6" height="31.6"/>
	<polygon class="st5" points="325.4,427.1 329.9,424.8 279.5,323.3 275,325.6 	"/>
	<polygon class="st5" points="338.7,427.7 334.1,425.3 382.3,324.9 386.9,327.3 	"/>
	<g>
		<g>
			<path class="st8" d="M89.6,186c0-11.3,9.6-20.5,21.4-20.5s21.4,9.2,21.4,20.5c0,11.3-9.6,20.5-21.4,20.5S89.6,197.3,89.6,186z"/>
			<g>
				<path class="st9" d="M17.2,275.2c0-34.5,29.2-62.5,65.2-62.5c36,0,65.2,28,65.2,62.5c0,34.5-29.2,62.5-65.2,62.5
					C46.4,337.8,17.2,309.8,17.2,275.2z"/>
				<path class="st10" d="M260.1,214.4H65.8c0,0,21.4-21.1,29.1-27.8c6.5-5.7,15.3-14.6,27.5-22.2c14.2-8.8,137.6-6.5,137.6-6.5
					V214.4z"/>
				<path class="st1" d="M234.2,245.7L40,232.1c0,0,41.2-25.1,49-36.4l145.3,2.5V245.7z"/>
				<path class="st11" d="M246.2,220.5H52c0,0,50.4-38.9,58.2-50.2l136.1,2.9V220.5z"/>
			</g>
		</g>
		<path class="st1" d="M20.1,288.9L0,289.1v-9.1h29.8C29.8,279.9,19.8,282.1,20.1,288.9z"/>
		<path class="st12" d="M27.2,290.8l-18.4,0.3v-22.4h29.4C38.1,268.7,26.9,273.9,27.2,290.8z"/>
	</g>
	<g>
		<g>
			<path class="st8" d="M569.2,184.4c0-11.3-9.6-20.5-21.4-20.5c-11.8,0-21.4,9.2-21.4,20.5c0,11.3,9.6,20.5,21.4,20.5
				C559.6,204.9,569.2,195.7,569.2,184.4z"/>
			<g>
				<path class="st9" d="M642.3,273.8c0-34.5-29.2-62.5-65.2-62.5c-36,0-65.2,28-65.2,62.5c0,34.5,29.2,62.5,65.2,62.5
					C613.1,336.3,642.3,308.3,642.3,273.8z"/>
				<path class="st10" d="M398.6,212.8h194.3c0,0-21.4-21.1-29.1-27.8c-6.5-5.7-15.3-14.6-27.5-22.2c-14.2-8.8-137.6-6.5-137.6-6.5
					V212.8z"/>
				<path class="st1" d="M424.5,244.1l194.3-13.6c0,0-41.2-25.1-49-36.4l-145.3,2.5V244.1z"/>
				<path class="st11" d="M412.5,218.9h194.3c0,0-50.4-38.9-58.2-50.2l-136.1,2.8V218.9z"/>
			</g>
		</g>
		<path class="st1" d="M636.8,284.1l20.1,0.1v-9.1H627C627,275.1,637,277.2,636.8,284.1z"/>
		<path class="st12" d="M629.7,286l18.4,0.3v-22.4h-29.4C618.7,263.9,630,269.1,629.7,286z"/>
	</g>
	<path class="st10" d="M387.6,423.7c0,6.8-23.9,12.3-53.5,12.3c-29.5,0-53.5-5.5-53.5-12.3c0-6.8,24.9-3.7,54.4-3.7
		C364.6,420,387.6,416.9,387.6,423.7z"/>
	<path class="st3" d="M429.3,283.4c0,13.7-9.2,24.8-20.5,24.8H268.6c-11.3,0-20.5-11.1-20.5-24.8v-32.7c0-13.7,9.2-24.8,20.5-24.8
		h140.2c11.3,0,20.5,11.1,20.5,24.8V283.4z"/>
	<g>
		<polygon class="st5" points="148.3,345.5 145.1,341.8 64,411.9 67.2,415.6 		"/>
		<polygon class="st5" points="238.9,324.2 236.3,319.4 67.4,412 70,416.8 		"/>
		
			<rect x="143.7" y="286.9" transform="matrix(0.9999 1.218200e-02 -1.218200e-02 0.9999 3.8618 -1.7572)" class="st5" width="4.9" height="58.5"/>
	</g>
	<path class="st6" d="M85.5,421.1c0,3.7-9.4,6.6-20.9,6.6c-11.5,0-20.9-3-20.9-6.6c0-3.7,9.4-6.6,20.9-6.6
		C76.2,414.5,85.5,417.4,85.5,421.1z"/>
	<rect x="249.4" y="112.9" class="st11" width="23.4" height="109.1"/>
	<polygon class="st10" points="525.8,329.1 139.3,328.5 138.7,273.2 146.6,272.6 146.6,161.3 213.3,161.3 218.4,273.3 438.3,273.3 
		442.6,161.3 516.6,161.3 516.6,273.2 525.2,273.2 	"/>
	<g>
		<path class="st13" d="M179.9,236c9.9-5.2,13.8,4.3,18.3,11.5c3.5,5.7,8,9.3,15,8.9c2.3-0.1,7.7-3.9,2.9-3.6
			c-9.4,0.5-12.7-11.9-17.6-17.7c-6-7.2-15.7-4.4-22.8-0.6C171.3,236.6,177.8,237.1,179.9,236L179.9,236z"/>
	</g>
	<path class="st6" d="M618.9,421.1c0,3.7-9.4,6.6-20.9,6.6c-11.5,0-20.9-3-20.9-6.6c0-3.7,9.4-6.6,20.9-6.6
		C609.6,414.5,618.9,417.4,618.9,421.1z"/>
	<g>
		<polygon class="st9" points="183.3,265.1 168.4,264.9 166.6,179 188.1,179 		"/>
		<polygon class="st7" points="168.6,179 162,179.5 168.7,275.1 175.3,274.6 		"/>
		<polygon class="st7" points="167.1,181.9 162,179.7 147.6,213.5 152.7,215.7 		"/>
		<path class="st2" d="M159.6,181.4c0,0.5,2.5,0.9,5.6,0.9h19.5c3.1,0,5.6-0.4,5.6-0.9v-4.8c0-0.5-2.5-0.9-5.6-0.9h-19.5
			c-3.1,0-5.6,0.4-5.6,0.9V181.4z"/>
		<polygon class="st1" points="170.7,208.6 140.3,194.8 134.5,211.3 162.8,223.1 		"/>
	</g>
	<g>
		<path class="st12" d="M455.6,253.6c0,6.5-5.2,11.7-11.7,11.7h-40.6c-6.5,0-11.7-5.2-11.7-11.7v-60.5c0-6.5,5.2-11.7,11.7-11.7
			h40.6c6.5,0,11.7,5.2,11.7,11.7V253.6z"/>
		<g>
			<path class="st12" d="M435.5,142.3c0,1.7-2.2,3-5,3h-17.4c-2.8,0-5-1.4-5-3v-15.7c0-1.7,2.2-3,5-3h17.4c2.8,0,5,1.4,5,3V142.3z"
				/>
			<g>
				<path class="st3" d="M407.8,134.3c0,0.7-0.5,1.2-1.2,1.2h-4.1c-0.6,0-1.2-0.6-1.2-1.2v-6.4c0-0.7,0.5-1.2,1.2-1.2h4.1
					c0.6,0,1.2,0.6,1.2,1.2V134.3z"/>
				<path class="st1" d="M407.2,182.1c0,4.5-0.4,8.1-0.9,8.1h-3.2c-0.5,0-0.9-3.6-0.9-8.1v-41.6c0-4.4,0.4-8,0.9-8h3.2
					c0.5,0,0.9,3.6,0.9,8V182.1z"/>
				<path class="st9" d="M440.9,183.9c0,5-3,9.1-6.7,9.1h-23.1c-3.7,0-6.7-4.1-6.7-9.1V137c0-5,3-9.1,6.7-9.1h23.1
					c3.7,0,6.7,4.1,6.7,9.1V183.9z"/>
				<path class="st12" d="M445.9,207.1c0,2.9-3.8,5.2-8.6,5.2h-29.8c-4.7,0-8.6-2.3-8.6-5.2v-26.9c0-2.9,3.8-5.2,8.6-5.2h29.8
					c4.7,0,8.6,2.3,8.6,5.2V207.1z"/>
				<path class="st9" d="M453.8,252.5c0,6.3-5.1,11.5-11.5,11.5h-39.8c-6.3,0-11.5-5.1-11.5-11.5v-59.2c0-6.3,5.1-11.5,11.5-11.5
					h39.8c6.3,0,11.5,5.1,11.5,11.5V252.5z"/>
				<rect x="391.2" y="194.3" class="st1" width="62.6" height="4.1"/>
				<rect x="391.1" y="195.6" class="st12" width="62.7" height="4.1"/>
				<rect x="437.2" y="198.6" class="st12" width="2.3" height="65.2"/>
				<rect x="433.8" y="205.1" class="st3" width="9.3" height="2.3"/>
				<rect x="433.8" y="253.1" class="st3" width="9.3" height="2.3"/>
				<rect x="433.8" y="211.8" class="st3" width="9.3" height="2.3"/>
				<rect x="433.6" y="219" class="st3" width="9.3" height="2.3"/>
			</g>
			<rect x="431.8" y="128" class="st12" width="0.8" height="23.3"/>
			<rect x="430.6" y="130.4" class="st3" width="3.3" height="0.8"/>
			<rect x="430.5" y="135.3" class="st3" width="3.3" height="0.8"/>
			<rect x="431.9" y="150.5" class="st12" width="9" height="0.8"/>
		</g>
	</g>
	<g>
		<path class="st12" d="M204.3,254.7c0,6.5,5.2,11.7,11.7,11.7h40.7c6.5,0,11.7-5.2,11.7-11.7v-60.5c0-6.5-5.2-11.7-11.7-11.7h-40.7
			c-6.5,0-11.7,5.2-11.7,11.7V254.7z"/>
		<g>
			<path class="st12" d="M224.5,143.4c0,1.7,2.2,3,5,3h17.4c2.8,0,5-1.4,5-3v-15.7c0-1.7-2.2-3-5-3h-17.4c-2.8,0-5,1.4-5,3V143.4z"
				/>
			<g>
				<path class="st3" d="M252.1,135.4c0,0.7,0.5,1.2,1.2,1.2h4.1c0.7,0,1.2-0.6,1.2-1.2v-6.4c0-0.7-0.5-1.2-1.2-1.2h-4.1
					c-0.7,0-1.2,0.6-1.2,1.2V135.4z"/>
				<path class="st1" d="M252.7,183.3c0,4.4,0.4,8.1,0.9,8.1h3.2c0.5,0,0.9-3.6,0.9-8.1v-41.6c0-4.4-0.4-8-0.9-8h-3.2
					c-0.5,0-0.9,3.6-0.9,8V183.3z"/>
				<path class="st9" d="M219.1,185c0,5,3,9.1,6.7,9.1h23.1c3.7,0,6.7-4.1,6.7-9.1v-46.9c0-5-3-9.1-6.7-9.1h-23.1
					c-3.7,0-6.7,4.1-6.7,9.1V185z"/>
				<path class="st12" d="M214,208.2c0,2.9,3.8,5.2,8.6,5.2h29.8c4.7,0,8.6-2.3,8.6-5.2v-26.9c0-2.9-3.8-5.2-8.6-5.2h-29.8
					c-4.7,0-8.6,2.3-8.6,5.2V208.2z"/>
				<path class="st9" d="M206.2,253.6c0,6.3,5.1,11.5,11.5,11.5h39.8c6.3,0,11.5-5.1,11.5-11.5v-59.2c0-6.3-5.1-11.5-11.5-11.5
					h-39.8c-6.3,0-11.5,5.1-11.5,11.5V253.6z"/>
				<rect x="206.2" y="195.5" class="st1" width="62.6" height="4.1"/>
				<rect x="206.2" y="196.7" class="st12" width="62.7" height="4.1"/>
				<rect x="220.5" y="199.7" class="st12" width="2.3" height="65.2"/>
				<rect x="216.8" y="206.3" class="st3" width="9.3" height="2.3"/>
				<rect x="216.8" y="254.2" class="st3" width="9.3" height="2.3"/>
				<rect x="216.8" y="212.9" class="st3" width="9.3" height="2.3"/>
				<rect x="217" y="220.1" class="st3" width="9.3" height="2.3"/>
			</g>
			<rect x="227.3" y="129.2" class="st12" width="0.8" height="23.3"/>
			<rect x="226" y="131.5" class="st3" width="3.3" height="0.8"/>
			<rect x="226.1" y="136.4" class="st3" width="3.3" height="0.8"/>
			<rect x="219.1" y="151.6" class="st12" width="8.9" height="0.8"/>
		</g>
	</g>
	<g>
		<g>
			<path class="st4" d="M508.8,350c0,2.4-6.3,6.1-9.3,4.3c-0.1-0.1-2.7-14.5-2.7-14.5l2.9-1.1C499.7,338.7,508.8,349.9,508.8,350z"
				/>
			<path class="st11" d="M500.2,351.7c-0.6,2.3-7.6,4.3-10,1.7c-0.1-0.1,1.1-14.7,1.1-14.7l3.1-0.3
				C494.4,338.5,500.2,351.7,500.2,351.7z"/>
			<path class="st4" d="M491.9,352.7c-0.9,2.2-8.1,3.2-10.2,0.3c-0.1-0.1,3.1-14.4,3.1-14.4l3.1,0.2
				C488,338.8,492,352.7,491.9,352.7z"/>
			<path class="st11" d="M484.7,352.7c-1,2.2-8.1,3.2-10.2,0.3c-0.1-0.1,3.1-14.4,3.1-14.4l3.1,0.2
				C480.8,338.8,484.7,352.7,484.7,352.7z"/>
			<path class="st11" d="M467.6,354c-1.7,1.7-8.7,0.1-9.6-3.3c0-0.1,8-12.4,8-12.4l2.9,1.2C468.8,339.6,467.6,354,467.6,354z"/>
			<path class="st4" d="M476.2,353.5c-1.3,2-8.6,1.6-10.1-1.5c-0.1-0.1,5.7-13.6,5.7-13.6l3.1,0.7
				C474.9,339.1,476.2,353.4,476.2,353.5z"/>
		</g>
		<rect x="460.5" y="299.6" class="st4" width="44.5" height="37.8"/>
		<path class="st7" d="M508.1,337.5c0,2-1.6,3.6-3.6,3.6h-42.4c-2,0-3.6-1.6-3.6-3.6l0,0c0-2,1.6-3.6,3.6-3.6h42.4
			C506.5,333.9,508.1,335.5,508.1,337.5L508.1,337.5z"/>
		<rect x="459.9" y="333" class="st1" width="45.6" height="1.7"/>
	</g>
	<g>
		<g>
			<path class="st11" d="M209.5,350c0,2.4-6.3,6.1-9.3,4.3c-0.1-0.1-2.7-14.5-2.7-14.5l2.9-1.1C200.5,338.7,209.5,349.9,209.5,350z"
				/>
			<path class="st4" d="M200.9,351.7c-0.6,2.3-7.6,4.3-10,1.7c-0.1-0.1,1.1-14.7,1.1-14.7l3.1-0.3
				C195.1,338.5,200.9,351.7,200.9,351.7z"/>
			<path class="st11" d="M192.7,352.7c-0.9,2.2-8.1,3.2-10.2,0.3c-0.1-0.1,3.1-14.4,3.1-14.4l3.1,0.2
				C188.8,338.8,192.7,352.7,192.7,352.7z"/>
			<path class="st4" d="M185.5,352.7c-0.9,2.2-8.1,3.2-10.2,0.3c-0.1-0.1,3.1-14.4,3.1-14.4l3.1,0.2
				C181.5,338.8,185.5,352.7,185.5,352.7z"/>
			<path class="st4" d="M168.3,354c-1.7,1.7-8.7,0.1-9.6-3.3c0-0.1,8-12.4,8-12.4l2.9,1.2C169.5,339.6,168.4,354,168.3,354z"/>
			<path class="st11" d="M176.9,353.5c-1.3,2-8.6,1.6-10.1-1.5c-0.1-0.1,5.7-13.6,5.7-13.6l3.1,0.7
				C175.6,339.1,177,353.4,176.9,353.5z"/>
		</g>
		<rect x="161.3" y="299.6" class="st4" width="44.5" height="37.8"/>
		<path class="st7" d="M208.9,337.5c0,2-1.6,3.6-3.6,3.6h-42.4c-2,0-3.6-1.6-3.6-3.6l0,0c0-2,1.6-3.6,3.6-3.6h42.4
			C207.3,333.9,208.9,335.5,208.9,337.5L208.9,337.5z"/>
		<rect x="160.6" y="333" class="st1" width="45.6" height="1.7"/>
	</g>
	<g>
		<g>
			<rect x="392.7" y="73.6" class="st14" width="21" height="27.9"/>
			<rect x="392.5" y="75.5" class="st1" width="21.5" height="1.3"/>
		</g>
		<path class="st1" d="M391.6,104c0-1.5,0.8-2.6,1.7-2.6h20c0.9,0,1.7,1.2,1.7,2.6l0,0c0,1.4-0.8,2.6-1.7,2.6h-20
			C392.3,106.7,391.6,105.5,391.6,104L391.6,104z"/>
		<rect x="392.5" y="100.8" class="st1" width="21.5" height="1.3"/>
	</g>
	<rect x="370.7" y="180.7" class="st2" width="1.9" height="7.8"/>
	<g>
		<rect x="371.4" y="159.9" class="st3" width="12.8" height="5.1"/>
		<g>
			<rect x="370.2" y="162.4" class="st1" width="16.3" height="20.9"/>
			<rect x="382.5" y="87.4" class="st4" width="16.7" height="113.1"/>
			<path class="st10" d="M450.2,19.3c10.6,22.1-10.9,54.5-48,72.4c-37.1,17.9-75.9,14.5-86.5-7.5c-10.6-22.1,10.9-54.5,48-72.4
				C400.8-6.1,439.5-2.7,450.2,19.3z"/>
			
				<radialGradient id="SVGID_2_" cx="381.9062" cy="409.5723" r="142.7384" gradientTransform="matrix(0.9007 -0.4344 0.3665 0.76 -144.7015 -19.5225)" gradientUnits="userSpaceOnUse">
				<stop  offset="0" style="stop-color:#F1F2F2"/>
				<stop  offset="1" style="stop-color:#F1F2F2;stop-opacity:0"/>
			</radialGradient>
			<path class="st15" d="M449.9,18.7c10.5,21.7-10.7,53.6-47.3,71.3c-36.6,17.6-74.7,14.3-85.2-7.4C307,60.9,328.1,29,364.7,11.3
				C401.3-6.3,439.4-3,449.9,18.7z"/>
			<path class="st9" d="M449.1,20.3c10.5,21.7-10.7,53.7-47.3,71.4c-36.6,17.7-74.8,14.3-85.3-7.4c-10.5-21.7,10.7-53.7,47.3-71.4
				C400.4-4.7,438.6-1.4,449.1,20.3z"/>
			<path class="st16" d="M385.6,55.8c0.7,3.5-2.7,7-7.6,5.3c-0.2-0.1-10.3-20.4-10.3-20.4l1.7-1.5C369.4,39.2,385.6,55.7,385.6,55.8
				z"/>
			<g>
				<path class="st3" d="M370.9,39.4c-0.5,1.6-2.3,2.6-3.9,2c-1.6-0.5-2.5-2.3-2-3.9c0.5-1.6,2.3-2.6,3.9-2
					C370.5,36,371.4,37.7,370.9,39.4z"/>
				<path class="st17" d="M370.8,39.4c-0.5,1.6-2.3,2.6-3.9,2c-1.6-0.5-2.5-2.3-2-3.9c0.5-1.6,2.3-2.5,3.9-2
					C370.4,36,371.3,37.7,370.8,39.4z"/>
			</g>
			<path class="st3" d="M402.2,171.3c0,1.5-0.7,2.8-1.5,2.8h-20.3c-0.8,0-1.5-1.2-1.5-2.8l0,0c0-1.5,0.7-2.8,1.5-2.8h20.3
				C401.5,168.5,402.2,169.8,402.2,171.3L402.2,171.3z"/>
			<rect x="378.8" y="171" class="st18" width="23.4" height="109.1"/>
			<path class="st1" d="M399.7,119.1c0,0.3-0.5,0.6-1.2,0.6h-15.7c-0.6,0-1.2-0.3-1.2-0.6l0,0c0-0.3,0.5-0.6,1.2-0.6h15.7
				C399.2,118.4,399.7,118.7,399.7,119.1L399.7,119.1z"/>
			<path class="st10" d="M399.7,122.6c0,0.3-0.5,0.6-1.2,0.6h-15.7c-0.6,0-1.2-0.3-1.2-0.6l0,0c0-0.3,0.5-0.6,1.2-0.6h15.7
				C399.2,122,399.7,122.3,399.7,122.6L399.7,122.6z"/>
		</g>
	</g>
	<polygon class="st19" points="151.3,324.9 199.2,317.1 199.2,253.6 151.3,253.6 	"/>
	<rect x="198.1" y="252.7" class="st12" width="2.3" height="65.2"/>
	<g>
		<path class="st13" d="M487.6,235.2c-9.4-2.8-16.6-8-26.3-2.6c-11.9,6.7-1,24-12.8,29.3c-4.3,1.9,2.4,1.6,4.1,0.8
			c8-3.5,9.2-8,9-16.2c-0.1-4.1,1.6-14.7,7.4-13.5c4.4,0.9,8.5,3.5,12.8,4.8C483.3,238.4,489.6,235.8,487.6,235.2L487.6,235.2z"/>
	</g>
	<g>
		<polygon class="st9" points="476.9,261 491.8,260.8 493.6,174.9 472.1,174.9 		"/>
		<polygon class="st7" points="491.6,174.9 498.2,175.3 491.6,271 485,270.5 		"/>
		<polygon class="st7" points="493.2,177.8 498.3,175.6 512.7,209.4 507.6,211.6 		"/>
		<path class="st2" d="M500.7,177.3c0,0.5-2.5,0.9-5.6,0.9h-19.5c-3.1,0-5.6-0.4-5.6-0.9v-4.8c0-0.5,2.5-0.9,5.6-0.9H495
			c3.1,0,5.6,0.4,5.6,0.9V177.3z"/>
		<polygon class="st1" points="492.3,206.3 521.6,193 525.8,207.2 499.2,218.2 		"/>
	</g>
	<rect x="443.2" y="237" class="st16" width="55" height="9.8"/>
	<polygon class="st19" points="514.1,324.9 466.2,317.1 466.2,253.6 514.1,253.6 	"/>
	<rect x="465" y="252.7" class="st12" width="2.3" height="65.2"/>
	<g>
		<polygon class="st20" points="218.2,317.7 449.2,317 449.2,232.5 217.9,232.5 		"/>
		<rect x="449" y="231.8" class="st12" width="3.2" height="86.9"/>
		<rect x="215.2" y="231.7" class="st12" width="3.2" height="86.9"/>
	</g>
	<rect x="372.3" y="237" class="st4" width="42.6" height="71.2"/>
	<g>
		<path class="st11" d="M145.3,272.2c12.1-14.7,25.2,15.4,31.4,20.8c8.9,7.8,18.4,11.4,29.9,13.7c15.7,3.3,32.9,2.5,48.8,3.5
			c15.3,0.9,40.5-7.5,54.2-0.3c5.5,2.9,18-4.6,11-8.3c-15.6-8.2-31.4-2.7-48.2-1.7c-13.3,0.8-27-1.2-40.3-1.9
			c-12.6-0.6-24.9-1.3-36.4-7.2c-14.3-7.3-17.4-26.9-31.8-33.8c-12.5-6-22.6,1.2-30.6,10.9C127.6,274.9,141.1,277.3,145.3,272.2
			L145.3,272.2z"/>
	</g>
	<rect x="413.7" y="237" class="st12" width="2.3" height="65.2"/>
	<g>
		<path class="st11" d="M353.2,311.7c19.6,1.2,39.1,0.5,58.7,0.3c17.8-0.2,36.6,4.6,54.3,1.4c10.8-1.9,22.7-6.3,30-15.1
			c4.3-5.2,6.8-9.9,8.5-16.4c2.3-8.4-1.4-19.2,9.4-23c8.5-3,5.9-13.6-2.8-10.5c-8.3,3-13.7,6.2-17.8,14.1
			c-7.3,14.1-0.1,26.9-17.4,36.7c-14.5,8.2-33.4,2.3-49,1.9c-23.1-0.6-46.1,1-69.1-0.4C350.6,300.2,343.6,311.1,353.2,311.7
			L353.2,311.7z"/>
	</g>
	<g>
		<path class="st1" d="M375.7,279c1.8,5.9,5.9,8.3,11.4,10.4c8.9,3.3,16.7,5.2,21.4,14.4c7.6,14.9-19.3,18.3-28.4,18.4
			c-2.2,0-7.7,3.4-3,3.3c12.2-0.2,29.6-2.4,37.6-12.8c4.9-6.3-0.3-13.9-4.9-18.6c-7.8-7.9-23.4-5-27.1-17
			C382.2,275.1,375.1,277.1,375.7,279L375.7,279z"/>
	</g>
	<g>
		<g>
			<rect x="365.4" y="263.3" class="st9" width="14.3" height="65.8"/>
			<rect x="365.2" y="321.4" class="st1" width="14.7" height="3"/>
		</g>
		<path class="st1" d="M380.5,257.1c0,3.4-0.5,6.2-1.1,6.2h-13.7c-0.6,0-1.2-2.8-1.2-6.2l0,0c0-3.4,0.5-6.2,1.2-6.2h13.7
			C380,250.9,380.5,253.7,380.5,257.1L380.5,257.1z"/>
		<rect x="365.2" y="261.8" class="st1" width="14.7" height="3"/>
	</g>
	<g>
		<polygon class="st7" points="557,332.4 567.2,328.2 604,416.7 593.8,420.9 		"/>
		<polygon class="st2" points="558.6,347.5 576.6,340.3 580.3,349.1 562,356.8 		"/>
		<polygon class="st1" points="549.2,340.1 576.8,329.1 582.7,342.7 554.4,354.5 		"/>
		<polygon class="st21" points="495.1,207.4 520.9,195.7 581.4,339 553.1,350.8 		"/>
	</g>
	<g>
		<polygon class="st7" points="105.3,334.3 95,330 58.2,418.5 68.4,422.8 		"/>
		<polygon class="st21" points="167.1,209.2 141.3,197.6 80.8,340.8 109.1,352.6 		"/>
		<polygon class="st2" points="103.6,349.3 85.7,342.2 81.9,351 100.2,358.6 		"/>
		<polygon class="st1" points="113.1,342 85.4,330.9 79.6,344.5 107.9,356.3 		"/>
	</g>
	<g>
		<g>
			<g>
				<path class="st11" d="M357.7,347.7c0,2.4-6.3,6.1-9.3,4.3c-0.1-0.1-2.7-14.5-2.7-14.5l2.9-1.1
					C348.6,336.4,357.7,347.6,357.7,347.7z"/>
				<path class="st4" d="M349.1,349.5c-0.6,2.3-7.6,4.3-10,1.7c-0.1-0.1,1.1-14.7,1.1-14.7l3.1-0.3
					C343.3,336.2,349.1,349.4,349.1,349.5z"/>
				<path class="st11" d="M340.8,350.4c-0.9,2.2-8.1,3.2-10.2,0.3c-0.1-0.1,3.1-14.4,3.1-14.4l3.1,0.2
					C336.9,336.5,340.9,350.4,340.8,350.4z"/>
				<path class="st4" d="M333.6,350.4c-0.9,2.2-8.1,3.2-10.2,0.3c-0.1-0.1,3.1-14.4,3.1-14.4l3.1,0.2
					C329.7,336.5,333.6,350.4,333.6,350.4z"/>
				<path class="st4" d="M316.5,351.8c-1.7,1.7-8.7,0.1-9.6-3.3c0-0.1,8-12.4,8-12.4l2.9,1.2C317.7,337.3,316.5,351.7,316.5,351.8z"
					/>
				<path class="st11" d="M325.1,351.2c-1.3,2-8.6,1.6-10.1-1.5c-0.1-0.1,5.7-13.6,5.7-13.6l3.1,0.7
					C323.8,336.8,325.2,351.2,325.1,351.2z"/>
			</g>
			<rect x="309.4" y="297.4" class="st7" width="44.5" height="37.8"/>
			<path class="st7" d="M357,335.2c0,2-1.6,3.6-3.6,3.6h-42.4c-2,0-3.6-1.6-3.6-3.6l0,0c0-2,1.6-3.6,3.6-3.6h42.4
				C355.4,331.7,357,333.3,357,335.2L357,335.2z"/>
			<rect x="308.8" y="330.7" class="st1" width="45.6" height="1.7"/>
		</g>
		<path class="st7" d="M356.4,293.8c0,2-1.6,3.6-3.6,3.6h-42.4c-2,0-3.6-1.6-3.6-3.6l0,0c0-2,1.6-3.6,3.6-3.6h42.4
			C354.8,290.2,356.4,291.8,356.4,293.8L356.4,293.8z"/>
		<rect x="308.8" y="296.5" class="st1" width="45.6" height="1.7"/>
	</g>
	<rect x="376.5" y="273.8" class="st2" width="2.5" height="3.4"/>
	<rect x="376.5" y="285.3" class="st2" width="1.8" height="4"/>
	
		<rect x="498.2" y="213" transform="matrix(0.6639 -0.7479 0.7479 0.6639 13.7581 466.4594)" class="st16" width="55" height="9.8"/>
	<rect x="370.2" y="278.7" class="st2" width="2.1" height="2.5"/>
	<rect x="367" y="314.5" class="st2" width="2.1" height="3.1"/>
	<g>
		<path class="st6" d="M579.1,59.4c5-2.9,6.2,20.2,5.5,22.5c-2.4,7.8-13.4,6.6-18.7,10.3c-3.8,2.6-3.6,6.3-3.5,10.6
			c0,0.9,3.6,0.2,3.6-1c-0.2-6.9,1.4-8.7,7.6-10.5c2.7-0.8,5.7-2.2,8.1-3.8c5.4-3.7,7.2-6.5,7.2-12.9c-0.1-6.3-2.5-21.6-11.9-16.1
			C574.9,59.8,578.1,59.9,579.1,59.4L579.1,59.4z"/>
	</g>
	<polygon class="st16" points="574.9,66.4 545.8,204.1 538.3,202.5 567.3,64.8 	"/>
	<path class="st2" d="M514.1,241c0,5.4-4.4,9.9-9.9,9.9c-5.4,0-9.9-4.4-9.9-9.9c0-5.4,4.4-9.9,9.9-9.9
		C509.6,231.2,514.1,235.6,514.1,241z"/>
	<rect x="572" y="25.5" class="st10" width="4.3" height="29.5"/>
	<path class="st6" d="M549,200c0,4.1-3.3,7.4-7.4,7.4c-4.1,0-7.4-3.3-7.4-7.4c0-4.1,3.3-7.4,7.4-7.4C545.7,192.6,549,195.9,549,200z
		"/>
	<polygon class="st1" points="581.4,71.3 563,67.3 563,50.7 587,50.7 	"/>
	
		<rect x="553.8" y="66.6" transform="matrix(0.9722 0.2341 -0.2341 0.9722 32.1222 -130.96)" class="st3" width="27.7" height="6.5"/>
	<polygon class="st2" points="583.5,27.4 564.8,27.4 569.7,23.4 582.6,23.4 	"/>
	<polygon class="st22" points="568.7,99.7 568.3,101.6 560.7,100 561.1,98.1 	"/>
	<polygon class="st22" points="566.4,111.7 566,113.6 558.4,112 558.8,110.1 	"/>
	<polygon class="st22" points="561.9,133 561.5,134.9 554,133.3 554.4,131.4 	"/>
	<rect x="334.3" y="232.5" class="st16" width="3.5" height="57.7"/>
	<polygon class="st22" points="561.4,135.4 561,137.3 553.4,135.7 553.8,133.8 	"/>
	<polygon class="st22" points="561,137.7 560.6,139.6 553,138 553.4,136.1 	"/>
	<path class="st16" d="M547.3,200c0,3.1-2.5,5.7-5.7,5.7c-3.1,0-5.7-2.5-5.7-5.7c0-3.1,2.5-5.7,5.7-5.7
		C544.8,194.4,547.3,196.9,547.3,200z"/>
	<circle class="st16" cx="504.2" cy="241" r="5.7"/>
	<rect x="332.3" y="267" class="st17" width="34.7" height="8.4"/>
	<g>
		<rect x="334.3" y="269.6" class="st10" width="4.4" height="3"/>
		<path class="st1" d="M339.2,273.1h-5.3v-3.9h5.3V273.1z M334.8,272.1h3.5v-2.1h-3.5V272.1z"/>
	</g>
	<g>
		<rect x="340.8" y="269.6" class="st10" width="3.2" height="3"/>
		<path class="st1" d="M344.5,273.1h-4.1v-3.9h4.1V273.1z M341.3,272.1h2.3v-2.1h-2.3V272.1z"/>
	</g>
	<polygon class="st7" points="270.2,376.4 254,376.4 254,419.4 270.2,419.4 	"/>
	<g>
		<rect x="351.7" y="271" class="st10" width="2.3" height="1.6"/>
		<rect x="351.2" y="270.5" class="st1" width="3.2" height="2.5"/>
	</g>
	<g>
		<rect x="356.4" y="271" class="st10" width="1.2" height="1.6"/>
		<rect x="356" y="270.5" class="st1" width="2.2" height="2.5"/>
	</g>
	<polygon class="st7" points="281.2,167.4 244.3,167.4 244.1,397.9 281,397.9 	"/>
	<polygon class="st5" points="287.4,215.3 283.3,215.3 283.2,358.6 287.3,358.6 	"/>
	<polygon class="st5" points="241,216.4 236.9,216.5 236.8,358.6 240.9,358.6 	"/>
	<g>
		<g>
			<g>
				<rect x="348.8" y="199.2" class="st9" width="30.7" height="40.7"/>
				<rect x="348.4" y="235.1" class="st1" width="31.5" height="1.9"/>
			</g>
			<path class="st1" d="M381.3,195.3c0,2.1-1.1,3.9-2.5,3.9h-29.3c-1.4,0-2.5-1.7-2.5-3.9l0,0c0-2.1,1.1-3.8,2.5-3.8h29.3
				C380.2,191.5,381.3,193.2,381.3,195.3L381.3,195.3z"/>
			<rect x="348.4" y="198.2" class="st1" width="31.5" height="1.9"/>
		</g>
		<rect x="354.8" y="180.7" class="st2" width="1.9" height="3.8"/>
		<rect x="352.9" y="183.9" class="st3" width="5.7" height="10.1"/>
		<rect x="369.1" y="186.4" class="st3" width="5.1" height="10.1"/>
		<rect x="365" y="209" class="st2" width="14.5" height="1.4"/>
	</g>
	<rect x="234.2" y="198.3" class="st6" width="53.1" height="28"/>
	<rect x="276.4" y="183.8" class="st10" width="18.7" height="4"/>
	<rect x="236.8" y="172.2" class="st3" width="50.6" height="23"/>
	<rect x="234.2" y="186" class="st1" width="55.3" height="23"/>
	<polygon class="st11" points="241,179 233.9,179 233.9,226.8 241,226.8 	"/>
	<rect x="236.8" y="354.6" class="st23" width="50.6" height="10.1"/>
	<rect x="242.3" y="394.2" class="st23" width="39.6" height="7.4"/>
	<rect x="277.7" y="161.6" class="st7" width="14.3" height="24.4"/>
	<rect x="276" y="156.1" class="st10" width="17" height="7.9"/>
	<rect x="253.1" y="416.3" class="st1" width="17.7" height="13.2"/>
	<rect x="255.7" y="417.6" class="st6" width="3.3" height="3.5"/>
	<rect x="264.9" y="417.6" class="st6" width="3.3" height="3.5"/>
	<polygon class="st6" points="268.2,436.5 262.6,432.2 262.6,428.7 268.2,428.7 	"/>
	<polygon class="st6" points="255.7,436.5 261,432.2 261,428.7 255.7,428.7 	"/>
	<rect x="253.1" y="428.7" class="st6" width="17.7" height="1.8"/>
	<rect x="368.9" y="159.1" class="st7" width="2.6" height="24.4"/>
	<path class="st1" d="M249.2,115.9c-1.4,0-2.5-1.7-2.5-3.8l0,0c0-2.1,1.1-3.8,2.5-3.8l23.5,4.6"/>
	<rect x="254.5" y="97.4" class="st2" width="1.9" height="3.8"/>
	<rect x="252.6" y="100.6" class="st3" width="5.7" height="10.1"/>
	
		<rect x="158.6" y="146.7" transform="matrix(0.9976 -6.914026e-02 6.914026e-02 0.9976 -9.9035 11.7841)" class="st7" width="13.4" height="4.5"/>
	
		<rect x="159.6" y="145.5" transform="matrix(0.9967 -8.166799e-02 8.166799e-02 0.9967 -11.4499 13.6316)" class="st2" width="2.6" height="2.6"/>
	
		<rect x="167.3" y="144.9" transform="matrix(0.9967 -8.159416e-02 8.159416e-02 0.9967 -11.3711 14.2485)" class="st2" width="2.6" height="2.6"/>
	<path class="st6" d="M117.2,423.9c0,6.8-25.3,14.7-54.8,14.7c-29.5,0-51.6-8.9-51.6-15.7c0-6.8,26.2-0.5,55.8-0.5
		C96,422.5,117.2,417.1,117.2,423.9z"/>
	<path class="st10" d="M117.2,422.5c0,6.8-23.9,12.3-53.5,12.3c-29.5,0-53.5-5.5-53.5-12.3c0-6.8,24.9-3.7,54.4-3.7
		C94.2,418.8,117.2,415.7,117.2,422.5z"/>
	<path class="st6" d="M650.6,423.9c0,6.8-25.3,14.7-54.8,14.7c-29.5,0-51.6-8.9-51.6-15.7c0-6.8,26.2-0.5,55.8-0.5
		C629.4,422.5,650.6,417.1,650.6,423.9z"/>
	<path class="st10" d="M650.6,422.5c0,6.8-23.9,12.3-53.5,12.3c-29.5,0-53.5-5.5-53.5-12.3c0-6.8,24.9-3.7,54.4-3.7
		S650.6,415.7,650.6,422.5z"/>
</g>
</svg>
